<?xml version="1.0" encoding="utf-8"?>
<!-- Generator: Adobe Illustrator 26.0.1, SVG Export Plug-In . SVG Version: 6.00 Build 0)  -->
<svg version="1.1" id="Layer_1" xmlns="http://www.w3.org/2000/svg" xmlns:xlink="http://www.w3.org/1999/xlink" x="0px" y="0px"
	 width="1584px" height="613.5px" viewBox="0 0 1584 613.5" style="enable-background:new 0 0 1584 613.5;" xml:space="preserve">
<style type="text/css">
	.Graphic_x0020_Style{fill:none;stroke:#221F1F;stroke-width:4;stroke-miterlimit:10;}
	.st0{fill:#221F1F;}
	.st1{fill:#231F20;}
	.st2{fill:#8CC440;}
	.st3{fill:#007EB1;}
	.st4{fill:#FFFFFF;}
	.st5{fill:#E6E7E8;}
	.st6{fill:#0058A4;}
</style>
<g>
	<g>
		<line class="Graphic_x0020_Style" x1="465.8" y1="315.7" x2="465.8" y2="210.6"/>
		<g>
			<polygon class="st0" points="474.5,216.5 465.8,184 457.1,216.5 			"/>
		</g>
	</g>
</g>
<g>
	<g>
		<line class="Graphic_x0020_Style" x1="1133.4" y1="315.7" x2="1133.4" y2="210.6"/>
		<g>
			<polygon class="st0" points="1142.1,216.5 1133.4,184 1124.7,216.5 			"/>
		</g>
	</g>
</g>
<g>
	<path class="st1" d="M380.2,489.2h2.8v8.9h0.2l9.1-8.9h3.9l-9.9,9.5l10.6,11.1h-4.1l-9.6-10.3h-0.2v10.3h-2.8V489.2z"/>
	<path class="st1" d="M401.1,503.8c0,0.6,0.1,1.1,0.4,1.6c0.3,0.5,0.6,0.9,1,1.3c0.4,0.3,0.9,0.6,1.5,0.8c0.6,0.2,1.1,0.3,1.7,0.3
		c0.8,0,1.5-0.2,2.1-0.6c0.6-0.4,1.2-0.9,1.7-1.5l2,1.5c-1.5,1.9-3.5,2.8-6.1,2.8c-1.1,0-2.1-0.2-2.9-0.6c-0.9-0.4-1.6-0.9-2.2-1.5
		c-0.6-0.6-1.1-1.4-1.4-2.3c-0.3-0.9-0.5-1.8-0.5-2.9c0-1,0.2-2,0.5-2.9c0.4-0.9,0.9-1.6,1.5-2.3s1.4-1.2,2.2-1.5
		c0.9-0.4,1.8-0.6,2.8-0.6c1.2,0,2.2,0.2,3.1,0.6c0.8,0.4,1.5,1,2.1,1.7c0.5,0.7,0.9,1.5,1.2,2.3c0.2,0.9,0.4,1.7,0.4,2.6v0.9H401.1
		z M409.4,501.8c0-0.6-0.1-1.1-0.3-1.6c-0.2-0.5-0.4-0.9-0.7-1.3c-0.3-0.4-0.7-0.6-1.2-0.8c-0.5-0.2-1.1-0.3-1.7-0.3
		c-0.6,0-1.2,0.1-1.8,0.4s-1,0.6-1.3,0.9c-0.4,0.4-0.7,0.8-0.9,1.3c-0.2,0.5-0.3,0.9-0.3,1.4H409.4z"/>
	<path class="st1" d="M414.5,496h3l4.1,10.7h0.1l3.9-10.7h2.8l-6.5,16.7c-0.2,0.6-0.5,1.1-0.7,1.6c-0.2,0.5-0.5,0.9-0.9,1.3
		c-0.3,0.3-0.8,0.6-1.3,0.8s-1.1,0.3-1.8,0.3c-0.4,0-0.8,0-1.2-0.1c-0.4,0-0.8-0.1-1.1-0.3l0.3-2.4c0.5,0.2,1,0.3,1.6,0.3
		c0.4,0,0.7-0.1,1-0.2c0.3-0.1,0.5-0.3,0.7-0.5c0.2-0.2,0.4-0.4,0.5-0.7c0.1-0.3,0.3-0.6,0.4-0.9l0.8-2.2L414.5,496z"/>
	<path class="st1" d="M441,489.2h4.2l6.5,15.6h0.1l6.5-15.6h4.2v20.6h-2.8v-16.9h-0.1l-6.9,16.9h-1.9l-6.9-16.9h-0.1v16.9H441V489.2
		z"/>
	<path class="st1" d="M467.7,497.7c0.7-0.7,1.6-1.2,2.6-1.5c1-0.3,1.9-0.5,2.9-0.5c1,0,1.9,0.1,2.6,0.4s1.3,0.6,1.8,1s0.8,0.9,1,1.5
		c0.2,0.6,0.3,1.1,0.3,1.7v7c0,0.5,0,0.9,0,1.3c0,0.4,0,0.8,0.1,1.2h-2.3c-0.1-0.7-0.1-1.4-0.1-2.1h-0.1c-0.6,0.9-1.3,1.5-2.1,1.9
		c-0.8,0.4-1.7,0.6-2.8,0.6c-0.6,0-1.2-0.1-1.8-0.3c-0.6-0.2-1.1-0.4-1.5-0.8c-0.4-0.3-0.8-0.8-1-1.3c-0.3-0.5-0.4-1.1-0.4-1.8
		c0-0.9,0.2-1.6,0.6-2.2c0.4-0.6,0.9-1.1,1.6-1.5c0.7-0.4,1.5-0.6,2.4-0.8c0.9-0.2,1.9-0.2,2.9-0.2h1.9v-0.6c0-0.3-0.1-0.7-0.2-1
		c-0.1-0.3-0.3-0.7-0.6-0.9c-0.3-0.3-0.6-0.5-1-0.7c-0.4-0.2-0.9-0.2-1.5-0.2c-0.5,0-0.9,0-1.3,0.1s-0.7,0.2-1,0.4
		c-0.3,0.1-0.6,0.3-0.8,0.5c-0.3,0.2-0.5,0.4-0.7,0.6L467.7,497.7z M475.1,503.2c-0.6,0-1.3,0-1.9,0.1c-0.6,0.1-1.2,0.2-1.8,0.4
		c-0.5,0.2-1,0.5-1.3,0.8c-0.3,0.3-0.5,0.8-0.5,1.3c0,0.8,0.3,1.4,0.8,1.7c0.5,0.3,1.3,0.5,2.2,0.5c0.7,0,1.3-0.1,1.8-0.4
		c0.5-0.2,0.9-0.6,1.2-0.9c0.3-0.4,0.5-0.8,0.7-1.3c0.1-0.5,0.2-0.9,0.2-1.4v-0.9H475.1z"/>
	<path class="st1" d="M491,498.3h-3.7v6.2c0,0.4,0,0.8,0,1.1c0,0.4,0.1,0.7,0.2,1c0.1,0.3,0.3,0.5,0.6,0.7c0.3,0.2,0.6,0.3,1.1,0.3
		c0.3,0,0.6,0,1-0.1c0.3-0.1,0.6-0.2,0.9-0.3v2.4c-0.3,0.2-0.7,0.3-1.2,0.4c-0.5,0.1-0.9,0.1-1.1,0.1c-1,0-1.8-0.1-2.3-0.4
		c-0.6-0.3-1-0.6-1.2-1.1s-0.4-0.9-0.5-1.5c0-0.6-0.1-1.1-0.1-1.7v-7.2h-3V496h3v-3.9h2.6v3.9h3.7V498.3z"/>
	<path class="st1" d="M497.2,503.8c0,0.6,0.1,1.1,0.4,1.6c0.3,0.5,0.6,0.9,1,1.3c0.4,0.3,0.9,0.6,1.5,0.8c0.6,0.2,1.1,0.3,1.7,0.3
		c0.8,0,1.5-0.2,2.1-0.6c0.6-0.4,1.2-0.9,1.7-1.5l2,1.5c-1.5,1.9-3.5,2.8-6.1,2.8c-1.1,0-2.1-0.2-2.9-0.6c-0.9-0.4-1.6-0.9-2.2-1.5
		c-0.6-0.6-1.1-1.4-1.4-2.3c-0.3-0.9-0.5-1.8-0.5-2.9c0-1,0.2-2,0.5-2.9c0.4-0.9,0.9-1.6,1.5-2.3s1.4-1.2,2.2-1.5
		c0.9-0.4,1.8-0.6,2.8-0.6c1.2,0,2.2,0.2,3.1,0.6c0.8,0.4,1.5,1,2.1,1.7c0.5,0.7,0.9,1.5,1.2,2.3c0.2,0.9,0.4,1.7,0.4,2.6v0.9H497.2
		z M505.4,501.8c0-0.6-0.1-1.1-0.3-1.6c-0.2-0.5-0.4-0.9-0.7-1.3c-0.3-0.4-0.7-0.6-1.2-0.8c-0.5-0.2-1.1-0.3-1.7-0.3
		c-0.6,0-1.2,0.1-1.8,0.4s-1,0.6-1.3,0.9c-0.4,0.4-0.7,0.8-0.9,1.3c-0.2,0.5-0.3,0.9-0.3,1.4H505.4z"/>
	<path class="st1" d="M512.2,496h2.6v2.1h0.1c0.2-0.4,0.4-0.7,0.7-1c0.3-0.3,0.6-0.6,1-0.8c0.4-0.2,0.7-0.4,1.2-0.5s0.9-0.2,1.3-0.2
		c0.4,0,0.8,0.1,1.2,0.2l-0.1,2.8c-0.2-0.1-0.4-0.1-0.6-0.1c-0.2,0-0.4-0.1-0.6-0.1c-1.3,0-2.3,0.4-2.9,1.1s-1,1.8-1,3.3v6.9h-2.6
		V496z"/>
	<path class="st1" d="M523.4,491.1c0-0.5,0.2-1,0.6-1.3c0.4-0.4,0.8-0.6,1.4-0.6s1,0.2,1.3,0.6c0.4,0.4,0.6,0.8,0.6,1.3
		s-0.2,1-0.6,1.3c-0.4,0.4-0.8,0.6-1.3,0.6s-1-0.2-1.4-0.6C523.6,492,523.4,491.6,523.4,491.1z M524,496h2.6v13.8H524V496z"/>
	<path class="st1" d="M531.7,497.7c0.7-0.7,1.6-1.2,2.6-1.5c1-0.3,1.9-0.5,2.9-0.5c1,0,1.9,0.1,2.6,0.4s1.3,0.6,1.8,1s0.8,0.9,1,1.5
		c0.2,0.6,0.3,1.1,0.3,1.7v7c0,0.5,0,0.9,0,1.3c0,0.4,0,0.8,0.1,1.2h-2.3c-0.1-0.7-0.1-1.4-0.1-2.1h-0.1c-0.6,0.9-1.3,1.5-2.1,1.9
		c-0.8,0.4-1.7,0.6-2.8,0.6c-0.6,0-1.2-0.1-1.8-0.3c-0.6-0.2-1.1-0.4-1.5-0.8c-0.4-0.3-0.8-0.8-1-1.3c-0.3-0.5-0.4-1.1-0.4-1.8
		c0-0.9,0.2-1.6,0.6-2.2c0.4-0.6,0.9-1.1,1.6-1.5c0.7-0.4,1.5-0.6,2.4-0.8c0.9-0.2,1.9-0.2,2.9-0.2h1.9v-0.6c0-0.3-0.1-0.7-0.2-1
		c-0.1-0.3-0.3-0.7-0.6-0.9c-0.3-0.3-0.6-0.5-1-0.7c-0.4-0.2-0.9-0.2-1.5-0.2c-0.5,0-0.9,0-1.3,0.1s-0.7,0.2-1,0.4
		c-0.3,0.1-0.6,0.3-0.8,0.5c-0.3,0.2-0.5,0.4-0.7,0.6L531.7,497.7z M539.1,503.2c-0.6,0-1.3,0-1.9,0.1c-0.6,0.1-1.2,0.2-1.8,0.4
		c-0.5,0.2-1,0.5-1.3,0.8c-0.3,0.3-0.5,0.8-0.5,1.3c0,0.8,0.3,1.4,0.8,1.7c0.5,0.3,1.3,0.5,2.2,0.5c0.7,0,1.3-0.1,1.8-0.4
		c0.5-0.2,0.9-0.6,1.2-0.9c0.3-0.4,0.5-0.8,0.7-1.3c0.1-0.5,0.2-0.9,0.2-1.4v-0.9H539.1z"/>
	<path class="st1" d="M547.8,487.8h2.6v21.9h-2.6V487.8z"/>
	<path class="st1" d="M277.1,524.1h13.3v2.6h-10.5v6.1h9.8v2.6h-9.8v6.6h11v2.6h-13.8V524.1z"/>
	<path class="st1" d="M295,530.8h2.6v2.1h0.1c0.3-0.7,0.9-1.3,1.7-1.8c0.8-0.5,1.8-0.7,2.8-0.7c0.7,0,1.3,0.1,1.9,0.3
		c0.6,0.2,1.1,0.5,1.6,0.9c0.5,0.4,0.8,1,1.1,1.6c0.3,0.7,0.4,1.5,0.4,2.4v8.9h-2.6v-8.1c0-0.6-0.1-1.2-0.3-1.6
		c-0.2-0.5-0.4-0.8-0.7-1.1c-0.3-0.3-0.6-0.5-1-0.6c-0.4-0.1-0.8-0.2-1.2-0.2c-0.5,0-1,0.1-1.5,0.3c-0.5,0.2-0.9,0.4-1.2,0.8
		c-0.3,0.4-0.6,0.9-0.8,1.4c-0.2,0.6-0.3,1.3-0.3,2.1v7.1H295V530.8z"/>
	<path class="st1" d="M321.9,534.5c-0.5-0.5-1-0.9-1.5-1.1c-0.5-0.3-1.2-0.4-1.9-0.4c-0.7,0-1.3,0.1-1.9,0.4c-0.5,0.3-1,0.6-1.3,1.1
		c-0.4,0.5-0.6,1-0.8,1.6c-0.2,0.6-0.3,1.2-0.3,1.8s0.1,1.2,0.3,1.8c0.2,0.6,0.5,1.1,0.9,1.5c0.4,0.4,0.9,0.8,1.4,1
		c0.5,0.2,1.2,0.4,1.8,0.4c0.7,0,1.4-0.1,1.9-0.4c0.5-0.3,1-0.6,1.5-1.1l1.9,1.9c-0.7,0.8-1.5,1.3-2.4,1.6c-0.9,0.3-1.9,0.5-2.9,0.5
		c-1.1,0-2-0.2-2.9-0.5c-0.9-0.3-1.6-0.8-2.3-1.5s-1.1-1.4-1.5-2.3c-0.3-0.9-0.5-1.9-0.5-2.9s0.2-2,0.5-2.9c0.3-0.9,0.8-1.7,1.5-2.3
		s1.4-1.1,2.3-1.5c0.9-0.4,1.9-0.5,2.9-0.5c1,0,2,0.2,2.9,0.5c0.9,0.4,1.7,0.9,2.4,1.6L321.9,534.5z"/>
	<path class="st1" d="M326.9,530.8h2.6v2.1h0.1c0.2-0.4,0.4-0.7,0.7-1c0.3-0.3,0.6-0.6,1-0.8c0.4-0.2,0.7-0.4,1.2-0.5
		s0.9-0.2,1.3-0.2c0.4,0,0.8,0.1,1.2,0.2l-0.1,2.8c-0.2-0.1-0.4-0.1-0.6-0.1c-0.2,0-0.4-0.1-0.6-0.1c-1.3,0-2.3,0.4-2.9,1.1
		s-1,1.8-1,3.3v6.9h-2.6V530.8z"/>
	<path class="st1" d="M336.9,530.8h3l4.1,10.7h0.1l3.9-10.7h2.8l-6.5,16.7c-0.2,0.6-0.5,1.1-0.7,1.6c-0.2,0.5-0.5,0.9-0.9,1.3
		c-0.3,0.3-0.8,0.6-1.3,0.8s-1.1,0.3-1.8,0.3c-0.4,0-0.8,0-1.2-0.1c-0.4,0-0.8-0.1-1.1-0.3l0.3-2.4c0.5,0.2,1,0.3,1.6,0.3
		c0.4,0,0.7-0.1,1-0.2c0.3-0.1,0.5-0.3,0.7-0.5c0.2-0.2,0.4-0.4,0.5-0.7c0.1-0.3,0.3-0.6,0.4-0.9l0.8-2.2L336.9,530.8z"/>
	<path class="st1" d="M353.9,530.8h2.6v2h0.1c0.5-0.7,1.2-1.3,2.1-1.7c0.9-0.4,1.8-0.6,2.7-0.6c1.1,0,2,0.2,2.9,0.6
		c0.9,0.4,1.6,0.9,2.2,1.5c0.6,0.7,1.1,1.4,1.4,2.3c0.3,0.9,0.5,1.8,0.5,2.8c0,1-0.2,2-0.5,2.9c-0.3,0.9-0.8,1.6-1.4,2.3
		c-0.6,0.6-1.3,1.2-2.2,1.5c-0.9,0.4-1.8,0.6-2.9,0.6c-1,0-1.9-0.2-2.8-0.6c-0.9-0.4-1.5-1-2-1.7h-0.1v10.2h-2.6V530.8z M361,532.9
		c-0.7,0-1.3,0.1-1.9,0.4c-0.6,0.2-1,0.6-1.4,1c-0.4,0.4-0.7,0.9-0.9,1.5c-0.2,0.6-0.3,1.2-0.3,1.9c0,0.7,0.1,1.3,0.3,1.9
		c0.2,0.6,0.5,1.1,0.9,1.5s0.9,0.7,1.4,1c0.6,0.2,1.2,0.4,1.9,0.4c0.7,0,1.3-0.1,1.9-0.4c0.6-0.2,1-0.6,1.4-1s0.7-0.9,0.9-1.5
		c0.2-0.6,0.3-1.2,0.3-1.9c0-0.7-0.1-1.3-0.3-1.9c-0.2-0.6-0.5-1.1-0.9-1.5c-0.4-0.4-0.9-0.7-1.4-1S361.7,532.9,361,532.9z"/>
	<path class="st1" d="M379.9,533.1h-3.7v6.2c0,0.4,0,0.8,0,1.1c0,0.4,0.1,0.7,0.2,1c0.1,0.3,0.3,0.5,0.6,0.7
		c0.3,0.2,0.6,0.3,1.1,0.3c0.3,0,0.6,0,1-0.1c0.3-0.1,0.6-0.2,0.9-0.3v2.4c-0.3,0.2-0.7,0.3-1.2,0.4c-0.5,0.1-0.9,0.1-1.1,0.1
		c-1,0-1.8-0.1-2.3-0.4c-0.6-0.3-1-0.6-1.2-1.1s-0.4-0.9-0.5-1.5c0-0.6-0.1-1.1-0.1-1.7v-7.2h-3v-2.3h3V527h2.6v3.9h3.7V533.1z"/>
	<path class="st1" d="M383.7,525.9c0-0.5,0.2-1,0.6-1.3c0.4-0.4,0.8-0.6,1.4-0.6s1,0.2,1.3,0.6c0.4,0.4,0.6,0.8,0.6,1.3
		s-0.2,1-0.6,1.3c-0.4,0.4-0.8,0.6-1.3,0.6s-1-0.2-1.4-0.6C383.9,526.9,383.7,526.4,383.7,525.9z M384.3,530.8h2.6v13.8h-2.6V530.8z
		"/>
	<path class="st1" d="M391.3,537.7c0-1,0.2-1.9,0.6-2.8c0.4-0.9,0.9-1.6,1.6-2.3c0.7-0.7,1.4-1.2,2.3-1.6c0.9-0.4,1.8-0.6,2.9-0.6
		c1,0,2,0.2,2.9,0.6c0.9,0.4,1.7,0.9,2.3,1.6c0.7,0.7,1.2,1.4,1.6,2.3c0.4,0.9,0.6,1.8,0.6,2.8c0,1-0.2,1.9-0.6,2.8
		c-0.4,0.9-0.9,1.6-1.6,2.3c-0.7,0.6-1.4,1.2-2.3,1.5c-0.9,0.4-1.8,0.6-2.9,0.6c-1,0-2-0.2-2.9-0.6c-0.9-0.4-1.7-0.9-2.3-1.5
		c-0.7-0.6-1.2-1.4-1.6-2.3C391.5,539.7,391.3,538.7,391.3,537.7z M394.1,537.7c0,0.7,0.1,1.3,0.3,1.9c0.2,0.6,0.5,1.1,0.9,1.5
		c0.4,0.4,0.9,0.7,1.4,1c0.6,0.2,1.2,0.4,1.9,0.4s1.3-0.1,1.9-0.4c0.6-0.2,1-0.6,1.4-1c0.4-0.4,0.7-0.9,0.9-1.5
		c0.2-0.6,0.3-1.2,0.3-1.9c0-0.7-0.1-1.3-0.3-1.9c-0.2-0.6-0.5-1.1-0.9-1.5c-0.4-0.4-0.9-0.7-1.4-1c-0.6-0.2-1.2-0.4-1.9-0.4
		s-1.3,0.1-1.9,0.4c-0.6,0.2-1,0.6-1.4,1c-0.4,0.4-0.7,0.9-0.9,1.5C394.2,536.4,394.1,537,394.1,537.7z"/>
	<path class="st1" d="M410.1,530.8h2.6v2.1h0.1c0.3-0.7,0.9-1.3,1.7-1.8c0.8-0.5,1.8-0.7,2.8-0.7c0.7,0,1.3,0.1,1.9,0.3
		c0.6,0.2,1.1,0.5,1.6,0.9c0.5,0.4,0.8,1,1.1,1.6c0.3,0.7,0.4,1.5,0.4,2.4v8.9h-2.6v-8.1c0-0.6-0.1-1.2-0.3-1.6
		c-0.2-0.5-0.4-0.8-0.7-1.1c-0.3-0.3-0.6-0.5-1-0.6c-0.4-0.1-0.8-0.2-1.2-0.2c-0.5,0-1,0.1-1.5,0.3c-0.5,0.2-0.9,0.4-1.2,0.8
		c-0.3,0.4-0.6,0.9-0.8,1.4c-0.2,0.6-0.3,1.3-0.3,2.1v7.1h-2.6V530.8z"/>
	<path class="st1" d="M434.4,530.8h2.9l3.1,10.3h0.1l3.3-10.3h2.8l3.5,10.3h0.1l2.9-10.3h2.8l-4.4,13.8h-2.6l-3.6-10.3H445
		l-3.3,10.3h-2.8L434.4,530.8z"/>
	<path class="st1" d="M458.5,525.9c0-0.5,0.2-1,0.6-1.3c0.4-0.4,0.8-0.6,1.4-0.6s1,0.2,1.3,0.6c0.4,0.4,0.6,0.8,0.6,1.3
		s-0.2,1-0.6,1.3c-0.4,0.4-0.8,0.6-1.3,0.6s-1-0.2-1.4-0.6C458.7,526.9,458.5,526.4,458.5,525.9z M459.1,530.8h2.6v13.8h-2.6V530.8z
		"/>
	<path class="st1" d="M474.1,533.1h-3.7v6.2c0,0.4,0,0.8,0,1.1c0,0.4,0.1,0.7,0.2,1c0.1,0.3,0.3,0.5,0.6,0.7
		c0.3,0.2,0.6,0.3,1.1,0.3c0.3,0,0.6,0,1-0.1c0.3-0.1,0.6-0.2,0.9-0.3v2.4c-0.3,0.2-0.7,0.3-1.2,0.4c-0.5,0.1-0.9,0.1-1.1,0.1
		c-1,0-1.8-0.1-2.3-0.4c-0.6-0.3-1-0.6-1.2-1.1s-0.4-0.9-0.5-1.5c0-0.6-0.1-1.1-0.1-1.7v-7.2h-3v-2.3h3V527h2.6v3.9h3.7V533.1z"/>
	<path class="st1" d="M478.4,522.7h2.6V533h0.1c0.3-0.7,0.9-1.3,1.7-1.8c0.8-0.5,1.8-0.7,2.8-0.7c0.7,0,1.3,0.1,1.9,0.3
		c0.6,0.2,1.1,0.5,1.6,0.9c0.5,0.4,0.8,1,1.1,1.6c0.3,0.7,0.4,1.5,0.4,2.4v8.9h-2.6v-8.1c0-0.6-0.1-1.2-0.3-1.6
		c-0.2-0.5-0.4-0.8-0.7-1.1c-0.3-0.3-0.6-0.5-1-0.6c-0.4-0.1-0.8-0.2-1.2-0.2c-0.5,0-1,0.1-1.5,0.3c-0.5,0.2-0.9,0.4-1.2,0.8
		c-0.3,0.4-0.6,0.9-0.8,1.4c-0.2,0.6-0.3,1.3-0.3,2.1v7.1h-2.6V522.7z"/>
	<path class="st1" d="M505,524.1h7.2c1.3,0,2.4,0.2,3.3,0.5c0.9,0.4,1.5,0.8,2,1.4c0.5,0.6,0.8,1.2,1,1.9c0.2,0.7,0.3,1.3,0.3,2
		s-0.1,1.3-0.3,2c-0.2,0.7-0.5,1.3-1,1.9c-0.5,0.6-1.2,1-2,1.4c-0.9,0.4-1.9,0.5-3.3,0.5h-4.4v9.1H505V524.1z M507.8,533.1h3.7
		c0.5,0,1.1,0,1.6-0.1s1-0.2,1.4-0.5c0.4-0.2,0.8-0.6,1-1s0.4-1,0.4-1.7s-0.1-1.3-0.4-1.7s-0.6-0.8-1-1c-0.4-0.2-0.9-0.4-1.4-0.5
		s-1.1-0.1-1.6-0.1h-3.7V533.1z"/>
	<path class="st1" d="M534.6,544.6H532v-2.1h-0.1c-0.3,0.7-0.9,1.3-1.7,1.8c-0.8,0.5-1.8,0.7-2.8,0.7c-0.7,0-1.3-0.1-1.9-0.3
		c-0.6-0.2-1.1-0.5-1.6-0.9c-0.5-0.4-0.8-1-1.1-1.6c-0.3-0.7-0.4-1.5-0.4-2.4v-8.9h2.6v8.1c0,0.6,0.1,1.2,0.3,1.6
		c0.2,0.5,0.4,0.8,0.7,1.1c0.3,0.3,0.6,0.5,1,0.6c0.4,0.1,0.8,0.2,1.2,0.2c0.5,0,1-0.1,1.5-0.3c0.5-0.2,0.9-0.4,1.2-0.8
		c0.3-0.4,0.6-0.9,0.8-1.4c0.2-0.6,0.3-1.3,0.3-2.1v-7.1h2.6V544.6z"/>
	<path class="st1" d="M539.4,522.7h2.6v10.2h0.1c0.5-0.7,1.1-1.3,2-1.7c0.9-0.4,1.8-0.6,2.8-0.6c1.1,0,2,0.2,2.9,0.6
		c0.9,0.4,1.6,0.9,2.2,1.5c0.6,0.6,1.1,1.4,1.4,2.3s0.5,1.8,0.5,2.9c0,1-0.2,2-0.5,2.8c-0.3,0.9-0.8,1.6-1.4,2.3
		c-0.6,0.7-1.3,1.2-2.2,1.5c-0.9,0.4-1.8,0.6-2.9,0.6c-0.9,0-1.8-0.2-2.7-0.6c-0.9-0.4-1.6-1-2.1-1.7H542v2h-2.6V522.7z
		 M546.5,542.5c0.7,0,1.3-0.1,1.9-0.4c0.6-0.2,1-0.6,1.4-1s0.7-0.9,0.9-1.5c0.2-0.6,0.3-1.2,0.3-1.9c0-0.7-0.1-1.3-0.3-1.9
		c-0.2-0.6-0.5-1.1-0.9-1.5c-0.4-0.4-0.9-0.7-1.4-1s-1.2-0.4-1.9-0.4c-0.7,0-1.3,0.1-1.9,0.4c-0.6,0.2-1,0.6-1.4,1
		c-0.4,0.4-0.7,0.9-0.9,1.5c-0.2,0.6-0.3,1.2-0.3,1.9c0,0.7,0.1,1.3,0.3,1.9c0.2,0.6,0.5,1.1,0.9,1.5s0.9,0.7,1.4,1
		C545.2,542.4,545.9,542.5,546.5,542.5z"/>
	<path class="st1" d="M558.2,522.7h2.6v21.9h-2.6V522.7z"/>
	<path class="st1" d="M565.4,525.9c0-0.5,0.2-1,0.6-1.3c0.4-0.4,0.8-0.6,1.4-0.6s1,0.2,1.3,0.6c0.4,0.4,0.6,0.8,0.6,1.3
		s-0.2,1-0.6,1.3c-0.4,0.4-0.8,0.6-1.3,0.6s-1-0.2-1.4-0.6C565.6,526.9,565.4,526.4,565.4,525.9z M566.1,530.8h2.6v13.8h-2.6V530.8z
		"/>
	<path class="st1" d="M583.5,534.5c-0.5-0.5-1-0.9-1.5-1.1c-0.5-0.3-1.2-0.4-1.9-0.4c-0.7,0-1.3,0.1-1.9,0.4c-0.5,0.3-1,0.6-1.3,1.1
		c-0.4,0.5-0.6,1-0.8,1.6c-0.2,0.6-0.3,1.2-0.3,1.8s0.1,1.2,0.3,1.8c0.2,0.6,0.5,1.1,0.9,1.5c0.4,0.4,0.9,0.8,1.4,1
		c0.5,0.2,1.2,0.4,1.8,0.4c0.7,0,1.4-0.1,1.9-0.4c0.5-0.3,1-0.6,1.5-1.1l1.9,1.9c-0.7,0.8-1.5,1.3-2.4,1.6c-0.9,0.3-1.9,0.5-2.9,0.5
		c-1.1,0-2-0.2-2.9-0.5c-0.9-0.3-1.6-0.8-2.3-1.5s-1.1-1.4-1.5-2.3c-0.3-0.9-0.5-1.9-0.5-2.9s0.2-2,0.5-2.9c0.3-0.9,0.8-1.7,1.5-2.3
		s1.4-1.1,2.3-1.5c0.9-0.4,1.9-0.5,2.9-0.5c1,0,2,0.2,2.9,0.5c0.9,0.4,1.7,0.9,2.4,1.6L583.5,534.5z"/>
	<path class="st1" d="M598.2,524.1h2.8v8.9h0.2l9.1-8.9h3.9l-9.9,9.5l10.6,11.1h-4.1l-9.6-10.3h-0.2v10.3h-2.8V524.1z"/>
	<path class="st1" d="M619.1,538.7c0,0.6,0.1,1.1,0.4,1.6c0.3,0.5,0.6,0.9,1,1.3c0.4,0.3,0.9,0.6,1.5,0.8c0.6,0.2,1.1,0.3,1.7,0.3
		c0.8,0,1.5-0.2,2.1-0.6c0.6-0.4,1.2-0.9,1.7-1.5l2,1.5c-1.5,1.9-3.5,2.8-6.1,2.8c-1.1,0-2.1-0.2-2.9-0.6c-0.9-0.4-1.6-0.9-2.2-1.5
		c-0.6-0.6-1.1-1.4-1.4-2.3c-0.3-0.9-0.5-1.8-0.5-2.9c0-1,0.2-2,0.5-2.9c0.4-0.9,0.9-1.6,1.5-2.3s1.4-1.2,2.2-1.5
		c0.9-0.4,1.8-0.6,2.8-0.6c1.2,0,2.2,0.2,3.1,0.6c0.8,0.4,1.5,1,2.1,1.7c0.5,0.7,0.9,1.5,1.2,2.3c0.2,0.9,0.4,1.7,0.4,2.6v0.9H619.1
		z M627.4,536.6c0-0.6-0.1-1.1-0.3-1.6c-0.2-0.5-0.4-0.9-0.7-1.3c-0.3-0.4-0.7-0.6-1.2-0.8c-0.5-0.2-1.1-0.3-1.7-0.3
		c-0.6,0-1.2,0.1-1.8,0.4s-1,0.6-1.3,0.9c-0.4,0.4-0.7,0.8-0.9,1.3c-0.2,0.5-0.3,0.9-0.3,1.4H627.4z"/>
	<path class="st1" d="M632.6,530.8h3l4.1,10.7h0.1l3.9-10.7h2.8l-6.5,16.7c-0.2,0.6-0.5,1.1-0.7,1.6c-0.2,0.5-0.5,0.9-0.9,1.3
		c-0.3,0.3-0.8,0.6-1.3,0.8s-1.1,0.3-1.8,0.3c-0.4,0-0.8,0-1.2-0.1c-0.4,0-0.8-0.1-1.1-0.3l0.3-2.4c0.5,0.2,1,0.3,1.6,0.3
		c0.4,0,0.7-0.1,1-0.2c0.3-0.1,0.5-0.3,0.7-0.5c0.2-0.2,0.4-0.4,0.5-0.7c0.1-0.3,0.3-0.6,0.4-0.9l0.8-2.2L632.6,530.8z"/>
	<path class="st1" d="M388.3,572.6c0-1,0.2-1.9,0.6-2.8c0.4-0.9,0.9-1.6,1.6-2.3c0.7-0.7,1.4-1.2,2.3-1.6c0.9-0.4,1.8-0.6,2.9-0.6
		c1,0,2,0.2,2.9,0.6c0.9,0.4,1.7,0.9,2.3,1.6c0.7,0.7,1.2,1.4,1.6,2.3c0.4,0.9,0.6,1.8,0.6,2.8c0,1-0.2,1.9-0.6,2.8
		c-0.4,0.9-0.9,1.6-1.6,2.3c-0.7,0.6-1.4,1.2-2.3,1.5c-0.9,0.4-1.8,0.6-2.9,0.6c-1,0-2-0.2-2.9-0.6c-0.9-0.4-1.7-0.9-2.3-1.5
		c-0.7-0.6-1.2-1.4-1.6-2.3C388.5,574.5,388.3,573.6,388.3,572.6z M391.1,572.6c0,0.7,0.1,1.3,0.3,1.9c0.2,0.6,0.5,1.1,0.9,1.5
		c0.4,0.4,0.9,0.7,1.4,1c0.6,0.2,1.2,0.4,1.9,0.4s1.3-0.1,1.9-0.4c0.6-0.2,1-0.6,1.4-1c0.4-0.4,0.7-0.9,0.9-1.5
		c0.2-0.6,0.3-1.2,0.3-1.9c0-0.7-0.1-1.3-0.3-1.9c-0.2-0.6-0.5-1.1-0.9-1.5c-0.4-0.4-0.9-0.7-1.4-1c-0.6-0.2-1.2-0.4-1.9-0.4
		s-1.3,0.1-1.9,0.4c-0.6,0.2-1,0.6-1.4,1c-0.4,0.4-0.7,0.9-0.9,1.5C391.2,571.2,391.1,571.9,391.1,572.6z"/>
	<path class="st1" d="M408.1,567.9h-3v-2.3h3v-3.1c0-1.8,0.4-3.2,1.1-4.1c0.7-0.9,1.9-1.3,3.6-1.3c0.3,0,0.6,0,0.9,0
		c0.3,0,0.7,0.1,1,0.2l-0.3,2.3c-0.3-0.1-0.5-0.2-0.7-0.2c-0.2,0-0.5-0.1-0.8-0.1c-0.5,0-0.9,0.1-1.2,0.2c-0.3,0.1-0.5,0.4-0.7,0.6
		c-0.2,0.3-0.3,0.6-0.3,1c0,0.4-0.1,0.8-0.1,1.3v3.2h3.1v2.3h-3.1v11.5h-2.6V567.9z"/>
	<path class="st1" d="M427.3,558.9h7.2c1.3,0,2.4,0.2,3.3,0.5c0.9,0.4,1.5,0.8,2,1.4c0.5,0.6,0.8,1.2,1,1.9c0.2,0.7,0.3,1.3,0.3,2
		c0,0.7-0.1,1.3-0.3,1.9c-0.2,0.6-0.6,1.2-1,1.7c-0.4,0.5-1,0.9-1.6,1.2c-0.6,0.3-1.3,0.5-2.1,0.6l5.8,9.4h-3.5l-5.2-9.1H430v9.1
		h-2.8V558.9z M430,567.9h3.7c0.5,0,1.1,0,1.6-0.1s1-0.2,1.4-0.5c0.4-0.2,0.8-0.6,1-1s0.4-1,0.4-1.7s-0.1-1.3-0.4-1.7s-0.6-0.8-1-1
		c-0.4-0.2-0.9-0.4-1.4-0.5s-1.1-0.1-1.6-0.1H430V567.9z"/>
	<path class="st1" d="M447.2,573.5c0,0.6,0.1,1.1,0.4,1.6c0.3,0.5,0.6,0.9,1,1.3c0.4,0.3,0.9,0.6,1.5,0.8c0.6,0.2,1.1,0.3,1.7,0.3
		c0.8,0,1.5-0.2,2.1-0.6c0.6-0.4,1.2-0.9,1.7-1.5l2,1.5c-1.5,1.9-3.5,2.8-6.1,2.8c-1.1,0-2.1-0.2-2.9-0.6c-0.9-0.4-1.6-0.9-2.2-1.5
		c-0.6-0.6-1.1-1.4-1.4-2.3c-0.3-0.9-0.5-1.8-0.5-2.9c0-1,0.2-2,0.5-2.9c0.4-0.9,0.9-1.6,1.5-2.3s1.4-1.2,2.2-1.5
		c0.9-0.4,1.8-0.6,2.8-0.6c1.2,0,2.2,0.2,3.1,0.6c0.8,0.4,1.5,1,2.1,1.7c0.5,0.7,0.9,1.5,1.2,2.3c0.2,0.9,0.4,1.7,0.4,2.6v0.9H447.2
		z M455.4,571.4c0-0.6-0.1-1.1-0.3-1.6c-0.2-0.5-0.4-0.9-0.7-1.3c-0.3-0.4-0.7-0.6-1.2-0.8c-0.5-0.2-1.1-0.3-1.7-0.3
		c-0.6,0-1.2,0.1-1.8,0.4s-1,0.6-1.3,0.9c-0.4,0.4-0.7,0.8-0.9,1.3c-0.2,0.5-0.3,0.9-0.3,1.4H455.4z"/>
	<path class="st1" d="M472.1,569.3c-0.5-0.5-1-0.9-1.5-1.1c-0.5-0.3-1.2-0.4-1.9-0.4c-0.7,0-1.3,0.1-1.9,0.4c-0.5,0.3-1,0.6-1.3,1.1
		c-0.4,0.5-0.6,1-0.8,1.6c-0.2,0.6-0.3,1.2-0.3,1.8s0.1,1.2,0.3,1.8c0.2,0.6,0.5,1.1,0.9,1.5c0.4,0.4,0.9,0.8,1.4,1
		c0.5,0.2,1.2,0.4,1.8,0.4c0.7,0,1.4-0.1,1.9-0.4c0.5-0.3,1-0.6,1.5-1.1l1.9,1.9c-0.7,0.8-1.5,1.3-2.4,1.6c-0.9,0.3-1.9,0.5-2.9,0.5
		c-1.1,0-2-0.2-2.9-0.5c-0.9-0.3-1.6-0.8-2.3-1.5s-1.1-1.4-1.5-2.3c-0.3-0.9-0.5-1.9-0.5-2.9s0.2-2,0.5-2.9c0.3-0.9,0.8-1.7,1.5-2.3
		s1.4-1.1,2.3-1.5c0.9-0.4,1.9-0.5,2.9-0.5c1,0,2,0.2,2.9,0.5c0.9,0.4,1.7,0.9,2.4,1.6L472.1,569.3z"/>
	<path class="st1" d="M479,573.5c0,0.6,0.1,1.1,0.4,1.6c0.3,0.5,0.6,0.9,1,1.3c0.4,0.3,0.9,0.6,1.5,0.8c0.6,0.2,1.1,0.3,1.7,0.3
		c0.8,0,1.5-0.2,2.1-0.6c0.6-0.4,1.2-0.9,1.7-1.5l2,1.5c-1.5,1.9-3.5,2.8-6.1,2.8c-1.1,0-2.1-0.2-2.9-0.6c-0.9-0.4-1.6-0.9-2.2-1.5
		c-0.6-0.6-1.1-1.4-1.4-2.3c-0.3-0.9-0.5-1.8-0.5-2.9c0-1,0.2-2,0.5-2.9c0.4-0.9,0.9-1.6,1.5-2.3s1.4-1.2,2.2-1.5
		c0.9-0.4,1.8-0.6,2.8-0.6c1.2,0,2.2,0.2,3.1,0.6c0.8,0.4,1.5,1,2.1,1.7c0.5,0.7,0.9,1.5,1.2,2.3c0.2,0.9,0.4,1.7,0.4,2.6v0.9H479z
		 M487.3,571.4c0-0.6-0.1-1.1-0.3-1.6c-0.2-0.5-0.4-0.9-0.7-1.3c-0.3-0.4-0.7-0.6-1.2-0.8c-0.5-0.2-1.1-0.3-1.7-0.3
		c-0.6,0-1.2,0.1-1.8,0.4s-1,0.6-1.3,0.9c-0.4,0.4-0.7,0.8-0.9,1.3c-0.2,0.5-0.3,0.9-0.3,1.4H487.3z"/>
	<path class="st1" d="M493.7,560.7c0-0.5,0.2-1,0.6-1.3c0.4-0.4,0.8-0.6,1.4-0.6s1,0.2,1.3,0.6c0.4,0.4,0.6,0.8,0.6,1.3
		s-0.2,1-0.6,1.3c-0.4,0.4-0.8,0.6-1.3,0.6s-1-0.2-1.4-0.6C493.9,561.7,493.7,561.3,493.7,560.7z M494.3,565.7h2.6v13.8h-2.6V565.7z
		"/>
	<path class="st1" d="M500.3,565.7h3l4.1,10.5l3.9-10.5h2.8l-5.4,13.8h-2.9L500.3,565.7z"/>
	<path class="st1" d="M519.3,573.5c0,0.6,0.1,1.1,0.4,1.6c0.3,0.5,0.6,0.9,1,1.3c0.4,0.3,0.9,0.6,1.5,0.8c0.6,0.2,1.1,0.3,1.7,0.3
		c0.8,0,1.5-0.2,2.1-0.6c0.6-0.4,1.2-0.9,1.7-1.5l2,1.5c-1.5,1.9-3.5,2.8-6.1,2.8c-1.1,0-2.1-0.2-2.9-0.6c-0.9-0.4-1.6-0.9-2.2-1.5
		c-0.6-0.6-1.1-1.4-1.4-2.3c-0.3-0.9-0.5-1.8-0.5-2.9c0-1,0.2-2,0.5-2.9c0.4-0.9,0.9-1.6,1.5-2.3s1.4-1.2,2.2-1.5
		c0.9-0.4,1.8-0.6,2.8-0.6c1.2,0,2.2,0.2,3.1,0.6c0.8,0.4,1.5,1,2.1,1.7c0.5,0.7,0.9,1.5,1.2,2.3c0.2,0.9,0.4,1.7,0.4,2.6v0.9H519.3
		z M527.5,571.4c0-0.6-0.1-1.1-0.3-1.6c-0.2-0.5-0.4-0.9-0.7-1.3c-0.3-0.4-0.7-0.6-1.2-0.8c-0.5-0.2-1.1-0.3-1.7-0.3
		c-0.6,0-1.2,0.1-1.8,0.4s-1,0.6-1.3,0.9c-0.4,0.4-0.7,0.8-0.9,1.3c-0.2,0.5-0.3,0.9-0.3,1.4H527.5z"/>
	<path class="st1" d="M534.3,565.7h2.6v2.1h0.1c0.2-0.4,0.4-0.7,0.7-1c0.3-0.3,0.6-0.6,1-0.8c0.4-0.2,0.7-0.4,1.2-0.5
		s0.9-0.2,1.3-0.2c0.4,0,0.8,0.1,1.2,0.2l-0.1,2.8c-0.2-0.1-0.4-0.1-0.6-0.1c-0.2,0-0.4-0.1-0.6-0.1c-1.3,0-2.3,0.4-2.9,1.1
		s-1,1.8-1,3.3v6.9h-2.6V565.7z"/>
</g>
<g>
	<path class="st1" d="M1049,489.2h2.8v8.9h0.2l9.1-8.9h3.9l-9.9,9.5l10.6,11.1h-4.1l-9.6-10.3h-0.2v10.3h-2.8V489.2z"/>
	<path class="st1" d="M1070,503.8c0,0.6,0.1,1.1,0.4,1.6c0.3,0.5,0.6,0.9,1,1.3c0.4,0.3,0.9,0.6,1.5,0.8c0.6,0.2,1.1,0.3,1.7,0.3
		c0.8,0,1.5-0.2,2.1-0.6c0.6-0.4,1.2-0.9,1.7-1.5l2,1.5c-1.5,1.9-3.5,2.8-6.1,2.8c-1.1,0-2.1-0.2-2.9-0.6c-0.9-0.4-1.6-0.9-2.2-1.5
		c-0.6-0.6-1.1-1.4-1.4-2.3c-0.3-0.9-0.5-1.8-0.5-2.9c0-1,0.2-2,0.5-2.9c0.4-0.9,0.9-1.6,1.5-2.3c0.6-0.6,1.4-1.2,2.2-1.5
		c0.9-0.4,1.8-0.6,2.8-0.6c1.2,0,2.2,0.2,3.1,0.6c0.8,0.4,1.5,1,2.1,1.7c0.5,0.7,0.9,1.5,1.2,2.3c0.2,0.9,0.4,1.7,0.4,2.6v0.9H1070z
		 M1078.2,501.8c0-0.6-0.1-1.1-0.3-1.6c-0.2-0.5-0.4-0.9-0.7-1.3c-0.3-0.4-0.7-0.6-1.2-0.8c-0.5-0.2-1.1-0.3-1.7-0.3
		c-0.6,0-1.2,0.1-1.8,0.4s-1,0.6-1.3,0.9c-0.4,0.4-0.7,0.8-0.9,1.3c-0.2,0.5-0.3,0.9-0.3,1.4H1078.2z"/>
	<path class="st1" d="M1083.4,496h3l4.1,10.7h0.1l3.9-10.7h2.8l-6.5,16.7c-0.2,0.6-0.5,1.1-0.7,1.6c-0.3,0.5-0.5,0.9-0.9,1.3
		s-0.8,0.6-1.3,0.8c-0.5,0.2-1.1,0.3-1.8,0.3c-0.4,0-0.8,0-1.2-0.1c-0.4,0-0.8-0.1-1.1-0.3l0.3-2.4c0.5,0.2,1,0.3,1.6,0.3
		c0.4,0,0.7-0.1,1-0.2c0.3-0.1,0.5-0.3,0.7-0.5s0.4-0.4,0.5-0.7c0.1-0.3,0.3-0.6,0.4-0.9l0.8-2.2L1083.4,496z"/>
	<path class="st1" d="M1109.8,489.2h4.2l6.5,15.6h0.1l6.5-15.6h4.2v20.6h-2.8v-16.9h-0.1l-6.9,16.9h-1.9l-6.9-16.9h-0.1v16.9h-2.8
		V489.2z"/>
	<path class="st1" d="M1136.6,497.7c0.7-0.7,1.6-1.2,2.6-1.5c1-0.3,1.9-0.5,2.9-0.5c1,0,1.9,0.1,2.6,0.4s1.3,0.6,1.8,1
		s0.8,0.9,1,1.5s0.3,1.1,0.3,1.7v7c0,0.5,0,0.9,0,1.3c0,0.4,0,0.8,0.1,1.2h-2.3c-0.1-0.7-0.1-1.4-0.1-2.1h-0.1
		c-0.6,0.9-1.3,1.5-2.1,1.9c-0.8,0.4-1.7,0.6-2.8,0.6c-0.6,0-1.2-0.1-1.8-0.3c-0.6-0.2-1.1-0.4-1.5-0.8c-0.4-0.3-0.8-0.8-1-1.3
		c-0.3-0.5-0.4-1.1-0.4-1.8c0-0.9,0.2-1.6,0.6-2.2c0.4-0.6,0.9-1.1,1.6-1.5c0.7-0.4,1.5-0.6,2.4-0.8c0.9-0.2,1.9-0.2,2.9-0.2h1.9
		v-0.6c0-0.3-0.1-0.7-0.2-1c-0.1-0.3-0.3-0.7-0.6-0.9c-0.3-0.3-0.6-0.5-1-0.7c-0.4-0.2-0.9-0.2-1.5-0.2c-0.5,0-0.9,0-1.3,0.1
		s-0.7,0.2-1,0.4c-0.3,0.1-0.6,0.3-0.8,0.5c-0.3,0.2-0.5,0.4-0.7,0.6L1136.6,497.7z M1143.9,503.2c-0.6,0-1.3,0-1.9,0.1
		c-0.6,0.1-1.2,0.2-1.8,0.4c-0.5,0.2-1,0.5-1.3,0.8c-0.3,0.3-0.5,0.8-0.5,1.3c0,0.8,0.3,1.4,0.8,1.7c0.5,0.3,1.3,0.5,2.2,0.5
		c0.7,0,1.3-0.1,1.8-0.4s0.9-0.6,1.2-0.9c0.3-0.4,0.5-0.8,0.7-1.3c0.1-0.5,0.2-0.9,0.2-1.4v-0.9H1143.9z"/>
	<path class="st1" d="M1159.8,498.3h-3.7v6.2c0,0.4,0,0.8,0,1.1c0,0.4,0.1,0.7,0.2,1c0.1,0.3,0.3,0.5,0.6,0.7
		c0.3,0.2,0.6,0.3,1.1,0.3c0.3,0,0.6,0,1-0.1c0.3-0.1,0.6-0.2,0.9-0.3v2.4c-0.3,0.2-0.7,0.3-1.2,0.4c-0.5,0.1-0.9,0.1-1.1,0.1
		c-1,0-1.8-0.1-2.3-0.4s-1-0.6-1.2-1.1c-0.3-0.4-0.4-0.9-0.5-1.5c0-0.6-0.1-1.1-0.1-1.7v-7.2h-3V496h3v-3.9h2.6v3.9h3.7V498.3z"/>
	<path class="st1" d="M1166,503.8c0,0.6,0.1,1.1,0.4,1.6c0.3,0.5,0.6,0.9,1,1.3c0.4,0.3,0.9,0.6,1.5,0.8c0.6,0.2,1.1,0.3,1.7,0.3
		c0.8,0,1.5-0.2,2.1-0.6c0.6-0.4,1.2-0.9,1.7-1.5l2,1.5c-1.5,1.9-3.5,2.8-6.1,2.8c-1.1,0-2.1-0.2-2.9-0.6c-0.9-0.4-1.6-0.9-2.2-1.5
		c-0.6-0.6-1.1-1.4-1.4-2.3c-0.3-0.9-0.5-1.8-0.5-2.9c0-1,0.2-2,0.5-2.9c0.4-0.9,0.9-1.6,1.5-2.3c0.6-0.6,1.4-1.2,2.2-1.5
		c0.9-0.4,1.8-0.6,2.8-0.6c1.2,0,2.2,0.2,3.1,0.6c0.8,0.4,1.5,1,2.1,1.7c0.5,0.7,0.9,1.5,1.2,2.3c0.2,0.9,0.4,1.7,0.4,2.6v0.9H1166z
		 M1174.3,501.8c0-0.6-0.1-1.1-0.3-1.6c-0.2-0.5-0.4-0.9-0.7-1.3c-0.3-0.4-0.7-0.6-1.2-0.8c-0.5-0.2-1.1-0.3-1.7-0.3
		c-0.6,0-1.2,0.1-1.8,0.4s-1,0.6-1.3,0.9c-0.4,0.4-0.7,0.8-0.9,1.3c-0.2,0.5-0.3,0.9-0.3,1.4H1174.3z"/>
	<path class="st1" d="M1181.1,496h2.6v2.1h0.1c0.2-0.4,0.4-0.7,0.7-1c0.3-0.3,0.6-0.6,1-0.8c0.4-0.2,0.8-0.4,1.2-0.5
		c0.4-0.1,0.9-0.2,1.3-0.2c0.4,0,0.8,0.1,1.2,0.2l-0.1,2.8c-0.2-0.1-0.4-0.1-0.6-0.1c-0.2,0-0.4-0.1-0.6-0.1c-1.3,0-2.3,0.4-2.9,1.1
		c-0.7,0.7-1,1.8-1,3.3v6.9h-2.6V496z"/>
	<path class="st1" d="M1192.3,491.1c0-0.5,0.2-1,0.6-1.3c0.4-0.4,0.8-0.6,1.3-0.6s1,0.2,1.3,0.6c0.4,0.4,0.6,0.8,0.6,1.3
		s-0.2,1-0.6,1.3c-0.4,0.4-0.8,0.6-1.3,0.6s-1-0.2-1.3-0.6C1192.5,492,1192.3,491.6,1192.3,491.1z M1192.9,496h2.6v13.8h-2.6V496z"
		/>
	<path class="st1" d="M1200.6,497.7c0.7-0.7,1.6-1.2,2.6-1.5c1-0.3,1.9-0.5,2.9-0.5c1,0,1.9,0.1,2.6,0.4s1.3,0.6,1.8,1
		s0.8,0.9,1,1.5s0.3,1.1,0.3,1.7v7c0,0.5,0,0.9,0,1.3c0,0.4,0,0.8,0.1,1.2h-2.3c-0.1-0.7-0.1-1.4-0.1-2.1h-0.1
		c-0.6,0.9-1.3,1.5-2.1,1.9c-0.8,0.4-1.7,0.6-2.8,0.6c-0.6,0-1.2-0.1-1.8-0.3c-0.6-0.2-1.1-0.4-1.5-0.8c-0.4-0.3-0.8-0.8-1-1.3
		c-0.3-0.5-0.4-1.1-0.4-1.8c0-0.9,0.2-1.6,0.6-2.2c0.4-0.6,0.9-1.1,1.6-1.5c0.7-0.4,1.5-0.6,2.4-0.8c0.9-0.2,1.9-0.2,2.9-0.2h1.9
		v-0.6c0-0.3-0.1-0.7-0.2-1c-0.1-0.3-0.3-0.7-0.6-0.9c-0.3-0.3-0.6-0.5-1-0.7c-0.4-0.2-0.9-0.2-1.5-0.2c-0.5,0-0.9,0-1.3,0.1
		s-0.7,0.2-1,0.4c-0.3,0.1-0.6,0.3-0.8,0.5c-0.3,0.2-0.5,0.4-0.7,0.6L1200.6,497.7z M1207.9,503.2c-0.6,0-1.3,0-1.9,0.1
		c-0.6,0.1-1.2,0.2-1.8,0.4c-0.5,0.2-1,0.5-1.3,0.8c-0.3,0.3-0.5,0.8-0.5,1.3c0,0.8,0.3,1.4,0.8,1.7c0.5,0.3,1.3,0.5,2.2,0.5
		c0.7,0,1.3-0.1,1.8-0.4s0.9-0.6,1.2-0.9c0.3-0.4,0.5-0.8,0.7-1.3c0.1-0.5,0.2-0.9,0.2-1.4v-0.9H1207.9z"/>
	<path class="st1" d="M1216.6,487.8h2.6v21.9h-2.6V487.8z"/>
	<path class="st1" d="M937,524.1h7.2c1.5,0,2.7,0.2,3.8,0.5c1.1,0.3,2,0.8,2.8,1.3c0.8,0.6,1.5,1.2,2,1.9c0.5,0.7,1,1.5,1.3,2.2
		c0.3,0.8,0.5,1.5,0.7,2.3c0.1,0.8,0.2,1.5,0.2,2.1c0,1.3-0.2,2.6-0.7,3.8c-0.5,1.2-1.2,2.3-2.1,3.3c-0.9,1-2.1,1.7-3.5,2.3
		c-1.4,0.6-3,0.9-4.9,0.9H937V524.1z M939.7,542h3.5c1.2,0,2.3-0.2,3.4-0.5s2-0.8,2.8-1.4c0.8-0.6,1.4-1.4,1.9-2.4s0.7-2.1,0.7-3.4
		c0-0.7-0.1-1.4-0.3-2.3s-0.6-1.7-1.2-2.5c-0.6-0.8-1.4-1.5-2.5-2s-2.4-0.8-4.1-0.8h-4.2V542z"/>
	<path class="st1" d="M961.1,538.7c0,0.6,0.1,1.1,0.4,1.6c0.3,0.5,0.6,0.9,1,1.3c0.4,0.3,0.9,0.6,1.5,0.8c0.6,0.2,1.1,0.3,1.7,0.3
		c0.8,0,1.5-0.2,2.1-0.6c0.6-0.4,1.2-0.9,1.7-1.5l2,1.5c-1.5,1.9-3.5,2.8-6.1,2.8c-1.1,0-2.1-0.2-2.9-0.6c-0.9-0.4-1.6-0.9-2.2-1.5
		c-0.6-0.6-1.1-1.4-1.4-2.3c-0.3-0.9-0.5-1.8-0.5-2.9c0-1,0.2-2,0.5-2.9c0.4-0.9,0.9-1.6,1.5-2.3c0.6-0.6,1.4-1.2,2.2-1.5
		c0.9-0.4,1.8-0.6,2.8-0.6c1.2,0,2.2,0.2,3.1,0.6c0.8,0.4,1.5,1,2.1,1.7c0.5,0.7,0.9,1.5,1.2,2.3c0.2,0.9,0.4,1.7,0.4,2.6v0.9H961.1
		z M969.4,536.6c0-0.6-0.1-1.1-0.3-1.6c-0.2-0.5-0.4-0.9-0.7-1.3c-0.3-0.4-0.7-0.6-1.2-0.8c-0.5-0.2-1.1-0.3-1.7-0.3
		c-0.6,0-1.2,0.1-1.8,0.4s-1,0.6-1.3,0.9c-0.4,0.4-0.7,0.8-0.9,1.3c-0.2,0.5-0.3,0.9-0.3,1.4H969.4z"/>
	<path class="st1" d="M986,534.5c-0.5-0.5-1-0.9-1.5-1.1c-0.5-0.3-1.2-0.4-1.9-0.4c-0.7,0-1.3,0.1-1.9,0.4c-0.5,0.3-1,0.6-1.3,1.1
		c-0.4,0.5-0.6,1-0.8,1.6c-0.2,0.6-0.3,1.2-0.3,1.8s0.1,1.2,0.3,1.8c0.2,0.6,0.5,1.1,0.9,1.5c0.4,0.4,0.9,0.8,1.4,1
		c0.5,0.2,1.2,0.4,1.8,0.4c0.7,0,1.4-0.1,1.9-0.4c0.5-0.3,1-0.6,1.5-1.1l1.9,1.9c-0.7,0.8-1.5,1.3-2.4,1.6c-0.9,0.3-1.9,0.5-2.9,0.5
		c-1.1,0-2-0.2-2.9-0.5c-0.9-0.3-1.6-0.8-2.3-1.5c-0.6-0.6-1.1-1.4-1.5-2.3c-0.3-0.9-0.5-1.9-0.5-2.9s0.2-2,0.5-2.9
		c0.3-0.9,0.8-1.7,1.5-2.3c0.6-0.6,1.4-1.1,2.3-1.5c0.9-0.4,1.9-0.5,2.9-0.5c1,0,2,0.2,2.9,0.5c0.9,0.4,1.7,0.9,2.4,1.6L986,534.5z"
		/>
	<path class="st1" d="M991,530.8h2.6v2.1h0.1c0.2-0.4,0.4-0.7,0.7-1c0.3-0.3,0.6-0.6,1-0.8c0.4-0.2,0.8-0.4,1.2-0.5
		c0.4-0.1,0.9-0.2,1.3-0.2c0.4,0,0.8,0.1,1.2,0.2l-0.1,2.8c-0.2-0.1-0.4-0.1-0.6-0.1c-0.2,0-0.4-0.1-0.6-0.1c-1.3,0-2.3,0.4-2.9,1.1
		c-0.7,0.7-1,1.8-1,3.3v6.9H991V530.8z"/>
	<path class="st1" d="M1001,530.8h3l4.1,10.7h0.1l3.9-10.7h2.8l-6.5,16.7c-0.2,0.6-0.5,1.1-0.7,1.6c-0.3,0.5-0.5,0.9-0.9,1.3
		s-0.8,0.6-1.3,0.8c-0.5,0.2-1.1,0.3-1.8,0.3c-0.4,0-0.8,0-1.2-0.1c-0.4,0-0.8-0.1-1.1-0.3l0.3-2.4c0.5,0.2,1,0.3,1.6,0.3
		c0.4,0,0.7-0.1,1-0.2c0.3-0.1,0.5-0.3,0.7-0.5s0.4-0.4,0.5-0.7c0.1-0.3,0.3-0.6,0.4-0.9l0.8-2.2L1001,530.8z"/>
	<path class="st1" d="M1018,530.8h2.6v2h0.1c0.5-0.7,1.2-1.3,2.1-1.7c0.9-0.4,1.8-0.6,2.7-0.6c1.1,0,2,0.2,2.9,0.6
		c0.9,0.4,1.6,0.9,2.2,1.5c0.6,0.7,1.1,1.4,1.4,2.3c0.3,0.9,0.5,1.8,0.5,2.8c0,1-0.2,2-0.5,2.9c-0.3,0.9-0.8,1.6-1.4,2.3
		c-0.6,0.6-1.3,1.2-2.2,1.5c-0.9,0.4-1.8,0.6-2.9,0.6c-1,0-1.9-0.2-2.8-0.6c-0.9-0.4-1.5-1-2-1.7h-0.1v10.2h-2.6V530.8z
		 M1025.1,532.9c-0.7,0-1.3,0.1-1.9,0.4s-1,0.6-1.4,1c-0.4,0.4-0.7,0.9-0.9,1.5c-0.2,0.6-0.3,1.2-0.3,1.9c0,0.7,0.1,1.3,0.3,1.9
		c0.2,0.6,0.5,1.1,0.9,1.5c0.4,0.4,0.9,0.7,1.4,1c0.6,0.2,1.2,0.4,1.9,0.4c0.7,0,1.3-0.1,1.9-0.4c0.6-0.2,1-0.6,1.4-1
		c0.4-0.4,0.7-0.9,0.9-1.5c0.2-0.6,0.3-1.2,0.3-1.9c0-0.7-0.1-1.3-0.3-1.9c-0.2-0.6-0.5-1.1-0.9-1.5c-0.4-0.4-0.9-0.7-1.4-1
		S1025.8,532.9,1025.1,532.9z"/>
	<path class="st1" d="M1044,533.1h-3.7v6.2c0,0.4,0,0.8,0,1.1c0,0.4,0.1,0.7,0.2,1c0.1,0.3,0.3,0.5,0.6,0.7c0.3,0.2,0.6,0.3,1.1,0.3
		c0.3,0,0.6,0,1-0.1c0.3-0.1,0.6-0.2,0.9-0.3v2.4c-0.3,0.2-0.7,0.3-1.2,0.4c-0.5,0.1-0.9,0.1-1.1,0.1c-1,0-1.8-0.1-2.3-0.4
		s-1-0.6-1.2-1.1c-0.3-0.4-0.4-0.9-0.5-1.5c0-0.6-0.1-1.1-0.1-1.7v-7.2h-3v-2.3h3V527h2.6v3.9h3.7V533.1z"/>
	<path class="st1" d="M1047.8,525.9c0-0.5,0.2-1,0.6-1.3c0.4-0.4,0.8-0.6,1.3-0.6s1,0.2,1.3,0.6c0.4,0.4,0.6,0.8,0.6,1.3
		s-0.2,1-0.6,1.3c-0.4,0.4-0.8,0.6-1.3,0.6s-1-0.2-1.3-0.6C1048,526.9,1047.8,526.4,1047.8,525.9z M1048.4,530.8h2.6v13.8h-2.6
		V530.8z"/>
	<path class="st1" d="M1055.4,537.7c0-1,0.2-1.9,0.6-2.8c0.4-0.9,0.9-1.6,1.6-2.3c0.7-0.7,1.4-1.2,2.3-1.6s1.8-0.6,2.9-0.6
		c1,0,2,0.2,2.9,0.6c0.9,0.4,1.7,0.9,2.3,1.6c0.7,0.7,1.2,1.4,1.6,2.3c0.4,0.9,0.6,1.8,0.6,2.8c0,1-0.2,1.9-0.6,2.8
		c-0.4,0.9-0.9,1.6-1.6,2.3c-0.7,0.6-1.4,1.2-2.3,1.5c-0.9,0.4-1.8,0.6-2.9,0.6c-1,0-2-0.2-2.9-0.6s-1.7-0.9-2.3-1.5
		s-1.2-1.4-1.6-2.3C1055.6,539.7,1055.4,538.7,1055.4,537.7z M1058.2,537.7c0,0.7,0.1,1.3,0.3,1.9c0.2,0.6,0.5,1.1,0.9,1.5
		c0.4,0.4,0.9,0.7,1.4,1c0.6,0.2,1.2,0.4,1.9,0.4s1.3-0.1,1.9-0.4c0.6-0.2,1-0.6,1.4-1c0.4-0.4,0.7-0.9,0.9-1.5
		c0.2-0.6,0.3-1.2,0.3-1.9c0-0.7-0.1-1.3-0.3-1.9c-0.2-0.6-0.5-1.1-0.9-1.5c-0.4-0.4-0.9-0.7-1.4-1c-0.6-0.2-1.2-0.4-1.9-0.4
		s-1.3,0.1-1.9,0.4c-0.6,0.2-1,0.6-1.4,1c-0.4,0.4-0.7,0.9-0.9,1.5C1058.3,536.4,1058.2,537,1058.2,537.7z"/>
	<path class="st1" d="M1074.2,530.8h2.6v2.1h0.1c0.3-0.7,0.9-1.3,1.7-1.8c0.8-0.5,1.8-0.7,2.8-0.7c0.7,0,1.3,0.1,1.9,0.3
		c0.6,0.2,1.1,0.5,1.6,0.9c0.5,0.4,0.8,1,1.1,1.6c0.3,0.7,0.4,1.5,0.4,2.4v8.9h-2.6v-8.1c0-0.6-0.1-1.2-0.3-1.6
		c-0.2-0.5-0.4-0.8-0.7-1.1s-0.6-0.5-1-0.6c-0.4-0.1-0.8-0.2-1.2-0.2c-0.5,0-1,0.1-1.5,0.3c-0.5,0.2-0.9,0.4-1.2,0.8
		c-0.3,0.4-0.6,0.9-0.8,1.4c-0.2,0.6-0.3,1.3-0.3,2.1v7.1h-2.6V530.8z"/>
	<path class="st1" d="M1098.5,530.8h2.9l3.1,10.3h0.1l3.3-10.3h2.8l3.5,10.3h0.1l2.9-10.3h2.8l-4.4,13.8h-2.6l-3.6-10.3h-0.1
		l-3.3,10.3h-2.8L1098.5,530.8z"/>
	<path class="st1" d="M1122.6,525.9c0-0.5,0.2-1,0.6-1.3c0.4-0.4,0.8-0.6,1.3-0.6s1,0.2,1.3,0.6c0.4,0.4,0.6,0.8,0.6,1.3
		s-0.2,1-0.6,1.3c-0.4,0.4-0.8,0.6-1.3,0.6s-1-0.2-1.3-0.6C1122.8,526.9,1122.6,526.4,1122.6,525.9z M1123.2,530.8h2.6v13.8h-2.6
		V530.8z"/>
	<path class="st1" d="M1138.2,533.1h-3.7v6.2c0,0.4,0,0.8,0,1.1c0,0.4,0.1,0.7,0.2,1c0.1,0.3,0.3,0.5,0.6,0.7
		c0.3,0.2,0.6,0.3,1.1,0.3c0.3,0,0.6,0,1-0.1c0.3-0.1,0.6-0.2,0.9-0.3v2.4c-0.3,0.2-0.7,0.3-1.2,0.4c-0.5,0.1-0.9,0.1-1.1,0.1
		c-1,0-1.8-0.1-2.3-0.4s-1-0.6-1.2-1.1c-0.3-0.4-0.4-0.9-0.5-1.5c0-0.6-0.1-1.1-0.1-1.7v-7.2h-3v-2.3h3V527h2.6v3.9h3.7V533.1z"/>
	<path class="st1" d="M1142.5,522.7h2.6V533h0.1c0.3-0.7,0.9-1.3,1.7-1.8c0.8-0.5,1.8-0.7,2.8-0.7c0.7,0,1.3,0.1,1.9,0.3
		c0.6,0.2,1.1,0.5,1.6,0.9c0.5,0.4,0.8,1,1.1,1.6c0.3,0.7,0.4,1.5,0.4,2.4v8.9h-2.6v-8.1c0-0.6-0.1-1.2-0.3-1.6
		c-0.2-0.5-0.4-0.8-0.7-1.1s-0.6-0.5-1-0.6c-0.4-0.1-0.8-0.2-1.2-0.2c-0.5,0-1,0.1-1.5,0.3c-0.5,0.2-0.9,0.4-1.2,0.8
		c-0.3,0.4-0.6,0.9-0.8,1.4c-0.2,0.6-0.3,1.3-0.3,2.1v7.1h-2.6V522.7z"/>
	<path class="st1" d="M1169.1,524.1h7.2c1.3,0,2.4,0.2,3.3,0.5c0.9,0.4,1.5,0.8,2,1.4c0.5,0.6,0.8,1.2,1,1.9c0.2,0.7,0.3,1.3,0.3,2
		s-0.1,1.3-0.3,2c-0.2,0.7-0.5,1.3-1,1.9c-0.5,0.6-1.2,1-2,1.4c-0.9,0.4-1.9,0.5-3.3,0.5h-4.4v9.1h-2.8V524.1z M1171.9,533.1h3.7
		c0.5,0,1.1,0,1.6-0.1s1-0.2,1.4-0.5c0.4-0.2,0.7-0.6,1-1c0.3-0.4,0.4-1,0.4-1.7s-0.1-1.3-0.4-1.7c-0.3-0.4-0.6-0.8-1-1
		c-0.4-0.2-0.9-0.4-1.4-0.5s-1.1-0.1-1.6-0.1h-3.7V533.1z"/>
	<path class="st1" d="M1186.5,530.8h2.6v2.1h0.1c0.2-0.4,0.4-0.7,0.7-1c0.3-0.3,0.6-0.6,1-0.8c0.4-0.2,0.8-0.4,1.2-0.5
		c0.4-0.1,0.9-0.2,1.3-0.2c0.4,0,0.8,0.1,1.2,0.2l-0.1,2.8c-0.2-0.1-0.4-0.1-0.6-0.1c-0.2,0-0.4-0.1-0.6-0.1c-1.3,0-2.3,0.4-2.9,1.1
		c-0.7,0.7-1,1.8-1,3.3v6.9h-2.6V530.8z"/>
	<path class="st1" d="M1197.7,525.9c0-0.5,0.2-1,0.6-1.3c0.4-0.4,0.8-0.6,1.3-0.6s1,0.2,1.3,0.6c0.4,0.4,0.6,0.8,0.6,1.3
		s-0.2,1-0.6,1.3c-0.4,0.4-0.8,0.6-1.3,0.6s-1-0.2-1.3-0.6C1197.9,526.9,1197.7,526.4,1197.7,525.9z M1198.3,530.8h2.6v13.8h-2.6
		V530.8z"/>
	<path class="st1" d="M1204.3,530.8h3l4.1,10.5l3.9-10.5h2.8l-5.4,13.8h-2.9L1204.3,530.8z"/>
	<path class="st1" d="M1221.4,532.5c0.7-0.7,1.6-1.2,2.6-1.5c1-0.3,1.9-0.5,2.9-0.5c1,0,1.9,0.1,2.6,0.4s1.3,0.6,1.8,1
		s0.8,0.9,1,1.5s0.3,1.1,0.3,1.7v7c0,0.5,0,0.9,0,1.3c0,0.4,0,0.8,0.1,1.2h-2.3c-0.1-0.7-0.1-1.4-0.1-2.1h-0.1
		c-0.6,0.9-1.3,1.5-2.1,1.9c-0.8,0.4-1.7,0.6-2.8,0.6c-0.6,0-1.2-0.1-1.8-0.3c-0.6-0.2-1.1-0.4-1.5-0.8c-0.4-0.3-0.8-0.8-1-1.3
		c-0.3-0.5-0.4-1.1-0.4-1.8c0-0.9,0.2-1.6,0.6-2.2c0.4-0.6,0.9-1.1,1.6-1.5c0.7-0.4,1.5-0.6,2.4-0.8c0.9-0.2,1.9-0.2,2.9-0.2h1.9
		v-0.6c0-0.3-0.1-0.7-0.2-1c-0.1-0.3-0.3-0.7-0.6-0.9c-0.3-0.3-0.6-0.5-1-0.7c-0.4-0.2-0.9-0.2-1.5-0.2c-0.5,0-0.9,0-1.3,0.1
		s-0.7,0.2-1,0.4c-0.3,0.1-0.6,0.3-0.8,0.5c-0.3,0.2-0.5,0.4-0.7,0.6L1221.4,532.5z M1228.8,538c-0.6,0-1.3,0-1.9,0.1
		c-0.6,0.1-1.2,0.2-1.8,0.4c-0.5,0.2-1,0.5-1.3,0.8c-0.3,0.3-0.5,0.8-0.5,1.3c0,0.8,0.3,1.4,0.8,1.7c0.5,0.3,1.3,0.5,2.2,0.5
		c0.7,0,1.3-0.1,1.8-0.4s0.9-0.6,1.2-0.9c0.3-0.4,0.5-0.8,0.7-1.3c0.1-0.5,0.2-0.9,0.2-1.4V538H1228.8z"/>
	<path class="st1" d="M1244.6,533.1h-3.7v6.2c0,0.4,0,0.8,0,1.1c0,0.4,0.1,0.7,0.2,1c0.1,0.3,0.3,0.5,0.6,0.7
		c0.3,0.2,0.6,0.3,1.1,0.3c0.3,0,0.6,0,1-0.1c0.3-0.1,0.6-0.2,0.9-0.3v2.4c-0.3,0.2-0.7,0.3-1.2,0.4c-0.5,0.1-0.9,0.1-1.1,0.1
		c-1,0-1.8-0.1-2.3-0.4s-1-0.6-1.2-1.1c-0.3-0.4-0.4-0.9-0.5-1.5c0-0.6-0.1-1.1-0.1-1.7v-7.2h-3v-2.3h3V527h2.6v3.9h3.7V533.1z"/>
	<path class="st1" d="M1250.9,538.7c0,0.6,0.1,1.1,0.4,1.6c0.3,0.5,0.6,0.9,1,1.3c0.4,0.3,0.9,0.6,1.5,0.8c0.6,0.2,1.1,0.3,1.7,0.3
		c0.8,0,1.5-0.2,2.1-0.6c0.6-0.4,1.2-0.9,1.7-1.5l2,1.5c-1.5,1.9-3.5,2.8-6.1,2.8c-1.1,0-2.1-0.2-2.9-0.6c-0.9-0.4-1.6-0.9-2.2-1.5
		c-0.6-0.6-1.1-1.4-1.4-2.3c-0.3-0.9-0.5-1.8-0.5-2.9c0-1,0.2-2,0.5-2.9c0.4-0.9,0.9-1.6,1.5-2.3c0.6-0.6,1.4-1.2,2.2-1.5
		c0.9-0.4,1.8-0.6,2.8-0.6c1.2,0,2.2,0.2,3.1,0.6c0.8,0.4,1.5,1,2.1,1.7c0.5,0.7,0.9,1.5,1.2,2.3c0.2,0.9,0.4,1.7,0.4,2.6v0.9
		H1250.9z M1259.1,536.6c0-0.6-0.1-1.1-0.3-1.6c-0.2-0.5-0.4-0.9-0.7-1.3c-0.3-0.4-0.7-0.6-1.2-0.8c-0.5-0.2-1.1-0.3-1.7-0.3
		c-0.6,0-1.2,0.1-1.8,0.4s-1,0.6-1.3,0.9c-0.4,0.4-0.7,0.8-0.9,1.3c-0.2,0.5-0.3,0.9-0.3,1.4H1259.1z"/>
	<path class="st1" d="M1275.5,524.1h2.8v8.9h0.2l9.1-8.9h3.9l-9.9,9.5l10.6,11.1h-4.1l-9.6-10.3h-0.2v10.3h-2.8V524.1z"/>
	<path class="st1" d="M1296.5,538.7c0,0.6,0.1,1.1,0.4,1.6c0.3,0.5,0.6,0.9,1,1.3c0.4,0.3,0.9,0.6,1.5,0.8c0.6,0.2,1.1,0.3,1.7,0.3
		c0.8,0,1.5-0.2,2.1-0.6c0.6-0.4,1.2-0.9,1.7-1.5l2,1.5c-1.5,1.9-3.5,2.8-6.1,2.8c-1.1,0-2.1-0.2-2.9-0.6c-0.9-0.4-1.6-0.9-2.2-1.5
		c-0.6-0.6-1.1-1.4-1.4-2.3c-0.3-0.9-0.5-1.8-0.5-2.9c0-1,0.2-2,0.5-2.9c0.4-0.9,0.9-1.6,1.5-2.3c0.6-0.6,1.4-1.2,2.2-1.5
		c0.9-0.4,1.8-0.6,2.8-0.6c1.2,0,2.2,0.2,3.1,0.6c0.8,0.4,1.5,1,2.1,1.7c0.5,0.7,0.9,1.5,1.2,2.3c0.2,0.9,0.4,1.7,0.4,2.6v0.9
		H1296.5z M1304.7,536.6c0-0.6-0.1-1.1-0.3-1.6c-0.2-0.5-0.4-0.9-0.7-1.3c-0.3-0.4-0.7-0.6-1.2-0.8c-0.5-0.2-1.1-0.3-1.7-0.3
		c-0.6,0-1.2,0.1-1.8,0.4s-1,0.6-1.3,0.9c-0.4,0.4-0.7,0.8-0.9,1.3c-0.2,0.5-0.3,0.9-0.3,1.4H1304.7z"/>
	<path class="st1" d="M1309.9,530.8h3l4.1,10.7h0.1l3.9-10.7h2.8l-6.5,16.7c-0.2,0.6-0.5,1.1-0.7,1.6c-0.3,0.5-0.5,0.9-0.9,1.3
		s-0.8,0.6-1.3,0.8c-0.5,0.2-1.1,0.3-1.8,0.3c-0.4,0-0.8,0-1.2-0.1c-0.4,0-0.8-0.1-1.1-0.3l0.3-2.4c0.5,0.2,1,0.3,1.6,0.3
		c0.4,0,0.7-0.1,1-0.2c0.3-0.1,0.5-0.3,0.7-0.5s0.4-0.4,0.5-0.7c0.1-0.3,0.3-0.6,0.4-0.9l0.8-2.2L1309.9,530.8z"/>
	<path class="st1" d="M1057.2,572.6c0-1,0.2-1.9,0.6-2.8c0.4-0.9,0.9-1.6,1.6-2.3c0.7-0.7,1.4-1.2,2.3-1.6s1.8-0.6,2.9-0.6
		c1,0,2,0.2,2.9,0.6c0.9,0.4,1.7,0.9,2.3,1.6c0.7,0.7,1.2,1.4,1.6,2.3c0.4,0.9,0.6,1.8,0.6,2.8c0,1-0.2,1.9-0.6,2.8
		c-0.4,0.9-0.9,1.6-1.6,2.3c-0.7,0.6-1.4,1.2-2.3,1.5c-0.9,0.4-1.8,0.6-2.9,0.6c-1,0-2-0.2-2.9-0.6s-1.7-0.9-2.3-1.5
		s-1.2-1.4-1.6-2.3C1057.4,574.5,1057.2,573.6,1057.2,572.6z M1060,572.6c0,0.7,0.1,1.3,0.3,1.9c0.2,0.6,0.5,1.1,0.9,1.5
		c0.4,0.4,0.9,0.7,1.4,1c0.6,0.2,1.2,0.4,1.9,0.4s1.3-0.1,1.9-0.4c0.6-0.2,1-0.6,1.4-1c0.4-0.4,0.7-0.9,0.9-1.5
		c0.2-0.6,0.3-1.2,0.3-1.9c0-0.7-0.1-1.3-0.3-1.9c-0.2-0.6-0.5-1.1-0.9-1.5c-0.4-0.4-0.9-0.7-1.4-1c-0.6-0.2-1.2-0.4-1.9-0.4
		s-1.3,0.1-1.9,0.4c-0.6,0.2-1,0.6-1.4,1c-0.4,0.4-0.7,0.9-0.9,1.5C1060.1,571.2,1060,571.9,1060,572.6z"/>
	<path class="st1" d="M1077,567.9h-3v-2.3h3v-3.1c0-1.8,0.4-3.2,1.1-4.1c0.7-0.9,1.9-1.3,3.6-1.3c0.3,0,0.6,0,0.9,0
		c0.3,0,0.7,0.1,1,0.2l-0.3,2.3c-0.3-0.1-0.5-0.2-0.7-0.2c-0.2,0-0.5-0.1-0.8-0.1c-0.5,0-0.9,0.1-1.2,0.2c-0.3,0.1-0.5,0.4-0.7,0.6
		c-0.2,0.3-0.3,0.6-0.3,1c0,0.4-0.1,0.8-0.1,1.3v3.2h3.1v2.3h-3.1v11.5h-2.6V567.9z"/>
	<path class="st1" d="M1096.1,558.9h7.2c1.3,0,2.4,0.2,3.3,0.5c0.9,0.4,1.5,0.8,2,1.4c0.5,0.6,0.8,1.2,1,1.9c0.2,0.7,0.3,1.3,0.3,2
		c0,0.7-0.1,1.3-0.3,1.9c-0.2,0.6-0.6,1.2-1,1.7s-1,0.9-1.6,1.2c-0.6,0.3-1.3,0.5-2.1,0.6l5.8,9.4h-3.5l-5.2-9.1h-3.1v9.1h-2.8
		V558.9z M1098.9,567.9h3.7c0.5,0,1.1,0,1.6-0.1s1-0.2,1.4-0.5c0.4-0.2,0.7-0.6,1-1c0.3-0.4,0.4-1,0.4-1.7s-0.1-1.3-0.4-1.7
		c-0.3-0.4-0.6-0.8-1-1c-0.4-0.2-0.9-0.4-1.4-0.5s-1.1-0.1-1.6-0.1h-3.7V567.9z"/>
	<path class="st1" d="M1116,573.5c0,0.6,0.1,1.1,0.4,1.6c0.3,0.5,0.6,0.9,1,1.3c0.4,0.3,0.9,0.6,1.5,0.8c0.6,0.2,1.1,0.3,1.7,0.3
		c0.8,0,1.5-0.2,2.1-0.6c0.6-0.4,1.2-0.9,1.7-1.5l2,1.5c-1.5,1.9-3.5,2.8-6.1,2.8c-1.1,0-2.1-0.2-2.9-0.6c-0.9-0.4-1.6-0.9-2.2-1.5
		c-0.6-0.6-1.1-1.4-1.4-2.3c-0.3-0.9-0.5-1.8-0.5-2.9c0-1,0.2-2,0.5-2.9c0.4-0.9,0.9-1.6,1.5-2.3c0.6-0.6,1.4-1.2,2.2-1.5
		c0.9-0.4,1.8-0.6,2.8-0.6c1.2,0,2.2,0.2,3.1,0.6c0.8,0.4,1.5,1,2.1,1.7c0.5,0.7,0.9,1.5,1.2,2.3c0.2,0.9,0.4,1.7,0.4,2.6v0.9H1116z
		 M1124.3,571.4c0-0.6-0.1-1.1-0.3-1.6c-0.2-0.5-0.4-0.9-0.7-1.3c-0.3-0.4-0.7-0.6-1.2-0.8c-0.5-0.2-1.1-0.3-1.7-0.3
		c-0.6,0-1.2,0.1-1.8,0.4s-1,0.6-1.3,0.9c-0.4,0.4-0.7,0.8-0.9,1.3c-0.2,0.5-0.3,0.9-0.3,1.4H1124.3z"/>
	<path class="st1" d="M1140.9,569.3c-0.5-0.5-1-0.9-1.5-1.1c-0.5-0.3-1.2-0.4-1.9-0.4c-0.7,0-1.3,0.1-1.9,0.4
		c-0.5,0.3-1,0.6-1.3,1.1c-0.4,0.5-0.6,1-0.8,1.6c-0.2,0.6-0.3,1.2-0.3,1.8s0.1,1.2,0.3,1.8c0.2,0.6,0.5,1.1,0.9,1.5
		c0.4,0.4,0.9,0.8,1.4,1c0.5,0.2,1.2,0.4,1.8,0.4c0.7,0,1.4-0.1,1.9-0.4c0.5-0.3,1-0.6,1.5-1.1l1.9,1.9c-0.7,0.8-1.5,1.3-2.4,1.6
		c-0.9,0.3-1.9,0.5-2.9,0.5c-1.1,0-2-0.2-2.9-0.5c-0.9-0.3-1.6-0.8-2.3-1.5c-0.6-0.6-1.1-1.4-1.5-2.3c-0.3-0.9-0.5-1.9-0.5-2.9
		s0.2-2,0.5-2.9c0.3-0.9,0.8-1.7,1.5-2.3c0.6-0.6,1.4-1.1,2.3-1.5c0.9-0.4,1.9-0.5,2.9-0.5c1,0,2,0.2,2.9,0.5
		c0.9,0.4,1.7,0.9,2.4,1.6L1140.9,569.3z"/>
	<path class="st1" d="M1147.9,573.5c0,0.6,0.1,1.1,0.4,1.6c0.3,0.5,0.6,0.9,1,1.3c0.4,0.3,0.9,0.6,1.5,0.8c0.6,0.2,1.1,0.3,1.7,0.3
		c0.8,0,1.5-0.2,2.1-0.6c0.6-0.4,1.2-0.9,1.7-1.5l2,1.5c-1.5,1.9-3.5,2.8-6.1,2.8c-1.1,0-2.1-0.2-2.9-0.6c-0.9-0.4-1.6-0.9-2.2-1.5
		c-0.6-0.6-1.1-1.4-1.4-2.3c-0.3-0.9-0.5-1.8-0.5-2.9c0-1,0.2-2,0.5-2.9c0.4-0.9,0.9-1.6,1.5-2.3c0.6-0.6,1.4-1.2,2.2-1.5
		c0.9-0.4,1.8-0.6,2.8-0.6c1.2,0,2.2,0.2,3.1,0.6c0.8,0.4,1.5,1,2.1,1.7c0.5,0.7,0.9,1.5,1.2,2.3c0.2,0.9,0.4,1.7,0.4,2.6v0.9
		H1147.9z M1156.1,571.4c0-0.6-0.1-1.1-0.3-1.6c-0.2-0.5-0.4-0.9-0.7-1.3c-0.3-0.4-0.7-0.6-1.2-0.8c-0.5-0.2-1.1-0.3-1.7-0.3
		c-0.6,0-1.2,0.1-1.8,0.4s-1,0.6-1.3,0.9c-0.4,0.4-0.7,0.8-0.9,1.3c-0.2,0.5-0.3,0.9-0.3,1.4H1156.1z"/>
	<path class="st1" d="M1162.5,560.7c0-0.5,0.2-1,0.6-1.3c0.4-0.4,0.8-0.6,1.3-0.6s1,0.2,1.3,0.6c0.4,0.4,0.6,0.8,0.6,1.3
		s-0.2,1-0.6,1.3c-0.4,0.4-0.8,0.6-1.3,0.6s-1-0.2-1.3-0.6C1162.7,561.7,1162.5,561.3,1162.5,560.7z M1163.1,565.7h2.6v13.8h-2.6
		V565.7z"/>
	<path class="st1" d="M1169.1,565.7h3l4.1,10.5l3.9-10.5h2.8l-5.4,13.8h-2.9L1169.1,565.7z"/>
	<path class="st1" d="M1188.1,573.5c0,0.6,0.1,1.1,0.4,1.6c0.3,0.5,0.6,0.9,1,1.3c0.4,0.3,0.9,0.6,1.5,0.8c0.6,0.2,1.1,0.3,1.7,0.3
		c0.8,0,1.5-0.2,2.1-0.6c0.6-0.4,1.2-0.9,1.7-1.5l2,1.5c-1.5,1.9-3.5,2.8-6.1,2.8c-1.1,0-2.1-0.2-2.9-0.6c-0.9-0.4-1.6-0.9-2.2-1.5
		c-0.6-0.6-1.1-1.4-1.4-2.3c-0.3-0.9-0.5-1.8-0.5-2.9c0-1,0.2-2,0.5-2.9c0.4-0.9,0.9-1.6,1.5-2.3c0.6-0.6,1.4-1.2,2.2-1.5
		c0.9-0.4,1.8-0.6,2.8-0.6c1.2,0,2.2,0.2,3.1,0.6c0.8,0.4,1.5,1,2.1,1.7c0.5,0.7,0.9,1.5,1.2,2.3c0.2,0.9,0.4,1.7,0.4,2.6v0.9
		H1188.1z M1196.4,571.4c0-0.6-0.1-1.1-0.3-1.6c-0.2-0.5-0.4-0.9-0.7-1.3c-0.3-0.4-0.7-0.6-1.2-0.8c-0.5-0.2-1.1-0.3-1.7-0.3
		c-0.6,0-1.2,0.1-1.8,0.4s-1,0.6-1.3,0.9c-0.4,0.4-0.7,0.8-0.9,1.3c-0.2,0.5-0.3,0.9-0.3,1.4H1196.4z"/>
	<path class="st1" d="M1203.1,565.7h2.6v2.1h0.1c0.2-0.4,0.4-0.7,0.7-1c0.3-0.3,0.6-0.6,1-0.8c0.4-0.2,0.8-0.4,1.2-0.5
		c0.4-0.1,0.9-0.2,1.3-0.2c0.4,0,0.8,0.1,1.2,0.2l-0.1,2.8c-0.2-0.1-0.4-0.1-0.6-0.1c-0.2,0-0.4-0.1-0.6-0.1c-1.3,0-2.3,0.4-2.9,1.1
		c-0.7,0.7-1,1.8-1,3.3v6.9h-2.6V565.7z"/>
</g>
<g>
	<g>
		<line class="Graphic_x0020_Style" x1="273.9" y1="103.3" x2="307.5" y2="103.3"/>
		<g>
			<polygon class="st0" points="301.6,112 334.1,103.3 301.6,94.6 			"/>
		</g>
	</g>
</g>
<g>
	<g>
		<line class="Graphic_x0020_Style" x1="599.2" y1="103.3" x2="632.9" y2="103.3"/>
		<g>
			<polygon class="st0" points="626.9,112 659.4,103.3 626.9,94.6 			"/>
		</g>
	</g>
</g>
<g>
	<g>
		<line class="Graphic_x0020_Style" x1="924.6" y1="103.3" x2="958.2" y2="103.3"/>
		<g>
			<polygon class="st0" points="952.3,112 984.8,103.3 952.3,94.6 			"/>
		</g>
	</g>
</g>
<g>
	<g>
		<line class="Graphic_x0020_Style" x1="1249.9" y1="103.3" x2="1283.6" y2="103.3"/>
		<g>
			<polygon class="st0" points="1277.6,112 1310.1,103.3 1277.6,94.6 			"/>
		</g>
	</g>
</g>
<g>
	<g>
		<path class="st2" d="M1234.1,174h-233.6c-3.2,0-5.8-2.6-5.8-5.8V49.1c0-3.2,2.6-5.8,5.8-5.8h233.6c3.2,0,5.8,2.6,5.8,5.8v119.1
			C1239.9,171.4,1237.3,174,1234.1,174z"/>
	</g>
	<g>
		<g>
			<path class="st1" d="M1042.7,93h7.2c1.5,0,2.7,0.2,3.8,0.5c1.1,0.3,2,0.8,2.8,1.3c0.8,0.6,1.5,1.2,2,1.9s1,1.5,1.3,2.2
				c0.3,0.8,0.5,1.5,0.7,2.3c0.1,0.8,0.2,1.5,0.2,2.1c0,1.3-0.2,2.6-0.7,3.8c-0.5,1.2-1.2,2.3-2.1,3.3c-0.9,1-2.1,1.7-3.5,2.3
				s-3,0.9-4.9,0.9h-6.7V93z M1045.5,111h3.5c1.2,0,2.3-0.2,3.4-0.5s2-0.8,2.8-1.4c0.8-0.6,1.4-1.4,1.9-2.4s0.7-2.1,0.7-3.4
				c0-0.7-0.1-1.4-0.3-2.3c-0.2-0.9-0.6-1.7-1.2-2.5c-0.6-0.8-1.4-1.5-2.5-2c-1-0.6-2.4-0.8-4.1-0.8h-4.2V111z"/>
			<path class="st1" d="M1066.9,107.7c0,0.6,0.1,1.1,0.4,1.6c0.3,0.5,0.6,0.9,1,1.3c0.4,0.3,0.9,0.6,1.5,0.8
				c0.6,0.2,1.1,0.3,1.7,0.3c0.8,0,1.5-0.2,2.1-0.6s1.2-0.9,1.7-1.5l2,1.5c-1.5,1.9-3.5,2.8-6.1,2.8c-1.1,0-2.1-0.2-2.9-0.6
				c-0.9-0.4-1.6-0.9-2.2-1.5c-0.6-0.6-1.1-1.4-1.4-2.3s-0.5-1.8-0.5-2.9c0-1,0.2-2,0.5-2.9c0.4-0.9,0.9-1.6,1.5-2.3
				c0.6-0.6,1.4-1.2,2.2-1.5c0.9-0.4,1.8-0.6,2.8-0.6c1.2,0,2.2,0.2,3.1,0.6s1.5,1,2.1,1.7s0.9,1.5,1.2,2.3c0.2,0.9,0.4,1.7,0.4,2.6
				v0.9H1066.9z M1075.1,105.6c0-0.6-0.1-1.1-0.3-1.6c-0.2-0.5-0.4-0.9-0.7-1.3c-0.3-0.4-0.7-0.6-1.2-0.8c-0.5-0.2-1.1-0.3-1.7-0.3
				c-0.6,0-1.2,0.1-1.8,0.4c-0.5,0.2-1,0.6-1.3,0.9c-0.4,0.4-0.7,0.8-0.9,1.3c-0.2,0.5-0.3,0.9-0.3,1.4H1075.1z"/>
			<path class="st1" d="M1091.8,103.5c-0.5-0.5-1-0.9-1.5-1.1s-1.2-0.4-1.9-0.4c-0.7,0-1.3,0.1-1.9,0.4s-1,0.6-1.3,1.1
				c-0.4,0.5-0.6,1-0.8,1.6s-0.3,1.2-0.3,1.8s0.1,1.2,0.3,1.8c0.2,0.6,0.5,1.1,0.9,1.5c0.4,0.4,0.9,0.8,1.4,1
				c0.5,0.2,1.2,0.4,1.8,0.4c0.7,0,1.4-0.1,1.9-0.4s1-0.6,1.5-1.1l1.9,1.9c-0.7,0.8-1.5,1.3-2.4,1.6c-0.9,0.3-1.9,0.5-2.9,0.5
				c-1.1,0-2-0.2-2.9-0.5c-0.9-0.3-1.6-0.8-2.3-1.5c-0.6-0.6-1.1-1.4-1.5-2.3c-0.3-0.9-0.5-1.9-0.5-2.9c0-1.1,0.2-2,0.5-2.9
				c0.3-0.9,0.8-1.7,1.5-2.3c0.6-0.6,1.4-1.1,2.3-1.5c0.9-0.4,1.9-0.5,2.9-0.5c1,0,2,0.2,2.9,0.5c0.9,0.4,1.7,0.9,2.4,1.6
				L1091.8,103.5z"/>
			<path class="st1" d="M1096.8,99.8h2.6v2.1h0.1c0.2-0.4,0.4-0.7,0.7-1c0.3-0.3,0.6-0.6,1-0.8c0.4-0.2,0.8-0.4,1.2-0.5
				c0.4-0.1,0.9-0.2,1.3-0.2c0.4,0,0.8,0.1,1.2,0.2l-0.1,2.8c-0.2-0.1-0.4-0.1-0.6-0.1c-0.2,0-0.4-0.1-0.6-0.1
				c-1.3,0-2.3,0.4-2.9,1.1c-0.7,0.7-1,1.8-1,3.3v6.9h-2.6V99.8z"/>
			<path class="st1" d="M1106.8,99.8h3l4.1,10.7h0.1l3.9-10.7h2.8l-6.5,16.7c-0.2,0.6-0.5,1.1-0.7,1.6c-0.3,0.5-0.5,0.9-0.9,1.3
				c-0.3,0.3-0.8,0.6-1.3,0.8c-0.5,0.2-1.1,0.3-1.8,0.3c-0.4,0-0.8,0-1.2-0.1c-0.4,0-0.8-0.2-1.1-0.3l0.3-2.4c0.5,0.2,1,0.3,1.6,0.3
				c0.4,0,0.7-0.1,1-0.2c0.3-0.1,0.5-0.3,0.7-0.5s0.4-0.4,0.5-0.7s0.3-0.6,0.4-0.9l0.8-2.2L1106.8,99.8z"/>
			<path class="st1" d="M1123.8,99.8h2.6v2h0.1c0.5-0.7,1.2-1.3,2.1-1.7c0.9-0.4,1.8-0.6,2.7-0.6c1.1,0,2,0.2,2.9,0.6
				c0.9,0.4,1.6,0.9,2.2,1.5c0.6,0.7,1.1,1.4,1.4,2.3c0.3,0.9,0.5,1.8,0.5,2.8c0,1-0.2,2-0.5,2.9s-0.8,1.6-1.4,2.3
				c-0.6,0.6-1.3,1.2-2.2,1.5c-0.9,0.4-1.8,0.6-2.9,0.6c-1,0-1.9-0.2-2.8-0.6c-0.9-0.4-1.5-1-2-1.7h-0.1v10.2h-2.6V99.8z
				 M1130.9,101.9c-0.7,0-1.3,0.1-1.9,0.4c-0.6,0.2-1,0.6-1.4,1c-0.4,0.4-0.7,0.9-0.9,1.5s-0.3,1.2-0.3,1.9s0.1,1.3,0.3,1.9
				c0.2,0.6,0.5,1.1,0.9,1.5c0.4,0.4,0.9,0.7,1.4,1c0.6,0.2,1.2,0.4,1.9,0.4c0.7,0,1.3-0.1,1.9-0.4c0.6-0.2,1-0.6,1.4-1
				c0.4-0.4,0.7-0.9,0.9-1.5c0.2-0.6,0.3-1.2,0.3-1.9s-0.1-1.3-0.3-1.9s-0.5-1.1-0.9-1.5c-0.4-0.4-0.9-0.7-1.4-1
				C1132.3,102.1,1131.6,101.9,1130.9,101.9z"/>
			<path class="st1" d="M1149.8,102.1h-3.7v6.2c0,0.4,0,0.8,0,1.1s0.1,0.7,0.2,1c0.1,0.3,0.3,0.5,0.6,0.7c0.3,0.2,0.6,0.3,1.1,0.3
				c0.3,0,0.6,0,1-0.1c0.3-0.1,0.6-0.2,0.9-0.3v2.4c-0.3,0.2-0.7,0.3-1.2,0.4c-0.5,0.1-0.9,0.1-1.1,0.1c-1,0-1.8-0.1-2.3-0.4
				s-1-0.6-1.2-1.1c-0.3-0.4-0.4-0.9-0.5-1.5c0-0.6-0.1-1.1-0.1-1.7v-7.2h-3v-2.3h3V96h2.6v3.9h3.7V102.1z"/>
			<path class="st1" d="M1153.6,94.9c0-0.5,0.2-1,0.6-1.3c0.4-0.4,0.8-0.6,1.3-0.6s1,0.2,1.3,0.6s0.6,0.8,0.6,1.3s-0.2,1-0.6,1.3
				c-0.4,0.4-0.8,0.6-1.3,0.6s-1-0.2-1.3-0.6C1153.8,95.9,1153.6,95.4,1153.6,94.9z M1154.2,99.8h2.6v13.8h-2.6V99.8z"/>
			<path class="st1" d="M1161.2,106.7c0-1,0.2-1.9,0.6-2.8c0.4-0.9,0.9-1.6,1.6-2.3c0.7-0.7,1.4-1.2,2.3-1.6s1.8-0.6,2.9-0.6
				c1,0,2,0.2,2.9,0.6c0.9,0.4,1.7,0.9,2.3,1.6c0.7,0.7,1.2,1.4,1.6,2.3c0.4,0.9,0.6,1.8,0.6,2.8c0,1-0.2,1.9-0.6,2.8
				c-0.4,0.9-0.9,1.6-1.6,2.3c-0.7,0.6-1.4,1.2-2.3,1.5c-0.9,0.4-1.8,0.6-2.9,0.6c-1,0-2-0.2-2.9-0.6s-1.7-0.9-2.3-1.5
				c-0.7-0.6-1.2-1.4-1.6-2.3C1161.4,108.7,1161.2,107.7,1161.2,106.7z M1164,106.7c0,0.7,0.1,1.3,0.3,1.9c0.2,0.6,0.5,1.1,0.9,1.5
				c0.4,0.4,0.9,0.7,1.4,1c0.6,0.2,1.2,0.4,1.9,0.4s1.3-0.1,1.9-0.4c0.6-0.2,1-0.6,1.4-1c0.4-0.4,0.7-0.9,0.9-1.5
				c0.2-0.6,0.3-1.2,0.3-1.9s-0.1-1.3-0.3-1.9s-0.5-1.1-0.9-1.5c-0.4-0.4-0.9-0.7-1.4-1c-0.6-0.2-1.2-0.4-1.9-0.4s-1.3,0.1-1.9,0.4
				c-0.6,0.2-1,0.6-1.4,1c-0.4,0.4-0.7,0.9-0.9,1.5S1164,106,1164,106.7z"/>
			<path class="st1" d="M1180,99.8h2.6v2.1h0.1c0.3-0.7,0.9-1.3,1.7-1.8c0.8-0.5,1.8-0.7,2.8-0.7c0.7,0,1.3,0.1,1.9,0.3
				c0.6,0.2,1.1,0.5,1.6,0.9c0.5,0.4,0.8,1,1.1,1.6c0.3,0.7,0.4,1.5,0.4,2.4v8.9h-2.6v-8.1c0-0.6-0.1-1.2-0.3-1.6
				c-0.2-0.5-0.4-0.8-0.7-1.1c-0.3-0.3-0.6-0.5-1-0.6c-0.4-0.1-0.8-0.2-1.2-0.2c-0.5,0-1,0.1-1.5,0.3c-0.5,0.2-0.9,0.5-1.2,0.8
				c-0.3,0.4-0.6,0.9-0.8,1.4c-0.2,0.6-0.3,1.3-0.3,2.1v7.1h-2.6V99.8z"/>
		</g>
	</g>
</g>
<g>
	<g>
		<g>
			<path class="st3" d="M1508.7,140.1c22.3,0,38.3,2.5,49.4,5.4c3.6,1,7.2-1.8,7.2-5.6V49.1c0-3.2-2.6-5.8-5.8-5.8h-233.6
				c-3.2,0-5.8,2.6-5.8,5.8v113.4c0,2,1.1,3.9,2.8,5c11.8,7,31,14.5,60.4,16.2C1442.6,187,1452.8,140.1,1508.7,140.1z"/>
		</g>
	</g>
	<g>
		<path class="st4" d="M1384.3,89.3h7.2c1.3,0,2.4,0.2,3.3,0.5c0.9,0.4,1.5,0.8,2,1.4c0.5,0.6,0.8,1.2,1,1.9c0.2,0.7,0.3,1.3,0.3,2
			s-0.1,1.3-0.3,2c-0.2,0.7-0.5,1.3-1,1.9c-0.5,0.6-1.2,1-2,1.4c-0.9,0.4-1.9,0.5-3.3,0.5h-4.4v9.1h-2.8V89.3z M1387.1,98.3h3.7
			c0.5,0,1.1,0,1.6-0.1c0.5-0.1,1-0.2,1.4-0.5c0.4-0.2,0.7-0.6,1-1c0.3-0.4,0.4-1,0.4-1.7s-0.1-1.3-0.4-1.7c-0.3-0.4-0.6-0.8-1-1
			c-0.4-0.2-0.9-0.4-1.4-0.5c-0.5-0.1-1.1-0.1-1.6-0.1h-3.7V98.3z"/>
		<path class="st4" d="M1402,87.9h2.6v21.9h-2.6V87.9z"/>
		<path class="st4" d="M1409.6,97.8c0.7-0.7,1.6-1.2,2.6-1.5c1-0.3,1.9-0.5,2.9-0.5c1,0,1.9,0.1,2.6,0.4c0.7,0.3,1.3,0.6,1.8,1
			c0.5,0.4,0.8,0.9,1,1.5c0.2,0.6,0.3,1.1,0.3,1.7v7c0,0.5,0,0.9,0,1.3c0,0.4,0,0.8,0.1,1.2h-2.3c-0.1-0.7-0.1-1.4-0.1-2.1h-0.1
			c-0.6,0.9-1.3,1.5-2.1,1.9c-0.8,0.4-1.7,0.6-2.8,0.6c-0.6,0-1.2-0.1-1.8-0.3c-0.6-0.2-1.1-0.4-1.5-0.8c-0.4-0.3-0.8-0.8-1-1.3
			c-0.3-0.5-0.4-1.1-0.4-1.8c0-0.9,0.2-1.6,0.6-2.2c0.4-0.6,0.9-1.1,1.6-1.5c0.7-0.4,1.5-0.6,2.4-0.8c0.9-0.2,1.9-0.2,2.9-0.2h1.9
			v-0.6c0-0.3-0.1-0.7-0.2-1c-0.1-0.3-0.3-0.7-0.6-0.9c-0.3-0.3-0.6-0.5-1-0.7c-0.4-0.2-0.9-0.2-1.5-0.2c-0.5,0-0.9,0-1.3,0.1
			c-0.4,0.1-0.7,0.2-1,0.4s-0.6,0.3-0.8,0.5c-0.3,0.2-0.5,0.4-0.7,0.6L1409.6,97.8z M1417,103.2c-0.6,0-1.3,0-1.9,0.1
			c-0.6,0.1-1.2,0.2-1.8,0.4s-1,0.5-1.3,0.8c-0.3,0.3-0.5,0.8-0.5,1.3c0,0.8,0.3,1.4,0.8,1.7s1.3,0.5,2.2,0.5c0.7,0,1.3-0.1,1.8-0.4
			c0.5-0.2,0.9-0.6,1.2-0.9c0.3-0.4,0.5-0.8,0.7-1.3s0.2-0.9,0.2-1.4v-0.9H1417z"/>
		<path class="st4" d="M1425.1,91.1c0-0.5,0.2-1,0.6-1.3c0.4-0.4,0.8-0.6,1.3-0.6s1,0.2,1.3,0.6s0.6,0.8,0.6,1.3s-0.2,1-0.6,1.3
			c-0.4,0.4-0.8,0.6-1.3,0.6s-1-0.2-1.3-0.6C1425.3,92.1,1425.1,91.7,1425.1,91.1z M1425.7,96.1h2.6v13.8h-2.6V96.1z"/>
		<path class="st4" d="M1433.4,96.1h2.6v2.1h0.1c0.3-0.7,0.9-1.3,1.7-1.8c0.8-0.5,1.8-0.7,2.8-0.7c0.7,0,1.3,0.1,1.9,0.3
			c0.6,0.2,1.1,0.5,1.6,0.9c0.5,0.4,0.8,1,1.1,1.6c0.3,0.7,0.4,1.5,0.4,2.4v8.9h-2.6v-8.1c0-0.6-0.1-1.2-0.3-1.6
			c-0.2-0.5-0.4-0.8-0.7-1.1c-0.3-0.3-0.6-0.5-1-0.6c-0.4-0.1-0.8-0.2-1.2-0.2c-0.5,0-1,0.1-1.5,0.3c-0.5,0.2-0.9,0.5-1.2,0.8
			c-0.3,0.4-0.6,0.9-0.8,1.4c-0.2,0.6-0.3,1.3-0.3,2.1v7.1h-2.6V96.1z"/>
		<path class="st4" d="M1457.7,98.3h-3.7v6.2c0,0.4,0,0.8,0,1.1s0.1,0.7,0.2,1c0.1,0.3,0.3,0.5,0.6,0.7c0.3,0.2,0.6,0.3,1.1,0.3
			c0.3,0,0.6,0,1-0.1c0.3-0.1,0.6-0.2,0.9-0.3v2.4c-0.3,0.2-0.7,0.3-1.2,0.4c-0.5,0.1-0.9,0.1-1.1,0.1c-1,0-1.8-0.1-2.3-0.4
			s-1-0.6-1.2-1.1c-0.3-0.4-0.4-0.9-0.5-1.5c0-0.6-0.1-1.1-0.1-1.7v-7.2h-3v-2.3h3v-3.9h2.6v3.9h3.7V98.3z"/>
		<path class="st4" d="M1464,103.9c0,0.6,0.1,1.1,0.4,1.6c0.3,0.5,0.6,0.9,1,1.3c0.4,0.3,0.9,0.6,1.5,0.8c0.6,0.2,1.1,0.3,1.7,0.3
			c0.8,0,1.5-0.2,2.1-0.6s1.2-0.9,1.7-1.5l2,1.5c-1.5,1.9-3.5,2.8-6.1,2.8c-1.1,0-2.1-0.2-2.9-0.6c-0.9-0.4-1.6-0.9-2.2-1.5
			c-0.6-0.6-1.1-1.4-1.4-2.3s-0.5-1.8-0.5-2.9c0-1,0.2-2,0.5-2.9c0.4-0.9,0.9-1.6,1.5-2.3c0.6-0.6,1.4-1.2,2.2-1.5
			c0.9-0.4,1.8-0.6,2.8-0.6c1.2,0,2.2,0.2,3.1,0.6s1.5,1,2.1,1.7s0.9,1.5,1.2,2.3c0.2,0.9,0.4,1.7,0.4,2.6v0.9H1464z M1472.2,101.8
			c0-0.6-0.1-1.1-0.3-1.6c-0.2-0.5-0.4-0.9-0.7-1.3c-0.3-0.4-0.7-0.6-1.2-0.8c-0.5-0.2-1.1-0.3-1.7-0.3c-0.6,0-1.2,0.1-1.8,0.4
			c-0.5,0.2-1,0.6-1.3,0.9c-0.4,0.4-0.7,0.8-0.9,1.3c-0.2,0.5-0.3,0.9-0.3,1.4H1472.2z"/>
		<path class="st4" d="M1482.8,102.5l-4.9-6.4h3.4l3.3,4.9l3.3-4.9h3.2l-4.7,6.4l5.6,7.3h-3.4l-4.1-5.8l-4.1,5.8h-3.2L1482.8,102.5z
			"/>
		<path class="st4" d="M1502.3,98.3h-3.7v6.2c0,0.4,0,0.8,0,1.1s0.1,0.7,0.2,1c0.1,0.3,0.3,0.5,0.6,0.7c0.3,0.2,0.6,0.3,1.1,0.3
			c0.3,0,0.6,0,1-0.1c0.3-0.1,0.6-0.2,0.9-0.3v2.4c-0.3,0.2-0.7,0.3-1.2,0.4c-0.5,0.1-0.9,0.1-1.1,0.1c-1,0-1.8-0.1-2.3-0.4
			s-1-0.6-1.2-1.1c-0.3-0.4-0.4-0.9-0.5-1.5c0-0.6-0.1-1.1-0.1-1.7v-7.2h-3v-2.3h3v-3.9h2.6v3.9h3.7V98.3z"/>
	</g>
</g>
<g>
	<g>
		<path class="st5" d="M884.4,174H659.7c-5.6,0-8.8-4.6-7.1-10.2l33.7-110.2c1.7-5.6,7.7-10.2,13.3-10.2h224.7
			c5.6,0,8.8,4.6,7.1,10.2l-33.7,110.2C896,169.4,890,174,884.4,174z"/>
	</g>
	<g>
		<path class="st1" d="M733.7,98.6c-0.6-0.8-1.3-1.3-2.2-1.7s-1.8-0.6-2.8-0.6c-1.2,0-2.2,0.2-3.1,0.7c-0.9,0.4-1.7,1-2.4,1.8
			c-0.7,0.8-1.2,1.6-1.6,2.7c-0.4,1-0.6,2.1-0.6,3.3c0,1.1,0.2,2.1,0.5,3.1c0.3,1,0.9,1.8,1.5,2.6c0.7,0.7,1.5,1.3,2.4,1.7
			c0.9,0.4,2,0.6,3.2,0.6c1.2,0,2.2-0.2,3.1-0.7c0.9-0.5,1.6-1.2,2.3-2l2.4,1.8c-0.2,0.2-0.4,0.5-0.8,0.9c-0.4,0.4-0.9,0.8-1.5,1.2
			c-0.6,0.4-1.4,0.7-2.3,1s-1.9,0.4-3.1,0.4c-1.6,0-3.1-0.3-4.4-0.9c-1.3-0.6-2.4-1.4-3.3-2.4c-0.9-1-1.6-2.1-2.1-3.4
			c-0.5-1.3-0.7-2.5-0.7-3.8c0-1.6,0.3-3.1,0.8-4.4c0.5-1.3,1.3-2.5,2.2-3.5c0.9-1,2.1-1.7,3.4-2.3c1.3-0.5,2.8-0.8,4.4-0.8
			c1.4,0,2.7,0.3,4,0.8s2.4,1.3,3.2,2.4L733.7,98.6z"/>
		<path class="st1" d="M739.7,96c0-0.5,0.2-1,0.6-1.3c0.4-0.4,0.8-0.6,1.4-0.6s1,0.2,1.3,0.6s0.6,0.8,0.6,1.3s-0.2,1-0.6,1.3
			c-0.4,0.4-0.8,0.6-1.3,0.6s-1-0.2-1.4-0.6C739.9,97,739.7,96.5,739.7,96z M740.3,100.9h2.6v13.8h-2.6V100.9z"/>
		<path class="st1" d="M747.9,100.9h2.6v2h0.1c0.5-0.7,1.2-1.3,2.1-1.7c0.9-0.4,1.8-0.6,2.7-0.6c1.1,0,2,0.2,2.9,0.6
			c0.9,0.4,1.6,0.9,2.2,1.5c0.6,0.7,1.1,1.4,1.4,2.3c0.3,0.9,0.5,1.8,0.5,2.8c0,1-0.2,2-0.5,2.9s-0.8,1.6-1.4,2.3
			c-0.6,0.6-1.3,1.2-2.2,1.5c-0.9,0.4-1.8,0.6-2.9,0.6c-1,0-1.9-0.2-2.8-0.6c-0.9-0.4-1.5-1-2-1.7h-0.1v10.2h-2.6V100.9z M755,103
			c-0.7,0-1.3,0.1-1.9,0.4c-0.6,0.2-1,0.6-1.4,1s-0.7,0.9-0.9,1.5c-0.2,0.6-0.3,1.2-0.3,1.9s0.1,1.3,0.3,1.9
			c0.2,0.6,0.5,1.1,0.9,1.5s0.9,0.7,1.4,1c0.6,0.2,1.2,0.4,1.9,0.4c0.7,0,1.3-0.1,1.9-0.4c0.6-0.2,1-0.6,1.4-1s0.7-0.9,0.9-1.5
			c0.2-0.6,0.3-1.2,0.3-1.9s-0.1-1.3-0.3-1.9s-0.5-1.1-0.9-1.5s-0.9-0.7-1.4-1C756.4,103.1,755.7,103,755,103z"/>
		<path class="st1" d="M766.5,92.7h2.6V103h0.1c0.3-0.7,0.9-1.3,1.7-1.8c0.8-0.5,1.8-0.7,2.8-0.7c0.7,0,1.3,0.1,1.9,0.3
			s1.1,0.5,1.6,0.9c0.5,0.4,0.8,1,1.1,1.6c0.3,0.7,0.4,1.5,0.4,2.4v8.9h-2.6v-8.1c0-0.6-0.1-1.2-0.3-1.6c-0.2-0.5-0.4-0.8-0.7-1.1
			c-0.3-0.3-0.6-0.5-1-0.6s-0.8-0.2-1.2-0.2c-0.5,0-1,0.1-1.5,0.3c-0.5,0.2-0.9,0.5-1.2,0.8c-0.3,0.4-0.6,0.9-0.8,1.4
			c-0.2,0.6-0.3,1.3-0.3,2.1v7.1h-2.6V92.7z"/>
		<path class="st1" d="M785.5,108.8c0,0.6,0.1,1.1,0.4,1.6c0.3,0.5,0.6,0.9,1,1.3c0.4,0.3,0.9,0.6,1.5,0.8c0.6,0.2,1.1,0.3,1.7,0.3
			c0.8,0,1.5-0.2,2.1-0.6s1.2-0.9,1.7-1.5l2,1.5c-1.5,1.9-3.5,2.8-6.1,2.8c-1.1,0-2.1-0.2-2.9-0.6c-0.9-0.4-1.6-0.9-2.2-1.5
			c-0.6-0.6-1.1-1.4-1.4-2.3s-0.5-1.8-0.5-2.9c0-1,0.2-2,0.5-2.9c0.4-0.9,0.9-1.6,1.5-2.3c0.6-0.6,1.4-1.2,2.2-1.5
			c0.9-0.4,1.8-0.6,2.8-0.6c1.2,0,2.2,0.2,3.1,0.6s1.5,1,2.1,1.7s0.9,1.5,1.2,2.3c0.2,0.9,0.4,1.7,0.4,2.6v0.9H785.5z M793.7,106.7
			c0-0.6-0.1-1.1-0.3-1.6c-0.2-0.5-0.4-0.9-0.7-1.3c-0.3-0.4-0.7-0.6-1.2-0.8c-0.5-0.2-1.1-0.3-1.7-0.3c-0.6,0-1.2,0.1-1.8,0.4
			c-0.5,0.2-1,0.6-1.3,0.9c-0.4,0.4-0.7,0.8-0.9,1.3c-0.2,0.5-0.3,0.9-0.3,1.4H793.7z"/>
		<path class="st1" d="M800.5,100.9h2.6v2.1h0.1c0.2-0.4,0.4-0.7,0.7-1c0.3-0.3,0.6-0.6,1-0.8c0.4-0.2,0.8-0.4,1.2-0.5
			c0.4-0.1,0.9-0.2,1.3-0.2c0.4,0,0.8,0.1,1.2,0.2l-0.1,2.8c-0.2-0.1-0.4-0.1-0.6-0.1c-0.2,0-0.4-0.1-0.6-0.1
			c-1.3,0-2.3,0.4-2.9,1.1c-0.7,0.7-1,1.8-1,3.3v6.9h-2.6V100.9z"/>
		<path class="st1" d="M821.3,103.2h-3.7v6.2c0,0.4,0,0.8,0,1.1s0.1,0.7,0.2,1c0.1,0.3,0.3,0.5,0.6,0.7c0.3,0.2,0.6,0.3,1.1,0.3
			c0.3,0,0.6,0,1-0.1c0.3-0.1,0.6-0.2,0.9-0.3v2.4c-0.3,0.2-0.7,0.3-1.2,0.4c-0.5,0.1-0.9,0.1-1.1,0.1c-1,0-1.8-0.1-2.3-0.4
			s-1-0.6-1.2-1.1c-0.3-0.4-0.4-0.9-0.5-1.5c0-0.6-0.1-1.1-0.1-1.7v-7.2h-3v-2.3h3v-3.9h2.6v3.9h3.7V103.2z"/>
		<path class="st1" d="M827.5,108.8c0,0.6,0.1,1.1,0.4,1.6c0.3,0.5,0.6,0.9,1,1.3c0.4,0.3,0.9,0.6,1.5,0.8c0.6,0.2,1.1,0.3,1.7,0.3
			c0.8,0,1.5-0.2,2.1-0.6s1.2-0.9,1.7-1.5l2,1.5c-1.5,1.9-3.5,2.8-6.1,2.8c-1.1,0-2.1-0.2-2.9-0.6c-0.9-0.4-1.6-0.9-2.2-1.5
			c-0.6-0.6-1.1-1.4-1.4-2.3s-0.5-1.8-0.5-2.9c0-1,0.2-2,0.5-2.9c0.4-0.9,0.9-1.6,1.5-2.3c0.6-0.6,1.4-1.2,2.2-1.5
			c0.9-0.4,1.8-0.6,2.8-0.6c1.2,0,2.2,0.2,3.1,0.6s1.5,1,2.1,1.7s0.9,1.5,1.2,2.3c0.2,0.9,0.4,1.7,0.4,2.6v0.9H827.5z M835.7,106.7
			c0-0.6-0.1-1.1-0.3-1.6c-0.2-0.5-0.4-0.9-0.7-1.3c-0.3-0.4-0.7-0.6-1.2-0.8c-0.5-0.2-1.1-0.3-1.7-0.3c-0.6,0-1.2,0.1-1.8,0.4
			c-0.5,0.2-1,0.6-1.3,0.9c-0.4,0.4-0.7,0.8-0.9,1.3c-0.2,0.5-0.3,0.9-0.3,1.4H835.7z"/>
		<path class="st1" d="M846.3,107.3l-4.9-6.4h3.4l3.3,4.9l3.3-4.9h3.2l-4.7,6.4l5.6,7.3h-3.4l-4.1-5.8l-4.1,5.8h-3.2L846.3,107.3z"
			/>
		<path class="st1" d="M865.8,103.2h-3.7v6.2c0,0.4,0,0.8,0,1.1s0.1,0.7,0.2,1c0.1,0.3,0.3,0.5,0.6,0.7c0.3,0.2,0.6,0.3,1.1,0.3
			c0.3,0,0.6,0,1-0.1c0.3-0.1,0.6-0.2,0.9-0.3v2.4c-0.3,0.2-0.7,0.3-1.2,0.4c-0.5,0.1-0.9,0.1-1.1,0.1c-1,0-1.8-0.1-2.3-0.4
			s-1-0.6-1.2-1.1c-0.3-0.4-0.4-0.9-0.5-1.5c0-0.6-0.1-1.1-0.1-1.7v-7.2h-3v-2.3h3v-3.9h2.6v3.9h3.7V103.2z"/>
	</g>
</g>
<g>
	<g>
		<path class="st2" d="M583.5,174H349.9c-3.2,0-5.8-2.6-5.8-5.8V49.1c0-3.2,2.6-5.8,5.8-5.8h233.6c3.2,0,5.8,2.6,5.8,5.8v119.1
			C589.2,171.4,586.6,174,583.5,174z"/>
	</g>
	<g>
		<g>
			<path class="st1" d="M394.4,93h13.3v2.6h-10.5v6.1h9.8v2.6h-9.8v6.6h11v2.6h-13.8V93z"/>
			<path class="st1" d="M412.4,99.8h2.6v2.1h0.1c0.3-0.7,0.9-1.3,1.7-1.8c0.8-0.5,1.8-0.7,2.8-0.7c0.7,0,1.3,0.1,1.9,0.3
				s1.1,0.5,1.6,0.9c0.5,0.4,0.8,1,1.1,1.6c0.3,0.7,0.4,1.5,0.4,2.4v8.9h-2.6v-8.1c0-0.6-0.1-1.2-0.3-1.6c-0.2-0.5-0.4-0.8-0.7-1.1
				c-0.3-0.3-0.6-0.5-1-0.6s-0.8-0.2-1.2-0.2c-0.5,0-1,0.1-1.5,0.3c-0.5,0.2-0.9,0.5-1.2,0.8c-0.3,0.4-0.6,0.9-0.8,1.4
				c-0.2,0.6-0.3,1.3-0.3,2.1v7.1h-2.6V99.8z"/>
			<path class="st1" d="M439.2,103.5c-0.5-0.5-1-0.9-1.5-1.1s-1.2-0.4-1.9-0.4c-0.7,0-1.3,0.1-1.9,0.4c-0.5,0.3-1,0.6-1.3,1.1
				s-0.6,1-0.8,1.6c-0.2,0.6-0.3,1.2-0.3,1.8s0.1,1.2,0.3,1.8c0.2,0.6,0.5,1.1,0.9,1.5c0.4,0.4,0.9,0.8,1.4,1
				c0.5,0.2,1.2,0.4,1.8,0.4c0.7,0,1.4-0.1,1.9-0.4c0.5-0.3,1-0.6,1.5-1.1l1.9,1.9c-0.7,0.8-1.5,1.3-2.4,1.6
				c-0.9,0.3-1.9,0.5-2.9,0.5c-1.1,0-2-0.2-2.9-0.5c-0.9-0.3-1.6-0.8-2.3-1.5c-0.6-0.6-1.1-1.4-1.5-2.3c-0.3-0.9-0.5-1.9-0.5-2.9
				c0-1.1,0.2-2,0.5-2.9c0.3-0.9,0.8-1.7,1.5-2.3c0.6-0.6,1.4-1.1,2.3-1.5c0.9-0.4,1.9-0.5,2.9-0.5c1,0,2,0.2,2.9,0.5
				c0.9,0.4,1.7,0.9,2.4,1.6L439.2,103.5z"/>
			<path class="st1" d="M444.2,99.8h2.6v2.1h0.1c0.2-0.4,0.4-0.7,0.7-1c0.3-0.3,0.6-0.6,1-0.8c0.4-0.2,0.7-0.4,1.2-0.5
				c0.4-0.1,0.9-0.2,1.3-0.2c0.4,0,0.8,0.1,1.2,0.2l-0.1,2.8c-0.2-0.1-0.4-0.1-0.6-0.1s-0.4-0.1-0.6-0.1c-1.3,0-2.3,0.4-2.9,1.1
				c-0.7,0.7-1,1.8-1,3.3v6.9h-2.6V99.8z"/>
			<path class="st1" d="M454.2,99.8h3l4.1,10.7h0.1l3.9-10.7h2.8l-6.5,16.7c-0.2,0.6-0.5,1.1-0.7,1.6c-0.2,0.5-0.5,0.9-0.9,1.3
				c-0.3,0.3-0.8,0.6-1.3,0.8c-0.5,0.2-1.1,0.3-1.8,0.3c-0.4,0-0.8,0-1.2-0.1c-0.4,0-0.8-0.2-1.1-0.3l0.3-2.4c0.5,0.2,1,0.3,1.6,0.3
				c0.4,0,0.7-0.1,1-0.2c0.3-0.1,0.5-0.3,0.7-0.5c0.2-0.2,0.4-0.4,0.5-0.7c0.1-0.3,0.3-0.6,0.4-0.9l0.8-2.2L454.2,99.8z"/>
			<path class="st1" d="M471.2,99.8h2.6v2h0.1c0.5-0.7,1.2-1.3,2.1-1.7c0.9-0.4,1.8-0.6,2.7-0.6c1.1,0,2,0.2,2.9,0.6
				c0.9,0.4,1.6,0.9,2.2,1.5c0.6,0.7,1.1,1.4,1.4,2.3c0.3,0.9,0.5,1.8,0.5,2.8c0,1-0.2,2-0.5,2.9s-0.8,1.6-1.4,2.3
				c-0.6,0.6-1.3,1.2-2.2,1.5c-0.9,0.4-1.8,0.6-2.9,0.6c-1,0-1.9-0.2-2.8-0.6c-0.9-0.4-1.5-1-2-1.7h-0.1v10.2h-2.6V99.8z
				 M478.4,101.9c-0.7,0-1.3,0.1-1.9,0.4c-0.6,0.2-1,0.6-1.4,1s-0.7,0.9-0.9,1.5c-0.2,0.6-0.3,1.2-0.3,1.9s0.1,1.3,0.3,1.9
				c0.2,0.6,0.5,1.1,0.9,1.5s0.9,0.7,1.4,1c0.6,0.2,1.2,0.4,1.9,0.4c0.7,0,1.3-0.1,1.9-0.4c0.6-0.2,1-0.6,1.4-1s0.7-0.9,0.9-1.5
				c0.2-0.6,0.3-1.2,0.3-1.9s-0.1-1.3-0.3-1.9s-0.5-1.1-0.9-1.5s-0.9-0.7-1.4-1C479.7,102.1,479.1,101.9,478.4,101.9z"/>
			<path class="st1" d="M497.2,102.1h-3.7v6.2c0,0.4,0,0.8,0,1.1c0,0.4,0.1,0.7,0.2,1c0.1,0.3,0.3,0.5,0.6,0.7
				c0.3,0.2,0.6,0.3,1.1,0.3c0.3,0,0.6,0,1-0.1c0.3-0.1,0.6-0.2,0.9-0.3v2.4c-0.3,0.2-0.7,0.3-1.2,0.4c-0.5,0.1-0.9,0.1-1.1,0.1
				c-1,0-1.8-0.1-2.3-0.4c-0.6-0.3-1-0.6-1.2-1.1c-0.3-0.4-0.4-0.9-0.5-1.5c0-0.6-0.1-1.1-0.1-1.7v-7.2h-3v-2.3h3V96h2.6v3.9h3.7
				V102.1z"/>
			<path class="st1" d="M501,94.9c0-0.5,0.2-1,0.6-1.3c0.4-0.4,0.8-0.6,1.4-0.6s1,0.2,1.3,0.6s0.6,0.8,0.6,1.3s-0.2,1-0.6,1.3
				c-0.4,0.4-0.8,0.6-1.3,0.6s-1-0.2-1.4-0.6C501.2,95.9,501,95.4,501,94.9z M501.6,99.8h2.6v13.8h-2.6V99.8z"/>
			<path class="st1" d="M508.6,106.7c0-1,0.2-1.9,0.6-2.8c0.4-0.9,0.9-1.6,1.6-2.3c0.7-0.7,1.4-1.2,2.3-1.6c0.9-0.4,1.8-0.6,2.9-0.6
				c1,0,2,0.2,2.9,0.6c0.9,0.4,1.7,0.9,2.3,1.6c0.7,0.7,1.2,1.4,1.6,2.3c0.4,0.9,0.6,1.8,0.6,2.8c0,1-0.2,1.9-0.6,2.8
				c-0.4,0.9-0.9,1.6-1.6,2.3c-0.7,0.6-1.4,1.2-2.3,1.5c-0.9,0.4-1.8,0.6-2.9,0.6c-1,0-2-0.2-2.9-0.6c-0.9-0.4-1.7-0.9-2.3-1.5
				c-0.7-0.6-1.2-1.4-1.6-2.3C508.8,108.7,508.6,107.7,508.6,106.7z M511.4,106.7c0,0.7,0.1,1.3,0.3,1.9c0.2,0.6,0.5,1.1,0.9,1.5
				c0.4,0.4,0.9,0.7,1.4,1c0.6,0.2,1.2,0.4,1.9,0.4s1.3-0.1,1.9-0.4c0.6-0.2,1-0.6,1.4-1c0.4-0.4,0.7-0.9,0.9-1.5
				c0.2-0.6,0.3-1.2,0.3-1.9s-0.1-1.3-0.3-1.9c-0.2-0.6-0.5-1.1-0.9-1.5c-0.4-0.4-0.9-0.7-1.4-1c-0.6-0.2-1.2-0.4-1.9-0.4
				s-1.3,0.1-1.9,0.4c-0.6,0.2-1,0.6-1.4,1c-0.4,0.4-0.7,0.9-0.9,1.5C511.5,105.4,511.4,106,511.4,106.7z"/>
			<path class="st1" d="M527.4,99.8h2.6v2.1h0.1c0.3-0.7,0.9-1.3,1.7-1.8c0.8-0.5,1.8-0.7,2.8-0.7c0.7,0,1.3,0.1,1.9,0.3
				s1.1,0.5,1.6,0.9c0.5,0.4,0.8,1,1.1,1.6c0.3,0.7,0.4,1.5,0.4,2.4v8.9H537v-8.1c0-0.6-0.1-1.2-0.3-1.6c-0.2-0.5-0.4-0.8-0.7-1.1
				c-0.3-0.3-0.6-0.5-1-0.6s-0.8-0.2-1.2-0.2c-0.5,0-1,0.1-1.5,0.3c-0.5,0.2-0.9,0.5-1.2,0.8c-0.3,0.4-0.6,0.9-0.8,1.4
				c-0.2,0.6-0.3,1.3-0.3,2.1v7.1h-2.6V99.8z"/>
		</g>
	</g>
</g>
<g>
	<g>
		<g>
			<path class="st3" d="M207.3,140.1c22.3,0,38.3,2.5,49.4,5.4c3.6,1,7.2-1.8,7.2-5.6V49.1c0-3.2-2.6-5.8-5.8-5.8H24.5
				c-3.2,0-5.8,2.6-5.8,5.8v113.4c0,2,1.1,3.9,2.8,5c11.8,7,31,14.5,60.4,16.2C141.2,187,151.4,140.1,207.3,140.1z"/>
		</g>
	</g>
	<g>
		<g>
			<path class="st4" d="M83,89.3h7.2c1.3,0,2.4,0.2,3.3,0.5c0.9,0.4,1.5,0.8,2,1.4c0.5,0.6,0.8,1.2,1,1.9c0.2,0.7,0.3,1.3,0.3,2
				s-0.1,1.3-0.3,2c-0.2,0.7-0.5,1.3-1,1.9c-0.5,0.6-1.2,1-2,1.4c-0.9,0.4-1.9,0.5-3.3,0.5h-4.4v9.1H83V89.3z M85.7,98.3h3.7
				c0.5,0,1.1,0,1.6-0.1c0.5-0.1,1-0.2,1.4-0.5c0.4-0.2,0.8-0.6,1-1c0.3-0.4,0.4-1,0.4-1.7s-0.1-1.3-0.4-1.7c-0.3-0.4-0.6-0.8-1-1
				c-0.4-0.2-0.9-0.4-1.4-0.5c-0.5-0.1-1.1-0.1-1.6-0.1h-3.7V98.3z"/>
			<path class="st4" d="M100.6,87.9h2.6v21.9h-2.6V87.9z"/>
			<path class="st4" d="M108.3,97.8c0.7-0.7,1.6-1.2,2.6-1.5c1-0.3,1.9-0.5,2.9-0.5c1,0,1.9,0.1,2.6,0.4c0.7,0.3,1.3,0.6,1.8,1
				c0.5,0.4,0.8,0.9,1,1.5c0.2,0.6,0.3,1.1,0.3,1.7v7c0,0.5,0,0.9,0,1.3c0,0.4,0,0.8,0.1,1.2h-2.3c-0.1-0.7-0.1-1.4-0.1-2.1h-0.1
				c-0.6,0.9-1.3,1.5-2.1,1.9c-0.8,0.4-1.7,0.6-2.8,0.6c-0.6,0-1.2-0.1-1.8-0.3c-0.6-0.2-1.1-0.4-1.5-0.8c-0.4-0.3-0.8-0.8-1-1.3
				c-0.3-0.5-0.4-1.1-0.4-1.8c0-0.9,0.2-1.6,0.6-2.2c0.4-0.6,0.9-1.1,1.6-1.5c0.7-0.4,1.5-0.6,2.4-0.8c0.9-0.2,1.9-0.2,2.9-0.2h1.9
				v-0.6c0-0.3-0.1-0.7-0.2-1c-0.1-0.3-0.3-0.7-0.6-0.9c-0.3-0.3-0.6-0.5-1-0.7c-0.4-0.2-0.9-0.2-1.5-0.2c-0.5,0-0.9,0-1.3,0.1
				c-0.4,0.1-0.7,0.2-1,0.4c-0.3,0.1-0.6,0.3-0.8,0.5c-0.3,0.2-0.5,0.4-0.7,0.6L108.3,97.8z M115.6,103.2c-0.6,0-1.3,0-1.9,0.1
				c-0.6,0.1-1.2,0.2-1.8,0.4c-0.5,0.2-1,0.5-1.3,0.8c-0.3,0.3-0.5,0.8-0.5,1.3c0,0.8,0.3,1.4,0.8,1.7s1.3,0.5,2.2,0.5
				c0.7,0,1.3-0.1,1.8-0.4c0.5-0.2,0.9-0.6,1.2-0.9c0.3-0.4,0.5-0.8,0.7-1.3c0.1-0.5,0.2-0.9,0.2-1.4v-0.9H115.6z"/>
			<path class="st4" d="M123.7,91.1c0-0.5,0.2-1,0.6-1.3c0.4-0.4,0.8-0.6,1.4-0.6s1,0.2,1.3,0.6s0.6,0.8,0.6,1.3s-0.2,1-0.6,1.3
				c-0.4,0.4-0.8,0.6-1.3,0.6s-1-0.2-1.4-0.6C123.9,92.1,123.7,91.7,123.7,91.1z M124.3,96.1h2.6v13.8h-2.6V96.1z"/>
			<path class="st4" d="M132,96.1h2.6v2.1h0.1c0.3-0.7,0.9-1.3,1.7-1.8c0.8-0.5,1.8-0.7,2.8-0.7c0.7,0,1.3,0.1,1.9,0.3
				s1.1,0.5,1.6,0.9c0.5,0.4,0.8,1,1.1,1.6c0.3,0.7,0.4,1.5,0.4,2.4v8.9h-2.6v-8.1c0-0.6-0.1-1.2-0.3-1.6c-0.2-0.5-0.4-0.8-0.7-1.1
				c-0.3-0.3-0.6-0.5-1-0.6s-0.8-0.2-1.2-0.2c-0.5,0-1,0.1-1.5,0.3c-0.5,0.2-0.9,0.5-1.2,0.8c-0.3,0.4-0.6,0.9-0.8,1.4
				c-0.2,0.6-0.3,1.3-0.3,2.1v7.1H132V96.1z"/>
			<path class="st4" d="M156.4,98.3h-3.7v6.2c0,0.4,0,0.8,0,1.1c0,0.4,0.1,0.7,0.2,1c0.1,0.3,0.3,0.5,0.6,0.7
				c0.3,0.2,0.6,0.3,1.1,0.3c0.3,0,0.6,0,1-0.1c0.3-0.1,0.6-0.2,0.9-0.3v2.4c-0.3,0.2-0.7,0.3-1.2,0.4c-0.5,0.1-0.9,0.1-1.1,0.1
				c-1,0-1.8-0.1-2.3-0.4c-0.6-0.3-1-0.6-1.2-1.1c-0.3-0.4-0.4-0.9-0.5-1.5c0-0.6-0.1-1.1-0.1-1.7v-7.2h-3v-2.3h3v-3.9h2.6v3.9h3.7
				V98.3z"/>
			<path class="st4" d="M162.6,103.9c0,0.6,0.1,1.1,0.4,1.6c0.3,0.5,0.6,0.9,1,1.3c0.4,0.3,0.9,0.6,1.5,0.8c0.6,0.2,1.1,0.3,1.7,0.3
				c0.8,0,1.5-0.2,2.1-0.6c0.6-0.4,1.2-0.9,1.7-1.5l2,1.5c-1.5,1.9-3.5,2.8-6.1,2.8c-1.1,0-2.1-0.2-2.9-0.6
				c-0.9-0.4-1.6-0.9-2.2-1.5c-0.6-0.6-1.1-1.4-1.4-2.3s-0.5-1.8-0.5-2.9c0-1,0.2-2,0.5-2.9c0.4-0.9,0.9-1.6,1.5-2.3
				c0.6-0.6,1.4-1.2,2.2-1.5c0.9-0.4,1.8-0.6,2.8-0.6c1.2,0,2.2,0.2,3.1,0.6s1.5,1,2.1,1.7c0.5,0.7,0.9,1.5,1.2,2.3
				c0.2,0.9,0.4,1.7,0.4,2.6v0.9H162.6z M170.8,101.8c0-0.6-0.1-1.1-0.3-1.6c-0.2-0.5-0.4-0.9-0.7-1.3c-0.3-0.4-0.7-0.6-1.2-0.8
				c-0.5-0.2-1.1-0.3-1.7-0.3c-0.6,0-1.2,0.1-1.8,0.4c-0.5,0.2-1,0.6-1.3,0.9c-0.4,0.4-0.7,0.8-0.9,1.3c-0.2,0.5-0.3,0.9-0.3,1.4
				H170.8z"/>
			<path class="st4" d="M181.4,102.5l-4.9-6.4h3.4l3.3,4.9l3.3-4.9h3.2l-4.7,6.4l5.6,7.3h-3.4l-4.1-5.8l-4.1,5.8h-3.2L181.4,102.5z"
				/>
			<path class="st4" d="M200.9,98.3h-3.7v6.2c0,0.4,0,0.8,0,1.1c0,0.4,0.1,0.7,0.2,1c0.1,0.3,0.3,0.5,0.6,0.7
				c0.3,0.2,0.6,0.3,1.1,0.3c0.3,0,0.6,0,1-0.1c0.3-0.1,0.6-0.2,0.9-0.3v2.4c-0.3,0.2-0.7,0.3-1.2,0.4c-0.5,0.1-0.9,0.1-1.1,0.1
				c-1,0-1.8-0.1-2.3-0.4c-0.6-0.3-1-0.6-1.2-1.1c-0.3-0.4-0.4-0.9-0.5-1.5c0-0.6-0.1-1.1-0.1-1.7v-7.2h-3v-2.3h3v-3.9h2.6v3.9h3.7
				V98.3z"/>
		</g>
	</g>
</g>
<g id="Key_3_">
	<g>
		<path class="st6" d="M524.3,455.8H405.8c-3.2,0-5.8-2.6-5.8-5.8V331.5c0-3.2,2.6-5.8,5.8-5.8h118.6c3.2,0,5.8,2.6,5.8,5.8V450
			C530.1,453.2,527.5,455.8,524.3,455.8z"/>
		<g>
			<path class="st4" d="M410.7,425.4c2.1-2,4.3-4,6.3-6.1c13.3-13.2,26.5-26.5,39.8-39.7c0.9-0.9,1.2-1.8,1-3.1
				c-2.8-16.8,8.4-32.7,25.1-35.7c16.7-3,32.8,7.9,36,24.5c4.2,22.1-14.7,40.3-36.1,36.5c-1.1-0.2-1.8,0-2.5,0.8
				c-2,2.1-4.1,4.1-6.1,6.2c-0.9,1-1.9,1.4-3.2,1.4c-4.5-0.1-8.9,0-13.6,0c0,2.6,0,5.1,0,7.7c-2.7,0-5.2,0-7.8,0c0,2.6,0,5.1,0,7.7
				c-2.6,0-5.1,0-7.8,0c0,2.3,0.1,4.3,0,6.4c-0.1,0.8-0.4,1.8-1,2.3c-1.8,2-3.8,3.9-5.8,5.8c-0.6,0.5-1.5,0.9-2.3,1
				c-4.2,0.1-8.5,0.1-12.7,0c-0.8,0-1.8-0.5-2.5-1.1c-2.3-2.1-4.5-4.3-6.7-6.5C410.7,430.8,410.7,428.1,410.7,425.4z M457.2,387.1
				c-0.4,0.3-0.5,0.3-0.6,0.4c-12.4,12.4-24.9,24.8-37.3,37.3c-0.3,0.3-0.7,0.6-0.7,0.9c-0.1,2.4,0,4.9,0,7.4
				c0.3-0.2,0.4-0.2,0.4-0.2c12.5-12.5,25.1-25,37.6-37.5c0.3-0.3,0.7-0.8,0.7-1.3C457.3,391.9,457.2,389.6,457.2,387.1z
				 M503.8,363.6c0-4.3-3.6-7.8-7.8-7.7c-4.3,0.1-7.7,3.6-7.6,7.9c0.1,4.2,3.5,7.6,7.8,7.6C500.4,371.4,503.8,367.9,503.8,363.6z"/>
		</g>
	</g>
</g>
<g id="Key_1_">
	<g>
		<path class="st6" d="M1193.2,455.8h-118.6c-3.2,0-5.8-2.6-5.8-5.8V331.5c0-3.2,2.6-5.8,5.8-5.8h118.6c3.2,0,5.8,2.6,5.8,5.8V450
			C1198.9,453.2,1196.4,455.8,1193.2,455.8z"/>
		<g>
			<path class="st4" d="M1079.5,425.4c2.1-2,4.3-4,6.3-6.1c13.3-13.2,26.5-26.5,39.8-39.7c0.9-0.9,1.2-1.8,1-3.1
				c-2.8-16.8,8.4-32.7,25.1-35.7c16.7-3,32.8,7.9,36,24.5c4.2,22.1-14.7,40.3-36.1,36.5c-1.1-0.2-1.8,0-2.5,0.8
				c-2,2.1-4.1,4.1-6.1,6.2c-0.9,1-1.9,1.4-3.2,1.4c-4.5-0.1-8.9,0-13.6,0c0,2.6,0,5.1,0,7.7c-2.7,0-5.2,0-7.8,0c0,2.6,0,5.1,0,7.7
				c-2.6,0-5.1,0-7.8,0c0,2.3,0.1,4.3,0,6.4c-0.1,0.8-0.4,1.8-1,2.3c-1.8,2-3.8,3.9-5.8,5.8c-0.6,0.5-1.5,0.9-2.3,1
				c-4.2,0.1-8.5,0.1-12.7,0c-0.8,0-1.8-0.5-2.5-1.1c-2.3-2.1-4.5-4.3-6.7-6.5C1079.5,430.8,1079.5,428.1,1079.5,425.4z
				 M1126.1,387.1c-0.4,0.3-0.5,0.3-0.6,0.4c-12.4,12.4-24.9,24.8-37.3,37.3c-0.3,0.3-0.7,0.6-0.7,0.9c-0.1,2.4,0,4.9,0,7.4
				c0.3-0.2,0.4-0.2,0.4-0.2c12.5-12.5,25.1-25,37.6-37.5c0.3-0.3,0.7-0.8,0.7-1.3C1126.1,391.9,1126.1,389.6,1126.1,387.1z
				 M1172.7,363.6c0-4.3-3.6-7.8-7.8-7.7c-4.3,0.1-7.7,3.6-7.6,7.9c0.1,4.2,3.5,7.6,7.8,7.6C1169.3,371.4,1172.7,367.9,1172.7,363.6
				z"/>
		</g>
	</g>
</g>
<g>
</g>
<g>
</g>
<g>
</g>
<g>
</g>
<g>
</g>
<g>
</g>
<g>
</g>
<g>
</g>
<g>
</g>
<g>
</g>
<g>
</g>
<g>
</g>
<g>
</g>
<g>
</g>
<g>
</g>
<g>
</g>
</svg>
