<svg xmlns="http://www.w3.org/2000/svg" viewBox="0 0 1688.24 1216.38"><defs><style>.cls-1{fill:#211e1f;stroke:#013f58;stroke-width:4px;}.cls-1,.cls-11,.cls-4,.cls-8,.cls-9{stroke-miterlimit:10;}.cls-2{fill:#013f58;}.cls-3,.cls-4,.cls-8{fill:#fff;}.cls-11,.cls-4,.cls-8,.cls-9{stroke:#007eb1;}.cls-4{stroke-width:10px;}.cls-12,.cls-5{fill:#007eb1;}.cls-6{font-size:33.81px;}.cls-15,.cls-16,.cls-6{font-family:Avenir-Medium, Avenir;font-weight:500;}.cls-7{fill:#1c3747;}.cls-8{stroke-width:5.34px;}.cls-11,.cls-9{fill:none;}.cls-9{stroke-width:3px;}.cls-10{fill:#017fb1;}.cls-12{fill-rule:evenodd;}.cls-13{fill:#ebeaea;}.cls-14{fill:#087fb1;}.cls-15,.cls-16{font-size:30px;fill:#231f20;}.cls-16{letter-spacing:-0.05em;}.cls-17{letter-spacing:0em;}.cls-18{letter-spacing:-0.02em;}.cls-19{letter-spacing:-0.11em;}.cls-20{letter-spacing:0.02em;}.cls-21{letter-spacing:0.04em;}.cls-22{letter-spacing:0.04em;}.cls-23{letter-spacing:-0.02em;}</style></defs><g id="lines"><path class="cls-1" d="M536.11,949.15c.18-272,.18-541.4,0-812.68"/><line class="cls-1" x1="601.14" y1="136.47" x2="851.85" y2="136.47"/><line class="cls-1" x1="153.26" y1="795.57" x2="1002.08" y2="795.57"/><line class="cls-1" x1="165.31" y1="950.15" x2="1039.43" y2="948.14"/><line class="cls-1" x1="1039.54" y1="1029.81" x2="1039.54" y2="946.1"/><line class="cls-1" x1="595.38" y1="1041.72" x2="595.38" y2="947.93"/><line class="cls-1" x1="165.39" y1="1043.63" x2="165.39" y2="948.63"/><line class="cls-1" x1="378.3" y1="1043.42" x2="378.3" y2="949.63"/><line class="cls-1" x1="824.82" y1="1046.48" x2="824.82" y2="946.57"/></g><g id="text"><g id="wifi"><path class="cls-2" d="M1336.05,498.09a62.11,62.11,0,0,1-18.24,44.22,4.27,4.27,0,0,0,3,7.29,4.25,4.25,0,0,0,3-1.25,71.37,71.37,0,0,0,0-100.51,4.22,4.22,0,0,0-3-1.26,4.26,4.26,0,0,0-3,7.27,62.17,62.17,0,0,1,18.24,44.24"/><path class="cls-2" d="M1300.6,528.54a4.25,4.25,0,0,0,1.24,3,4.2,4.2,0,0,0,6,0,47.54,47.54,0,0,0,0-67,4.25,4.25,0,0,0-6,0,4.23,4.23,0,0,0-1.24,3,4.16,4.16,0,0,0,1.24,3,39,39,0,0,1,0,54.91,4.27,4.27,0,0,0-1.24,3"/><path class="cls-2" d="M1288.57,479.8a4.17,4.17,0,0,0-3,1.25,4.26,4.26,0,0,0,0,6,15.67,15.67,0,0,1,0,22,4.26,4.26,0,0,0-1.25,3,4.32,4.32,0,0,0,1.25,3,4.11,4.11,0,0,0,3,1.24,4.21,4.21,0,0,0,3-1.24,24.23,24.23,0,0,0,0-34.08,4.25,4.25,0,0,0-3-1.25"/><circle class="cls-2" cx="1268.94" cy="498.1" r="9.29"/></g><g id="wifi-2" data-name="wifi"><path class="cls-2" d="M1335.56,686.77A62.17,62.17,0,0,1,1317.32,731a4.26,4.26,0,1,0,6,6,71.37,71.37,0,0,0,0-100.51,4.19,4.19,0,0,0-3-1.26,4.26,4.26,0,0,0-3,7.27,62.22,62.22,0,0,1,18.24,44.24"/><path class="cls-2" d="M1300.11,717.22a4.23,4.23,0,0,0,1.24,3,4.18,4.18,0,0,0,6,0,47.53,47.53,0,0,0,0-67,4.25,4.25,0,0,0-6,0,4.23,4.23,0,0,0-1.24,3,4.16,4.16,0,0,0,1.24,3,39,39,0,0,1,0,54.91,4.27,4.27,0,0,0-1.24,3"/><path class="cls-2" d="M1288.08,668.48a4.21,4.21,0,0,0-3,1.24,4.27,4.27,0,0,0,0,6,15.66,15.66,0,0,1,0,22,4.25,4.25,0,0,0,0,6,4.12,4.12,0,0,0,3,1.25,4.24,4.24,0,0,0,3-1.25,24.23,24.23,0,0,0,0-34.08,4.3,4.3,0,0,0-3-1.24"/><circle class="cls-2" cx="1268.45" cy="686.77" r="9.29"/></g><g id="wifi-3" data-name="wifi"><path class="cls-2" d="M1336,880.13a62.13,62.13,0,0,1-18.24,44.22,4.27,4.27,0,1,0,6,6,71.37,71.37,0,0,0,0-100.51,4.2,4.2,0,0,0-3-1.26,4.26,4.26,0,0,0-3,7.27A62.17,62.17,0,0,1,1336,880.13"/><path class="cls-2" d="M1300.6,910.58a4.19,4.19,0,0,0,1.24,3,4.17,4.17,0,0,0,6,0,47.53,47.53,0,0,0,0-67,4.24,4.24,0,0,0-6,6,39,39,0,0,1,0,54.91,4.23,4.23,0,0,0-1.24,3"/><path class="cls-2" d="M1288.57,861.84a4.23,4.23,0,0,0-3,1.24,4.27,4.27,0,0,0,0,6,15.66,15.66,0,0,1,0,22,4.27,4.27,0,0,0,0,6,4.1,4.1,0,0,0,3,1.25,4.21,4.21,0,0,0,3-1.25,24.25,24.25,0,0,0,0-34.08,4.32,4.32,0,0,0-3-1.24"/><circle class="cls-2" cx="1268.94" cy="880.13" r="9.29"/></g><g id="wifi-4" data-name="wifi"><path class="cls-2" d="M1334.07,1037.91a62.13,62.13,0,0,1-18.24,44.22,4.27,4.27,0,0,0,6,6,71.38,71.38,0,0,0,0-100.52,4.24,4.24,0,0,0-3-1.25,4.26,4.26,0,0,0-3,7.27,62.17,62.17,0,0,1,18.24,44.24"/><path class="cls-2" d="M1298.63,1068.36a4.22,4.22,0,0,0,1.23,3,4.16,4.16,0,0,0,3,1.26,4.1,4.1,0,0,0,3-1.26,47.53,47.53,0,0,0,0-67,4.16,4.16,0,0,0-3-1.24,4.22,4.22,0,0,0-4.23,4.26,4.15,4.15,0,0,0,1.23,3,39,39,0,0,1,0,54.91,4.26,4.26,0,0,0-1.23,3"/><path class="cls-2" d="M1286.6,1019.62a4.23,4.23,0,0,0-3,1.24,4.27,4.27,0,0,0,0,6,15.66,15.66,0,0,1,0,22,4.27,4.27,0,0,0,0,6,4.14,4.14,0,0,0,3,1.25,4.21,4.21,0,0,0,3-1.25,24.23,24.23,0,0,0,0-34.08,4.28,4.28,0,0,0-3-1.24"/><circle class="cls-2" cx="1266.97" cy="1037.91" r="9.29"/></g><rect class="cls-3" x="386.54" y="176.43" width="275.18" height="59.44" rx="12"/><rect class="cls-3" x="398.52" y="610.82" width="275.18" height="59.44" rx="12"/><g id="Internet_Flat" data-name="Internet Flat"><path class="cls-4" d="M960.18,118.34a70.26,70.26,0,1,1-70.26-70.26A70,70,0,0,1,960.18,118.34Z"/><path class="cls-5" d="M857.68,134.88H828.06a62.45,62.45,0,0,1,0-33.08H857.7c-.54,5.42-.85,11-.85,16.54S857.16,129.45,857.68,134.88Zm1.06-41.36H830.82a64.2,64.2,0,0,1,40.82-36.6C865.33,65.66,861,78.82,858.74,93.52Zm0,49.63c2.27,14.71,6.62,27.87,12.92,36.6a64.26,64.26,0,0,1-40.84-36.6ZM866,101.8h47.89a159.48,159.48,0,0,1,0,33.08H866a159.48,159.48,0,0,1,0-33.08Zm1.08-8.28c3.75-23.08,12.59-39.28,22.88-39.28s19.12,16.2,22.87,39.28Zm45.75,49.63c-3.75,23.08-12.59,39.29-22.87,39.29s-19.13-16.21-22.88-39.29Zm8.33-49.63c-2.28-14.7-6.62-27.86-12.93-36.6a64.24,64.24,0,0,1,40.84,36.6Zm0,49.63h27.92a64.33,64.33,0,0,1-40.84,36.6C914.54,171,918.89,157.86,921.16,143.15ZM954,118.34a63.6,63.6,0,0,1-2.22,16.54H922.17c.54-5.43.85-11,.85-16.54s-.31-11.12-.85-16.54h29.65A64.83,64.83,0,0,1,954,118.34Z"/><rect class="cls-3" x="877.3" y="107.37" width="118.37" height="52.13" rx="16.22"/><text class="cls-6" transform="translate(877.3 144.04)">https://</text></g><rect class="cls-3" x="749.88" y="198.66" width="275.18" height="59.44" rx="12"/><rect class="cls-3" x="462.7" y="511.92" width="148.63" height="98.66"/><g id="Firewall"><rect class="cls-5" x="476.6" y="505.9" width="19.12" height="42.97" rx="0.5" transform="translate(1013.54 41.23) rotate(90)"/><rect class="cls-5" x="524.83" y="505.9" width="19.12" height="42.97" rx="0.5" transform="translate(1061.77 -7.01) rotate(90)"/><path class="cls-5" d="M562.6,517.81h16.33l-.88,7.61c-.59,4.89-1,8.23-2.11,11.53H562.6a1.48,1.48,0,0,1-1.47-1.46V519.28A1.49,1.49,0,0,1,562.6,517.81Z"/><path class="cls-7" d="M586.27,523.84A105.8,105.8,0,0,1,603,536.9a2.23,2.23,0,0,1-.36.05H580.6a76.09,76.09,0,0,0,1.81-11l.47-4.07Z"/><path class="cls-5" d="M604.13,519.28V532a104.22,104.22,0,0,0-15.6-11.85l-3.84-2.29h18A1.5,1.5,0,0,1,604.13,519.28Z"/><path class="cls-5" d="M573.6,542.11c-2.25,4-6,8.89-12.29,16.62l-.27.35c-.49.73-1,1.47-1.43,2.17H538.48a1.48,1.48,0,0,1-1.47-1.47V543.57a1.47,1.47,0,0,1,1.47-1.46Z"/><path class="cls-7" d="M580,543.57v16.21a1.47,1.47,0,0,1-1.46,1.47H564.91c7.4-9,11.35-14.52,13.64-19.14A1.45,1.45,0,0,1,580,543.57Z"/><rect class="cls-5" x="500.72" y="530.19" width="19.12" height="42.97" rx="0.5" transform="translate(1061.96 41.4) rotate(90)"/><rect class="cls-5" x="464.56" y="542.22" width="19.12" height="18.92" rx="0.19" transform="translate(1025.8 77.56) rotate(90)"/><rect class="cls-7" x="585.1" y="542.22" width="19.12" height="18.92" rx="0.19" transform="translate(1146.34 -42.98) rotate(90)"/><path class="cls-7" d="M589.58,609.86h-3.83a.57.57,0,0,1-.56-.55v-2a25.12,25.12,0,0,0,4.13,2.46Z"/><path class="cls-7" d="M604.13,608.49v.82a.58.58,0,0,1-.56.55h-.91l.39-.35C603.43,609.16,603.78,608.84,604.13,608.49Z"/><rect class="cls-5" x="464.56" y="590.83" width="19.12" height="18.92" rx="0.19" transform="translate(1074.41 126.17) rotate(90)"/><rect class="cls-5" x="476.58" y="554.49" width="19.12" height="42.97" rx="0.5" transform="translate(1062.12 89.83) rotate(90)"/><path class="cls-5" d="M555.86,568.51a32.15,32.15,0,0,0-2.48,17h-39a1.48,1.48,0,0,1-1.46-1.46V567.86a1.48,1.48,0,0,1,1.46-1.46h40a1.46,1.46,0,0,1,1.46,1.46Z"/><path class="cls-7" d="M591.1,566.4c-.76,6.5-1.11,8.28-9.16,18.12l0,.05,0,0c-.2.33-.41.65-.61.94H562.6a1.48,1.48,0,0,1-1.47-1.46V567.86a1.39,1.39,0,0,1,.09-.5,1,1,0,0,1,.18-.32,1.46,1.46,0,0,1,1.2-.64Z"/><path class="cls-7" d="M604.13,567.86V574c-.65-.7-1.32-1.4-2-2.11a58.73,58.73,0,0,0-6.62-5.44h7.2A1.49,1.49,0,0,1,604.13,567.86Z"/><path class="cls-5" d="M570.26,609.83H538.48a1.47,1.47,0,0,1-1.47-1.46V592.18a1.46,1.46,0,0,1,1.47-1.46h16.1C557.62,599.94,564.82,606.2,570.26,609.83Z"/><path class="cls-7" d="M580,601.73v6.64a1.48,1.48,0,0,1-.88,1.35h0l-.14-.06c-.65-.27-14.67-6.27-19.67-18.94h19.26a.89.89,0,0,1,.29,0,13.6,13.6,0,0,0-.15,7.93A13.26,13.26,0,0,0,580,601.73Z"/><rect class="cls-5" x="500.72" y="578.79" width="19.12" height="42.97" rx="0.5" transform="translate(1110.55 89.99) rotate(90)"/><path class="cls-7" d="M605.12,609.19l-.73.67h-1.73l.39-.35c.38-.35.73-.67,1.08-1,6-5.89,8.72-12.18,8-18.73-.53-5.24-3.31-10.63-8-15.81-.65-.7-1.32-1.4-2-2.11a58.73,58.73,0,0,0-6.62-5.44c-1.34-.94-2.19-1.46-2.28-1.52l-1.78-1.06-.24,2.17c0,.15,0,.29-.06.41-.76,6.5-1.11,8.28-9.16,18.12l0,.05,0,0c-.2.33-.41.65-.61.94a22.82,22.82,0,0,0-2.46,5.21,13.6,13.6,0,0,0-.15,7.93,13.26,13.26,0,0,0,1.32,3.05,18.21,18.21,0,0,0,5.21,5.56,25.12,25.12,0,0,0,4.13,2.46l.26.11H579.4l-.3-.14h0l-.14-.06c-.65-.27-14.67-6.27-19.67-18.94-.29-.7-.53-1.46-.76-2.22-2-6.65-1.06-13.73,2.72-21.14a1,1,0,0,1,.18-.32,46.14,46.14,0,0,1,3.27-5.47l.06-.09.06-.09s.09-.08.12-.14c7.4-9,11.35-14.52,13.64-19.14A30.39,30.39,0,0,0,580.6,537a76.09,76.09,0,0,0,1.81-11l.47-4.07,3.39,2A105.8,105.8,0,0,1,603,536.9l.26.26c11.5,11.06,18.18,22.92,19.32,34.27C623.94,584.69,618.06,597.39,605.12,609.19Z"/><path class="cls-5" d="M605.12,609.19l-.73.67h-1.73l.39-.35c.38-.35.73-.67,1.08-1,6-5.89,8.72-12.18,8-18.73-.53-5.24-3.31-10.63-8-15.81-.65-.7-1.32-1.4-2-2.11a58.73,58.73,0,0,0-6.62-5.44c-1.34-.94-2.19-1.46-2.28-1.52l-1.78-1.06-.24,2.17c0,.15,0,.29-.06.41-.76,6.5-1.11,8.28-9.16,18.12l0,.05,0,0c-.2.33-.41.65-.61.94a22.82,22.82,0,0,0-2.46,5.21,13.6,13.6,0,0,0-.15,7.93,13.26,13.26,0,0,0,1.32,3.05,18.21,18.21,0,0,0,5.21,5.56,25.12,25.12,0,0,0,4.13,2.46l.26.11H579.4l-.3-.14h0l-.14-.06c-.65-.27-14.67-6.27-19.67-18.94-.29-.7-.53-1.46-.76-2.22-2-6.65-1.06-13.73,2.72-21.14a1,1,0,0,1,.18-.32,46.14,46.14,0,0,1,3.27-5.47l.06-.09.06-.09s.09-.08.12-.14c7.4-9,11.35-14.52,13.64-19.14A30.39,30.39,0,0,0,580.6,537a76.09,76.09,0,0,0,1.81-11l.47-4.07,3.39,2A105.8,105.8,0,0,1,603,536.9l.26.26c11.5,11.06,18.18,22.92,19.32,34.27C623.94,584.69,618.06,597.39,605.12,609.19Z"/></g><g id="Gateway_Modem" data-name="Gateway Modem"><path class="cls-5" d="M516.86,74.59a31.38,31.38,0,0,0-41.43,0,1.61,1.61,0,0,0-.05,2.37l3.52,3.47a1.67,1.67,0,0,0,2.25.07,23,23,0,0,1,30,0,1.67,1.67,0,0,0,2.25-.07L516.9,77A1.61,1.61,0,0,0,516.86,74.59ZM528.3,63A47.51,47.51,0,0,0,464,63a1.63,1.63,0,0,0-.05,2.35l3.5,3.47a1.68,1.68,0,0,0,2.3,0,39.18,39.18,0,0,1,52.83,0,1.67,1.67,0,0,0,2.29,0l3.5-3.47A1.63,1.63,0,0,0,528.3,63Z"/><path class="cls-5" d="M598.58,113.27h-98.8V95.09a6.49,6.49,0,0,0,2.91-5.41,6.55,6.55,0,1,0-13.09,0,6.49,6.49,0,0,0,2.91,5.41v18.18H463a2.56,2.56,0,0,0-2.56,2.56v39a2.56,2.56,0,0,0,2.56,2.56h2.16v.7a2.17,2.17,0,0,0,2.16,2.18h2.93a2.19,2.19,0,0,0,2.18-2.18v-.7h116v.7a2.17,2.17,0,0,0,2.15,2.18h2.94a2.19,2.19,0,0,0,2.18-2.18v-.7h2.88a2.56,2.56,0,0,0,2.56-2.56v-39A2.56,2.56,0,0,0,598.58,113.27ZM493.12,139.1H466.91a2.15,2.15,0,0,1-2.15-2.16,2.17,2.17,0,0,1,2.15-2.18h26.21a2.19,2.19,0,0,1,2.15,2.18A2.16,2.16,0,0,1,493.12,139.1ZM566,145.86a9.39,9.39,0,1,1,9.39-9.39A9.38,9.38,0,0,1,566,145.86Zm21.11,0a9.39,9.39,0,1,1,9.39-9.39A9.38,9.38,0,0,1,587.06,145.86Z"/></g><g id="vLAN"><rect class="cls-8" x="449.05" y="771.34" width="182.35" height="41.71" rx="5.76"/><rect class="cls-9" x="588.21" y="776.72" width="32.61" height="30.8"/><rect class="cls-10" x="463.5" y="812.8" width="152.66" height="6.18"/><rect class="cls-5" x="461.12" y="778.92" width="13.63" height="5.77"/><rect class="cls-5" x="463.29" y="783.82" width="9.29" height="3.46"/><rect class="cls-5" x="486.81" y="778.92" width="13.63" height="5.77"/><rect class="cls-5" x="488.98" y="783.82" width="9.29" height="3.46"/><rect class="cls-5" x="510.5" y="778.92" width="13.63" height="5.77"/><rect class="cls-5" x="512.67" y="783.82" width="9.29" height="3.46"/><rect class="cls-5" x="534.19" y="778.92" width="13.63" height="5.77"/><rect class="cls-5" x="536.36" y="783.82" width="9.29" height="3.46"/><rect class="cls-5" x="557.88" y="778.92" width="13.63" height="5.77"/><rect class="cls-5" x="560.05" y="783.82" width="9.29" height="3.46"/><polyline class="cls-11" points="591.73 801.97 600.87 801.97 609.5 782.21 617.52 782.21"/><polyline class="cls-11" points="618.07 801.97 608.94 801.97 600.31 782.21 592.28 782.21"/></g><rect class="cls-3" x="394.02" y="826.62" width="275.18" height="59.44" rx="12"/><rect class="cls-3" x="114.2" y="703.71" width="63.58" height="149.13"/><g id="Server_Tall" data-name="Server Tall"><path class="cls-3" d="M121.88,711V844.58h50.25V711Zm44.28,129.88H125.84v-4h40.32Zm0-8H125.84v-4h40.32Zm0-8H125.84v-4h40.32Zm0-8H125.84v-4h40.32Zm-27.42-21.24a7.26,7.26,0,1,1,7.25,7.26A7.27,7.27,0,0,1,138.74,795.57ZM166.16,727H125.84V715.34h40.32Z"/><path class="cls-12" d="M114.2,703.71V852.84h63.58V703.71Zm52,109.09v4H125.84v-4Zm-27.42-17.23a7.26,7.26,0,1,1,7.25,7.26A7.27,7.27,0,0,1,138.74,795.57Zm27.42,25.24v4H125.84v-4Zm0,8v4H125.84v-4Zm0,8v4H125.84v-4Zm0-109.87H125.84V715.34h40.32Z"/></g><rect class="cls-3" x="1407.63" y="440.03" width="119.98" height="73.41"/><g id="Laptop"><g id="Laptop-2" data-name="Laptop"><path class="cls-5" d="M1532.62,523.12h-127l-10.16,7.5v5.62h147.29v-5.62Zm-53.59,10H1459.7a1.3,1.3,0,0,1-1.3-1.3,1.32,1.32,0,0,1,1.3-1.31H1479a1.32,1.32,0,0,1,1.3,1.31A1.3,1.3,0,0,1,1479,533.16ZM1530.64,440a6.71,6.71,0,0,0-4.75-2h-113.5a6.76,6.76,0,0,0-6.74,6.74v74.28h127V444.79A6.71,6.71,0,0,0,1530.64,440ZM1527,513.44H1411.28V444.79a1.07,1.07,0,0,1,.33-.78,1.06,1.06,0,0,1,.78-.33h113.5a1.13,1.13,0,0,1,1.11,1.11Z"/></g><polygon class="cls-13" points="1524.65 511.46 1442.44 511.46 1413.02 511.46 1413.02 445.65 1479.34 445.65 1524.65 445.65 1524.65 511.46"/></g><rect class="cls-3" x="1407.89" y="630.38" width="119.98" height="73.41"/><g id="Laptop-3" data-name="Laptop"><g id="Laptop-4" data-name="Laptop"><path class="cls-5" d="M1532.88,713.47h-127l-10.17,7.5v5.62h147.3V721Zm-53.59,10H1460a1.31,1.31,0,0,1,0-2.61h19.33a1.31,1.31,0,0,1,0,2.61Zm51.62-93.13a6.71,6.71,0,0,0-4.76-2h-113.5a6.74,6.74,0,0,0-6.73,6.74v74.28h127V635.14A6.71,6.71,0,0,0,1530.91,630.38Zm-3.65,73.41H1411.54V635.14a1.13,1.13,0,0,1,1.11-1.11h113.5a1.13,1.13,0,0,1,1.11,1.11Z"/></g><polygon class="cls-13" points="1524.92 701.81 1442.71 701.81 1413.29 701.81 1413.29 636 1479.6 636 1524.92 636 1524.92 701.81"/></g><rect class="cls-3" x="1407.36" y="820.73" width="119.98" height="73.41"/><g id="Laptop-5" data-name="Laptop"><g id="Laptop-6" data-name="Laptop"><path class="cls-5" d="M1532.35,903.82h-127l-10.17,7.5v5.62h147.3v-5.62Zm-53.58,10h-19.33a1.31,1.31,0,0,1,0-2.61h19.33a1.31,1.31,0,0,1,0,2.61Zm51.61-93.13a6.71,6.71,0,0,0-4.76-2H1412.13a6.74,6.74,0,0,0-6.74,6.74v74.27h127V825.49A6.71,6.71,0,0,0,1530.38,820.73Zm-3.64,73.41H1411V825.49a1.11,1.11,0,0,1,.33-.78,1.08,1.08,0,0,1,.79-.33h113.49a1.1,1.1,0,0,1,.79.33,1.11,1.11,0,0,1,.33.78Z"/></g><polygon class="cls-13" points="1524.39 892.16 1442.18 892.16 1412.76 892.16 1412.76 826.34 1479.07 826.34 1524.39 826.34 1524.39 892.16"/></g><g id="Mobile_Apps" data-name="Mobile Apps"><path class="cls-5" d="M1503.58,980.34H1438c-7.76,0-14.06,5.61-14.06,12.56v108.75c0,6.94,6.3,12.56,14.06,12.56h65.54c7.77,0,14.06-5.62,14.06-12.56V992.9C1517.64,986,1511.35,980.34,1503.58,980.34Zm-29.74,8a.93.93,0,1,1-1,.92A1,1,0,0,1,1473.84,988.36Zm-2.91,0a.93.93,0,1,1,0,1.86.93.93,0,1,1,0-1.86Zm-2.92,0a.93.93,0,1,1-1,.92A1,1,0,0,1,1468,988.36Zm2.8,119.58a7.25,7.25,0,1,1,7.24-7.25A7.25,7.25,0,0,1,1470.81,1107.94Zm38.72-29a9.59,9.59,0,0,1-9.59,9.59H1442a9.59,9.59,0,0,1-9.59-9.59v-75.21a9.58,9.58,0,0,1,9.59-9.58h57.93a9.59,9.59,0,0,1,9.59,9.58Z"/></g><g id="Gateway_Modem-2" data-name="Gateway Modem"><path class="cls-5" d="M1042.84,759.81H999.43a3.77,3.77,0,0,0-3.76,3.76v57.27a3.76,3.76,0,0,0,3.76,3.75h3.17v1a3.19,3.19,0,0,0,3.17,3.2h4.3a3.22,3.22,0,0,0,3.21-3.2v-1h170.46v1a3.19,3.19,0,0,0,3.17,3.2h4.31a3.22,3.22,0,0,0,3.2-3.2v-1h4.24a3.76,3.76,0,0,0,3.76-3.75V763.57a3.77,3.77,0,0,0-3.76-3.76H1053.52m-9.78,37.94h-38.49a3.19,3.19,0,0,1,0-6.37h38.49a3.19,3.19,0,0,1,0,6.37Zm107,9.93a13.79,13.79,0,1,1,13.78-13.79A13.78,13.78,0,0,1,1150.73,807.68Zm31,0a13.79,13.79,0,1,1,13.78-13.79A13.78,13.78,0,0,1,1181.74,807.68Z"/></g><line class="cls-5" x1="1027.85" y1="679.15" x2="1028.73" y2="769.23"/><path class="cls-14" d="M1020.35,679.15l.77,78.87.11,11.21c.09,9.65,15.09,9.67,15,0l-.77-78.87-.11-11.21c-.09-9.65-15.09-9.67-15,0Z"/><line class="cls-5" x1="1164.08" y1="677.83" x2="1164.95" y2="767.91"/><path class="cls-14" d="M1156.58,677.83l.76,78.87.11,11.21c.09,9.65,15.09,9.67,15,0l-.77-78.87-.1-11.21c-.1-9.65-15.1-9.67-15,0Z"/><g id="wifi-5" data-name="wifi"><path class="cls-5" d="M1094.85,617.71A76,76,0,0,1,1148.9,640a5.34,5.34,0,0,0,7.38,0,5.21,5.21,0,0,0,0-7.36,87.25,87.25,0,0,0-122.86,0,5.2,5.2,0,0,0,7.35,7.36,76,76,0,0,1,54.08-22.29"/><path class="cls-5" d="M1132.06,661a5.17,5.17,0,0,0,3.7-1.51,5.11,5.11,0,0,0,0-7.31,58.09,58.09,0,0,0-81.84,0,5.18,5.18,0,0,0,0,7.31,5.13,5.13,0,0,0,3.69,1.51,5.08,5.08,0,0,0,3.66-1.51,47.67,47.67,0,0,1,67.12,0,5.2,5.2,0,0,0,3.67,1.51"/><path class="cls-5" d="M1072.49,675.74a5.21,5.21,0,0,0,8.89,3.65,19.15,19.15,0,0,1,26.93,0,5.19,5.19,0,0,0,3.66,1.52,5.26,5.26,0,0,0,3.7-1.52,5,5,0,0,0,1.52-3.63,5.16,5.16,0,0,0-1.52-3.69,29.63,29.63,0,0,0-41.66,0,5.27,5.27,0,0,0-1.52,3.67"/><circle class="cls-5" cx="1094.85" cy="699.73" r="11.35"/></g><rect class="cls-3" x="967.45" y="834.02" width="263.18" height="59.44" rx="12"/><rect class="cls-13" x="110.44" y="1047.24" width="109.91" height="70.42"/><g id="Server_Tall-2" data-name="Server Tall"><path class="cls-3" d="M231.41,1033.6v105.48h32.4V1033.6ZM260,1136.12H234V1133h26Zm0-6.33H234v-3.14h26Zm0-6.31H234v-3.16h26Zm0-6.32H234V1114h26Zm-17.69-16.76c0-3.16,2.1-5.73,4.68-5.73s4.69,2.57,4.69,5.73-2.1,5.73-4.69,5.73S242.28,1103.56,242.28,1100.4ZM260,1046.24H234v-9.18h26Z"/><path class="cls-12" d="M226.46,1027.88V1145.6h41V1027.88ZM260,1114v3.16H234V1114Zm-17.69-13.6c0-3.16,2.1-5.73,4.68-5.73s4.69,2.57,4.69,5.73-2.1,5.73-4.69,5.73S242.28,1103.56,242.28,1100.4ZM260,1120.32v3.16H234v-3.16Zm0,6.33v3.14H234v-3.14Zm0,6.32v3.15H234V1133Zm0-86.73H234v-9.18h26Z"/><circle class="cls-3" cx="247.23" cy="1101.4" r="6.44"/></g><g id="Desktop"><path class="cls-5" d="M220.79,1040.76H110a5.67,5.67,0,0,0-5.67,5.67v72.12a5.66,5.66,0,0,0,5.67,5.66H220.79a5.66,5.66,0,0,0,5.67-5.66v-72.12A5.67,5.67,0,0,0,220.79,1040.76Zm-56.32,80.3a2.89,2.89,0,1,1,2.89-2.89A2.89,2.89,0,0,1,164.47,1121.06Zm55.88-12.69a5,5,0,0,1-4.77,4.65H113.94c-2.45,0-3.5-2.25-3.5-4.65V1051c0-2.39,1-4.11,3.5-4.11H215.58c2.45,0,4.77,1.72,4.77,4.11Zm-30.66,32.13h-8.34a2.93,2.93,0,0,1-2.75-3l-1.95-7.26a3,3,0,0,0-3.16-2.94H156.07a3,3,0,0,0-3.16,3l-1.94,7.31a2.84,2.84,0,0,1-2.75,2.94h-7.88a3.05,3.05,0,0,0,0,6.1h49.35a3.05,3.05,0,0,0,0-6.1Z"/></g><g id="Server_Tall-3" data-name="Server Tall"><path class="cls-3" d="M73.83,1033.73v105.49h32.41V1033.73Zm28.56,102.52h-26v-3.15h26Zm0-6.32h-26v-3.15h26Zm0-6.31h-26v-3.16h26Zm0-6.32h-26v-3.17h26Zm-17.68-16.77c0-3.15,2.1-5.73,4.68-5.73s4.68,2.58,4.68,5.73-2.1,5.73-4.68,5.73S84.71,1103.7,84.71,1100.53Zm17.68-54.16h-26v-9.18h26Z"/><path class="cls-12" d="M68.88,1028v117.72h41V1028Zm33.51,86.11v3.17h-26v-3.17Zm-17.68-13.6c0-3.15,2.1-5.73,4.68-5.73s4.68,2.58,4.68,5.73-2.1,5.73-4.68,5.73S84.71,1103.7,84.71,1100.53Zm17.68,19.93v3.16h-26v-3.16Zm0,6.32v3.15h-26v-3.15Zm0,6.32v3.15h-26v-3.15Zm0-86.73h-26v-9.18h26Z"/><circle class="cls-3" cx="89.66" cy="1100.53" r="6.44"/></g><rect class="cls-13" x="327.16" y="1046.84" width="109.91" height="70.42"/><g id="Server_Tall-4" data-name="Server Tall"><path class="cls-3" d="M448.13,1033.19v105.49h32.41V1033.19Zm28.56,102.53h-26v-3.15h26Zm0-6.33h-26v-3.15h26Zm0-6.31h-26v-3.16h26Zm0-6.32h-26v-3.16h26ZM459,1100c0-3.16,2.11-5.73,4.68-5.73s4.69,2.57,4.69,5.73-2.1,5.73-4.69,5.73S459,1103.16,459,1100Zm17.69-54.16h-26v-9.18h26Z"/><path class="cls-12" d="M443.18,1027.48V1145.2h41V1027.48Zm33.51,86.12v3.16h-26v-3.16ZM459,1100c0-3.16,2.11-5.73,4.68-5.73s4.69,2.57,4.69,5.73-2.1,5.73-4.69,5.73S459,1103.16,459,1100Zm17.69,19.92v3.16h-26v-3.16Zm0,6.32v3.15h-26v-3.15Zm0,6.33v3.15h-26v-3.15Zm0-86.73h-26v-9.18h26Z"/><circle class="cls-3" cx="463.96" cy="1101" r="6.44"/></g><g id="Desktop-2" data-name="Desktop"><path class="cls-5" d="M437.52,1040.36H326.72a5.66,5.66,0,0,0-5.66,5.66v72.13a5.65,5.65,0,0,0,5.66,5.66h110.8a5.66,5.66,0,0,0,5.66-5.66V1046A5.67,5.67,0,0,0,437.52,1040.36Zm-56.33,80.3a2.89,2.89,0,1,1,2.89-2.89A2.89,2.89,0,0,1,381.19,1120.66ZM437.07,1108a5,5,0,0,1-4.76,4.65H330.66c-2.45,0-3.5-2.25-3.5-4.65v-57.39c0-2.39,1-4.11,3.5-4.11H432.31c2.44,0,4.76,1.72,4.76,4.11Zm-30.66,32.12h-8.34a2.92,2.92,0,0,1-2.75-3l-1.95-7.27a3,3,0,0,0-3.16-2.93H372.79a3,3,0,0,0-3.16,3l-1.94,7.31a2.84,2.84,0,0,1-2.75,2.93h-7.87a3.06,3.06,0,0,0,0,6.11h49.34a3.06,3.06,0,0,0,0-6.11Z"/></g><g id="Server_Tall-5" data-name="Server Tall"><path class="cls-3" d="M290.55,1033.33v105.49H323V1033.33Zm28.56,102.52h-26v-3.15h26Zm0-6.33h-26v-3.14h26Zm0-6.3h-26v-3.17h26Zm0-6.32h-26v-3.17h26Zm-17.68-16.77c0-3.16,2.1-5.73,4.68-5.73s4.68,2.57,4.68,5.73-2.1,5.73-4.68,5.73S301.43,1103.29,301.43,1100.13ZM319.11,1046h-26v-9.18h26Z"/><path class="cls-12" d="M285.6,1027.61v117.73h41V1027.61Zm33.51,86.12v3.17h-26v-3.17Zm-17.68-13.6c0-3.16,2.1-5.73,4.68-5.73s4.68,2.57,4.68,5.73-2.1,5.73-4.68,5.73S301.43,1103.29,301.43,1100.13Zm17.68,19.92v3.17h-26v-3.17Zm0,6.33v3.14h-26v-3.14Zm0,6.32v3.15h-26v-3.15Zm0-86.73h-26v-9.18h26Z"/><circle class="cls-3" cx="306.38" cy="1100.13" r="6.44"/></g><rect class="cls-13" x="544.24" y="1046.57" width="109.91" height="70.42"/><g id="Server_Tall-6" data-name="Server Tall"><path class="cls-3" d="M665.21,1032.93v105.49h32.4V1032.93Zm28.55,102.52h-26v-3.15h26Zm0-6.32h-26V1126h26Zm0-6.31h-26v-3.16h26Zm0-6.32h-26v-3.17h26Zm-17.68-16.77c0-3.15,2.1-5.73,4.68-5.73s4.68,2.58,4.68,5.73-2.09,5.73-4.68,5.73S676.08,1102.9,676.08,1099.73Zm17.68-54.16h-26v-9.18h26Z"/><path class="cls-12" d="M660.25,1027.21v117.73h41V1027.21Zm33.51,86.12v3.17h-26v-3.17Zm-17.68-13.6c0-3.15,2.1-5.73,4.68-5.73s4.68,2.58,4.68,5.73-2.09,5.73-4.68,5.73S676.08,1102.9,676.08,1099.73Zm17.68,19.93v3.16h-26v-3.16Zm0,6.32v3.15h-26V1126Zm0,6.32v3.15h-26v-3.15Zm0-86.73h-26v-9.18h26Z"/><circle class="cls-3" cx="681.03" cy="1100.73" r="6.44"/></g><g id="Desktop-3" data-name="Desktop"><path class="cls-5" d="M654.59,1040.1H543.79a5.66,5.66,0,0,0-5.66,5.66v72.13a5.67,5.67,0,0,0,5.66,5.66h110.8a5.66,5.66,0,0,0,5.66-5.66v-72.13A5.65,5.65,0,0,0,654.59,1040.1Zm-56.32,80.29a2.89,2.89,0,1,1,2.89-2.89A2.89,2.89,0,0,1,598.27,1120.39Zm55.88-12.68a5,5,0,0,1-4.77,4.64H547.73c-2.44,0-3.49-2.25-3.49-4.64v-57.39c0-2.4,1-4.11,3.49-4.11H649.38c2.45,0,4.77,1.71,4.77,4.11Zm-30.66,32.12h-8.34a2.92,2.92,0,0,1-2.75-3l-1.95-7.27a3,3,0,0,0-3.16-2.94H589.87a3,3,0,0,0-3.16,3l-1.94,7.3a2.84,2.84,0,0,1-2.75,2.94h-7.88a3.06,3.06,0,0,0,0,6.11h49.35a3.06,3.06,0,0,0,0-6.11Z"/></g><g id="Server_Tall-7" data-name="Server Tall"><path class="cls-3" d="M507.63,1033.07v105.48H540V1033.07Zm28.56,102.52h-26v-3.15h26Zm0-6.33h-26v-3.14h26Zm0-6.31h-26v-3.16h26Zm0-6.32h-26v-3.16h26Zm-17.69-16.76c0-3.16,2.11-5.73,4.69-5.73s4.68,2.57,4.68,5.73-2.1,5.73-4.68,5.73S518.5,1103,518.5,1099.87Zm17.69-54.16h-26v-9.18h26Z"/><path class="cls-12" d="M502.68,1027.35v117.72h41V1027.35Zm33.51,86.12v3.16h-26v-3.16Zm-17.69-13.6c0-3.16,2.11-5.73,4.69-5.73s4.68,2.57,4.68,5.73-2.1,5.73-4.68,5.73S518.5,1103,518.5,1099.87Zm17.69,19.92V1123h-26v-3.16Zm0,6.33v3.14h-26v-3.14Zm0,6.32v3.15h-26v-3.15Zm0-86.73h-26v-9.18h26Z"/><circle class="cls-3" cx="523.46" cy="1099.87" r="6.44"/></g><rect class="cls-13" x="771.48" y="1047.7" width="109.91" height="70.42"/><g id="Server_Tall-8" data-name="Server Tall"><path class="cls-3" d="M892.44,1034.06v105.49h32.41V1034.06ZM921,1136.58H895v-3.15h26Zm0-6.33H895v-3.14h26Zm0-6.3H895v-3.17h26Zm0-6.33H895v-3.16h26Zm-17.68-16.76c0-3.16,2.1-5.73,4.68-5.73s4.68,2.57,4.68,5.73-2.1,5.73-4.68,5.73S903.32,1104,903.32,1100.86ZM921,1046.7H895v-9.18h26Z"/><path class="cls-12" d="M887.49,1028.34v117.73h41V1028.34ZM921,1114.46v3.16H895v-3.16Zm-17.68-13.6c0-3.16,2.1-5.73,4.68-5.73s4.68,2.57,4.68,5.73-2.1,5.73-4.68,5.73S903.32,1104,903.32,1100.86ZM921,1120.78V1124H895v-3.17Zm0,6.33v3.14H895v-3.14Zm0,6.32v3.15H895v-3.15Zm0-86.73H895v-9.18h26Z"/><circle class="cls-3" cx="908.27" cy="1101.86" r="6.44"/></g><g id="Desktop-4" data-name="Desktop"><path class="cls-5" d="M881.83,1041.23H771a5.65,5.65,0,0,0-5.66,5.66V1119a5.66,5.66,0,0,0,5.66,5.67h110.8a5.66,5.66,0,0,0,5.66-5.67v-72.12A5.65,5.65,0,0,0,881.83,1041.23Zm-56.32,80.29a2.89,2.89,0,1,1,2.88-2.89A2.89,2.89,0,0,1,825.51,1121.52Zm55.88-12.69a5,5,0,0,1-4.77,4.65H775c-2.45,0-3.49-2.25-3.49-4.65v-57.38c0-2.4,1-4.12,3.49-4.12H876.62c2.45,0,4.77,1.72,4.77,4.12ZM850.73,1141h-8.34a2.92,2.92,0,0,1-2.75-3l-1.95-7.26a3,3,0,0,0-3.16-2.94H817.11a3,3,0,0,0-3.16,3l-2,7.3a2.84,2.84,0,0,1-2.74,2.94h-7.88a3.06,3.06,0,0,0,0,6.11h49.35a3.06,3.06,0,0,0,0-6.11Z"/></g><g id="Server_Tall-9" data-name="Server Tall"><path class="cls-3" d="M734.87,1034.19v105.49h32.41V1034.19Zm28.56,102.53h-26v-3.15h26Zm0-6.33h-26v-3.15h26Zm0-6.31h-26v-3.16h26Zm0-6.32h-26v-3.16h26ZM745.74,1101c0-3.16,2.11-5.73,4.69-5.73s4.68,2.57,4.68,5.73-2.1,5.73-4.68,5.73S745.74,1104.16,745.74,1101Zm17.69-54.16h-26v-9.18h26Z"/><path class="cls-12" d="M729.92,1028.48V1146.2h41V1028.48Zm33.51,86.12v3.16h-26v-3.16ZM745.74,1101c0-3.16,2.11-5.73,4.69-5.73s4.68,2.57,4.68,5.73-2.1,5.73-4.68,5.73S745.74,1104.16,745.74,1101Zm17.69,19.92v3.16h-26v-3.16Zm0,6.32v3.15h-26v-3.15Zm0,6.33v3.15h-26v-3.15Zm0-86.73h-26v-9.18h26Z"/><circle class="cls-3" cx="750.7" cy="1101" r="6.44"/></g><path class="cls-5" d="M1087.45,1028.69H970.16a6,6,0,0,0-5.94,5.94v96.93a6,6,0,0,0,5.94,5.94h117.29a6,6,0,0,0,5.94-5.94v-96.93A6,6,0,0,0,1087.45,1028.69Zm-73.34,89.54a11.46,11.46,0,0,1-11.42,11.43h-18a11.46,11.46,0,0,1-11.42-11.43V1048a11.46,11.46,0,0,1,11.42-11.43h18a11.46,11.46,0,0,1,11.42,11.43Zm25.43,9.25a3.72,3.72,0,0,1-3.71,3.71h-7.24a3.73,3.73,0,0,1-3.72-3.71v-7.24a3.74,3.74,0,0,1,3.72-3.72h7.24a3.73,3.73,0,0,1,3.71,3.72Zm0-20.18a3.72,3.72,0,0,1-3.71,3.71h-7.24a3.73,3.73,0,0,1-3.72-3.71v-7.24a3.74,3.74,0,0,1,3.72-3.72h7.24a3.73,3.73,0,0,1,3.71,3.72Zm0-20.18a3.73,3.73,0,0,1-3.71,3.72h-7.24a3.74,3.74,0,0,1-3.72-3.72v-7.24a3.73,3.73,0,0,1,3.72-3.71h7.24a3.72,3.72,0,0,1,3.71,3.71Zm0-21a3.73,3.73,0,0,1-3.71,3.72h-7.24a3.74,3.74,0,0,1-3.72-3.72v-7.24a3.73,3.73,0,0,1,3.72-3.71h7.24a3.72,3.72,0,0,1,3.71,3.71Zm23.43,61.36a3.72,3.72,0,0,1-3.72,3.71H1052a3.72,3.72,0,0,1-3.72-3.71v-7.24a3.73,3.73,0,0,1,3.72-3.72h7.23a3.73,3.73,0,0,1,3.72,3.72Zm0-20.18a3.72,3.72,0,0,1-3.72,3.71H1052a3.72,3.72,0,0,1-3.72-3.71v-7.24a3.73,3.73,0,0,1,3.72-3.72h7.23a3.73,3.73,0,0,1,3.72,3.72Zm0-20.18a3.73,3.73,0,0,1-3.72,3.72H1052a3.73,3.73,0,0,1-3.72-3.72v-7.24a3.72,3.72,0,0,1,3.72-3.71h7.23a3.72,3.72,0,0,1,3.72,3.71Zm0-21a3.73,3.73,0,0,1-3.72,3.72H1052a3.73,3.73,0,0,1-3.72-3.72v-7.24a3.72,3.72,0,0,1,3.72-3.71h7.23a3.72,3.72,0,0,1,3.72,3.71Zm23.43,61.36a3.72,3.72,0,0,1-3.72,3.71h-7.24a3.72,3.72,0,0,1-3.71-3.71v-7.24a3.73,3.73,0,0,1,3.71-3.72h7.24a3.73,3.73,0,0,1,3.72,3.72Zm0-20.18a3.72,3.72,0,0,1-3.72,3.71h-7.24a3.72,3.72,0,0,1-3.71-3.71v-7.24a3.73,3.73,0,0,1,3.71-3.72h7.24a3.73,3.73,0,0,1,3.72,3.72Zm0-20.18a3.73,3.73,0,0,1-3.72,3.72h-7.24a3.73,3.73,0,0,1-3.71-3.72v-7.24a3.72,3.72,0,0,1,3.71-3.71h7.24a3.72,3.72,0,0,1,3.72,3.71Zm0-21a3.73,3.73,0,0,1-3.72,3.72h-7.24a3.73,3.73,0,0,1-3.71-3.72v-7.24a3.72,3.72,0,0,1,3.71-3.71h7.24a3.72,3.72,0,0,1,3.72,3.71Zm1-21a3.72,3.72,0,0,1-3.71,3.72h-57.34a3.73,3.73,0,0,1-3.72-3.72v-7.94a3.73,3.73,0,0,1,3.72-3.72h57.34a3.72,3.72,0,0,1,3.71,3.72Z"/></g><g id="text-2" data-name="text"><text class="cls-15" transform="translate(987.65 1181.66) rotate(-0.56)">Phone</text><text class="cls-16" transform="translate(742.45 1182.58)">W<tspan class="cls-17" x="27.45" y="0">orkstation</tspan></text><text class="cls-16" transform="translate(515.21 1181.45)">W<tspan class="cls-17" x="27.45" y="0">orkstation</tspan></text><text class="cls-16" transform="translate(298.14 1181.72)">W<tspan class="cls-17" x="27.45" y="0">orkstation</tspan></text><text class="cls-16" transform="translate(81.41 1182.12)">W<tspan class="cls-17" x="27.45" y="0">orkstation</tspan></text><text class="cls-15" transform="translate(1044.62 867.22) scale(0.96 1)">Wi<tspan class="cls-18" x="36.06" y="0">r</tspan><tspan x="46.62" y="0">eless </tspan><tspan x="10.23" y="36">Access </tspan><tspan x="21.62" y="72">Point</tspan></text><text class="cls-15" transform="translate(1432.13 1160.19)"><tspan class="cls-19">T</tspan><tspan x="13.89" y="0">ablet</tspan></text><text class="cls-15" transform="translate(1419.54 952.66)"><tspan class="cls-20">L</tspan><tspan x="16.17" y="0">a</tspan><tspan class="cls-21" x="31.74" y="0">p</tspan><tspan class="cls-20" x="51.27" y="0">t</tspan><tspan x="62.97" y="0">op</tspan></text><text class="cls-15" transform="translate(1420.07 762.31)"><tspan class="cls-20">L</tspan><tspan x="16.17" y="0">a</tspan><tspan class="cls-21" x="31.74" y="0">p</tspan><tspan class="cls-20" x="51.27" y="0">t</tspan><tspan x="62.97" y="0">op</tspan></text><text class="cls-15" transform="translate(1419.81 571.96)"><tspan class="cls-20">L</tspan><tspan x="16.17" y="0">a</tspan><tspan class="cls-21" x="31.74" y="0">p</tspan><tspan class="cls-20" x="51.27" y="0">t</tspan><tspan x="62.97" y="0">op</tspan></text><text class="cls-15" transform="translate(99.83 892.04)">Se<tspan class="cls-22" x="33.36" y="0">r</tspan><tspan x="45.66" y="0">ver</tspan></text><text class="cls-15" transform="translate(485.96 867.68)">S<tspan class="cls-20" x="16.68" y="0">w</tspan><tspan class="cls-21" x="40.05" y="0">i</tspan><tspan x="48.45" y="0">t</tspan><tspan class="cls-20" x="59.55" y="0">c</tspan><tspan x="74.61" y="0">h</tspan></text><text class="cls-15" transform="translate(485.15 217.49)">Ro<tspan class="cls-22" x="36.15" y="0">u</tspan><tspan x="54.03" y="0">ter</tspan></text><text class="cls-15" transform="translate(484.81 650.19)">Fi<tspan class="cls-23" x="24.42" y="0">r</tspan><tspan x="34.98" y="0">ewall</tspan></text><text class="cls-15" transform="translate(833.28 239.71)">Internet</text></g></svg>