<svg id="Layer_1" data-name="Layer 1" xmlns="http://www.w3.org/2000/svg" width="11in" height="5.69in" viewBox="0 0 792 409.66"><defs><style>.cls-1{fill:#e2e2e3;opacity:0.43;}.cls-2{fill:#7e8283;stroke:#474747;}.cls-11,.cls-2,.cls-9{stroke-miterlimit:10;}.cls-3{fill:#007eb1;}.cls-4{fill:#97ca38;}.cls-5,.cls-8{font-size:13.81px;font-family:Avenir-Roman, Avenir;}.cls-5{fill:#414042;}.cls-13,.cls-5{letter-spacing:0.04em;}.cls-6{letter-spacing:0.04em;}.cls-7,.cls-8{letter-spacing:0.04em;}.cls-8{fill:#fff;}.cls-11,.cls-9{fill:none;}.cls-9{stroke:#424042;stroke-width:3px;}.cls-10{fill:#424042;}.cls-11{stroke:#e17b28;stroke-width:20px;}.cls-12{fill:#e17b28;}</style></defs><rect class="cls-1" x="142.67" y="14.4" width="504.26" height="378.75" rx="5.77"/><rect class="cls-2" x="165.6" y="156.54" width="159.34" height="105.01" rx="5.77"/><rect class="cls-3" x="19.03" y="182.12" width="79.49" height="44.69" rx="2.98"/><rect class="cls-4" x="196.5" y="191.6" width="97.54" height="48.21" rx="3.65"/><text class="cls-5" transform="translate(211.97 221.24)">Algori<tspan class="cls-6" x="41.17" y="0">t</tspan><tspan class="cls-7" x="46.6" y="0">hm</tspan></text><rect class="cls-4" x="346.33" y="294.11" width="97.54" height="61.07" rx="3.65"/><text class="cls-5" transform="translate(383.03 319.37)">Key<tspan x="-31.74" y="16.57">Management</tspan></text><rect class="cls-3" x="183.75" y="52.72" width="123.04" height="44.18" rx="3.65"/><text class="cls-8" transform="translate(194.96 77.71)">Encryp<tspan class="cls-6" x="45.79" y="0">t</tspan><tspan x="51.22" y="0">ion Key</tspan></text><line class="cls-9" x1="131.81" y1="204.46" x2="101.62" y2="204.46"/><polygon class="cls-10" points="130.37 199.52 138.92 204.46 130.37 209.4 130.37 199.52"/><line class="cls-9" x1="243.5" y1="139.53" x2="243.5" y2="109.34"/><polygon class="cls-10" points="248.44 138.08 243.5 146.63 238.56 138.08 248.44 138.08"/><rect class="cls-3" x="183.75" y="310.32" width="123.04" height="44.18" rx="3.65"/><text class="cls-8" transform="translate(192.79 335.31)">Cryptovariables</text><line class="cls-9" x1="243.5" y1="275.03" x2="243.5" y2="305.22"/><polygon class="cls-10" points="238.56 276.48 243.5 267.93 248.44 276.48 238.56 276.48"/><line class="cls-11" x1="428.58" y1="209.47" x2="337.64" y2="209.47"/><polygon class="cls-12" points="423.92 193.51 451.55 209.47 423.92 225.43 423.92 193.51"/><text class="cls-8" transform="translate(30.25 207.36)">Plaintext</text><rect class="cls-3" x="692.82" y="182.12" width="79.49" height="44.69" rx="2.98"/><line class="cls-9" x1="679.43" y1="204.46" x2="649.25" y2="204.46"/><polygon class="cls-10" points="677.99 199.52 686.54 204.46 677.99 209.4 677.99 199.52"/><text class="cls-8" transform="translate(704.04 207.36)">Plaintext</text><text class="cls-8" transform="translate(209.51 179.78)">Encryp<tspan class="cls-6" x="45.79" y="0">t</tspan><tspan x="51.22" y="0">ion</tspan></text><rect class="cls-2" x="465.26" y="156.54" width="159.34" height="105.01" rx="5.77"/><rect class="cls-4" x="496.16" y="191.6" width="97.54" height="48.21" rx="3.65"/><text class="cls-5" transform="translate(511.63 221.24)">Algori<tspan class="cls-6" x="41.17" y="0">t</tspan><tspan class="cls-7" x="46.6" y="0">hm</tspan></text><rect class="cls-3" x="483.4" y="52.72" width="123.04" height="44.18" rx="3.65"/><text class="cls-8" transform="translate(493.6 77.71)">Decryp<tspan class="cls-6" x="47.84" y="0">t</tspan><tspan class="cls-13" x="53.27" y="0">ion Key</tspan></text><line class="cls-9" x1="543.16" y1="139.53" x2="543.16" y2="109.34"/><polygon class="cls-10" points="548.09 138.08 543.16 146.63 538.22 138.08 548.09 138.08"/><rect class="cls-3" x="483.4" y="310.32" width="123.04" height="44.18" rx="3.65"/><text class="cls-8" transform="translate(492.45 335.31)">Cryptovariables</text><line class="cls-9" x1="543.16" y1="275.03" x2="543.16" y2="305.22"/><polygon class="cls-10" points="538.22 276.48 543.16 267.93 548.09 276.48 538.22 276.48"/><text class="cls-8" transform="translate(508.14 179.78)">Decryp<tspan class="cls-6" x="47.84" y="0">t</tspan><tspan class="cls-13" x="53.27" y="0">ion</tspan></text><text class="cls-8" transform="translate(348.22 213.95)">Ciphertext</text></svg>