<?xml version="1.0" encoding="utf-8"?>
<!-- Generator: Adobe Illustrator 26.0.1, SVG Export Plug-In . SVG Version: 6.00 Build 0)  -->
<svg version="1.1" xmlns="http://www.w3.org/2000/svg" xmlns:xlink="http://www.w3.org/1999/xlink" x="0px" y="0px"
	 width="1384.8px" height="888px" viewBox="0 0 1384.8 888" style="enable-background:new 0 0 1384.8 888;" xml:space="preserve">
<style type="text/css">
	.st0{fill:#201D1E;stroke:#013F58;stroke-width:4;stroke-miterlimit:10;}
	.st1{fill:#FFFFFF;stroke:#007EB1;stroke-width:10;stroke-miterlimit:10;}
	.st2{fill:#007EB1;}
	.st3{fill:#FFFFFF;}
	.st4{fill:#0D7FB0;}
	.st5{fill:#EAE9E9;}
	.st6{fill-rule:evenodd;clip-rule:evenodd;fill:#007EB1;}
	.st7{fill:#013F58;}
	.st8{fill:none;}
	.st9{fill:#231F20;}
	.st10{fill:#221F1F;}
</style>
<g id="Layer_1">
	<line class="st0" x1="971.6" y1="624.2" x2="971.6" y2="250.9"/>
	<line class="st0" x1="598.3" y1="437" x2="971.6" y2="437"/>
	<line class="st0" x1="173.1" y1="436.1" x2="401.9" y2="436.1"/>
	<g id="Internet_Flat_00000011725375172740175520000012487463511746601644_">
		<g>
			<path class="st1" d="M187,421c0,17.8-6.7,34.1-17.6,46.5c-12.9,14.6-31.7,23.7-52.6,23.7c-38.8,0-70.3-31.5-70.3-70.3
				c0-21,9.2-39.8,23.7-52.6c12.4-11,28.7-17.6,46.5-17.6C155.6,350.8,187,382.2,187,421z"/>
			<g>
				<path class="st2" d="M84.5,437.6H54.9c-1.4-5.3-2.2-10.8-2.2-16.5c0-5.7,0.8-11.2,2.2-16.5h29.6c-0.5,5.4-0.9,11-0.9,16.5
					C83.7,426.6,84,432.1,84.5,437.6z M85.6,396.2H57.6c7.4-17.6,22.4-31.1,40.8-36.6C92.2,368.3,87.8,381.5,85.6,396.2z
					 M85.6,445.8c2.3,14.7,6.6,27.9,12.9,36.6C80,477,65,463.4,57.6,445.8H85.6z M92.8,404.5h47.9c0.5,5.3,0.9,10.8,0.9,16.5
					c0,5.7-0.3,11.2-0.9,16.5H92.8c-0.5-5.3-0.9-10.8-0.9-16.5C91.9,415.3,92.3,409.8,92.8,404.5z M93.9,396.2
					c3.7-23.1,12.6-39.3,22.9-39.3s19.1,16.2,22.9,39.3H93.9z M139.6,445.8c-3.7,23.1-12.6,39.3-22.9,39.3s-19.1-16.2-22.9-39.3
					H139.6z M148,396.2c-2.3-14.7-6.6-27.9-12.9-36.6c18.5,5.5,33.4,19,40.8,36.6H148z M148,445.8h27.9
					c-7.4,17.6-22.4,31.1-40.8,36.6C141.4,473.7,145.7,460.5,148,445.8z M180.8,421c0,5.7-0.8,11.2-2.2,16.5H149
					c0.5-5.4,0.9-11,0.9-16.5c0-5.6-0.3-11.1-0.9-16.5h29.6C180,409.8,180.8,415.3,180.8,421z"/>
			</g>
			<path class="st3" d="M206.3,462.2h-85.9c-8.9,0-16.2-7.3-16.2-16.2v-19.7c0-8.9,7.3-16.2,16.2-16.2h85.9
				c8.9,0,16.2,7.3,16.2,16.2v19.7C222.5,454.9,215.2,462.2,206.3,462.2z"/>
			<g>
				<path d="M106.4,421.2h3v12h0.1c0.4-0.9,1-1.5,2-2.1c0.9-0.5,2-0.8,3.3-0.8c0.8,0,1.5,0.1,2.2,0.4s1.3,0.6,1.9,1.1
					c0.5,0.5,1,1.1,1.3,1.9c0.3,0.8,0.5,1.7,0.5,2.8v10.3h-3v-9.5c0-0.7-0.1-1.4-0.3-1.9c-0.2-0.5-0.5-1-0.8-1.3
					c-0.3-0.3-0.7-0.6-1.2-0.7s-0.9-0.2-1.4-0.2c-0.6,0-1.2,0.1-1.8,0.3c-0.5,0.2-1,0.5-1.4,1s-0.7,1-0.9,1.7
					c-0.2,0.7-0.3,1.5-0.3,2.4v8.2h-3V421.2z"/>
				<path d="M133.8,433.3h-4.4v7.3c0,0.5,0,0.9,0,1.3s0.1,0.8,0.3,1.2c0.1,0.4,0.4,0.6,0.7,0.8c0.3,0.2,0.7,0.3,1.3,0.3
					c0.4,0,0.7,0,1.1-0.1c0.4-0.1,0.7-0.2,1-0.4v2.8c-0.4,0.2-0.8,0.3-1.4,0.4s-1,0.1-1.3,0.1c-1.2,0-2.1-0.2-2.7-0.5
					c-0.6-0.3-1.1-0.7-1.4-1.3s-0.5-1.1-0.5-1.7s-0.1-1.3-0.1-1.9v-8.4h-3.5v-2.6h3.5v-4.5h3v4.5h4.4V433.3z"/>
				<path d="M146.3,433.3H142v7.3c0,0.5,0,0.9,0,1.3s0.1,0.8,0.3,1.2c0.1,0.4,0.4,0.6,0.7,0.8c0.3,0.2,0.7,0.3,1.3,0.3
					c0.4,0,0.7,0,1.1-0.1c0.4-0.1,0.7-0.2,1-0.4v2.8c-0.4,0.2-0.8,0.3-1.4,0.4s-1,0.1-1.3,0.1c-1.2,0-2.1-0.2-2.7-0.5
					c-0.6-0.3-1.1-0.7-1.4-1.3s-0.5-1.1-0.5-1.7s-0.1-1.3-0.1-1.9v-8.4h-3.5v-2.6h3.5v-4.5h3v4.5h4.4V433.3z"/>
				<path d="M150.2,430.7h3v2.3h0.1c0.6-0.9,1.4-1.5,2.4-2c1-0.5,2.1-0.7,3.2-0.7c1.2,0,2.4,0.2,3.4,0.6c1,0.4,1.9,1,2.6,1.8
					c0.7,0.8,1.3,1.7,1.6,2.7s0.6,2.1,0.6,3.3c0,1.2-0.2,2.3-0.6,3.3s-0.9,1.9-1.6,2.7s-1.6,1.3-2.6,1.8c-1,0.4-2.1,0.6-3.4,0.6
					c-1.1,0-2.2-0.2-3.2-0.7s-1.8-1.1-2.3-2h-0.1v11.8h-3V430.7z M158.6,433.1c-0.8,0-1.5,0.1-2.2,0.4c-0.7,0.3-1.2,0.7-1.7,1.2
					c-0.5,0.5-0.8,1.1-1,1.8s-0.4,1.4-0.4,2.2s0.1,1.6,0.4,2.2s0.6,1.3,1,1.8c0.5,0.5,1,0.9,1.7,1.1c0.7,0.3,1.4,0.4,2.2,0.4
					s1.5-0.1,2.2-0.4c0.7-0.3,1.2-0.7,1.7-1.1c0.5-0.5,0.8-1.1,1-1.8s0.4-1.4,0.4-2.2s-0.1-1.6-0.4-2.2s-0.6-1.3-1-1.8
					c-0.5-0.5-1-0.9-1.7-1.2C160.1,433.3,159.4,433.1,158.6,433.1z"/>
				<path d="M179.4,434.7c-0.4-0.5-0.8-0.8-1.3-1.1c-0.5-0.3-1.2-0.5-1.9-0.5c-0.7,0-1.3,0.2-1.9,0.5s-0.8,0.8-0.8,1.3
					c0,0.5,0.2,0.9,0.5,1.1s0.7,0.5,1.1,0.7c0.4,0.2,0.9,0.3,1.3,0.4c0.5,0.1,0.9,0.2,1.2,0.2c0.7,0.2,1.3,0.3,1.8,0.6
					c0.6,0.2,1.1,0.5,1.5,0.9c0.4,0.4,0.7,0.8,1,1.3c0.2,0.5,0.4,1.1,0.4,1.9c0,0.9-0.2,1.7-0.6,2.3s-0.9,1.2-1.5,1.6
					c-0.6,0.4-1.3,0.7-2.1,0.9c-0.8,0.2-1.6,0.3-2.3,0.3c-1.3,0-2.5-0.2-3.5-0.6c-1-0.4-1.9-1.1-2.7-2.2l2.3-1.9
					c0.5,0.5,1,0.9,1.7,1.3c0.6,0.4,1.4,0.6,2.2,0.6c0.4,0,0.8,0,1.2-0.1s0.7-0.2,1-0.4s0.6-0.4,0.7-0.6c0.2-0.3,0.3-0.6,0.3-0.9
					c0-0.5-0.1-0.8-0.4-1.1s-0.6-0.5-1-0.7c-0.4-0.2-0.8-0.3-1.3-0.4s-0.8-0.2-1.2-0.3c-0.7-0.2-1.3-0.3-1.9-0.5
					c-0.6-0.2-1.1-0.5-1.6-0.8c-0.5-0.3-0.8-0.8-1.1-1.3s-0.4-1.2-0.4-1.9c0-0.8,0.2-1.6,0.5-2.2c0.3-0.6,0.8-1.1,1.4-1.5
					c0.6-0.4,1.2-0.7,2-0.9s1.5-0.3,2.2-0.3c1.1,0,2.1,0.2,3.1,0.6c1,0.4,1.8,1.1,2.4,2L179.4,434.7z"/>
				<path d="M188.3,435c-0.6,0-1.1-0.2-1.6-0.7s-0.7-1-0.7-1.6s0.2-1.1,0.7-1.6s1-0.7,1.6-0.7s1.1,0.2,1.6,0.7s0.7,1,0.7,1.6
					s-0.2,1.1-0.7,1.6S188.9,435,188.3,435z M186.1,444.7c0-0.6,0.2-1.1,0.7-1.6c0.4-0.4,1-0.7,1.6-0.7s1.1,0.2,1.6,0.7
					c0.4,0.4,0.7,1,0.7,1.6c0,0.6-0.2,1.1-0.7,1.6s-1,0.7-1.6,0.7s-1.1-0.2-1.6-0.7S186.1,445.3,186.1,444.7z"/>
				<path d="M195.4,448.2l-2.4-0.9l10.8-26l2.3,0.9L195.4,448.2z"/>
				<path d="M208.5,448.2l-2.4-0.9l10.8-26l2.3,0.9L208.5,448.2z"/>
			</g>
		</g>
	</g>
	<g>
		<path class="st3" d="M288.9,574.3H37.7c-6.6,0-12-5.4-12-12v-35.4c0-6.6,5.4-12,12-12h251.2c6.6,0,12,5.4,12,12v35.4
			C300.9,568.9,295.5,574.3,288.9,574.3z"/>
	</g>
	<g>
		<g id="Gateway_Modem_00000128466176073975977610000009491258926891633341_">
			<g>
				<path class="st2" d="M442.7,402.3h-43.4c-2.1,0-3.8,1.7-3.8,3.8v57.3c0,2.1,1.7,3.8,3.8,3.8h3.2v1c0,1.8,1.4,3.2,3.2,3.2h4.3
					c1.8,0,3.2-1.4,3.2-3.2v-1h170.5v1c0,1.8,1.4,3.2,3.2,3.2h4.3c1.8,0,3.2-1.4,3.2-3.2v-1h4.2c2.1,0,3.8-1.7,3.8-3.8V406
					c0-2.1-1.7-3.8-3.8-3.8H453.3 M443.6,440.2h-38.5c-1.8,0-3.2-1.4-3.2-3.2c0-1.8,1.4-3.2,3.2-3.2h38.5c1.7,0,3.2,1.4,3.2,3.2
					C446.7,438.8,445.3,440.2,443.6,440.2z M550.5,450.2c-7.6,0-13.8-6.2-13.8-13.8c0-7.6,6.2-13.8,13.8-13.8
					c7.6,0,13.8,6.2,13.8,13.8C564.3,444,558.2,450.2,550.5,450.2z M581.6,450.2c-7.6,0-13.8-6.2-13.8-13.8
					c0-7.6,6.2-13.8,13.8-13.8c7.6,0,13.8,6.2,13.8,13.8C595.3,444,589.2,450.2,581.6,450.2z"/>
			</g>
		</g>
		<g>
			<line class="st2" x1="427.7" y1="321.6" x2="428.5" y2="411.7"/>
			<g>
				<path class="st4" d="M420.2,321.6c0.3,26.3,0.5,52.6,0.8,78.9c0,3.7,0.1,7.5,0.1,11.2c0.1,9.6,15.1,9.7,15,0
					c-0.3-26.3-0.5-52.6-0.8-78.9c0-3.7-0.1-7.5-0.1-11.2C435.1,312,420.1,312,420.2,321.6L420.2,321.6z"/>
			</g>
		</g>
		<g>
			<line class="st2" x1="563.9" y1="320.3" x2="564.8" y2="410.4"/>
			<g>
				<path class="st4" d="M556.4,320.3c0.3,26.3,0.5,52.6,0.8,78.9c0,3.7,0.1,7.5,0.1,11.2c0.1,9.6,15.1,9.7,15,0
					c-0.3-26.3-0.5-52.6-0.8-78.9c0-3.7-0.1-7.5-0.1-11.2C571.3,310.7,556.3,310.6,556.4,320.3L556.4,320.3z"/>
			</g>
		</g>
		<g id="wifi_00000091001675697735521870000008457934561946876289_">
			<path class="st2" d="M494.7,260.2c20.5,0,39.6,7.9,54,22.3c1,1,2.3,1.5,3.7,1.5c1.4,0,2.7-0.5,3.7-1.5c1-1,1.5-2.3,1.5-3.7
				c0-1.4-0.5-2.7-1.5-3.7c-33.9-33.7-89-33.7-122.9,0c-1,1-1.5,2.3-1.5,3.7c0,1.4,0.5,2.7,1.5,3.7c2,2,5.3,2,7.4,0
				C455,268.1,474.2,260.2,494.7,260.2"/>
			<path class="st2" d="M531.9,303.5c1.4,0,2.7-0.5,3.7-1.5c1-1,1.5-2.3,1.5-3.7c0-1.4-0.5-2.7-1.5-3.6c-22.6-22.5-59.3-22.5-81.8,0
				c-1,1-1.5,2.3-1.5,3.6c0,1.4,0.5,2.7,1.5,3.7c1,1,2.3,1.5,3.7,1.5c1.4,0,2.7-0.5,3.7-1.5c18.5-18.4,48.6-18.4,67.1,0
				C529.2,303,530.5,303.5,531.9,303.5"/>
			<path class="st2" d="M472.3,318.2c0,1.4,0.6,2.7,1.5,3.7c2,2,5.3,2,7.4,0c7.4-7.4,19.5-7.4,26.9,0c1,1,2.3,1.5,3.7,1.5
				c1.4,0,2.7-0.6,3.7-1.5c1-1,1.5-2.3,1.5-3.6c0-1.4-0.5-2.7-1.5-3.7c-11.5-11.4-30.2-11.4-41.7,0
				C472.9,315.5,472.3,316.8,472.3,318.2"/>
			<circle class="st2" cx="494.7" cy="342.2" r="11.4"/>
		</g>
	</g>
	<g>
		<path class="st3" d="M618.5,535.9H379.3c-6.6,0-12-5.4-12-12v-35.4c0-6.6,5.4-12,12-12h239.2c6.6,0,12,5.4,12,12v35.4
			C630.5,530.5,625.1,535.9,618.5,535.9z"/>
	</g>
	<rect x="871.1" y="247" class="st3" width="196.6" height="43.7"/>
	<g>
		<rect x="918.3" y="145.4" class="st5" width="109.9" height="70.4"/>
		<g>
			<g id="Server_Tall_00000134239333342702268420000004001638920649666219_">
				<g>
					<path class="st3" d="M1039.2,132.8v105.5h32.4V132.8H1039.2z M1067.8,235.3h-26v-3.2h26V235.3z M1067.8,229h-26v-3.1h26V229z
						 M1067.8,222.7h-26v-3.2h26V222.7z M1067.8,216.3h-26v-3.2h26V216.3z M1050.1,199.6c0-3.2,2.1-5.7,4.7-5.7
						c2.6,0,4.7,2.6,4.7,5.7c0,3.2-2.1,5.7-4.7,5.7C1052.2,205.3,1050.1,202.7,1050.1,199.6z M1067.8,145.4h-26v-9.2h26V145.4z"/>
					<g>
						<path class="st6" d="M1034.3,127.1v117.7h41V127.1H1034.3z M1067.8,213.2v3.2h-26v-3.2H1067.8z M1050.1,199.6
							c0-3.2,2.1-5.7,4.7-5.7c2.6,0,4.7,2.6,4.7,5.7c0,3.2-2.1,5.7-4.7,5.7C1052.2,205.3,1050.1,202.7,1050.1,199.6z M1067.8,219.5
							v3.2h-26v-3.2H1067.8z M1067.8,225.8v3.1h-26v-3.1H1067.8z M1067.8,232.2v3.2h-26v-3.2H1067.8z M1067.8,145.4h-26v-9.2h26
							V145.4z"/>
					</g>
				</g>
				<circle class="st3" cx="1055" cy="199.6" r="6.4"/>
			</g>
			<g id="Desktop_00000121976928443222840080000016179436392355694250_">
				<path class="st2" d="M1028.6,138.9H917.8c-3.1,0-5.7,2.5-5.7,5.7v72.1c0,3.1,2.5,5.7,5.7,5.7h110.8c3.1,0,5.7-2.5,5.7-5.7v-72.1
					C1034.3,141.5,1031.7,138.9,1028.6,138.9z M972.3,219.2c-1.6,0-2.9-1.3-2.9-2.9c0-1.6,1.3-2.9,2.9-2.9c1.6,0,2.9,1.3,2.9,2.9
					C975.2,217.9,973.9,219.2,972.3,219.2z M1028.2,206.6c0,2.4-2.3,4.6-4.8,4.6H921.7c-2.4,0-3.5-2.2-3.5-4.6v-57.4
					c0-2.4,1-4.1,3.5-4.1h101.6c2.4,0,4.8,1.7,4.8,4.1V206.6z M997.5,238.7h-8.3c-1.5,0-2.7-1.4-2.7-3l-2-7.3c0-1.7-1.4-2.9-3.2-2.9
					h-17.4c-1.7,0-3.2,1.2-3.2,3l-1.9,7.3c0,1.6-1.2,2.9-2.7,2.9h-7.9c-1.6,0-2.9,1.4-2.9,3.1c0,1.6,1.3,3.1,2.9,3.1h49.3
					c1.6,0,2.9-1.4,2.9-3.1C1000.4,240.1,999.1,238.7,997.5,238.7z"/>
			</g>
		</g>
	</g>
	<g>
		<g id="Printer_00000114773304204182407530000004075183739625684376_">
			<g id="printer_x5F_v02_00000139256210599522885110000006434846475518082191_">
				<g>
					<path class="st2" d="M1008.9,576.9h-78.5c-2.6,0-4.7,2.1-4.7,4.7v67c0,2.6,2.1,4.7,4.7,4.7h78.5c2.6,0,4.7-2.1,4.7-4.7v-67
						C1013.6,579,1011.5,576.9,1008.9,576.9z M982.9,584h1.1c1.2,0,2.4,0.5,3.2,1.3l18.3,18.4c0.9,0.9,1.3,2,1.3,3.2v1.1h-24V584z
						 M933,634.9v-48.2c0-2.5,2.1-4.6,4.6-4.6h37.9v26.8c0,2.5,2.1,4.6,4.6,4.6h26.8v21.4H933z"/>
					<g id="Data_00000049902756091276751550000015729952899788876712_">
						<g>
							<path class="st2" d="M933,634.9v40.6c0,0.2,0,0.4,0,0.6c0.2-0.9,1-1.6,2-1.6h69.9c1,0,1.8,0.7,2,1.6c0-0.2,0-0.4,0-0.6v-40.6
								H933z"/>
						</g>
					</g>
					<path class="st2" d="M1049,634.9H889.1c-1.8,0-3.3,1.5-3.3,3.3v48h166.5v-48C1052.3,636.4,1050.8,634.9,1049,634.9z
						 M1006.9,679.2c0,1.1-0.9,2-2,2H935c-1.1,0-2-0.9-2-2v-2.6c0-0.1,0-0.3,0-0.4v0c0.2-0.9,1-1.6,2-1.6h69.9c1,0,1.8,0.7,2,1.6v0
						c0,0.1,0,0.3,0,0.4V679.2z M1022,652c0,1-0.8,1.9-1.9,1.9h-2.2c-1,0-1.9-0.8-1.9-1.9v-2.2c0-1,0.8-1.8,1.9-1.8h2.2
						c1,0,1.9,0.8,1.9,1.8V652z M1030.7,652c0,1-0.8,1.9-1.9,1.9h-2.2c-1,0-1.9-0.8-1.9-1.9v-2.2c0-1,0.8-1.8,1.9-1.8h2.2
						c1,0,1.9,0.8,1.9,1.8V652z M1045.8,651.9c0,1.1-0.9,2-1.9,2h-8.2c-1.1,0-1.9-0.9-1.9-2v-8.2c0-1.1,0.9-2,1.9-2h8.2
						c1.1,0,1.9,0.9,1.9,2V651.9z M885.7,700.4c0,1.8,1.5,3.3,3.3,3.3H1049c1.8,0,3.3-1.5,3.3-3.3v-2.3H885.7V700.4z M885.7,687.9
						v8.6h166.5v-8.6H885.7z"/>
					<rect x="885.4" y="686.2" class="st2" width="0.4" height="1.7"/>
					<rect x="1052.3" y="686.2" class="st2" width="1.1" height="1.7"/>
					<rect x="885.4" y="696.4" class="st2" width="0.4" height="1.7"/>
					<rect x="1052.3" y="696.4" class="st2" width="1.1" height="1.7"/>
				</g>
			</g>
		</g>
		<rect x="933" y="582.1" class="st3" width="42.2" height="52.8"/>
	</g>
	<g>
		<g>
			<rect x="1196.8" y="43.2" class="st7" width="120" height="73.4"/>
			<g id="Laptop_00000065763131025458014950000012664113415145626244_">
				<g>
					<g id="Laptop_00000063604453043929152600000005654750945170975157_">
						<g>
							<path class="st2" d="M1321.8,126.3h-127l-10.2,7.5v5.6h147.3v-5.6L1321.8,126.3z M1268.2,136.4h-19.3c-0.7,0-1.3-0.6-1.3-1.3
								c0-0.7,0.6-1.3,1.3-1.3h19.3c0.7,0,1.3,0.6,1.3,1.3C1269.5,135.8,1268.9,136.4,1268.2,136.4z M1319.8,43.2
								c-1.2-1.2-2.9-2-4.8-2h-113.5c-1.9,0-3.5,0.8-4.8,2c-1.2,1.2-2,2.9-2,4.8v74.3h127V48C1321.8,46.1,1321,44.5,1319.8,43.2z
								 M1316.2,116.7h-115.7V48c0-0.3,0.1-0.6,0.3-0.8c0.2-0.2,0.5-0.3,0.8-0.3H1315c0.3,0,0.6,0.1,0.8,0.3
								c0.2,0.2,0.3,0.5,0.3,0.8V116.7z"/>
						</g>
					</g>
				</g>
			</g>
		</g>
	</g>
	<g id="wifi_00000170973426826299394400000015675673044046319756_">
		<path class="st3" d="M1258.5,58.1c11.6,0,22.6,4.5,30.8,12.7c0.6,0.6,1.3,0.8,2.1,0.8c0.8,0,1.5-0.3,2.1-0.8
			c0.6-0.6,0.9-1.3,0.9-2.1c0-0.8-0.3-1.5-0.9-2.1c-19.3-19.2-50.7-19.2-70,0c-0.6,0.6-0.9,1.3-0.9,2.1c0,0.8,0.3,1.5,0.9,2.1
			c1.1,1.1,3,1.1,4.2,0C1235.9,62.6,1246.9,58.1,1258.5,58.1"/>
		<path class="st3" d="M1279.7,82.8c0.8,0,1.5-0.3,2.1-0.9c0.6-0.6,0.9-1.3,0.9-2.1c0-0.8-0.3-1.5-0.9-2.1
			c-12.9-12.8-33.8-12.8-46.6,0c-0.6,0.6-0.9,1.3-0.9,2.1c0,0.8,0.3,1.5,0.9,2.1c0.6,0.6,1.3,0.9,2.1,0.9c0.8,0,1.5-0.3,2.1-0.9
			c10.5-10.5,27.7-10.5,38.2,0C1278.2,82.5,1278.9,82.8,1279.7,82.8"/>
		<path class="st3" d="M1245.8,91.2c0,0.8,0.3,1.5,0.9,2.1c1.2,1.2,3,1.2,4.2,0c4.2-4.2,11.1-4.2,15.3,0c0.6,0.6,1.3,0.9,2.1,0.9
			c0.8,0,1.5-0.3,2.1-0.9c0.6-0.6,0.9-1.3,0.9-2.1c0-0.8-0.3-1.5-0.9-2.1c-6.5-6.5-17.2-6.5-23.7,0
			C1246.1,89.7,1245.8,90.4,1245.8,91.2"/>
		<circle class="st3" cx="1258.5" cy="104.8" r="6.5"/>
	</g>
	<g>
		<rect x="1230.4" y="677.9" class="st7" width="46.5" height="86.9"/>
		<g id="Mobile_Device_00000162329354011806980160000008957951192674971069_">
			<path class="st2" d="M1274.1,673.2h-40.6c-3.8,0-6.8,3.1-6.8,6.8v89c0,3.8,3.1,6.8,6.8,6.8h40.6c3.8,0,6.8-3.1,6.8-6.8v-89
				C1280.9,676.3,1277.9,673.2,1274.1,673.2z M1249,675.5h9.6c0.5,0,0.9,0.4,0.9,0.9c0,0.5-0.4,0.9-0.9,0.9h-9.6
				c-0.5,0-0.8-0.4-0.8-0.9C1248.2,675.9,1248.5,675.5,1249,675.5z M1253.8,773c-2.3,0-4.1-1.9-4.1-4.1c0-2.3,1.9-4.1,4.1-4.1
				c2.3,0,4.1,1.9,4.1,4.1C1257.9,771.1,1256.1,773,1253.8,773z M1275.3,760.2c0,1.2-1,2.2-2.2,2.2h-38.6c-1.2,0-2.2-1-2.2-2.2
				v-79.6c0-1.2,1-2.2,2.2-2.2h38.6c1.2,0,2.2,1,2.2,2.2V760.2z"/>
		</g>
	</g>
	<g id="wifi_00000147211902922187249610000011932932479236144555_">
		<path class="st3" d="M1253.8,707c6.6,0,12.8,2.5,17.4,7.2c0.3,0.3,0.7,0.5,1.2,0.5c0.4,0,0.9-0.2,1.2-0.5c0.3-0.3,0.5-0.7,0.5-1.2
			c0-0.5-0.2-0.9-0.5-1.2c-10.9-10.9-28.7-10.9-39.6,0c-0.3,0.3-0.5,0.7-0.5,1.2c0,0.4,0.2,0.9,0.5,1.2c0.6,0.6,1.7,0.6,2.4,0
			C1241,709.5,1247.2,707,1253.8,707"/>
		<path class="st3" d="M1265.8,721c0.5,0,0.9-0.2,1.2-0.5c0.3-0.3,0.5-0.7,0.5-1.2c0-0.4-0.2-0.9-0.5-1.2c-7.3-7.2-19.1-7.2-26.4,0
			c-0.3,0.3-0.5,0.7-0.5,1.2c0,0.4,0.2,0.9,0.5,1.2c0.3,0.3,0.7,0.5,1.2,0.5c0.4,0,0.9-0.2,1.2-0.5c6-5.9,15.7-5.9,21.6,0
			C1264.9,720.8,1265.3,721,1265.8,721"/>
		<path class="st3" d="M1246.6,725.7c0,0.4,0.2,0.9,0.5,1.2c0.7,0.7,1.7,0.7,2.4,0c2.4-2.4,6.3-2.4,8.7,0c0.3,0.3,0.7,0.5,1.2,0.5
			c0.4,0,0.9-0.2,1.2-0.5c0.3-0.3,0.5-0.7,0.5-1.2c0-0.5-0.2-0.9-0.5-1.2c-3.7-3.7-9.7-3.7-13.4,0
			C1246.8,724.8,1246.6,725.2,1246.6,725.7"/>
		<circle class="st3" cx="1253.8" cy="733.4" r="3.7"/>
	</g>
	<rect x="1216.2" y="352.7" class="st7" width="77.1" height="103.2"/>
	<g>
		<g id="Mobile_Apps_00000178191908737832569530000000826889635538272925_">
			<g>
				<g>
					<g>
						<g>
							<path class="st2" d="M1287.4,342.8h-65.5c-7.8,0-14.1,5.6-14.1,12.6v108.8c0,6.9,6.3,12.6,14.1,12.6h65.5
								c7.8,0,14.1-5.6,14.1-12.6V355.4C1301.4,348.4,1295.2,342.8,1287.4,342.8z M1257.6,350.8c0.6,0,1,0.4,1,0.9
								c0,0.5-0.5,0.9-1,0.9c-0.6,0-1-0.4-1-0.9C1256.6,351.3,1257.1,350.8,1257.6,350.8z M1254.7,350.8c0.6,0,1,0.4,1,0.9
								c0,0.5-0.5,0.9-1,0.9c-0.6,0-1-0.4-1-0.9C1253.7,351.3,1254.2,350.8,1254.7,350.8z M1251.8,350.8c0.6,0,1,0.4,1,0.9
								c0,0.5-0.4,0.9-1,0.9s-1-0.4-1-0.9C1250.8,351.3,1251.2,350.8,1251.8,350.8z M1254.6,470.4c-4,0-7.2-3.2-7.2-7.2
								c0-4,3.2-7.2,7.2-7.2s7.2,3.2,7.2,7.2C1261.9,467.2,1258.6,470.4,1254.6,470.4z M1293.3,441.4c0,5.3-4.3,9.6-9.6,9.6h-57.9
								c-5.3,0-9.6-4.3-9.6-9.6v-75.2c0-5.3,4.3-9.6,9.6-9.6h57.9c5.3,0,9.6,4.3,9.6,9.6V441.4z"/>
						</g>
					</g>
				</g>
			</g>
		</g>
	</g>
	<g id="wifi_00000057149593787878033340000012204426976488653236_">
		<path class="st3" d="M1254.8,380.1c11.6,0,22.6,4.5,30.8,12.7c0.6,0.6,1.3,0.8,2.1,0.8c0.8,0,1.5-0.3,2.1-0.8
			c0.6-0.6,0.9-1.3,0.9-2.1c0-0.8-0.3-1.5-0.9-2.1c-19.3-19.2-50.7-19.2-70,0c-0.6,0.6-0.9,1.3-0.9,2.1c0,0.8,0.3,1.5,0.9,2.1
			c1.1,1.1,3,1.1,4.2,0C1232.2,384.6,1243.1,380.1,1254.8,380.1"/>
		<path class="st3" d="M1276,404.8c0.8,0,1.5-0.3,2.1-0.9c0.6-0.6,0.9-1.3,0.9-2.1c0-0.8-0.3-1.5-0.9-2.1
			c-12.9-12.8-33.8-12.8-46.6,0c-0.6,0.6-0.9,1.3-0.9,2.1c0,0.8,0.3,1.5,0.9,2.1c0.6,0.6,1.3,0.9,2.1,0.9c0.8,0,1.5-0.3,2.1-0.9
			c10.5-10.5,27.7-10.5,38.2,0C1274.5,404.5,1275.2,404.8,1276,404.8"/>
		<path class="st3" d="M1242.1,413.2c0,0.8,0.3,1.5,0.9,2.1c1.2,1.2,3,1.2,4.2,0c4.2-4.2,11.1-4.2,15.3,0c0.6,0.6,1.3,0.9,2.1,0.9
			c0.8,0,1.5-0.3,2.1-0.9c0.6-0.6,0.9-1.3,0.9-2.1c0-0.8-0.3-1.5-0.9-2.1c-6.5-6.5-17.2-6.5-23.7,0
			C1242.4,411.7,1242.1,412.4,1242.1,413.2"/>
		<circle class="st3" cx="1254.8" cy="426.8" r="6.5"/>
	</g>
</g>
<g id="Layer_2">
	<g>
		<rect x="1107.8" y="500" class="st8" width="288.1" height="27.4"/>
		<path class="st9" d="M1217.6,504.1h-6.8v-2.7h16.6v2.7h-6.8v18.5h-2.9V504.1z"/>
		<path class="st9" d="M1226.4,510.2c0.8-0.7,1.6-1.2,2.6-1.6s2-0.5,3-0.5c1,0,1.9,0.1,2.7,0.4s1.4,0.6,1.8,1
			c0.5,0.4,0.8,0.9,1.1,1.5c0.2,0.6,0.3,1.2,0.3,1.8v7.3c0,0.5,0,1,0,1.4c0,0.4,0,0.8,0.1,1.2h-2.4c-0.1-0.7-0.1-1.4-0.1-2.2h-0.1
			c-0.6,0.9-1.3,1.6-2.1,2s-1.8,0.6-2.8,0.6c-0.7,0-1.3-0.1-1.9-0.3c-0.6-0.2-1.1-0.4-1.6-0.8c-0.5-0.4-0.8-0.8-1.1-1.3
			c-0.3-0.5-0.4-1.1-0.4-1.8c0-0.9,0.2-1.7,0.6-2.3c0.4-0.6,1-1.1,1.7-1.5c0.7-0.4,1.5-0.7,2.5-0.8c1-0.2,2-0.3,3-0.3h2v-0.6
			c0-0.4-0.1-0.7-0.2-1.1c-0.1-0.4-0.4-0.7-0.6-1c-0.3-0.3-0.6-0.5-1-0.7c-0.4-0.2-0.9-0.3-1.5-0.3c-0.5,0-1,0.1-1.4,0.2
			s-0.7,0.2-1.1,0.4c-0.3,0.1-0.6,0.3-0.9,0.5c-0.3,0.2-0.5,0.4-0.8,0.6L1226.4,510.2z M1234,515.8c-0.6,0-1.3,0-2,0.1
			s-1.3,0.2-1.8,0.4c-0.5,0.2-1,0.5-1.3,0.8c-0.4,0.4-0.5,0.8-0.5,1.4c0,0.8,0.3,1.4,0.8,1.8s1.3,0.5,2.2,0.5c0.7,0,1.4-0.1,1.9-0.4
			s0.9-0.6,1.3-1c0.3-0.4,0.6-0.8,0.7-1.3s0.2-1,0.2-1.5v-0.9H1234z"/>
		<path class="st9" d="M1241.9,500h2.7v10.5h0.1c0.5-0.7,1.2-1.3,2.1-1.8c0.9-0.4,1.9-0.6,2.9-0.6c1.1,0,2.1,0.2,3,0.6
			s1.7,0.9,2.3,1.6s1.1,1.5,1.5,2.4c0.3,0.9,0.5,1.9,0.5,3c0,1.1-0.2,2-0.5,2.9c-0.3,0.9-0.8,1.7-1.5,2.4c-0.6,0.7-1.4,1.2-2.3,1.6
			s-1.9,0.6-3,0.6c-1,0-1.9-0.2-2.8-0.6s-1.6-1-2.1-1.8h-0.1v2h-2.7V500z M1249.3,520.5c0.7,0,1.4-0.1,2-0.4c0.6-0.2,1.1-0.6,1.5-1
			c0.4-0.4,0.7-1,0.9-1.6c0.2-0.6,0.3-1.3,0.3-2c0-0.7-0.1-1.4-0.3-2s-0.5-1.1-0.9-1.6c-0.4-0.4-0.9-0.8-1.5-1
			c-0.6-0.2-1.2-0.4-2-0.4s-1.4,0.1-2,0.4s-1.1,0.6-1.5,1c-0.4,0.4-0.7,1-0.9,1.6c-0.2,0.6-0.3,1.3-0.3,2c0,0.7,0.1,1.4,0.3,2
			c0.2,0.6,0.5,1.1,0.9,1.6c0.4,0.4,0.9,0.8,1.5,1C1247.9,520.4,1248.6,520.5,1249.3,520.5z"/>
		<path class="st9" d="M1260.5,500h2.7v22.7h-2.7V500z"/>
		<path class="st9" d="M1269.5,516.6c0,0.6,0.1,1.2,0.4,1.7c0.3,0.5,0.6,0.9,1.1,1.3c0.4,0.4,0.9,0.6,1.5,0.8
			c0.6,0.2,1.2,0.3,1.8,0.3c0.8,0,1.6-0.2,2.2-0.6c0.6-0.4,1.2-0.9,1.7-1.5l2,1.6c-1.5,1.9-3.6,2.9-6.3,2.9c-1.1,0-2.1-0.2-3-0.6
			s-1.7-0.9-2.3-1.6c-0.6-0.7-1.1-1.5-1.5-2.4c-0.3-0.9-0.5-1.9-0.5-3c0-1.1,0.2-2,0.6-3c0.4-0.9,0.9-1.7,1.5-2.4
			c0.6-0.7,1.4-1.2,2.3-1.6c0.9-0.4,1.9-0.6,2.9-0.6c1.3,0,2.3,0.2,3.2,0.7c0.9,0.4,1.6,1,2.1,1.7s1,1.5,1.2,2.4
			c0.2,0.9,0.4,1.8,0.4,2.7v1H1269.5z M1278,514.4c0-0.6-0.1-1.2-0.3-1.7s-0.4-0.9-0.8-1.3c-0.3-0.4-0.8-0.7-1.3-0.9
			c-0.5-0.2-1.1-0.3-1.8-0.3c-0.7,0-1.3,0.1-1.8,0.4c-0.6,0.2-1,0.6-1.4,1c-0.4,0.4-0.7,0.8-0.9,1.3s-0.3,1-0.3,1.5H1278z"/>
		<path class="st9" d="M1291.8,510.8h-3.9v6.5c0,0.4,0,0.8,0,1.2c0,0.4,0.1,0.7,0.2,1.1c0.1,0.3,0.3,0.6,0.6,0.8
			c0.3,0.2,0.7,0.3,1.2,0.3c0.3,0,0.6,0,1-0.1c0.3-0.1,0.6-0.2,0.9-0.3v2.5c-0.3,0.2-0.7,0.3-1.2,0.4c-0.5,0.1-0.9,0.1-1.2,0.1
			c-1,0-1.8-0.1-2.4-0.4c-0.6-0.3-1-0.7-1.3-1.1c-0.3-0.5-0.4-1-0.5-1.5c0-0.6-0.1-1.1-0.1-1.7v-7.4h-3.1v-2.3h3.1v-4h2.7v4h3.9
			V510.8z"/>
	</g>
	<g>
		<rect x="1114.5" y="152.5" class="st8" width="288.1" height="27.4"/>
		<path class="st10" d="M1211.7,153.9h2.9v18.5h9.8v2.7h-12.6V153.9z"/>
		<path class="st10" d="M1227.2,162.7c0.8-0.7,1.6-1.2,2.6-1.6c1-0.3,2-0.5,3-0.5c1,0,1.9,0.1,2.7,0.4c0.8,0.3,1.4,0.6,1.8,1
			c0.5,0.4,0.8,0.9,1.1,1.5c0.2,0.6,0.3,1.2,0.3,1.8v7.3c0,0.5,0,1,0,1.4c0,0.4,0,0.8,0.1,1.2h-2.4c-0.1-0.7-0.1-1.4-0.1-2.2h-0.1
			c-0.6,0.9-1.3,1.6-2.1,2c-0.8,0.4-1.8,0.6-2.9,0.6c-0.7,0-1.3-0.1-1.9-0.3c-0.6-0.2-1.1-0.4-1.6-0.8c-0.5-0.4-0.8-0.8-1.1-1.3
			c-0.3-0.5-0.4-1.1-0.4-1.8c0-0.9,0.2-1.7,0.6-2.3c0.4-0.6,1-1.1,1.7-1.5s1.5-0.7,2.5-0.8c0.9-0.2,2-0.3,3-0.3h2v-0.6
			c0-0.4-0.1-0.7-0.2-1.1c-0.1-0.4-0.4-0.7-0.6-1c-0.3-0.3-0.6-0.5-1-0.7c-0.4-0.2-0.9-0.3-1.5-0.3c-0.5,0-1,0.1-1.4,0.1
			c-0.4,0.1-0.7,0.2-1.1,0.4c-0.3,0.1-0.6,0.3-0.9,0.5c-0.3,0.2-0.5,0.4-0.8,0.6L1227.2,162.7z M1234.8,168.3c-0.6,0-1.3,0-2,0.1
			c-0.7,0.1-1.3,0.2-1.8,0.4c-0.6,0.2-1,0.5-1.3,0.8c-0.4,0.4-0.5,0.8-0.5,1.4c0,0.8,0.3,1.4,0.8,1.8c0.5,0.4,1.3,0.5,2.2,0.5
			c0.7,0,1.4-0.1,1.9-0.4c0.5-0.2,0.9-0.6,1.3-1c0.3-0.4,0.5-0.8,0.7-1.3c0.1-0.5,0.2-1,0.2-1.5v-0.9H1234.8z"/>
		<path class="st10" d="M1242.7,161h2.7v2h0.1c0.5-0.8,1.2-1.3,2.1-1.8c0.9-0.4,1.8-0.6,2.8-0.6c1.1,0,2.1,0.2,3,0.6
			c0.9,0.4,1.6,0.9,2.3,1.6c0.6,0.7,1.1,1.5,1.5,2.4c0.3,0.9,0.5,1.9,0.5,2.9c0,1.1-0.2,2-0.5,3c-0.3,0.9-0.8,1.7-1.5,2.4
			c-0.6,0.7-1.4,1.2-2.3,1.6c-0.9,0.4-1.9,0.6-3,0.6c-1,0-2-0.2-2.9-0.6c-0.9-0.4-1.6-1-2.1-1.8h-0.1v10.5h-2.7V161z M1250.1,163.1
			c-0.7,0-1.4,0.1-1.9,0.4c-0.6,0.3-1.1,0.6-1.5,1c-0.4,0.4-0.7,1-0.9,1.6c-0.2,0.6-0.3,1.3-0.3,2c0,0.7,0.1,1.4,0.3,2
			c0.2,0.6,0.5,1.1,0.9,1.6c0.4,0.4,0.9,0.8,1.5,1c0.6,0.3,1.2,0.4,1.9,0.4c0.7,0,1.4-0.1,2-0.4c0.6-0.2,1.1-0.6,1.5-1
			c0.4-0.4,0.7-0.9,0.9-1.6c0.2-0.6,0.3-1.3,0.3-2c0-0.7-0.1-1.4-0.3-2c-0.2-0.6-0.5-1.1-0.9-1.6c-0.4-0.4-0.9-0.8-1.5-1
			C1251.5,163.2,1250.8,163.1,1250.1,163.1z"/>
		<path class="st10" d="M1269.9,163.3h-3.9v6.4c0,0.4,0,0.8,0,1.2c0,0.4,0.1,0.7,0.2,1.1s0.3,0.6,0.6,0.8c0.3,0.2,0.7,0.3,1.2,0.3
			c0.3,0,0.6,0,1-0.1c0.3-0.1,0.6-0.2,0.9-0.3v2.5c-0.3,0.2-0.7,0.3-1.2,0.4c-0.5,0.1-0.9,0.1-1.2,0.1c-1,0-1.8-0.1-2.4-0.4
			c-0.6-0.3-1-0.7-1.3-1.1c-0.3-0.5-0.4-1-0.5-1.5c0-0.6-0.1-1.1-0.1-1.7v-7.4h-3.1V161h3.1v-4h2.7v4h3.9V163.3z"/>
		<path class="st10" d="M1273.3,168.1c0-1,0.2-2,0.6-2.9c0.4-0.9,0.9-1.7,1.6-2.4c0.7-0.7,1.5-1.2,2.4-1.6c0.9-0.4,1.9-0.6,3-0.6
			c1.1,0,2,0.2,3,0.6c0.9,0.4,1.7,0.9,2.4,1.6c0.7,0.7,1.2,1.5,1.6,2.4c0.4,0.9,0.6,1.9,0.6,2.9s-0.2,2-0.6,2.9
			c-0.4,0.9-0.9,1.7-1.6,2.4c-0.7,0.7-1.5,1.2-2.4,1.6s-1.9,0.6-3,0.6c-1.1,0-2-0.2-3-0.6s-1.7-0.9-2.4-1.6
			c-0.7-0.7-1.2-1.5-1.6-2.4C1273.5,170.1,1273.3,169.1,1273.3,168.1z M1276.2,168.1c0,0.7,0.1,1.4,0.3,2c0.2,0.6,0.5,1.1,0.9,1.6
			c0.4,0.4,0.9,0.8,1.5,1c0.6,0.3,1.2,0.4,2,0.4s1.4-0.1,2-0.4c0.6-0.2,1.1-0.6,1.5-1c0.4-0.4,0.7-0.9,0.9-1.6
			c0.2-0.6,0.3-1.3,0.3-2c0-0.7-0.1-1.4-0.3-2c-0.2-0.6-0.5-1.1-0.9-1.6c-0.4-0.4-0.9-0.8-1.5-1c-0.6-0.2-1.2-0.4-2-0.4
			s-1.4,0.1-2,0.4c-0.6,0.3-1.1,0.6-1.5,1c-0.4,0.4-0.7,1-0.9,1.6C1276.3,166.7,1276.2,167.3,1276.2,168.1z"/>
		<path class="st10" d="M1291.8,161h2.7v2h0.1c0.5-0.8,1.2-1.3,2.1-1.8c0.9-0.4,1.8-0.6,2.8-0.6c1.1,0,2.1,0.2,3,0.6
			s1.7,0.9,2.3,1.6c0.6,0.7,1.1,1.5,1.5,2.4c0.3,0.9,0.5,1.9,0.5,2.9c0,1.1-0.2,2-0.5,3s-0.8,1.7-1.5,2.4c-0.6,0.7-1.4,1.2-2.3,1.6
			s-1.9,0.6-3,0.6c-1,0-2-0.2-2.9-0.6c-0.9-0.4-1.6-1-2.1-1.8h-0.1v10.5h-2.7V161z M1299.2,163.1c-0.7,0-1.4,0.1-2,0.4
			c-0.6,0.3-1.1,0.6-1.5,1c-0.4,0.4-0.7,1-0.9,1.6c-0.2,0.6-0.3,1.3-0.3,2c0,0.7,0.1,1.4,0.3,2c0.2,0.6,0.5,1.1,0.9,1.6
			c0.4,0.4,0.9,0.8,1.5,1c0.6,0.3,1.2,0.4,2,0.4s1.4-0.1,2-0.4c0.6-0.2,1.1-0.6,1.5-1c0.4-0.4,0.7-0.9,0.9-1.6
			c0.2-0.6,0.3-1.3,0.3-2c0-0.7-0.1-1.4-0.3-2c-0.2-0.6-0.5-1.1-0.9-1.6c-0.4-0.4-0.9-0.8-1.5-1
			C1300.5,163.2,1299.9,163.1,1299.2,163.1z"/>
	</g>
	<g>
		<rect x="1108" y="790.2" class="st8" width="288.1" height="27.4"/>
		<path class="st10" d="M1212,791.7h7.5c1.4,0,2.5,0.2,3.4,0.6s1.6,0.8,2.1,1.4c0.5,0.6,0.9,1.2,1.1,1.9c0.2,0.7,0.3,1.4,0.3,2.1
			s-0.1,1.3-0.3,2.1c-0.2,0.7-0.6,1.4-1.1,1.9c-0.5,0.6-1.2,1-2.1,1.4c-0.9,0.4-2,0.6-3.4,0.6h-4.6v9.4h-2.9V791.7z M1214.8,801h3.8
			c0.6,0,1.1,0,1.7-0.1s1-0.3,1.5-0.5c0.4-0.2,0.8-0.6,1-1s0.4-1,0.4-1.8s-0.1-1.3-0.4-1.8s-0.6-0.8-1-1c-0.4-0.2-0.9-0.4-1.5-0.5
			s-1.1-0.1-1.7-0.1h-3.8V801z"/>
		<path class="st10" d="M1229.1,790.2h2.7v10.7h0.1c0.3-0.8,0.9-1.4,1.8-1.8c0.8-0.5,1.8-0.7,2.9-0.7c0.7,0,1.3,0.1,2,0.3
			s1.2,0.5,1.7,1c0.5,0.4,0.8,1,1.1,1.7c0.3,0.7,0.4,1.5,0.4,2.4v9.1h-2.7v-8.4c0-0.7-0.1-1.2-0.3-1.7c-0.2-0.5-0.4-0.8-0.7-1.1
			s-0.6-0.5-1-0.6c-0.4-0.1-0.8-0.2-1.2-0.2c-0.6,0-1.1,0.1-1.6,0.3c-0.5,0.2-0.9,0.5-1.3,0.9c-0.4,0.4-0.6,0.9-0.8,1.5
			c-0.2,0.6-0.3,1.3-0.3,2.1v7.3h-2.7V790.2z"/>
		<path class="st10" d="M1245.1,805.8c0-1,0.2-2,0.6-2.9c0.4-0.9,0.9-1.7,1.6-2.4c0.7-0.7,1.5-1.2,2.4-1.6c0.9-0.4,1.9-0.6,3-0.6
			c1.1,0,2,0.2,3,0.6c0.9,0.4,1.7,0.9,2.4,1.6s1.2,1.5,1.6,2.4c0.4,0.9,0.6,1.9,0.6,2.9s-0.2,2-0.6,2.9s-0.9,1.7-1.6,2.4
			s-1.5,1.2-2.4,1.6c-0.9,0.4-1.9,0.6-3,0.6c-1.1,0-2.1-0.2-3-0.6c-0.9-0.4-1.7-0.9-2.4-1.6c-0.7-0.7-1.2-1.5-1.6-2.4
			C1245.2,807.8,1245.1,806.8,1245.1,805.8z M1247.9,805.8c0,0.7,0.1,1.4,0.3,2c0.2,0.6,0.5,1.1,0.9,1.6c0.4,0.4,0.9,0.8,1.5,1
			c0.6,0.3,1.2,0.4,2,0.4c0.7,0,1.4-0.1,1.9-0.4c0.6-0.2,1.1-0.6,1.5-1c0.4-0.4,0.7-1,0.9-1.6c0.2-0.6,0.3-1.3,0.3-2
			c0-0.7-0.1-1.4-0.3-2c-0.2-0.6-0.5-1.1-0.9-1.6c-0.4-0.4-0.9-0.8-1.5-1s-1.2-0.4-1.9-0.4c-0.7,0-1.4,0.1-2,0.4s-1.1,0.6-1.5,1
			c-0.4,0.4-0.7,1-0.9,1.6S1247.9,805.1,1247.9,805.8z"/>
		<path class="st10" d="M1263.6,798.7h2.7v2.2h0.1c0.3-0.8,0.9-1.4,1.8-1.8c0.8-0.5,1.8-0.7,2.9-0.7c0.7,0,1.3,0.1,2,0.3
			s1.2,0.5,1.7,1c0.5,0.4,0.8,1,1.1,1.7c0.3,0.7,0.4,1.5,0.4,2.4v9.1h-2.7v-8.4c0-0.7-0.1-1.2-0.3-1.7c-0.2-0.5-0.4-0.8-0.7-1.1
			s-0.6-0.5-1-0.6c-0.4-0.1-0.8-0.2-1.2-0.2c-0.6,0-1.1,0.1-1.6,0.3c-0.5,0.2-0.9,0.5-1.3,0.9c-0.4,0.4-0.6,0.9-0.8,1.5
			c-0.2,0.6-0.3,1.3-0.3,2.1v7.3h-2.7V798.7z"/>
		<path class="st10" d="M1282.3,806.8c0,0.6,0.1,1.2,0.4,1.7c0.3,0.5,0.6,0.9,1.1,1.3c0.4,0.4,0.9,0.6,1.5,0.8
			c0.6,0.2,1.2,0.3,1.8,0.3c0.8,0,1.6-0.2,2.2-0.6c0.6-0.4,1.2-0.9,1.7-1.5l2,1.6c-1.5,1.9-3.6,2.9-6.3,2.9c-1.1,0-2.1-0.2-3-0.6
			s-1.7-0.9-2.3-1.6c-0.6-0.7-1.1-1.5-1.5-2.4c-0.3-0.9-0.5-1.9-0.5-3c0-1.1,0.2-2,0.6-3s0.9-1.7,1.5-2.4c0.6-0.7,1.4-1.2,2.3-1.6
			c0.9-0.4,1.9-0.6,2.9-0.6c1.3,0,2.3,0.2,3.2,0.7c0.9,0.4,1.6,1,2.1,1.7s1,1.5,1.2,2.4c0.2,0.9,0.4,1.8,0.4,2.7v1H1282.3z
			 M1290.8,804.6c0-0.6-0.1-1.2-0.3-1.7s-0.4-0.9-0.8-1.3c-0.3-0.4-0.8-0.7-1.3-0.9c-0.5-0.2-1.1-0.3-1.8-0.3
			c-0.7,0-1.3,0.1-1.8,0.4c-0.6,0.2-1,0.6-1.4,1c-0.4,0.4-0.7,0.8-0.9,1.3s-0.3,1-0.3,1.5H1290.8z"/>
	</g>
	<g>
		<rect x="827.5" y="257.6" class="st8" width="288.1" height="27.4"/>
		<path class="st10" d="M916.3,259.1h7.4c1.5,0,2.8,0.2,3.9,0.5c1.1,0.3,2.1,0.8,2.9,1.4c0.8,0.6,1.5,1.2,2.1,2
			c0.5,0.7,1,1.5,1.3,2.3c0.3,0.8,0.5,1.6,0.7,2.3c0.1,0.8,0.2,1.5,0.2,2.2c0,1.4-0.2,2.7-0.8,3.9s-1.2,2.4-2.2,3.4
			c-1,1-2.2,1.8-3.6,2.4s-3.1,0.9-5,0.9h-6.9V259.1z M919.2,277.6h3.6c1.2,0,2.4-0.2,3.5-0.5c1.1-0.3,2-0.8,2.9-1.5
			c0.8-0.7,1.5-1.5,2-2.5c0.5-1,0.7-2.1,0.7-3.5c0-0.7-0.1-1.5-0.3-2.4c-0.2-0.9-0.6-1.8-1.2-2.6c-0.6-0.8-1.5-1.5-2.5-2.1
			s-2.5-0.9-4.2-0.9h-4.3V277.6z"/>
		<path class="st10" d="M940.4,274.2c0,0.6,0.1,1.2,0.4,1.7c0.3,0.5,0.6,0.9,1.1,1.3c0.4,0.4,0.9,0.6,1.5,0.8
			c0.6,0.2,1.2,0.3,1.8,0.3c0.8,0,1.6-0.2,2.2-0.6s1.2-0.9,1.7-1.5l2,1.6c-1.5,1.9-3.6,2.9-6.3,2.9c-1.1,0-2.1-0.2-3-0.6
			s-1.7-0.9-2.3-1.6c-0.6-0.7-1.1-1.5-1.5-2.4c-0.3-0.9-0.5-1.9-0.5-3s0.2-2,0.6-3c0.4-0.9,0.9-1.7,1.5-2.4c0.6-0.7,1.4-1.2,2.3-1.6
			c0.9-0.4,1.9-0.6,2.9-0.6c1.3,0,2.3,0.2,3.2,0.7s1.6,1,2.1,1.7s1,1.5,1.2,2.4c0.2,0.9,0.4,1.8,0.4,2.7v1H940.4z M948.9,272
			c0-0.6-0.1-1.1-0.3-1.7c-0.2-0.5-0.4-0.9-0.8-1.3c-0.3-0.4-0.8-0.7-1.3-0.9c-0.5-0.2-1.1-0.3-1.8-0.3c-0.7,0-1.3,0.1-1.8,0.4
			c-0.6,0.2-1,0.6-1.4,1s-0.7,0.8-0.9,1.3c-0.2,0.5-0.3,1-0.3,1.5H948.9z"/>
		<path class="st10" d="M962.6,269.7c-0.3-0.4-0.7-0.7-1.2-1s-1-0.4-1.7-0.4c-0.6,0-1.2,0.1-1.7,0.4c-0.5,0.3-0.7,0.7-0.7,1.2
			c0,0.4,0.1,0.8,0.4,1c0.3,0.3,0.6,0.5,1,0.6c0.4,0.2,0.8,0.3,1.2,0.4c0.4,0.1,0.8,0.1,1.1,0.2c0.6,0.1,1.1,0.3,1.6,0.5
			c0.5,0.2,1,0.5,1.3,0.8c0.4,0.3,0.7,0.7,0.9,1.2c0.2,0.5,0.3,1,0.3,1.7c0,0.8-0.2,1.5-0.5,2.1c-0.3,0.6-0.8,1-1.3,1.4
			c-0.5,0.4-1.2,0.6-1.8,0.8c-0.7,0.2-1.4,0.2-2.1,0.2c-1.2,0-2.2-0.2-3.1-0.5c-0.9-0.4-1.7-1-2.4-2l2-1.7c0.4,0.4,0.9,0.8,1.5,1.2
			c0.5,0.3,1.2,0.5,2,0.5c0.3,0,0.7,0,1-0.1c0.3-0.1,0.7-0.2,0.9-0.3c0.3-0.1,0.5-0.3,0.7-0.6c0.2-0.2,0.3-0.5,0.3-0.8
			c0-0.4-0.1-0.7-0.4-1c-0.2-0.3-0.5-0.5-0.9-0.6c-0.4-0.1-0.7-0.3-1.1-0.4c-0.4-0.1-0.7-0.2-1-0.2c-0.6-0.1-1.1-0.3-1.6-0.5
			c-0.5-0.2-1-0.4-1.4-0.7c-0.4-0.3-0.7-0.7-1-1.1c-0.2-0.5-0.4-1-0.4-1.7c0-0.7,0.2-1.4,0.5-1.9c0.3-0.6,0.7-1,1.2-1.4
			c0.5-0.4,1.1-0.6,1.7-0.8s1.3-0.3,2-0.3c1,0,1.9,0.2,2.8,0.5c0.9,0.4,1.6,1,2.1,1.8L962.6,269.7z"/>
		<path class="st10" d="M968.3,257.6h2.7v14.6l6.1-6.1h3.8l-6.6,6.4l7.2,7.7h-3.8l-6.6-7.4v7.4h-2.7V257.6z"/>
		<path class="st10" d="M991.5,268.4h-3.9v6.4c0,0.4,0,0.8,0,1.2c0,0.4,0.1,0.7,0.2,1.1c0.1,0.3,0.3,0.6,0.6,0.8
			c0.3,0.2,0.7,0.3,1.2,0.3c0.3,0,0.6,0,1-0.1s0.7-0.2,0.9-0.3v2.5c-0.3,0.2-0.7,0.3-1.2,0.4c-0.5,0.1-0.9,0.1-1.2,0.1
			c-1,0-1.8-0.1-2.4-0.4c-0.6-0.3-1-0.7-1.3-1.1c-0.3-0.5-0.4-1-0.5-1.5c-0.1-0.6-0.1-1.1-0.1-1.7v-7.4h-3.1v-2.3h3.1v-4h2.7v4h3.9
			V268.4z"/>
		<path class="st10" d="M994.3,273.2c0-1,0.2-2,0.6-2.9c0.4-0.9,0.9-1.7,1.6-2.4c0.7-0.7,1.5-1.2,2.4-1.6c0.9-0.4,1.9-0.6,3-0.6
			c1.1,0,2,0.2,3,0.6c0.9,0.4,1.7,0.9,2.4,1.6c0.7,0.7,1.2,1.5,1.6,2.4s0.6,1.9,0.6,2.9s-0.2,2-0.6,2.9c-0.4,0.9-0.9,1.7-1.6,2.4
			c-0.7,0.7-1.5,1.2-2.4,1.6s-1.9,0.6-3,0.6c-1.1,0-2.1-0.2-3-0.6s-1.7-0.9-2.4-1.6c-0.7-0.7-1.2-1.5-1.6-2.4
			C994.5,275.2,994.3,274.2,994.3,273.2z M997.2,273.2c0,0.7,0.1,1.4,0.3,2c0.2,0.6,0.5,1.1,0.9,1.6c0.4,0.4,0.9,0.8,1.5,1
			c0.6,0.3,1.2,0.4,2,0.4c0.7,0,1.4-0.1,1.9-0.4c0.6-0.2,1.1-0.6,1.5-1c0.4-0.4,0.7-0.9,0.9-1.6c0.2-0.6,0.3-1.3,0.3-2
			c0-0.7-0.1-1.4-0.3-2c-0.2-0.6-0.5-1.1-0.9-1.6c-0.4-0.4-0.9-0.8-1.5-1c-0.6-0.2-1.2-0.4-1.9-0.4c-0.7,0-1.4,0.1-2,0.4
			c-0.6,0.3-1.1,0.6-1.5,1c-0.4,0.4-0.7,1-0.9,1.6C997.3,271.8,997.2,272.5,997.2,273.2z"/>
		<path class="st10" d="M1012.8,266.1h2.7v2h0.1c0.5-0.8,1.2-1.3,2.1-1.8c0.9-0.4,1.8-0.6,2.8-0.6c1.1,0,2.1,0.2,3,0.6
			c0.9,0.4,1.6,0.9,2.3,1.6c0.6,0.7,1.1,1.5,1.5,2.4c0.3,0.9,0.5,1.9,0.5,2.9c0,1.1-0.2,2-0.5,3c-0.3,0.9-0.8,1.7-1.5,2.4
			c-0.6,0.7-1.4,1.2-2.3,1.6c-0.9,0.4-1.9,0.6-3,0.6c-1,0-2-0.2-2.9-0.6c-0.9-0.4-1.6-1-2.1-1.8h-0.1v10.5h-2.7V266.1z
			 M1020.2,268.2c-0.7,0-1.4,0.1-1.9,0.4c-0.6,0.3-1.1,0.6-1.5,1c-0.4,0.4-0.7,1-0.9,1.6c-0.2,0.6-0.3,1.3-0.3,2
			c0,0.7,0.1,1.4,0.3,2c0.2,0.6,0.5,1.1,0.9,1.6c0.4,0.4,0.9,0.8,1.5,1c0.6,0.3,1.2,0.4,1.9,0.4c0.7,0,1.4-0.1,2-0.4
			c0.6-0.2,1.1-0.6,1.5-1c0.4-0.4,0.7-0.9,0.9-1.6c0.2-0.6,0.3-1.3,0.3-2c0-0.7-0.1-1.4-0.3-2c-0.2-0.6-0.5-1.1-0.9-1.6
			c-0.4-0.4-0.9-0.8-1.5-1C1021.6,268.4,1020.9,268.2,1020.2,268.2z"/>
	</g>
	<g>
		<rect x="828.2" y="718" class="st8" width="288.1" height="27.4"/>
		<path class="st10" d="M929.2,719.5h7.5c1.4,0,2.5,0.2,3.4,0.6s1.6,0.8,2.1,1.4c0.5,0.6,0.9,1.2,1.1,1.9c0.2,0.7,0.3,1.4,0.3,2.1
			s-0.1,1.3-0.3,2.1c-0.2,0.7-0.6,1.4-1.1,1.9c-0.5,0.6-1.2,1-2.1,1.4c-0.9,0.4-2,0.6-3.4,0.6h-4.6v9.4h-2.9V719.5z M932.1,728.8
			h3.8c0.6,0,1.1,0,1.7-0.1s1-0.3,1.5-0.5c0.4-0.2,0.8-0.6,1-1s0.4-1,0.4-1.8s-0.1-1.3-0.4-1.8s-0.6-0.8-1-1
			c-0.4-0.2-0.9-0.4-1.5-0.5s-1.1-0.1-1.7-0.1h-3.8V728.8z"/>
		<path class="st10" d="M946.3,726.5h2.7v2.2h0.1c0.2-0.4,0.4-0.7,0.7-1c0.3-0.3,0.6-0.6,1-0.8c0.4-0.2,0.8-0.4,1.2-0.5
			c0.4-0.1,0.9-0.2,1.3-0.2c0.4,0,0.8,0.1,1.2,0.2l-0.1,2.9c-0.2-0.1-0.4-0.1-0.7-0.1c-0.2,0-0.4-0.1-0.7-0.1c-1.3,0-2.3,0.4-3,1.1
			c-0.7,0.7-1,1.9-1,3.5v7.1h-2.7V726.5z"/>
		<path class="st10" d="M957,721.4c0-0.5,0.2-1,0.6-1.4c0.4-0.4,0.9-0.6,1.4-0.6s1,0.2,1.4,0.6s0.6,0.9,0.6,1.4s-0.2,1-0.6,1.4
			s-0.9,0.6-1.4,0.6s-1-0.2-1.4-0.6C957.2,722.4,957,721.9,957,721.4z M957.6,726.5h2.7v14.2h-2.7V726.5z"/>
		<path class="st10" d="M964.6,726.5h2.7v2.2h0.1c0.3-0.8,0.9-1.4,1.8-1.8c0.8-0.5,1.8-0.7,2.9-0.7c0.7,0,1.3,0.1,2,0.3
			c0.6,0.2,1.2,0.5,1.7,1c0.5,0.4,0.8,1,1.1,1.7s0.4,1.5,0.4,2.4v9.1h-2.7v-8.4c0-0.7-0.1-1.2-0.3-1.7s-0.4-0.8-0.7-1.1
			c-0.3-0.3-0.6-0.5-1-0.6c-0.4-0.1-0.8-0.2-1.2-0.2c-0.6,0-1.1,0.1-1.6,0.3c-0.5,0.2-0.9,0.5-1.3,0.9c-0.4,0.4-0.6,0.9-0.8,1.5
			c-0.2,0.6-0.3,1.3-0.3,2.1v7.3h-2.7V726.5z"/>
		<path class="st10" d="M988.9,728.8H985v6.5c0,0.4,0,0.8,0,1.2c0,0.4,0.1,0.7,0.2,1.1c0.1,0.3,0.3,0.6,0.6,0.8
			c0.3,0.2,0.7,0.3,1.2,0.3c0.3,0,0.6,0,1-0.1c0.3-0.1,0.6-0.2,0.9-0.3v2.5c-0.3,0.2-0.7,0.3-1.2,0.4c-0.5,0.1-0.9,0.1-1.2,0.1
			c-1,0-1.8-0.1-2.4-0.4c-0.6-0.3-1-0.7-1.3-1.1c-0.3-0.5-0.4-1-0.5-1.5c0-0.6-0.1-1.1-0.1-1.7v-7.4h-3.1v-2.3h3.1v-4h2.7v4h3.9
			V728.8z"/>
		<path class="st10" d="M994.4,734.6c0,0.6,0.1,1.2,0.4,1.7c0.3,0.5,0.6,0.9,1.1,1.3c0.4,0.4,1,0.6,1.5,0.8c0.6,0.2,1.2,0.3,1.8,0.3
			c0.8,0,1.6-0.2,2.2-0.6c0.6-0.4,1.2-0.9,1.7-1.5l2,1.6c-1.5,1.9-3.6,2.9-6.3,2.9c-1.1,0-2.1-0.2-3-0.6c-0.9-0.4-1.7-0.9-2.3-1.6
			c-0.6-0.7-1.1-1.5-1.5-2.4s-0.5-1.9-0.5-3c0-1.1,0.2-2,0.6-3s0.9-1.7,1.5-2.4c0.6-0.7,1.4-1.2,2.3-1.6c0.9-0.4,1.9-0.6,2.9-0.6
			c1.3,0,2.3,0.2,3.2,0.7c0.9,0.4,1.6,1,2.1,1.7c0.6,0.7,1,1.5,1.2,2.4c0.2,0.9,0.4,1.8,0.4,2.7v1H994.4z M1002.9,732.4
			c0-0.6-0.1-1.2-0.3-1.7s-0.4-0.9-0.8-1.3s-0.8-0.7-1.3-0.9s-1.1-0.3-1.8-0.3c-0.7,0-1.3,0.1-1.8,0.4s-1,0.6-1.4,1
			c-0.4,0.4-0.7,0.8-0.9,1.3s-0.3,1-0.3,1.5H1002.9z"/>
		<path class="st10" d="M1009,726.5h2.7v2.2h0.1c0.2-0.4,0.4-0.7,0.7-1c0.3-0.3,0.6-0.6,1-0.8c0.4-0.2,0.8-0.4,1.2-0.5
			c0.4-0.1,0.9-0.2,1.3-0.2c0.4,0,0.8,0.1,1.2,0.2l-0.1,2.9c-0.2-0.1-0.4-0.1-0.7-0.1s-0.4-0.1-0.7-0.1c-1.3,0-2.3,0.4-3,1.1
			c-0.7,0.7-1,1.9-1,3.5v7.1h-2.7V726.5z"/>
	</g>
	<g>
		<rect x="367.3" y="476.5" class="st8" width="263.2" height="115.7"/>
		<path class="st10" d="M444.5,488.5h2.9l4.5,17h0.1l4.8-17h3.2l4.8,17h0.1l4.5-17h2.9l-5.9,21.2h-2.9l-4.9-17.3h-0.1l-4.9,17.3
			h-2.9L444.5,488.5z"/>
		<path class="st10" d="M473.6,490.4c0-0.5,0.2-1,0.6-1.4c0.4-0.4,0.8-0.6,1.3-0.6c0.5,0,1,0.2,1.3,0.6c0.4,0.4,0.6,0.9,0.6,1.4
			s-0.2,1-0.6,1.4c-0.4,0.4-0.8,0.6-1.3,0.6c-0.5,0-1-0.2-1.3-0.6C473.8,491.4,473.6,490.9,473.6,490.4z M474.2,495.5h2.6v14.2h-2.6
			V495.5z"/>
		<path class="st10" d="M480.9,495.5h2.6v2.2h0.1c0.2-0.4,0.4-0.7,0.7-1c0.3-0.3,0.6-0.6,1-0.8c0.4-0.2,0.7-0.4,1.2-0.5
			s0.8-0.2,1.3-0.2c0.4,0,0.8,0.1,1.1,0.2l-0.1,2.9c-0.2-0.1-0.4-0.1-0.6-0.1c-0.2,0-0.4-0.1-0.6-0.1c-1.3,0-2.2,0.4-2.9,1.1
			c-0.7,0.7-1,1.9-1,3.5v7.1h-2.6V495.5z"/>
		<path class="st10" d="M492.9,503.6c0,0.6,0.1,1.2,0.4,1.7c0.3,0.5,0.6,0.9,1,1.3s0.9,0.6,1.5,0.8c0.6,0.2,1.1,0.3,1.7,0.3
			c0.8,0,1.5-0.2,2.1-0.6c0.6-0.4,1.1-0.9,1.6-1.5l2,1.6c-1.4,1.9-3.4,2.9-6,2.9c-1.1,0-2-0.2-2.9-0.6c-0.9-0.4-1.6-0.9-2.2-1.6
			c-0.6-0.7-1.1-1.5-1.4-2.4c-0.3-0.9-0.5-1.9-0.5-3c0-1.1,0.2-2,0.5-3c0.4-0.9,0.8-1.7,1.5-2.4c0.6-0.7,1.4-1.2,2.2-1.6
			c0.9-0.4,1.8-0.6,2.8-0.6c1.2,0,2.2,0.2,3.1,0.7c0.8,0.4,1.5,1,2.1,1.7c0.5,0.7,0.9,1.5,1.2,2.4s0.4,1.8,0.4,2.7v1H492.9z
			 M501.1,501.4c0-0.6-0.1-1.1-0.3-1.6c-0.2-0.5-0.4-0.9-0.7-1.3c-0.3-0.4-0.7-0.7-1.2-0.9c-0.5-0.2-1.1-0.3-1.7-0.3
			c-0.6,0-1.2,0.1-1.7,0.4s-1,0.6-1.3,1c-0.4,0.4-0.6,0.8-0.8,1.3c-0.2,0.5-0.3,1-0.3,1.5H501.1z"/>
		<path class="st10" d="M507.1,487h2.6v22.7h-2.6V487z"/>
		<path class="st10" d="M515.8,503.6c0,0.6,0.1,1.2,0.4,1.7c0.3,0.5,0.6,0.9,1,1.3s0.9,0.6,1.5,0.8c0.6,0.2,1.1,0.3,1.7,0.3
			c0.8,0,1.5-0.2,2.1-0.6c0.6-0.4,1.1-0.9,1.6-1.5l2,1.6c-1.4,1.9-3.4,2.9-6,2.9c-1.1,0-2-0.2-2.9-0.6c-0.9-0.4-1.6-0.9-2.2-1.6
			c-0.6-0.7-1.1-1.5-1.4-2.4c-0.3-0.9-0.5-1.9-0.5-3c0-1.1,0.2-2,0.5-3c0.4-0.9,0.8-1.7,1.5-2.4c0.6-0.7,1.4-1.2,2.2-1.6
			c0.9-0.4,1.8-0.6,2.8-0.6c1.2,0,2.2,0.2,3.1,0.7c0.8,0.4,1.5,1,2.1,1.7c0.5,0.7,0.9,1.5,1.2,2.4s0.4,1.8,0.4,2.7v1H515.8z
			 M523.9,501.4c0-0.6-0.1-1.1-0.3-1.6c-0.2-0.5-0.4-0.9-0.7-1.3c-0.3-0.4-0.7-0.7-1.2-0.9c-0.5-0.2-1.1-0.3-1.7-0.3
			c-0.6,0-1.2,0.1-1.7,0.4s-1,0.6-1.3,1c-0.4,0.4-0.6,0.8-0.8,1.3c-0.2,0.5-0.3,1-0.3,1.5H523.9z"/>
		<path class="st10" d="M537,499c-0.3-0.4-0.7-0.7-1.1-1c-0.4-0.3-1-0.4-1.6-0.4c-0.6,0-1.1,0.1-1.6,0.4c-0.4,0.3-0.7,0.7-0.7,1.2
			c0,0.4,0.1,0.8,0.4,1c0.3,0.3,0.6,0.5,0.9,0.6c0.4,0.2,0.7,0.3,1.1,0.4s0.7,0.2,1,0.2c0.6,0.1,1.1,0.3,1.6,0.5
			c0.5,0.2,0.9,0.5,1.3,0.8c0.4,0.3,0.6,0.7,0.8,1.2c0.2,0.5,0.3,1,0.3,1.7c0,0.8-0.2,1.5-0.5,2.1c-0.3,0.6-0.7,1-1.3,1.4
			c-0.5,0.4-1.1,0.6-1.8,0.8s-1.3,0.2-2,0.2c-1.1,0-2.1-0.2-3-0.5c-0.9-0.4-1.6-1-2.3-2l2-1.7c0.4,0.4,0.9,0.8,1.4,1.2
			s1.1,0.5,1.9,0.5c0.3,0,0.7,0,1-0.1c0.3-0.1,0.6-0.2,0.9-0.3c0.3-0.2,0.5-0.3,0.6-0.6c0.2-0.2,0.2-0.5,0.2-0.8
			c0-0.4-0.1-0.7-0.4-1c-0.2-0.3-0.5-0.5-0.9-0.6c-0.3-0.1-0.7-0.3-1.1-0.4s-0.7-0.2-1-0.2c-0.6-0.1-1.1-0.3-1.6-0.5
			c-0.5-0.2-0.9-0.4-1.3-0.7c-0.4-0.3-0.7-0.7-0.9-1.1c-0.2-0.5-0.3-1-0.3-1.7c0-0.7,0.1-1.4,0.4-1.9c0.3-0.5,0.7-1,1.2-1.4
			c0.5-0.4,1-0.6,1.7-0.8c0.6-0.2,1.2-0.3,1.9-0.3c0.9,0,1.8,0.2,2.6,0.5c0.8,0.4,1.5,1,2,1.8L537,499z"/>
		<path class="st10" d="M549.7,499c-0.3-0.4-0.7-0.7-1.1-1c-0.4-0.3-1-0.4-1.6-0.4c-0.6,0-1.1,0.1-1.6,0.4c-0.4,0.3-0.7,0.7-0.7,1.2
			c0,0.4,0.1,0.8,0.4,1c0.3,0.3,0.6,0.5,0.9,0.6c0.4,0.2,0.7,0.3,1.1,0.4s0.7,0.2,1,0.2c0.6,0.1,1.1,0.3,1.6,0.5
			c0.5,0.2,0.9,0.5,1.3,0.8c0.4,0.3,0.6,0.7,0.8,1.2c0.2,0.5,0.3,1,0.3,1.7c0,0.8-0.2,1.5-0.5,2.1c-0.3,0.6-0.7,1-1.3,1.4
			c-0.5,0.4-1.1,0.6-1.8,0.8s-1.3,0.2-2,0.2c-1.1,0-2.1-0.2-3-0.5c-0.9-0.4-1.6-1-2.3-2l2-1.7c0.4,0.4,0.9,0.8,1.4,1.2
			s1.1,0.5,1.9,0.5c0.3,0,0.7,0,1-0.1c0.3-0.1,0.6-0.2,0.9-0.3c0.3-0.2,0.5-0.3,0.6-0.6c0.2-0.2,0.2-0.5,0.2-0.8
			c0-0.4-0.1-0.7-0.4-1c-0.2-0.3-0.5-0.5-0.9-0.6c-0.3-0.1-0.7-0.3-1.1-0.4s-0.7-0.2-1-0.2c-0.6-0.1-1.1-0.3-1.6-0.5
			c-0.5-0.2-0.9-0.4-1.3-0.7c-0.4-0.3-0.7-0.7-0.9-1.1c-0.2-0.5-0.3-1-0.3-1.7c0-0.7,0.1-1.4,0.4-1.9c0.3-0.5,0.7-1,1.2-1.4
			c0.5-0.4,1-0.6,1.7-0.8c0.6-0.2,1.2-0.3,1.9-0.3c0.9,0,1.8,0.2,2.6,0.5c0.8,0.4,1.5,1,2,1.8L549.7,499z"/>
		<path class="st10" d="M463.2,524.5h2.5l8.7,21.2h-3.2l-2-5.2h-9.7l-2,5.2h-3.2L463.2,524.5z M468.1,537.9l-3.8-9.8h-0.1l-3.8,9.8
			H468.1z"/>
		<path class="st10" d="M486.1,535.3c-0.5-0.5-1-0.9-1.5-1.2s-1.2-0.4-1.9-0.4c-0.7,0-1.3,0.1-1.9,0.4c-0.5,0.3-1,0.6-1.3,1.1
			c-0.4,0.5-0.6,1-0.8,1.6c-0.2,0.6-0.3,1.2-0.3,1.9s0.1,1.3,0.3,1.9c0.2,0.6,0.5,1.1,0.9,1.5c0.4,0.4,0.8,0.8,1.4,1
			c0.5,0.2,1.1,0.4,1.8,0.4c0.7,0,1.3-0.1,1.9-0.4c0.5-0.3,1-0.7,1.4-1.2l1.8,1.9c-0.7,0.8-1.4,1.3-2.3,1.7
			c-0.9,0.3-1.8,0.5-2.8,0.5c-1.1,0-2-0.2-2.9-0.5c-0.9-0.4-1.6-0.9-2.3-1.5c-0.6-0.6-1.1-1.4-1.5-2.3s-0.5-1.9-0.5-3s0.2-2.1,0.5-3
			s0.8-1.7,1.4-2.4c0.6-0.7,1.4-1.2,2.2-1.5s1.8-0.6,2.9-0.6c1,0,1.9,0.2,2.9,0.6c0.9,0.4,1.7,0.9,2.4,1.7L486.1,535.3z"/>
		<path class="st10" d="M499.9,535.3c-0.5-0.5-1-0.9-1.5-1.2s-1.2-0.4-1.9-0.4c-0.7,0-1.3,0.1-1.9,0.4c-0.5,0.3-1,0.6-1.3,1.1
			c-0.4,0.5-0.6,1-0.8,1.6c-0.2,0.6-0.3,1.2-0.3,1.9s0.1,1.3,0.3,1.9c0.2,0.6,0.5,1.1,0.9,1.5c0.4,0.4,0.8,0.8,1.4,1
			c0.5,0.2,1.1,0.4,1.8,0.4c0.7,0,1.3-0.1,1.9-0.4c0.5-0.3,1-0.7,1.4-1.2l1.8,1.9c-0.7,0.8-1.4,1.3-2.3,1.7
			c-0.9,0.3-1.8,0.5-2.8,0.5c-1.1,0-2-0.2-2.9-0.5c-0.9-0.4-1.6-0.9-2.3-1.5c-0.6-0.6-1.1-1.4-1.5-2.3s-0.5-1.9-0.5-3s0.2-2.1,0.5-3
			s0.8-1.7,1.4-2.4c0.6-0.7,1.4-1.2,2.2-1.5s1.8-0.6,2.9-0.6c1,0,1.9,0.2,2.9,0.6c0.9,0.4,1.7,0.9,2.4,1.7L499.9,535.3z"/>
		<path class="st10" d="M506,539.6c0,0.6,0.1,1.2,0.4,1.7c0.3,0.5,0.6,0.9,1,1.3s0.9,0.6,1.5,0.8c0.6,0.2,1.1,0.3,1.7,0.3
			c0.8,0,1.5-0.2,2.1-0.6c0.6-0.4,1.1-0.9,1.6-1.5l2,1.6c-1.4,1.9-3.4,2.9-6,2.9c-1.1,0-2-0.2-2.9-0.6c-0.9-0.4-1.6-0.9-2.2-1.6
			c-0.6-0.7-1.1-1.5-1.4-2.4c-0.3-0.9-0.5-1.9-0.5-3c0-1.1,0.2-2,0.5-3c0.4-0.9,0.8-1.7,1.5-2.4c0.6-0.7,1.4-1.2,2.2-1.6
			c0.9-0.4,1.8-0.6,2.8-0.6c1.2,0,2.2,0.2,3.1,0.7c0.8,0.4,1.5,1,2.1,1.7c0.5,0.7,0.9,1.5,1.2,2.4s0.4,1.8,0.4,2.7v1H506z
			 M514.1,537.4c0-0.6-0.1-1.1-0.3-1.6c-0.2-0.5-0.4-0.9-0.7-1.3c-0.3-0.4-0.7-0.7-1.2-0.9c-0.5-0.2-1.1-0.3-1.7-0.3
			c-0.6,0-1.2,0.1-1.7,0.4s-1,0.6-1.3,1c-0.4,0.4-0.6,0.8-0.8,1.3c-0.2,0.5-0.3,1-0.3,1.5H514.1z"/>
		<path class="st10" d="M527.2,535c-0.3-0.4-0.7-0.7-1.1-1c-0.4-0.3-1-0.4-1.6-0.4c-0.6,0-1.1,0.1-1.6,0.4c-0.4,0.3-0.7,0.7-0.7,1.2
			c0,0.4,0.1,0.8,0.4,1c0.3,0.3,0.6,0.5,0.9,0.6c0.4,0.2,0.7,0.3,1.1,0.4s0.7,0.2,1,0.2c0.6,0.1,1.1,0.3,1.6,0.5
			c0.5,0.2,0.9,0.5,1.3,0.8c0.4,0.3,0.6,0.7,0.8,1.2c0.2,0.5,0.3,1,0.3,1.7c0,0.8-0.2,1.5-0.5,2.1c-0.3,0.6-0.7,1-1.3,1.4
			c-0.5,0.4-1.1,0.6-1.8,0.8s-1.3,0.2-2,0.2c-1.1,0-2.1-0.2-3-0.5c-0.9-0.4-1.6-1-2.3-2l2-1.7c0.4,0.4,0.9,0.8,1.4,1.2
			s1.1,0.5,1.9,0.5c0.3,0,0.7,0,1-0.1c0.3-0.1,0.6-0.2,0.9-0.3c0.3-0.2,0.5-0.3,0.6-0.6c0.2-0.2,0.2-0.5,0.2-0.8
			c0-0.4-0.1-0.7-0.4-1c-0.2-0.3-0.5-0.5-0.9-0.6c-0.3-0.1-0.7-0.3-1.1-0.4s-0.7-0.2-1-0.2c-0.6-0.1-1.1-0.3-1.6-0.5
			c-0.5-0.2-0.9-0.4-1.3-0.7c-0.4-0.3-0.7-0.7-0.9-1.1c-0.2-0.5-0.3-1-0.3-1.7c0-0.7,0.1-1.4,0.4-1.9c0.3-0.5,0.7-1,1.2-1.4
			c0.5-0.4,1-0.6,1.7-0.8c0.6-0.2,1.2-0.3,1.9-0.3c0.9,0,1.8,0.2,2.6,0.5c0.8,0.4,1.5,1,2,1.8L527.2,535z"/>
		<path class="st10" d="M539.9,535c-0.3-0.4-0.7-0.7-1.1-1c-0.4-0.3-1-0.4-1.6-0.4c-0.6,0-1.1,0.1-1.6,0.4c-0.4,0.3-0.7,0.7-0.7,1.2
			c0,0.4,0.1,0.8,0.4,1c0.3,0.3,0.6,0.5,0.9,0.6c0.4,0.2,0.7,0.3,1.1,0.4s0.7,0.2,1,0.2c0.6,0.1,1.1,0.3,1.6,0.5
			c0.5,0.2,0.9,0.5,1.3,0.8c0.4,0.3,0.6,0.7,0.8,1.2c0.2,0.5,0.3,1,0.3,1.7c0,0.8-0.2,1.5-0.5,2.1c-0.3,0.6-0.7,1-1.3,1.4
			c-0.5,0.4-1.1,0.6-1.8,0.8s-1.3,0.2-2,0.2c-1.1,0-2.1-0.2-3-0.5c-0.9-0.4-1.6-1-2.3-2l2-1.7c0.4,0.4,0.9,0.8,1.4,1.2
			s1.1,0.5,1.9,0.5c0.3,0,0.7,0,1-0.1c0.3-0.1,0.6-0.2,0.9-0.3c0.3-0.2,0.5-0.3,0.6-0.6c0.2-0.2,0.2-0.5,0.2-0.8
			c0-0.4-0.1-0.7-0.4-1c-0.2-0.3-0.5-0.5-0.9-0.6c-0.3-0.1-0.7-0.3-1.1-0.4s-0.7-0.2-1-0.2c-0.6-0.1-1.1-0.3-1.6-0.5
			c-0.5-0.2-0.9-0.4-1.3-0.7c-0.4-0.3-0.7-0.7-0.9-1.1c-0.2-0.5-0.3-1-0.3-1.7c0-0.7,0.1-1.4,0.4-1.9c0.3-0.5,0.7-1,1.2-1.4
			c0.5-0.4,1-0.6,1.7-0.8c0.6-0.2,1.2-0.3,1.9-0.3c0.9,0,1.8,0.2,2.6,0.5c0.8,0.4,1.5,1,2,1.8L539.9,535z"/>
		<path class="st10" d="M467.7,560.5h7.1c1.3,0,2.4,0.2,3.2,0.6s1.5,0.8,2,1.4c0.5,0.6,0.8,1.2,1,1.9c0.2,0.7,0.3,1.4,0.3,2.1
			s-0.1,1.3-0.3,2.1c-0.2,0.7-0.5,1.4-1,1.9c-0.5,0.6-1.2,1-2,1.4s-1.9,0.6-3.2,0.6h-4.4v9.4h-2.8V560.5z M470.5,569.8h3.6
			c0.5,0,1.1,0,1.6-0.1c0.5-0.1,1-0.3,1.4-0.5s0.7-0.6,1-1c0.2-0.5,0.4-1,0.4-1.8s-0.1-1.3-0.4-1.8c-0.2-0.5-0.6-0.8-1-1
			s-0.9-0.4-1.4-0.5c-0.5-0.1-1.1-0.1-1.6-0.1h-3.6V569.8z"/>
		<path class="st10" d="M483.4,574.6c0-1,0.2-2,0.6-2.9c0.4-0.9,0.9-1.7,1.5-2.4s1.4-1.2,2.3-1.6s1.8-0.6,2.8-0.6s2,0.2,2.8,0.6
			c0.9,0.4,1.6,0.9,2.3,1.6s1.2,1.5,1.5,2.4c0.4,0.9,0.6,1.9,0.6,2.9c0,1-0.2,2-0.6,2.9s-0.9,1.7-1.5,2.4c-0.7,0.7-1.4,1.2-2.3,1.6
			c-0.9,0.4-1.8,0.6-2.8,0.6s-2-0.2-2.8-0.6c-0.9-0.4-1.6-0.9-2.3-1.6c-0.7-0.7-1.2-1.5-1.5-2.4S483.4,575.6,483.4,574.6z
			 M486.2,574.6c0,0.7,0.1,1.4,0.3,2c0.2,0.6,0.5,1.1,0.9,1.6c0.4,0.4,0.9,0.8,1.4,1s1.2,0.4,1.9,0.4s1.3-0.1,1.9-0.4
			c0.6-0.2,1-0.6,1.4-1s0.7-1,0.9-1.6c0.2-0.6,0.3-1.3,0.3-2c0-0.7-0.1-1.4-0.3-2c-0.2-0.6-0.5-1.1-0.9-1.6c-0.4-0.4-0.9-0.8-1.4-1
			c-0.6-0.2-1.2-0.4-1.9-0.4s-1.3,0.1-1.9,0.4s-1,0.6-1.4,1c-0.4,0.4-0.7,1-0.9,1.6C486.3,573.2,486.2,573.9,486.2,574.6z"/>
		<path class="st10" d="M500.7,562.4c0-0.5,0.2-1,0.6-1.4c0.4-0.4,0.8-0.6,1.3-0.6c0.5,0,1,0.2,1.3,0.6c0.4,0.4,0.6,0.9,0.6,1.4
			s-0.2,1-0.6,1.4c-0.4,0.4-0.8,0.6-1.3,0.6c-0.5,0-1-0.2-1.3-0.6C500.9,563.4,500.7,562.9,500.7,562.4z M501.3,567.5h2.6v14.2h-2.6
			V567.5z"/>
		<path class="st10" d="M508,567.5h2.6v2.2h0.1c0.3-0.8,0.9-1.4,1.7-1.8c0.8-0.5,1.7-0.7,2.8-0.7c0.7,0,1.3,0.1,1.9,0.3
			s1.1,0.5,1.6,1c0.4,0.4,0.8,1,1.1,1.7c0.3,0.7,0.4,1.5,0.4,2.4v9.2h-2.6v-8.4c0-0.7-0.1-1.2-0.3-1.7s-0.4-0.9-0.7-1.1
			c-0.3-0.3-0.6-0.5-1-0.6c-0.4-0.1-0.8-0.2-1.2-0.2c-0.5,0-1,0.1-1.5,0.3c-0.5,0.2-0.9,0.5-1.2,0.9c-0.3,0.4-0.6,0.9-0.8,1.5
			c-0.2,0.6-0.3,1.3-0.3,2.1v7.3H508V567.5z"/>
		<path class="st10" d="M531.2,569.8h-3.7v6.5c0,0.4,0,0.8,0,1.2c0,0.4,0.1,0.7,0.2,1c0.1,0.3,0.3,0.6,0.6,0.8
			c0.3,0.2,0.6,0.3,1.1,0.3c0.3,0,0.6,0,0.9-0.1s0.6-0.2,0.9-0.3v2.5c-0.3,0.2-0.7,0.3-1.2,0.4c-0.5,0.1-0.9,0.1-1.1,0.1
			c-1,0-1.8-0.1-2.3-0.4c-0.5-0.3-0.9-0.7-1.2-1.1c-0.3-0.5-0.4-1-0.5-1.5c0-0.6-0.1-1.1-0.1-1.7v-7.4h-3v-2.3h3v-4h2.6v4h3.7V569.8
			z"/>
	</g>
	<g>
		<rect x="-29.8" y="501.3" class="st8" width="288.1" height="59.4"/>
		<path class="st10" d="M62.8,521.2h2.9v21.2h-2.9V521.2z"/>
		<path class="st10" d="M70.5,528.2h2.7v2.2h0.1c0.3-0.8,0.9-1.4,1.8-1.8c0.8-0.5,1.8-0.7,2.9-0.7c0.7,0,1.3,0.1,2,0.3
			c0.6,0.2,1.2,0.5,1.7,1c0.5,0.4,0.8,1,1.1,1.7c0.3,0.7,0.4,1.5,0.4,2.4v9.2h-2.7V534c0-0.7-0.1-1.2-0.3-1.7
			c-0.2-0.5-0.4-0.8-0.7-1.1c-0.3-0.3-0.6-0.5-1-0.6s-0.8-0.2-1.2-0.2c-0.6,0-1.1,0.1-1.6,0.3c-0.5,0.2-0.9,0.5-1.3,0.9
			c-0.4,0.4-0.6,0.9-0.8,1.5c-0.2,0.6-0.3,1.3-0.3,2.1v7.3h-2.7V528.2z"/>
		<path class="st10" d="M94.8,530.5h-3.9v6.4c0,0.4,0,0.8,0,1.2s0.1,0.7,0.2,1c0.1,0.3,0.3,0.6,0.6,0.8c0.3,0.2,0.7,0.3,1.2,0.3
			c0.3,0,0.6,0,1-0.1c0.3-0.1,0.6-0.2,0.9-0.3v2.5c-0.3,0.2-0.7,0.3-1.2,0.4c-0.5,0.1-0.9,0.1-1.2,0.1c-1,0-1.8-0.1-2.4-0.4
			c-0.6-0.3-1-0.7-1.3-1.1s-0.4-1-0.5-1.5c-0.1-0.6-0.1-1.1-0.1-1.7v-7.4h-3.1v-2.3h3.1v-4h2.7v4h3.9V530.5z"/>
		<path class="st10" d="M100.3,536.3c0,0.6,0.1,1.2,0.4,1.7c0.3,0.5,0.6,0.9,1.1,1.3s0.9,0.6,1.5,0.8c0.6,0.2,1.2,0.3,1.8,0.3
			c0.8,0,1.6-0.2,2.2-0.6c0.6-0.4,1.2-0.9,1.7-1.5l2,1.6c-1.5,1.9-3.6,2.9-6.3,2.9c-1.1,0-2.1-0.2-3-0.6c-0.9-0.4-1.7-0.9-2.3-1.6
			s-1.1-1.5-1.5-2.4c-0.3-0.9-0.5-1.9-0.5-3c0-1.1,0.2-2,0.6-3c0.4-0.9,0.9-1.7,1.5-2.4c0.6-0.7,1.4-1.2,2.3-1.6s1.9-0.6,2.9-0.6
			c1.3,0,2.3,0.2,3.2,0.7c0.9,0.4,1.6,1,2.1,1.7c0.6,0.7,1,1.5,1.2,2.4c0.2,0.9,0.4,1.8,0.4,2.7v1H100.3z M108.8,534.1
			c0-0.6-0.1-1.1-0.3-1.7c-0.2-0.5-0.4-0.9-0.8-1.3c-0.3-0.4-0.8-0.7-1.3-0.9c-0.5-0.2-1.1-0.3-1.8-0.3c-0.7,0-1.3,0.1-1.8,0.4
			c-0.6,0.2-1,0.6-1.4,1c-0.4,0.4-0.7,0.8-0.9,1.3c-0.2,0.5-0.3,1-0.3,1.5H108.8z"/>
		<path class="st10" d="M114.9,528.2h2.7v2.2h0.1c0.2-0.4,0.4-0.7,0.7-1c0.3-0.3,0.6-0.6,1-0.8c0.4-0.2,0.8-0.4,1.2-0.5
			c0.4-0.1,0.9-0.2,1.3-0.2c0.4,0,0.8,0.1,1.2,0.2l-0.1,2.9c-0.2-0.1-0.4-0.1-0.7-0.2c-0.2,0-0.4-0.1-0.7-0.1c-1.3,0-2.3,0.4-3,1.1
			c-0.7,0.7-1,1.9-1,3.4v7.1h-2.7V528.2z"/>
		<path class="st10" d="M126,528.2h2.7v2.2h0.1c0.3-0.8,0.9-1.4,1.8-1.8c0.8-0.5,1.8-0.7,2.9-0.7c0.7,0,1.3,0.1,2,0.3
			c0.6,0.2,1.2,0.5,1.7,1c0.5,0.4,0.8,1,1.1,1.7c0.3,0.7,0.4,1.5,0.4,2.4v9.2h-2.7V534c0-0.7-0.1-1.2-0.3-1.7
			c-0.2-0.5-0.4-0.8-0.7-1.1c-0.3-0.3-0.6-0.5-1-0.6s-0.8-0.2-1.2-0.2c-0.6,0-1.1,0.1-1.6,0.3c-0.5,0.2-0.9,0.5-1.3,0.9
			c-0.4,0.4-0.6,0.9-0.8,1.5c-0.2,0.6-0.3,1.3-0.3,2.1v7.3H126V528.2z"/>
		<path class="st10" d="M144.8,536.3c0,0.6,0.1,1.2,0.4,1.7c0.3,0.5,0.6,0.9,1.1,1.3s0.9,0.6,1.5,0.8c0.6,0.2,1.2,0.3,1.8,0.3
			c0.8,0,1.6-0.2,2.2-0.6c0.6-0.4,1.2-0.9,1.7-1.5l2,1.6c-1.5,1.9-3.6,2.9-6.3,2.9c-1.1,0-2.1-0.2-3-0.6c-0.9-0.4-1.7-0.9-2.3-1.6
			s-1.1-1.5-1.5-2.4c-0.3-0.9-0.5-1.9-0.5-3c0-1.1,0.2-2,0.6-3c0.4-0.9,0.9-1.7,1.5-2.4c0.6-0.7,1.4-1.2,2.3-1.6s1.9-0.6,2.9-0.6
			c1.3,0,2.3,0.2,3.2,0.7c0.9,0.4,1.6,1,2.1,1.7c0.6,0.7,1,1.5,1.2,2.4c0.2,0.9,0.4,1.8,0.4,2.7v1H144.8z M153.3,534.1
			c0-0.6-0.1-1.1-0.3-1.7c-0.2-0.5-0.4-0.9-0.8-1.3c-0.3-0.4-0.8-0.7-1.3-0.9c-0.5-0.2-1.1-0.3-1.8-0.3c-0.7,0-1.3,0.1-1.8,0.4
			c-0.6,0.2-1,0.6-1.4,1c-0.4,0.4-0.7,0.8-0.9,1.3c-0.2,0.5-0.3,1-0.3,1.5H153.3z"/>
		<path class="st10" d="M167,530.5h-3.9v6.4c0,0.4,0,0.8,0,1.2s0.1,0.7,0.2,1c0.1,0.3,0.3,0.6,0.6,0.8c0.3,0.2,0.7,0.3,1.2,0.3
			c0.3,0,0.6,0,1-0.1c0.3-0.1,0.6-0.2,0.9-0.3v2.5c-0.3,0.2-0.7,0.3-1.2,0.4c-0.5,0.1-0.9,0.1-1.2,0.1c-1,0-1.8-0.1-2.4-0.4
			c-0.6-0.3-1-0.7-1.3-1.1s-0.4-1-0.5-1.5c-0.1-0.6-0.1-1.1-0.1-1.7v-7.4h-3.1v-2.3h3.1v-4h2.7v4h3.9V530.5z"/>
	</g>
	<g>
	</g>
	<g>
	</g>
	<g>
	</g>
	<g>
	</g>
	<g>
	</g>
	<g>
	</g>
</g>
</svg>
