<svg id="Layer_2" data-name="Layer 2" xmlns="http://www.w3.org/2000/svg" width="22in" height="7.79in" viewBox="0 0 1584 560.73"><defs><style>.cls-1{fill:#e6e7e8;}.cls-2{fill:#0058a4;}.cls-14,.cls-16,.cls-3{fill:#fff;}.cls-4{fill:none;stroke:#221f1f;stroke-miterlimit:10;stroke-width:4px;}.cls-5{fill:#221f1f;}.cls-14,.cls-15,.cls-16,.cls-6,.cls-7,.cls-9{font-size:27.48px;}.cls-6,.cls-7{fill:#231f20;}.cls-6{font-family:Avenir-Heavy, Avenir;font-weight:800;}.cls-14,.cls-7,.cls-9{font-family:Avenir-Roman, Avenir;}.cls-8{fill:#97ca38;}.cls-15,.cls-9{fill:#474747;}.cls-10{letter-spacing:0em;}.cls-11{letter-spacing:0em;}.cls-12{letter-spacing:-0.02em;}.cls-13{fill:#007eb1;}.cls-15,.cls-16{font-family:Avenir-Medium, Avenir;font-weight:500;}</style></defs><path class="cls-1" d="M887.12,195.55H666.62c-3.16,0-4.81-2.59-3.66-5.76L703.77,77.67a9.14,9.14,0,0,1,7.86-5.76H932.12c3.17,0,4.82,2.59,3.67,5.76L895,189.79A9.15,9.15,0,0,1,887.12,195.55Z"/><g id="Key"><rect class="cls-2" x="1034.24" y="300.69" width="159.4" height="159.4" rx="5.76"/><path class="cls-3" d="M1047.28,422.85c2.6-2.48,5.23-4.92,7.77-7.45q24.4-24.31,48.8-48.65a3.84,3.84,0,0,0,1.25-3.81,38,38,0,0,1,30.73-43.73c20.46-3.63,40.2,9.67,44.06,30a37.94,37.94,0,0,1-44.2,44.73,3,3,0,0,0-3.08,1c-2.45,2.55-5,5-7.47,7.54a4.86,4.86,0,0,1-4,1.69c-5.48-.11-11,0-16.71,0v9.49h-9.55v9.5h-9.58c0,2.76.11,5.31,0,7.85a5,5,0,0,1-1.18,2.87c-2.25,2.46-4.62,4.81-7.07,7.06a4.89,4.89,0,0,1-2.88,1.18c-5.2.11-10.41.12-15.61,0a5.14,5.14,0,0,1-3-1.29c-2.83-2.56-5.5-5.28-8.23-7.94Zm57.07-46.91a8,8,0,0,0-.73.49q-22.89,22.83-45.77,45.67c-.33.34-.88.72-.89,1.1-.07,3,0,5.95,0,9.07a2.55,2.55,0,0,0,.49-.26q23-23,46-46a2.68,2.68,0,0,0,.85-1.55C1104.4,381.76,1104.35,379,1104.35,375.94Zm57.09-28.88a9.48,9.48,0,1,0-9.44,9.58A9.48,9.48,0,0,0,1161.44,347.06Z"/></g><g id="Key-2" data-name="Key"><rect class="cls-2" x="402.73" y="300.61" width="159.4" height="159.4" rx="5.76"/><path class="cls-3" d="M415.77,422.77c2.59-2.48,5.23-4.92,7.77-7.45q24.4-24.33,48.8-48.66a3.81,3.81,0,0,0,1.24-3.8,38,38,0,1,1,30.59,31,3,3,0,0,0-3.08,1c-2.45,2.55-5,5-7.47,7.54a4.83,4.83,0,0,1-4,1.69c-5.48-.11-11,0-16.71,0v9.49h-9.55V423h-9.58c0,2.77.11,5.32-.05,7.86a5,5,0,0,1-1.19,2.87q-3.37,3.68-7.07,7.06a4.76,4.76,0,0,1-2.87,1.17c-5.2.12-10.41.13-15.61,0a5.14,5.14,0,0,1-3-1.3c-2.82-2.55-5.49-5.27-8.22-7.93Zm57.07-46.91a8.4,8.4,0,0,0-.74.49L426.34,422c-.34.34-.88.72-.89,1.1-.08,3,0,5.94,0,9.07a4.53,4.53,0,0,0,.49-.26q23-23,46-46a2.7,2.7,0,0,0,.86-1.55C472.89,381.67,472.84,378.93,472.84,375.86ZM529.93,347a9.48,9.48,0,1,0-9.44,9.57A9.49,9.49,0,0,0,529.93,347Z"/></g><line class="cls-4" x1="1232.86" y1="127.59" x2="1262.45" y2="127.59"/><polygon class="cls-5" points="1256.51 136.31 1289.03 127.59 1256.51 118.88 1256.51 136.31"/><line class="cls-4" x1="925.77" y1="127.59" x2="955.36" y2="127.59"/><polygon class="cls-5" points="949.42 136.31 981.94 127.59 949.42 118.88 949.42 136.31"/><line class="cls-4" x1="616.95" y1="127.59" x2="646.53" y2="127.59"/><polygon class="cls-5" points="640.59 136.31 673.11 127.59 640.59 118.88 640.59 136.31"/><line class="cls-4" x1="1108.13" y1="290.06" x2="1108.13" y2="234.02"/><polygon class="cls-5" points="1116.84 239.96 1108.13 207.44 1099.41 239.96 1116.84 239.96"/><line class="cls-4" x1="308.99" y1="127.61" x2="338.58" y2="127.61"/><polygon class="cls-5" points="332.63 136.33 365.15 127.61 332.63 118.89 332.63 136.33"/><line class="cls-4" x1="476.78" y1="290.05" x2="476.78" y2="233.8"/><polygon class="cls-5" points="485.49 239.75 476.78 207.23 468.06 239.75 485.49 239.75"/><text class="cls-6" transform="translate(1049.06 47.9)">Receiver</text><text class="cls-6" transform="translate(133.83 44.84)">Sender</text><text class="cls-7" transform="translate(408.55 506.14)">Key Material</text><text class="cls-7" transform="translate(1040.5 506.14)">Key Material</text><rect class="cls-8" x="985.73" y="71.99" width="232.02" height="123.64" rx="5.76"/><text class="cls-9" transform="translate(1033.51 123.59)">Decryp<tspan class="cls-10" x="88.58" y="0">t</tspan><tspan class="cls-11" x="98.28" y="0">ion</tspan><tspan x="21.38" y="32.97">P</tspan><tspan class="cls-12" x="37.67" y="32.97">r</tspan><tspan x="46.85" y="32.97">ocess</tspan></text><path class="cls-13" d="M1472.15,163.57c20.85,0,35.85,2.27,46.33,5a5.77,5.77,0,0,0,7.23-5.57V77.75A5.77,5.77,0,0,0,1520,72h-220.5a5.77,5.77,0,0,0-5.76,5.76V184.6a5.76,5.76,0,0,0,2.85,5c11.16,6.58,29.33,13.66,57,15.22C1409.59,207.93,1419.28,163.57,1472.15,163.57Z"/><text class="cls-14" transform="translate(1356.01 134.9)">Plaintext</text><text class="cls-7" transform="translate(728.13 139.48)">Ciphertext</text><rect class="cls-8" x="369.81" y="71.99" width="232.02" height="123.64" rx="5.76"/><text class="cls-15" transform="translate(418.65 123.44)">Encryption<tspan x="19.58" y="32.97">P</tspan><tspan class="cls-12" x="35.87" y="32.97">r</tspan><tspan x="45.54" y="32.97">ocess</tspan></text><path class="cls-13" d="M240.32,163.5c20.84,0,35.85,2.27,46.33,5a5.76,5.76,0,0,0,7.22-5.57V77.67a5.77,5.77,0,0,0-5.76-5.76H67.62a5.77,5.77,0,0,0-5.76,5.76V184.52a5.76,5.76,0,0,0,2.84,5c11.17,6.59,29.33,13.67,57.05,15.22C177.75,207.85,187.44,163.5,240.32,163.5Z"/><text class="cls-16" transform="translate(123.42 134.83)">Plaintext</text><line class="cls-4" x1="601.36" y1="460.53" x2="959.15" y2="460.53"/><polygon class="cls-5" points="953.21 469.25 985.73 460.53 953.21 451.82 953.21 469.25"/><text class="cls-7" transform="translate(716.4 415.69)">Out-of-Band<tspan x="-21.62" y="32.97">Key Distribu</tspan><tspan class="cls-10" x="128.5" y="32.97">t</tspan><tspan x="138.2" y="32.97">ion</tspan></text></svg>