<?xml version="1.0" encoding="utf-8"?>
<!-- Generator: Adobe Illustrator 26.0.1, SVG Export Plug-In . SVG Version: 6.00 Build 0)  -->
<svg version="1.1" xmlns="http://www.w3.org/2000/svg" xmlns:xlink="http://www.w3.org/1999/xlink" x="0px" y="0px"
	 width="1710.6px" height="923.8px" viewBox="0 0 1710.6 923.8" style="enable-background:new 0 0 1710.6 923.8;"
	 xml:space="preserve">
<style type="text/css">
	.st0{fill:#007EB1;}
	.st1{opacity:0.13;fill:#474747;stroke:#EBEBEB;stroke-miterlimit:10;}
	.st2{fill:#013F58;stroke:#80BC00;stroke-width:0.6149;stroke-miterlimit:10;}
	.st3{fill:#FFFFFF;stroke:#013F58;stroke-width:5.6061;stroke-miterlimit:10;}
	.st4{fill:#FFFFFF;}
	.st5{fill:#013F58;}
	.st6{fill:#221F1F;}
	.st7{fill:none;}
</style>
<g id="Layer_2">
	<g>
		<path class="st0" d="M454.1,470.1H198.2c-3.2,0-5.8-2.6-5.8-5.8V208.4c0-3.2,2.6-5.8,5.8-5.8h255.9c3.2,0,5.8,2.6,5.8,5.8v255.9
			C459.9,467.5,457.3,470.1,454.1,470.1z"/>
		<path class="st0" d="M306,674.5H50c-3.2,0-5.8-2.6-5.8-5.8V530.6c0-3.2,2.6-5.8,5.8-5.8H306c3.2,0,5.8,2.6,5.8,5.8v138.1
			C311.7,671.9,309.1,674.5,306,674.5z"/>
		<path class="st0" d="M600.1,674.5H344.2c-3.2,0-5.8-2.6-5.8-5.8V530.6c0-3.2,2.6-5.8,5.8-5.8h255.9c3.2,0,5.8,2.6,5.8,5.8v138.1
			C605.9,671.9,603.3,674.5,600.1,674.5z"/>
		<path class="st0" d="M306,853.2H50c-3.2,0-5.8-2.6-5.8-5.8V709.4c0-3.2,2.6-5.8,5.8-5.8H306c3.2,0,5.8,2.6,5.8,5.8v138.1
			C311.7,850.6,309.1,853.2,306,853.2z"/>
		<path class="st0" d="M600.1,853.2H344.2c-3.2,0-5.8-2.6-5.8-5.8V709.4c0-3.2,2.6-5.8,5.8-5.8h255.9c3.2,0,5.8,2.6,5.8,5.8v138.1
			C605.9,850.6,603.3,853.2,600.1,853.2z"/>
	</g>
	<path class="st1" d="M1655.7,868.1H720.5c-3.2,0-5.8-2.6-5.8-5.8v-710c0-3.2,2.6-5.8,5.8-5.8h935.2c3.2,0,5.8,2.6,5.8,5.8v710
		C1661.5,865.5,1658.9,868.1,1655.7,868.1z"/>
	<path class="st0" d="M1021.6,470.1H765.7c-3.2,0-5.8-2.6-5.8-5.8V208.4c0-3.2,2.6-5.8,5.8-5.8h255.9c3.2,0,5.8,2.6,5.8,5.8v255.9
		C1027.3,467.5,1024.8,470.1,1021.6,470.1z"/>
	<path class="st0" d="M1021.6,674.5H765.7c-3.2,0-5.8-2.6-5.8-5.8V530.6c0-3.2,2.6-5.8,5.8-5.8h255.9c3.2,0,5.8,2.6,5.8,5.8v138.1
		C1027.3,671.9,1024.8,674.5,1021.6,674.5z"/>
	<path class="st0" d="M1313.9,674.5H1058c-3.2,0-5.8-2.6-5.8-5.8V530.6c0-3.2,2.6-5.8,5.8-5.8h255.9c3.2,0,5.8,2.6,5.8,5.8v138.1
		C1319.7,671.9,1317.1,674.5,1313.9,674.5z"/>
	<path class="st0" d="M1606.2,674.5h-255.9c-3.2,0-5.8-2.6-5.8-5.8V530.6c0-3.2,2.6-5.8,5.8-5.8h255.9c3.2,0,5.8,2.6,5.8,5.8v138.1
		C1612,671.9,1609.4,674.5,1606.2,674.5z"/>
	<path class="st0" d="M1021.6,853.2H765.7c-3.2,0-5.8-2.6-5.8-5.8V709.4c0-3.2,2.6-5.8,5.8-5.8h255.9c3.2,0,5.8,2.6,5.8,5.8v138.1
		C1027.3,850.6,1024.8,853.2,1021.6,853.2z"/>
	<path class="st0" d="M1313.9,853.2H1058c-3.2,0-5.8-2.6-5.8-5.8V709.4c0-3.2,2.6-5.8,5.8-5.8h255.9c3.2,0,5.8,2.6,5.8,5.8v138.1
		C1319.7,850.6,1317.1,853.2,1313.9,853.2z"/>
	<path class="st0" d="M1606.2,853.2h-255.9c-3.2,0-5.8-2.6-5.8-5.8V709.4c0-3.2,2.6-5.8,5.8-5.8h255.9c3.2,0,5.8,2.6,5.8,5.8v138.1
		C1612,850.6,1609.4,853.2,1606.2,853.2z"/>
	<g id="User_Group_1_">
		<g>
			<g>
				<path class="st2" d="M1202.7,198.7c0,7.8-6.3,14.1-14.1,14.1c-7.8,0-14.1-6.3-14.1-14.1s6.3-14.1,14.1-14.1
					C1196.4,184.6,1202.7,190.9,1202.7,198.7z"/>
				<path class="st2" d="M1188.6,184.6c-7.8,0-14.1,6.3-14.1,14.1s6.3,14.1,14.1,14.1c7.8,0,14.1-6.3,14.1-14.1
					C1202.7,190.9,1196.4,184.6,1188.6,184.6z"/>
				<path class="st2" d="M1202.7,228.3c0-3,0.8-5.9,2.1-8.4c-2.9-1.7-6.1-2.7-9.6-2.7h-13.4c-3.7,0-7.1,1.1-9.9,2.9
					c1.3,2.4,2,5.2,2,8.2c0,6.2-3.1,11.6-7.9,14.9c4.7,0.7,9,2.9,12.4,6.3c1.7,1.7,3,3.5,4.1,5.6c2.6,0.3,5.2,0.4,7.8,0.4
					c1.3,0,2.5,0,3.6-0.1c3.2-6.4,9.3-11.1,16.7-12.2C1205.9,239.9,1202.7,234.4,1202.7,228.3z"/>
				<path class="st2" d="M1202.7,228.3c0-3,0.8-5.9,2.1-8.4c-2.9-1.7-6.1-2.7-9.6-2.7h-13.4c-3.7,0-7.1,1.1-9.9,2.9
					c1.3,2.4,2,5.2,2,8.2c0,6.2-3.1,11.6-7.9,14.9c4.7,0.7,9,2.9,12.4,6.3c1.7,1.7,3,3.5,4.1,5.6c2.6,0.3,5.2,0.4,7.8,0.4
					c1.3,0,2.5,0,3.6-0.1c3.2-6.4,9.3-11.1,16.7-12.2C1205.9,239.9,1202.7,234.4,1202.7,228.3z"/>
			</g>
			<g>
				<path class="st2" d="M1170.1,228.2c0,5-2.7,9.5-6.6,11.9c-1.2,0.7-2.5,1.3-3.9,1.7c-1.1,0.3-2.3,0.5-3.6,0.5
					c-7.8,0-14.1-6.3-14.1-14.1c0-7.8,6.3-14.1,14.1-14.1c4.3,0,8.2,2,10.8,5c0.9,1,1.6,2.1,2.1,3.4
					C1169.6,224.3,1170.1,226.2,1170.1,228.2z"/>
				<path class="st2" d="M1181.2,265.2v15.3l-0.2,0.1c-0.3,0.2-8.7,4.3-23.2,4.3c-8.6,0-17.7-1.5-26.9-4.3v-15.4
					c0-10.2,8.3-18.5,18.5-18.5h13.4c0.3,0,0.5,0,0.8,0c4.6,0.2,9,2.1,12.3,5.4c0.7,0.7,1.3,1.4,1.9,2.2c1,1.3,1.7,2.7,2.3,4.3
					C1180.7,260.7,1181.2,262.9,1181.2,265.2z"/>
			</g>
			<g>
				<path class="st2" d="M1234.8,228.2c0,7.8-6.3,14.1-14.1,14.1c-1,0-2.1-0.1-3.1-0.3c-1.4-0.3-2.7-0.8-3.9-1.5
					c-4.3-2.4-7.1-7-7.1-12.2c0-2.1,0.5-4.2,1.3-6c0.6-1.2,1.3-2.3,2.2-3.3c2.6-2.9,6.4-4.8,10.6-4.8
					C1228.5,214.2,1234.8,220.5,1234.8,228.2z"/>
				<path class="st2" d="M1245.9,265.2v15.3l-0.2,0.1c-0.3,0.2-8.7,4.3-23.2,4.3c-8.6,0-17.7-1.5-26.9-4.3v-15.4
					c0-2.2,0.4-4.3,1.1-6.2c0.5-1.5,1.2-2.8,2.1-4.1c3.3-4.8,8.8-8.1,15.1-8.1c0.1,0,0.2,0,0.3,0h13.4c4.9,0,9.6,1.9,13.1,5.4
					C1244,255.7,1245.9,260.3,1245.9,265.2z"/>
			</g>
		</g>
	</g>
	<g>
		<circle class="st3" cx="1188.4" cy="391.4" r="60.4"/>
		<g>
			<polyline class="st4" points="1186.4,356.1 1186.4,393.9 1216.8,393.9 			"/>
			<g>
				<path class="st5" d="M1183.9,356.1c0,12.6,0,25.2,0,37.8c0,1.4,1.1,2.5,2.5,2.5c10.2,0,20.3,0,30.5,0c3.2,0,3.2-5,0-5
					c-10.2,0-20.3,0-30.5,0c0.8,0.8,1.7,1.7,2.5,2.5c0-12.6,0-25.2,0-37.8C1188.9,352.9,1183.9,352.9,1183.9,356.1L1183.9,356.1z"/>
			</g>
		</g>
	</g>
</g>
<g id="Layer_3">
	<g>
		<g>
			<path class="st6" d="M1387.9,243.6h2.9v24.8h-2.9V243.6z"/>
			<path class="st6" d="M1406.1,243.6h2.8l10.5,24.8h-3.4l-2.5-6.1h-12.4l-2.6,6.1h-3.3L1406.1,243.6z M1407.5,247.4L1407.5,247.4
				l-5.2,12.2h10.1L1407.5,247.4z"/>
			<path class="st6" d="M1423.1,243.6h4.4l8.4,19.4h0.1l8.5-19.4h4.3v24.8h-2.9v-20.8h-0.1l-8.9,20.8h-1.8l-8.9-20.8h-0.1v20.8h-2.9
				V243.6z"/>
		</g>
	</g>
	<g>
		<g>
			<path class="st6" d="M1347.3,396h2.8l10.5,24.8h-3.4l-2.5-6.1h-12.4l-2.6,6.1h-3.3L1347.3,396z M1348.7,399.8L1348.7,399.8
				l-5.2,12.2h10.1L1348.7,399.8z"/>
			<path class="st6" d="M1372.4,406.7h-4.8v8.2c0,0.5,0,1,0,1.5s0.1,0.9,0.3,1.2c0.2,0.3,0.4,0.6,0.7,0.8c0.3,0.2,0.8,0.3,1.4,0.3
				c0.4,0,0.8,0,1.2-0.1c0.4-0.1,0.8-0.2,1.2-0.4l0.1,2.5c-0.5,0.2-1,0.4-1.6,0.5c-0.6,0.1-1.1,0.1-1.6,0.1c-1,0-1.8-0.1-2.3-0.4
				c-0.6-0.3-1-0.6-1.4-1.1c-0.3-0.5-0.5-1-0.6-1.7c-0.1-0.7-0.2-1.5-0.2-2.3v-9h-3.6v-2.3h3.6v-4.7h2.7v4.7h4.8V406.7z"/>
			<path class="st6" d="M1386.1,406.7h-4.8v8.2c0,0.5,0,1,0,1.5s0.1,0.9,0.3,1.2c0.2,0.3,0.4,0.6,0.7,0.8c0.3,0.2,0.8,0.3,1.4,0.3
				c0.4,0,0.8,0,1.2-0.1c0.4-0.1,0.8-0.2,1.2-0.4l0.1,2.5c-0.5,0.2-1,0.4-1.6,0.5c-0.6,0.1-1.1,0.1-1.6,0.1c-1,0-1.8-0.1-2.3-0.4
				c-0.6-0.3-1-0.6-1.4-1.1c-0.3-0.5-0.5-1-0.6-1.7c-0.1-0.7-0.2-1.5-0.2-2.3v-9h-3.6v-2.3h3.6v-4.7h2.7v4.7h4.8V406.7z"/>
			<path class="st6" d="M1390.5,408.3c0-0.7,0-1.4-0.1-2.1c0-0.7-0.1-1.2-0.1-1.8h2.6c0,0.4,0,0.9,0,1.3c0,0.4,0,0.9,0,1.4h0.1
				c0.2-0.4,0.4-0.8,0.8-1.2c0.3-0.4,0.7-0.7,1.2-1c0.5-0.3,1-0.5,1.6-0.7c0.6-0.2,1.2-0.3,1.9-0.3c0.2,0,0.4,0,0.6,0
				c0.2,0,0.4,0.1,0.6,0.1l-0.2,2.8c-0.5-0.1-1-0.2-1.5-0.2c-1.7,0-2.9,0.5-3.7,1.6c-0.8,1.1-1.1,2.6-1.1,4.5v8h-2.7V408.3z"/>
			<path class="st6" d="M1403.5,398c0-0.5,0.2-1,0.6-1.4c0.4-0.4,0.9-0.6,1.4-0.6c0.6,0,1,0.2,1.4,0.6c0.4,0.4,0.6,0.9,0.6,1.4
				c0,0.6-0.2,1.1-0.6,1.4c-0.4,0.4-0.9,0.6-1.4,0.6c-0.6,0-1.1-0.2-1.4-0.6C1403.7,399,1403.5,398.6,1403.5,398z M1404.1,404.4h2.7
				v16.4h-2.7V404.4z"/>
			<path class="st6" d="M1412.1,394.3h2.7v12.5h0.1c0.7-0.9,1.6-1.6,2.6-2.1c1-0.5,2.1-0.7,3.3-0.7c1.3,0,2.5,0.2,3.5,0.6
				s2,1,2.7,1.8c0.7,0.8,1.3,1.7,1.8,2.7c0.4,1.1,0.6,2.2,0.6,3.4c0,1.2-0.2,2.4-0.6,3.4c-0.4,1-1,2-1.7,2.7
				c-0.7,0.8-1.6,1.4-2.6,1.8c-1,0.4-2.1,0.6-3.2,0.6c-1.5,0-2.8-0.3-3.9-1c-1.1-0.6-1.9-1.4-2.4-2.4h-0.1v2.9h-2.7V394.3z
				 M1414.9,412.6c0,0.9,0.1,1.7,0.4,2.4c0.3,0.7,0.7,1.4,1.2,1.9c0.5,0.5,1.1,1,1.8,1.3c0.7,0.3,1.5,0.5,2.4,0.5
				c0.9,0,1.7-0.2,2.4-0.5c0.7-0.3,1.3-0.7,1.8-1.3c0.5-0.5,0.9-1.2,1.2-1.9c0.3-0.7,0.4-1.5,0.4-2.4c0-0.9-0.1-1.7-0.4-2.4
				c-0.3-0.7-0.7-1.4-1.2-1.9c-0.5-0.5-1.1-1-1.8-1.3c-0.7-0.3-1.5-0.5-2.4-0.5c-0.9,0-1.7,0.2-2.4,0.5c-0.7,0.3-1.3,0.7-1.8,1.3
				c-0.5,0.5-0.9,1.2-1.2,1.9C1415,410.9,1414.9,411.7,1414.9,412.6z"/>
			<path class="st6" d="M1447.9,416.9c0,0.7,0,1.4,0.1,2.1c0,0.7,0.1,1.2,0.1,1.8h-2.6c0-0.4,0-0.9,0-1.3c0-0.4,0-0.9,0-1.4h-0.1
				c-0.2,0.4-0.5,0.8-0.8,1.2c-0.3,0.4-0.7,0.7-1.2,1c-0.5,0.3-1,0.5-1.6,0.7c-0.6,0.2-1.2,0.3-1.9,0.3c-1.1,0-2-0.2-2.8-0.5
				c-0.8-0.3-1.4-0.8-1.9-1.4c-0.5-0.6-0.9-1.3-1.1-2.1c-0.2-0.8-0.4-1.7-0.4-2.7v-10.1h2.7v9.8c0,1.4,0.3,2.5,0.9,3.3
				c0.6,0.8,1.6,1.2,2.8,1.2c0.9,0,1.7-0.2,2.3-0.5c0.6-0.3,1.2-0.7,1.6-1.3s0.7-1.2,0.9-2c0.2-0.8,0.3-1.6,0.3-2.6v-8h2.7V416.9z"
				/>
			<path class="st6" d="M1463.5,406.7h-4.8v8.2c0,0.5,0,1,0,1.5s0.1,0.9,0.3,1.2c0.2,0.3,0.4,0.6,0.7,0.8c0.3,0.2,0.8,0.3,1.4,0.3
				c0.4,0,0.8,0,1.2-0.1c0.4-0.1,0.8-0.2,1.2-0.4l0.1,2.5c-0.5,0.2-1,0.4-1.6,0.5c-0.6,0.1-1.1,0.1-1.6,0.1c-1,0-1.8-0.1-2.3-0.4
				c-0.6-0.3-1-0.6-1.4-1.1c-0.3-0.5-0.5-1-0.6-1.7c-0.1-0.7-0.2-1.5-0.2-2.3v-9h-3.6v-2.3h3.6v-4.7h2.7v4.7h4.8V406.7z"/>
			<path class="st6" d="M1482.9,417.8c-1,1.3-2.1,2.1-3.2,2.6c-1.2,0.5-2.5,0.8-4.1,0.8c-1.3,0-2.4-0.2-3.5-0.7
				c-1-0.5-1.9-1.1-2.6-1.8s-1.3-1.7-1.6-2.7c-0.4-1-0.6-2.2-0.6-3.4c0-1.3,0.2-2.4,0.6-3.5c0.4-1.1,1-2,1.8-2.7
				c0.7-0.8,1.6-1.3,2.7-1.8c1-0.4,2.1-0.6,3.4-0.6c1.1,0,2.2,0.2,3.2,0.6c1,0.4,1.8,0.9,2.5,1.7s1.2,1.6,1.6,2.7
				c0.4,1.1,0.6,2.3,0.6,3.6v0.9h-13.2c0,0.7,0.2,1.4,0.5,2c0.3,0.6,0.7,1.2,1.1,1.7c0.5,0.5,1,0.9,1.6,1.1s1.3,0.4,2.1,0.4
				c1.2,0,2.2-0.2,3-0.6c0.8-0.4,1.6-1,2.2-1.9L1482.9,417.8z M1480.5,411.1c0-1.4-0.5-2.5-1.4-3.4s-2.1-1.3-3.6-1.3
				c-1.5,0-2.7,0.4-3.7,1.3s-1.5,2-1.7,3.4H1480.5z"/>
			<path class="st6" d="M1488.4,416.4c0.5,0.7,1.1,1.2,1.8,1.6c0.6,0.4,1.5,0.6,2.4,0.6c0.4,0,0.8,0,1.3-0.1
				c0.4-0.1,0.8-0.2,1.2-0.5c0.4-0.2,0.6-0.5,0.8-0.8s0.3-0.7,0.3-1.1c0-0.4-0.1-0.8-0.3-1.1c-0.2-0.3-0.5-0.5-0.8-0.7
				c-0.3-0.2-0.7-0.4-1.1-0.5c-0.4-0.1-0.9-0.2-1.3-0.3c-0.8-0.2-1.5-0.4-2.2-0.6s-1.3-0.5-1.8-0.8c-0.5-0.3-0.9-0.8-1.3-1.3
				c-0.3-0.5-0.5-1.2-0.5-2.1c0-0.8,0.2-1.5,0.5-2.1c0.3-0.6,0.8-1.1,1.4-1.5c0.6-0.4,1.2-0.7,2-0.9c0.7-0.2,1.5-0.3,2.2-0.3
				c1.2,0,2.2,0.2,3.2,0.7c1,0.5,1.8,1.2,2.3,2.3l-2.3,1.5c-0.3-0.6-0.8-1.1-1.4-1.4c-0.6-0.4-1.3-0.5-2.1-0.5c-0.4,0-0.8,0-1.1,0.1
				c-0.4,0.1-0.7,0.2-1,0.4c-0.3,0.2-0.6,0.4-0.8,0.7c-0.2,0.3-0.3,0.6-0.3,1c0,0.4,0.1,0.6,0.3,0.9c0.2,0.2,0.5,0.5,0.9,0.6
				c0.4,0.2,0.8,0.3,1.3,0.5s1,0.3,1.6,0.4c0.7,0.1,1.4,0.3,2.1,0.5c0.7,0.2,1.2,0.5,1.7,0.9c0.5,0.4,0.9,0.8,1.2,1.4
				c0.3,0.6,0.4,1.2,0.4,2.1c0,0.9-0.2,1.7-0.6,2.4c-0.4,0.7-0.9,1.2-1.5,1.6c-0.6,0.4-1.3,0.7-2.1,0.9c-0.8,0.2-1.6,0.3-2.4,0.3
				c-1.4,0-2.6-0.2-3.6-0.6s-1.9-1.2-2.7-2.4L1488.4,416.4z"/>
		</g>
	</g>
	<g>
		<rect x="68.2" y="10" class="st7" width="515.8" height="203.1"/>
		<path d="M113,97.7h-12.9v34.6h-4.6V97.7H82.6v-4.3H113V97.7z"/>
		<path d="M112.6,112.7c0-1.2,0-2.3-0.1-3.3c-0.1-1-0.1-2-0.1-2.8h4.1c0,0.7,0,1.4,0.1,2.1c0,0.7,0.1,1.4,0.1,2.1h0.1
			c0.3-0.6,0.7-1.2,1.2-1.8c0.5-0.6,1.2-1.1,1.9-1.6c0.7-0.5,1.6-0.8,2.5-1.1c0.9-0.3,1.9-0.4,3-0.4c0.3,0,0.6,0,0.9,0.1
			c0.3,0,0.6,0.1,0.9,0.2l-0.3,4.3c-0.7-0.2-1.5-0.3-2.3-0.3c-2.6,0-4.6,0.9-5.7,2.6c-1.2,1.7-1.8,4-1.8,7v12.5h-4.3V112.7z"/>
		<path d="M131.6,109.9c1.3-1.4,2.9-2.4,4.7-3c1.8-0.6,3.7-1,5.5-1c3.8,0,6.6,0.9,8.2,2.7c1.7,1.8,2.5,4.5,2.5,8.2v11.1
			c0,0.7,0,1.5,0.1,2.3c0.1,0.8,0.2,1.5,0.3,2.2h-4.1c-0.1-0.6-0.2-1.2-0.2-2c0-0.7,0-1.3,0-1.9h-0.1c-0.8,1.3-2,2.4-3.4,3.2
			c-1.4,0.8-3.1,1.3-5.1,1.3c-1.3,0-2.6-0.2-3.7-0.5s-2.2-0.8-3-1.5c-0.9-0.6-1.5-1.4-2.1-2.4c-0.5-1-0.8-2.1-0.8-3.3
			c0-2.1,0.5-3.8,1.7-5c1.1-1.2,2.5-2.1,4.1-2.7c1.6-0.6,3.4-1,5.3-1.1c1.9-0.1,3.6-0.2,5.2-0.2h1.7v-0.8c0-1.9-0.6-3.3-1.7-4.2
			c-1.1-1-2.7-1.4-4.7-1.4c-1.4,0-2.8,0.2-4.1,0.7c-1.3,0.5-2.5,1.2-3.5,2.1L131.6,109.9z M144.1,120c-2.8,0-4.9,0.4-6.5,1.2
			c-1.6,0.8-2.4,2-2.4,3.8c0,1.6,0.5,2.8,1.6,3.4c1.1,0.7,2.4,1,4,1c1.2,0,2.3-0.2,3.3-0.6c0.9-0.4,1.7-1,2.3-1.7
			c0.6-0.7,1.1-1.5,1.4-2.4s0.5-1.9,0.5-3V120H144.1z"/>
		<path d="M181.9,127.8h-0.1c-0.8,1.5-2.1,2.7-3.8,3.7c-1.7,1-3.8,1.5-6.1,1.5c-1.8,0-3.5-0.3-5.1-1c-1.6-0.7-2.9-1.6-4.1-2.8
			c-1.2-1.2-2.1-2.6-2.7-4.3s-1-3.4-1-5.4c0-1.9,0.3-3.7,1-5.4c0.7-1.7,1.6-3.1,2.8-4.3c1.2-1.2,2.6-2.2,4.3-2.8
			c1.7-0.7,3.5-1,5.5-1c1.9,0,3.6,0.4,5.1,1.2c1.6,0.8,2.9,1.9,4.1,3.2h0.1V90.7h4.3v41.6h-4.3V127.8z M181.9,119.5
			c0-1.4-0.2-2.6-0.6-3.8c-0.4-1.2-1-2.2-1.8-3c-0.8-0.9-1.8-1.5-2.9-2c-1.1-0.5-2.4-0.7-3.8-0.7s-2.6,0.2-3.8,0.7
			c-1.1,0.5-2.1,1.2-2.9,2c-0.8,0.9-1.4,1.9-1.8,3c-0.4,1.2-0.6,2.4-0.6,3.8c0,1.4,0.2,2.6,0.6,3.8c0.4,1.2,1,2.2,1.8,3
			c0.8,0.9,1.8,1.5,2.9,2c1.1,0.5,2.4,0.7,3.8,0.7s2.6-0.2,3.8-0.7c1.1-0.5,2.1-1.2,2.9-2c0.8-0.9,1.4-1.9,1.8-3
			C181.7,122.1,181.9,120.8,181.9,119.5z"/>
		<path d="M193.6,96.5c0-0.8,0.3-1.6,0.9-2.2c0.6-0.6,1.3-0.9,2.2-0.9c0.9,0,1.6,0.3,2.2,0.9c0.6,0.6,0.9,1.4,0.9,2.2
			c0,0.9-0.3,1.7-0.9,2.3c-0.6,0.6-1.3,0.9-2.3,0.9c-0.9,0-1.7-0.3-2.3-0.9C193.9,98.2,193.6,97.4,193.6,96.5z M194.6,106.6h4.3
			v25.7h-4.3V106.6z"/>
		<path d="M222.6,110.2H215v12.9c0,0.8,0,1.6,0.1,2.3c0,0.7,0.2,1.3,0.4,1.9c0.3,0.5,0.6,1,1.2,1.3c0.5,0.3,1.2,0.5,2.2,0.5
			c0.6,0,1.3-0.1,1.9-0.2c0.7-0.1,1.3-0.4,1.9-0.7l0.2,3.9c-0.7,0.3-1.5,0.6-2.4,0.7c-0.9,0.1-1.8,0.2-2.6,0.2
			c-1.5,0-2.8-0.2-3.7-0.6c-0.9-0.4-1.6-1-2.1-1.7c-0.5-0.7-0.9-1.6-1-2.7c-0.2-1.1-0.2-2.3-0.2-3.6v-14.1h-5.6v-3.6h5.6v-7.3h4.3
			v7.3h7.6V110.2z"/>
		<path d="M228.3,96.5c0-0.8,0.3-1.6,0.9-2.2c0.6-0.6,1.3-0.9,2.2-0.9c0.9,0,1.6,0.3,2.2,0.9c0.6,0.6,0.9,1.4,0.9,2.2
			c0,0.9-0.3,1.7-0.9,2.3c-0.6,0.6-1.3,0.9-2.3,0.9c-0.9,0-1.7-0.3-2.3-0.9C228.6,98.2,228.3,97.4,228.3,96.5z M229.3,106.6h4.3
			v25.7h-4.3V106.6z"/>
		<path d="M240.6,119.5c0-2,0.3-3.9,1-5.5c0.7-1.6,1.7-3.1,2.9-4.3c1.2-1.2,2.7-2.1,4.3-2.8c1.7-0.7,3.5-1,5.5-1c2,0,3.8,0.3,5.5,1
			c1.7,0.7,3.1,1.6,4.3,2.8c1.2,1.2,2.2,2.6,2.9,4.3c0.7,1.6,1,3.5,1,5.5c0,2-0.3,3.9-1,5.5c-0.7,1.6-1.7,3.1-2.9,4.3
			c-1.2,1.2-2.7,2.1-4.3,2.8s-3.5,1-5.5,1c-2,0-3.8-0.3-5.5-1s-3.1-1.6-4.3-2.8c-1.2-1.2-2.2-2.6-2.9-4.3
			C241,123.3,240.6,121.5,240.6,119.5z M245.3,119.5c0,1.4,0.2,2.6,0.6,3.8c0.4,1.2,1,2.2,1.8,3c0.8,0.9,1.8,1.5,2.9,2
			c1.1,0.5,2.4,0.7,3.8,0.7s2.6-0.2,3.8-0.7c1.1-0.5,2.1-1.2,2.9-2c0.8-0.9,1.4-1.9,1.8-3c0.4-1.2,0.6-2.4,0.6-3.8
			c0-1.4-0.2-2.6-0.6-3.8c-0.4-1.2-1-2.2-1.8-3c-0.8-0.9-1.8-1.5-2.9-2c-1.1-0.5-2.4-0.7-3.8-0.7s-2.6,0.2-3.8,0.7
			c-1.1,0.5-2.1,1.2-2.9,2c-0.8,0.9-1.4,1.9-1.8,3C245.5,116.8,245.3,118.1,245.3,119.5z"/>
		<path d="M274.8,112.7c0-1.2,0-2.3-0.1-3.3c-0.1-1-0.1-2-0.1-2.8h4.1c0,0.7,0,1.4,0.1,2.1c0,0.7,0.1,1.4,0.1,2.1h0.1
			c0.3-0.6,0.7-1.2,1.2-1.8c0.5-0.6,1.2-1.1,1.9-1.6c0.7-0.5,1.6-0.8,2.5-1.1c0.9-0.3,1.9-0.4,3-0.4c1.7,0,3.1,0.3,4.4,0.8
			c1.2,0.5,2.2,1.2,3.1,2.1c0.8,0.9,1.4,2,1.8,3.3c0.4,1.3,0.6,2.7,0.6,4.3v15.9h-4.3v-15.5c0-2.2-0.5-3.9-1.4-5.1
			c-1-1.2-2.4-1.9-4.5-1.9c-1.4,0-2.6,0.2-3.6,0.7c-1,0.5-1.8,1.2-2.5,2c-0.6,0.9-1.1,1.9-1.4,3.1s-0.5,2.5-0.5,4v12.5h-4.3V112.7z"
			/>
		<path d="M305,109.9c1.3-1.4,2.9-2.4,4.7-3c1.8-0.6,3.7-1,5.5-1c3.8,0,6.6,0.9,8.2,2.7c1.7,1.8,2.5,4.5,2.5,8.2v11.1
			c0,0.7,0,1.5,0.1,2.3c0.1,0.8,0.2,1.5,0.3,2.2h-4.1c-0.1-0.6-0.2-1.2-0.2-2c0-0.7,0-1.3,0-1.9h-0.1c-0.8,1.3-2,2.4-3.4,3.2
			c-1.4,0.8-3.1,1.3-5.1,1.3c-1.3,0-2.6-0.2-3.7-0.5s-2.2-0.8-3-1.5c-0.9-0.6-1.5-1.4-2.1-2.4c-0.5-1-0.8-2.1-0.8-3.3
			c0-2.1,0.5-3.8,1.7-5c1.1-1.2,2.5-2.1,4.1-2.7c1.6-0.6,3.4-1,5.3-1.1c1.9-0.1,3.6-0.2,5.2-0.2h1.7v-0.8c0-1.9-0.6-3.3-1.7-4.2
			c-1.1-1-2.7-1.4-4.7-1.4c-1.4,0-2.8,0.2-4.1,0.7c-1.3,0.5-2.5,1.2-3.5,2.1L305,109.9z M317.5,120c-2.8,0-4.9,0.4-6.5,1.2
			c-1.6,0.8-2.4,2-2.4,3.8c0,1.6,0.5,2.8,1.6,3.4c1.1,0.7,2.4,1,4,1c1.2,0,2.3-0.2,3.3-0.6c0.9-0.4,1.7-1,2.3-1.7
			c0.6-0.7,1.1-1.5,1.4-2.4s0.5-1.9,0.5-3V120H317.5z"/>
		<path d="M334.3,90.7h4.3v41.6h-4.3V90.7z"/>
		<path d="M363.2,93.4h24.1v4.3h-19.5v12.9H386v4.3h-18.2v17.5h-4.6V93.4z"/>
		<path d="M392.4,96.5c0-0.8,0.3-1.6,0.9-2.2c0.6-0.6,1.3-0.9,2.2-0.9c0.9,0,1.6,0.3,2.2,0.9c0.6,0.6,0.9,1.4,0.9,2.2
			c0,0.9-0.3,1.7-0.9,2.3c-0.6,0.6-1.3,0.9-2.3,0.9c-0.9,0-1.7-0.3-2.3-0.9C392.7,98.2,392.4,97.4,392.4,96.5z M393.4,106.6h4.3
			v25.7h-4.3V106.6z"/>
		<path d="M406.2,112.7c0-1.2,0-2.3-0.1-3.3c-0.1-1-0.1-2-0.1-2.8h4.1c0,0.7,0,1.4,0.1,2.1c0,0.7,0.1,1.4,0.1,2.1h0.1
			c0.3-0.6,0.7-1.2,1.2-1.8c0.5-0.6,1.2-1.1,1.9-1.6c0.7-0.5,1.6-0.8,2.5-1.1c0.9-0.3,1.9-0.4,3-0.4c0.3,0,0.6,0,0.9,0.1
			c0.3,0,0.6,0.1,0.9,0.2l-0.3,4.3c-0.7-0.2-1.5-0.3-2.3-0.3c-2.6,0-4.6,0.9-5.7,2.6c-1.2,1.7-1.8,4-1.8,7v12.5h-4.3V112.7z"/>
		<path d="M447.6,127.7c-1.5,2-3.2,3.4-5.1,4.2c-1.8,0.8-4,1.2-6.4,1.2c-2,0-3.8-0.4-5.4-1.1c-1.6-0.7-3-1.7-4.1-2.9
			c-1.1-1.2-2-2.6-2.6-4.3c-0.6-1.7-0.9-3.4-0.9-5.3c0-2,0.3-3.8,1-5.5s1.6-3.1,2.8-4.3c1.2-1.2,2.6-2.1,4.2-2.8
			c1.6-0.7,3.4-1,5.3-1c1.8,0,3.4,0.3,5,0.9c1.5,0.6,2.8,1.5,3.9,2.6c1.1,1.2,1.9,2.6,2.5,4.2c0.6,1.7,0.9,3.6,0.9,5.7v1.4h-20.8
			c0.1,1.1,0.3,2.2,0.8,3.2c0.5,1,1.1,1.9,1.8,2.6c0.7,0.8,1.6,1.3,2.6,1.8c1,0.4,2.1,0.7,3.2,0.7c1.9,0,3.4-0.3,4.7-1
			c1.3-0.7,2.4-1.6,3.5-2.9L447.6,127.7z M443.9,117.1c-0.1-2.2-0.8-4-2.1-5.3c-1.4-1.3-3.2-2-5.6-2c-2.4,0-4.3,0.7-5.8,2
			s-2.3,3.1-2.6,5.3H443.9z"/>
		<path d="M482.8,132.3h-4.2l-7.3-19.8h-0.1l-6.5,19.8h-4.4l-8.4-25.7h4.7l5.9,19.8h0.1l6.7-19.8h4.5l6.8,19.8h0.1l5.8-19.8h4.6
			L482.8,132.3z"/>
		<path d="M495.6,109.9c1.3-1.4,2.9-2.4,4.7-3c1.8-0.6,3.7-1,5.5-1c3.8,0,6.6,0.9,8.2,2.7c1.7,1.8,2.5,4.5,2.5,8.2v11.1
			c0,0.7,0,1.5,0.1,2.3c0.1,0.8,0.2,1.5,0.3,2.2h-4.1c-0.1-0.6-0.2-1.2-0.2-2c0-0.7,0-1.3,0-1.9h-0.1c-0.8,1.3-2,2.4-3.4,3.2
			c-1.4,0.8-3.1,1.3-5.1,1.3c-1.3,0-2.6-0.2-3.7-0.5s-2.2-0.8-3-1.5c-0.9-0.6-1.5-1.4-2.1-2.4c-0.5-1-0.8-2.1-0.8-3.3
			c0-2.1,0.5-3.8,1.7-5c1.1-1.2,2.5-2.1,4.1-2.7c1.6-0.6,3.4-1,5.3-1.1c1.9-0.1,3.6-0.2,5.2-0.2h1.7v-0.8c0-1.9-0.6-3.3-1.7-4.2
			c-1.1-1-2.7-1.4-4.7-1.4c-1.4,0-2.8,0.2-4.1,0.7c-1.3,0.5-2.5,1.2-3.5,2.1L495.6,109.9z M508,120c-2.8,0-4.9,0.4-6.5,1.2
			c-1.6,0.8-2.4,2-2.4,3.8c0,1.6,0.5,2.8,1.6,3.4c1.1,0.7,2.4,1,4,1c1.2,0,2.3-0.2,3.3-0.6c0.9-0.4,1.7-1,2.3-1.7
			c0.6-0.7,1.1-1.5,1.4-2.4s0.5-1.9,0.5-3V120H508z"/>
		<path d="M524.8,90.7h4.3v41.6h-4.3V90.7z"/>
		<path d="M538.1,90.7h4.3v41.6h-4.3V90.7z"/>
		<path d="M551.4,125.6c0.8,1.1,1.8,1.9,2.8,2.5c1,0.6,2.3,0.9,3.8,0.9c0.7,0,1.3-0.1,2-0.2c0.7-0.1,1.3-0.4,1.8-0.7
			c0.5-0.3,1-0.7,1.3-1.2c0.3-0.5,0.5-1.1,0.5-1.8c0-0.7-0.2-1.3-0.5-1.7c-0.3-0.4-0.7-0.8-1.2-1.1s-1.1-0.6-1.8-0.7
			c-0.7-0.2-1.3-0.3-2-0.5c-1.2-0.3-2.4-0.5-3.5-0.9s-2.1-0.8-2.9-1.3c-0.8-0.5-1.5-1.2-2-2.1c-0.5-0.8-0.7-1.9-0.7-3.2
			c0-1.2,0.3-2.3,0.8-3.3c0.5-1,1.3-1.7,2.2-2.4c0.9-0.6,1.9-1.1,3.1-1.4c1.1-0.3,2.3-0.5,3.5-0.5c1.8,0,3.5,0.4,5.1,1.1
			c1.6,0.7,2.8,1.9,3.7,3.6l-3.6,2.4c-0.6-0.9-1.3-1.7-2.2-2.2c-0.9-0.6-2-0.9-3.3-0.9c-0.6,0-1.2,0.1-1.8,0.2
			c-0.6,0.1-1.1,0.4-1.6,0.7c-0.5,0.3-0.9,0.7-1.2,1.1c-0.3,0.5-0.5,1-0.5,1.6c0,0.6,0.2,1,0.5,1.4c0.3,0.4,0.8,0.7,1.4,1
			c0.6,0.3,1.3,0.5,2.1,0.8c0.8,0.2,1.6,0.4,2.4,0.5c1.1,0.2,2.2,0.5,3.2,0.9c1,0.3,1.9,0.8,2.7,1.4c0.8,0.6,1.4,1.3,1.8,2.2
			c0.4,0.9,0.7,2,0.7,3.2c0,1.5-0.3,2.7-0.9,3.7c-0.6,1-1.4,1.9-2.3,2.5c-1,0.6-2.1,1.1-3.3,1.4c-1.2,0.3-2.5,0.4-3.8,0.4
			c-2.2,0-4.1-0.3-5.7-1c-1.6-0.7-3-1.9-4.3-3.8L551.4,125.6z"/>
	</g>
	<g>
		<rect x="192.4" y="202.7" class="st7" width="267.4" height="267"/>
		<path class="st4" d="M268.8,282.6h15.4v2.7h-12.4v8.2h11.6v2.7h-11.6v11.1h-2.9V282.6z"/>
		<path class="st4" d="M287.3,284.6c0-0.5,0.2-1,0.6-1.4c0.4-0.4,0.9-0.6,1.4-0.6c0.6,0,1,0.2,1.4,0.6c0.4,0.4,0.6,0.9,0.6,1.4
			c0,0.6-0.2,1.1-0.6,1.4c-0.4,0.4-0.9,0.6-1.4,0.6c-0.6,0-1.1-0.2-1.4-0.6C287.5,285.7,287.3,285.2,287.3,284.6z M288,291h2.7v16.4
			H288V291z"/>
		<path class="st4" d="M296.1,294.9c0-0.7,0-1.4-0.1-2.1c0-0.7-0.1-1.2-0.1-1.8h2.6c0,0.4,0,0.9,0,1.3c0,0.4,0,0.9,0,1.4h0.1
			c0.2-0.4,0.4-0.8,0.8-1.2c0.3-0.4,0.7-0.7,1.2-1c0.5-0.3,1-0.5,1.6-0.7c0.6-0.2,1.2-0.3,1.9-0.3c0.2,0,0.4,0,0.6,0
			c0.2,0,0.4,0.1,0.6,0.1l-0.2,2.8c-0.5-0.1-1-0.2-1.5-0.2c-1.7,0-2.9,0.5-3.7,1.6c-0.8,1.1-1.1,2.6-1.1,4.5v8h-2.7V294.9z"/>
		<path class="st4" d="M323.4,304.4c-1,1.3-2.1,2.1-3.2,2.6c-1.2,0.5-2.5,0.8-4.1,0.8c-1.3,0-2.4-0.2-3.5-0.7
			c-1-0.5-1.9-1.1-2.6-1.8s-1.3-1.7-1.6-2.7c-0.4-1-0.6-2.2-0.6-3.4c0-1.3,0.2-2.4,0.6-3.5c0.4-1.1,1-2,1.8-2.7
			c0.7-0.8,1.6-1.3,2.7-1.8c1-0.4,2.1-0.6,3.4-0.6c1.1,0,2.2,0.2,3.2,0.6c1,0.4,1.8,0.9,2.5,1.7s1.2,1.6,1.6,2.7
			c0.4,1.1,0.6,2.3,0.6,3.6v0.9h-13.2c0,0.7,0.2,1.4,0.5,2c0.3,0.6,0.7,1.2,1.1,1.7c0.5,0.5,1,0.9,1.6,1.1s1.3,0.4,2.1,0.4
			c1.2,0,2.2-0.2,3-0.6c0.8-0.4,1.6-1,2.2-1.9L323.4,304.4z M321.1,297.7c0-1.4-0.5-2.5-1.4-3.4s-2.1-1.3-3.6-1.3
			c-1.5,0-2.7,0.4-3.7,1.3s-1.5,2-1.7,3.4H321.1z"/>
		<path class="st4" d="M345.8,307.4h-2.7l-4.7-12.6h-0.1l-4.1,12.6h-2.8l-5.3-16.4h3l3.7,12.6h0.1l4.2-12.6h2.9l4.3,12.6h0.1
			l3.7-12.6h2.9L345.8,307.4z"/>
		<path class="st4" d="M354,293.1c0.8-0.9,1.8-1.5,3-1.9c1.2-0.4,2.3-0.6,3.5-0.6c2.4,0,4.2,0.6,5.2,1.7c1.1,1.1,1.6,2.9,1.6,5.2v7
			c0,0.5,0,1,0.1,1.5c0,0.5,0.1,1,0.2,1.4H365c-0.1-0.4-0.1-0.8-0.2-1.2c0-0.5,0-0.9,0-1.2h-0.1c-0.5,0.8-1.3,1.5-2.2,2.1
			c-0.9,0.5-2,0.8-3.2,0.8c-0.8,0-1.6-0.1-2.4-0.3c-0.7-0.2-1.4-0.5-1.9-0.9s-1-0.9-1.3-1.5c-0.3-0.6-0.5-1.3-0.5-2.1
			c0-1.4,0.4-2.4,1.1-3.2c0.7-0.8,1.6-1.3,2.6-1.7c1-0.4,2.2-0.6,3.4-0.7c1.2-0.1,2.3-0.1,3.3-0.1h1v-0.5c0-1.2-0.4-2.1-1.1-2.7
			c-0.7-0.6-1.7-0.9-3-0.9c-0.9,0-1.8,0.1-2.6,0.4c-0.9,0.3-1.6,0.7-2.3,1.3L354,293.1z M361.9,299.5c-1.8,0-3.1,0.2-4.2,0.7
			c-1,0.5-1.5,1.3-1.5,2.4c0,1,0.3,1.8,1,2.2c0.7,0.4,1.5,0.6,2.6,0.6c0.8,0,1.5-0.1,2.1-0.4c0.6-0.3,1.1-0.6,1.5-1.1
			c0.4-0.4,0.7-1,0.9-1.6s0.3-1.2,0.3-1.9v-1H361.9z"/>
		<path class="st4" d="M372.6,280.9h2.7v26.5h-2.7V280.9z"/>
		<path class="st4" d="M381,280.9h2.7v26.5H381V280.9z"/>
		<path class="st4" d="M274.1,324.6h7.3c1.1,0,2.2,0.1,3.3,0.3s2,0.6,2.8,1.1c0.8,0.5,1.4,1.2,1.9,2.1c0.5,0.9,0.7,2,0.7,3.2
			c0,1.4-0.3,2.5-0.8,3.4c-0.5,0.9-1.2,1.6-2,2.1c-0.8,0.5-1.7,0.9-2.6,1.1s-1.9,0.3-2.7,0.3h-5v11.1h-2.9V324.6z M277,335.5h5
			c1.5,0,2.7-0.3,3.6-1s1.4-1.7,1.4-3.1s-0.5-2.4-1.4-3.1c-0.9-0.7-2.1-1-3.6-1h-5V335.5z"/>
		<path class="st4" d="M306.4,350c-1.9,0-3.6-0.3-5.2-1s-2.9-1.6-4.1-2.7c-1.2-1.2-2.1-2.5-2.7-4.1c-0.6-1.6-1-3.3-1-5.2
			c0-1.9,0.3-3.6,1-5.2c0.6-1.6,1.5-3,2.7-4.1c1.2-1.2,2.5-2.1,4.1-2.7c1.6-0.7,3.3-1,5.2-1c1.9,0,3.6,0.3,5.2,1
			c1.6,0.7,2.9,1.6,4.1,2.7c1.2,1.2,2.1,2.5,2.7,4.1c0.6,1.6,1,3.3,1,5.2c0,1.9-0.3,3.6-1,5.2c-0.6,1.6-1.5,3-2.7,4.1
			s-2.5,2.1-4.1,2.7C310,349.7,308.3,350,306.4,350z M306.4,347.3c1.4,0,2.8-0.3,4-0.8c1.2-0.5,2.2-1.3,3.1-2.2c0.9-0.9,1.5-2,2-3.3
			c0.5-1.2,0.7-2.6,0.7-4c0-1.4-0.2-2.8-0.7-4c-0.5-1.2-1.1-2.3-2-3.3c-0.9-0.9-1.9-1.7-3.1-2.2c-1.2-0.5-2.5-0.8-4-0.8
			s-2.8,0.3-4,0.8c-1.2,0.5-2.2,1.3-3.1,2.2c-0.9,0.9-1.5,2-2,3.3c-0.5,1.2-0.7,2.6-0.7,4c0,1.4,0.2,2.8,0.7,4
			c0.5,1.2,1.1,2.3,2,3.3c0.9,0.9,1.9,1.7,3.1,2.2C303.6,347,304.9,347.3,306.4,347.3z"/>
		<path class="st4" d="M324,324.6h6.3c1.2,0,2.4,0.1,3.6,0.2c1.2,0.1,2.2,0.4,3.2,0.9c0.9,0.5,1.7,1.1,2.3,2
			c0.6,0.9,0.9,2.1,0.9,3.7c0,1.8-0.5,3.3-1.6,4.4s-2.6,1.8-4.5,2.1l7,11.4h-3.6l-6.7-11.1H327v11.1H324V324.6z M327,335.5h2.6
			c0.8,0,1.7,0,2.5-0.1c0.9,0,1.7-0.2,2.4-0.5c0.7-0.3,1.3-0.7,1.8-1.2c0.5-0.5,0.7-1.3,0.7-2.4c0-0.9-0.2-1.6-0.5-2.1
			c-0.4-0.5-0.8-1-1.4-1.2c-0.6-0.3-1.2-0.5-1.9-0.6c-0.7-0.1-1.4-0.1-2.2-0.1H327V335.5z"/>
		<path class="st4" d="M361.4,327.3h-8.2v22h-2.9v-22h-8.2v-2.7h19.3V327.3z"/>
		<path class="st4" d="M376.6,329c-0.5-0.8-1.1-1.4-2-1.7c-0.8-0.4-1.7-0.5-2.6-0.5c-0.7,0-1.3,0.1-1.9,0.2
			c-0.6,0.2-1.2,0.4-1.7,0.7c-0.5,0.3-0.9,0.8-1.2,1.3c-0.3,0.5-0.5,1.2-0.5,1.9c0,0.6,0.1,1.1,0.3,1.5s0.5,0.8,0.9,1.2
			c0.4,0.4,0.9,0.7,1.6,1c0.7,0.3,1.5,0.6,2.5,0.9c1,0.3,1.9,0.6,2.8,1s1.7,0.8,2.4,1.3c0.7,0.5,1.2,1.2,1.6,2
			c0.4,0.8,0.6,1.8,0.6,3c0,1.2-0.2,2.3-0.7,3.2c-0.5,0.9-1.1,1.7-1.9,2.3c-0.8,0.6-1.7,1-2.8,1.3s-2.1,0.4-3.3,0.4
			c-0.7,0-1.4-0.1-2.2-0.2c-0.7-0.1-1.4-0.3-2.1-0.6c-0.7-0.3-1.3-0.6-1.9-1c-0.6-0.4-1.1-1-1.5-1.6l2.5-2.1
			c0.5,0.9,1.3,1.6,2.2,2.1s2,0.7,3,0.7c0.6,0,1.3-0.1,1.9-0.3c0.6-0.2,1.2-0.5,1.7-0.8c0.5-0.4,0.9-0.8,1.3-1.3
			c0.3-0.5,0.5-1.2,0.5-1.9c0-0.8-0.1-1.4-0.4-1.9c-0.3-0.5-0.7-0.9-1.2-1.2c-0.5-0.4-1.2-0.7-2-0.9c-0.8-0.3-1.8-0.6-2.9-1
			c-0.9-0.3-1.7-0.6-2.5-1c-0.7-0.4-1.4-0.8-1.9-1.3c-0.5-0.5-1-1.2-1.3-1.9c-0.3-0.7-0.5-1.6-0.5-2.6c0-1.2,0.2-2.2,0.7-3.1
			s1.1-1.6,1.9-2.2c0.8-0.6,1.7-1,2.7-1.3c1-0.3,2.1-0.5,3.2-0.5c1.4,0,2.7,0.2,3.8,0.6c1.2,0.4,2.2,1.2,3.1,2.3L376.6,329z"/>
		<path class="st4" d="M244.9,366.6h2.9v24.8h-2.9V366.6z"/>
		<path class="st4" d="M254,366.6h7.3c1.1,0,2.2,0.1,3.3,0.3s2,0.6,2.8,1.1c0.8,0.5,1.4,1.2,1.9,2.1c0.5,0.9,0.7,2,0.7,3.2
			c0,1.4-0.3,2.5-0.8,3.4c-0.5,0.9-1.2,1.6-2,2.1c-0.8,0.5-1.7,0.9-2.6,1.1s-1.9,0.3-2.7,0.3h-5v11.1H254V366.6z M257,377.5h5
			c1.5,0,2.7-0.3,3.6-1s1.4-1.7,1.4-3.1s-0.5-2.4-1.4-3.1c-0.9-0.7-2.1-1-3.6-1h-5V377.5z"/>
		<path class="st4" d="M292.6,366.6h2.8l10.5,24.8h-3.4l-2.5-6.1h-12.4l-2.6,6.1h-3.3L292.6,366.6z M293.9,370.4L293.9,370.4
			l-5.2,12.2h10.1L293.9,370.4z"/>
		<path class="st4" d="M322.3,388.5L322.3,388.5c-0.6,0.9-1.4,1.7-2.5,2.4s-2.4,1-3.9,1c-1.1,0-2.2-0.2-3.2-0.6
			c-1-0.4-1.9-1-2.6-1.8c-0.7-0.8-1.3-1.7-1.7-2.7c-0.4-1.1-0.6-2.2-0.6-3.4c0-1.2,0.2-2.4,0.6-3.4c0.4-1,1-2,1.8-2.7
			c0.7-0.8,1.7-1.4,2.7-1.8s2.2-0.6,3.5-0.6c1.2,0,2.3,0.2,3.3,0.7c1,0.5,1.9,1.2,2.6,2.1h0.1v-12.5h2.7v26.5h-2.7V388.5z
			 M322.3,383.2c0-0.9-0.1-1.7-0.4-2.4c-0.3-0.7-0.7-1.4-1.2-1.9c-0.5-0.5-1.1-1-1.8-1.3c-0.7-0.3-1.5-0.5-2.4-0.5s-1.7,0.2-2.4,0.5
			s-1.3,0.7-1.8,1.3c-0.5,0.5-0.9,1.2-1.2,1.9s-0.4,1.5-0.4,2.4c0,0.9,0.1,1.7,0.4,2.4s0.7,1.4,1.2,1.9c0.5,0.5,1.1,1,1.8,1.3
			c0.7,0.3,1.5,0.5,2.4,0.5s1.7-0.2,2.4-0.5c0.7-0.3,1.3-0.7,1.8-1.3c0.5-0.5,0.9-1.2,1.2-1.9C322.1,384.9,322.3,384.1,322.3,383.2z
			"/>
		<path class="st4" d="M343.7,388.5L343.7,388.5c-0.6,0.9-1.4,1.7-2.5,2.4s-2.4,1-3.9,1c-1.1,0-2.2-0.2-3.2-0.6
			c-1-0.4-1.9-1-2.6-1.8c-0.7-0.8-1.3-1.7-1.7-2.7c-0.4-1.1-0.6-2.2-0.6-3.4c0-1.2,0.2-2.4,0.6-3.4c0.4-1,1-2,1.8-2.7
			c0.7-0.8,1.7-1.4,2.7-1.8s2.2-0.6,3.5-0.6c1.2,0,2.3,0.2,3.3,0.7c1,0.5,1.9,1.2,2.6,2.1h0.1v-12.5h2.7v26.5h-2.7V388.5z
			 M343.7,383.2c0-0.9-0.1-1.7-0.4-2.4c-0.3-0.7-0.7-1.4-1.2-1.9c-0.5-0.5-1.1-1-1.8-1.3c-0.7-0.3-1.5-0.5-2.4-0.5s-1.7,0.2-2.4,0.5
			s-1.3,0.7-1.8,1.3c-0.5,0.5-0.9,1.2-1.2,1.9s-0.4,1.5-0.4,2.4c0,0.9,0.1,1.7,0.4,2.4s0.7,1.4,1.2,1.9c0.5,0.5,1.1,1,1.8,1.3
			c0.7,0.3,1.5,0.5,2.4,0.5s1.7-0.2,2.4-0.5c0.7-0.3,1.3-0.7,1.8-1.3c0.5-0.5,0.9-1.2,1.2-1.9C343.5,384.9,343.7,384.1,343.7,383.2z
			"/>
		<path class="st4" d="M351.4,378.9c0-0.7,0-1.4-0.1-2.1c0-0.7-0.1-1.2-0.1-1.8h2.6c0,0.4,0,0.9,0,1.3c0,0.4,0,0.9,0,1.4h0.1
			c0.2-0.4,0.4-0.8,0.8-1.2c0.3-0.4,0.7-0.7,1.2-1c0.5-0.3,1-0.5,1.6-0.7c0.6-0.2,1.2-0.3,1.9-0.3c0.2,0,0.4,0,0.6,0
			c0.2,0,0.4,0.1,0.6,0.1l-0.2,2.8c-0.5-0.1-1-0.2-1.5-0.2c-1.7,0-2.9,0.5-3.7,1.6c-0.8,1.1-1.1,2.6-1.1,4.5v8h-2.7V378.9z"/>
		<path class="st4" d="M378.4,388.4c-1,1.3-2.1,2.1-3.2,2.6c-1.2,0.5-2.5,0.8-4.1,0.8c-1.3,0-2.4-0.2-3.5-0.7
			c-1-0.5-1.9-1.1-2.6-1.8s-1.3-1.7-1.6-2.7c-0.4-1-0.6-2.2-0.6-3.4c0-1.3,0.2-2.4,0.6-3.5c0.4-1.1,1-2,1.8-2.7
			c0.7-0.8,1.6-1.3,2.7-1.8c1-0.4,2.1-0.6,3.4-0.6c1.1,0,2.2,0.2,3.2,0.6c1,0.4,1.8,0.9,2.5,1.7s1.2,1.6,1.6,2.7
			c0.4,1.1,0.6,2.3,0.6,3.6v0.9h-13.2c0,0.7,0.2,1.4,0.5,2c0.3,0.6,0.7,1.2,1.1,1.7c0.5,0.5,1,0.9,1.6,1.1s1.3,0.4,2.1,0.4
			c1.2,0,2.2-0.2,3-0.6c0.8-0.4,1.6-1,2.2-1.9L378.4,388.4z M376,381.7c0-1.4-0.5-2.5-1.4-3.4s-2.1-1.3-3.6-1.3
			c-1.5,0-2.7,0.4-3.7,1.3s-1.5,2-1.7,3.4H376z"/>
		<path class="st4" d="M383.6,387.1c0.5,0.7,1.1,1.2,1.8,1.6c0.6,0.4,1.5,0.6,2.4,0.6c0.4,0,0.8,0,1.3-0.1c0.4-0.1,0.8-0.2,1.2-0.5
			c0.4-0.2,0.6-0.5,0.8-0.8s0.3-0.7,0.3-1.1c0-0.4-0.1-0.8-0.3-1.1c-0.2-0.3-0.5-0.5-0.8-0.7c-0.3-0.2-0.7-0.4-1.1-0.5
			c-0.4-0.1-0.9-0.2-1.3-0.3c-0.8-0.2-1.5-0.4-2.2-0.6s-1.3-0.5-1.8-0.8c-0.5-0.3-0.9-0.8-1.3-1.3c-0.3-0.5-0.5-1.2-0.5-2.1
			c0-0.8,0.2-1.5,0.5-2.1c0.3-0.6,0.8-1.1,1.4-1.5c0.6-0.4,1.2-0.7,2-0.9c0.7-0.2,1.5-0.3,2.2-0.3c1.2,0,2.2,0.2,3.2,0.7
			c1,0.5,1.8,1.2,2.3,2.3l-2.3,1.5c-0.3-0.6-0.8-1.1-1.4-1.4c-0.6-0.4-1.3-0.5-2.1-0.5c-0.4,0-0.8,0-1.1,0.1c-0.4,0.1-0.7,0.2-1,0.4
			c-0.3,0.2-0.6,0.4-0.8,0.7c-0.2,0.3-0.3,0.6-0.3,1c0,0.4,0.1,0.6,0.3,0.9c0.2,0.2,0.5,0.5,0.9,0.6c0.4,0.2,0.8,0.3,1.3,0.5
			s1,0.3,1.6,0.4c0.7,0.1,1.4,0.3,2.1,0.5c0.7,0.2,1.2,0.5,1.7,0.9c0.5,0.4,0.9,0.8,1.2,1.4c0.3,0.6,0.4,1.2,0.4,2.1
			c0,0.9-0.2,1.7-0.6,2.4c-0.4,0.7-0.9,1.2-1.5,1.6c-0.6,0.4-1.3,0.7-2.1,0.9c-0.8,0.2-1.6,0.3-2.4,0.3c-1.4,0-2.6-0.2-3.6-0.6
			s-1.9-1.2-2.7-2.4L383.6,387.1z"/>
		<path class="st4" d="M398.5,387.1c0.5,0.7,1.1,1.2,1.8,1.6c0.6,0.4,1.5,0.6,2.4,0.6c0.4,0,0.8,0,1.3-0.1c0.4-0.1,0.8-0.2,1.2-0.5
			c0.4-0.2,0.6-0.5,0.8-0.8s0.3-0.7,0.3-1.1c0-0.4-0.1-0.8-0.3-1.1c-0.2-0.3-0.5-0.5-0.8-0.7c-0.3-0.2-0.7-0.4-1.1-0.5
			c-0.4-0.1-0.9-0.2-1.3-0.3c-0.8-0.2-1.5-0.4-2.2-0.6s-1.3-0.5-1.8-0.8c-0.5-0.3-0.9-0.8-1.3-1.3c-0.3-0.5-0.5-1.2-0.5-2.1
			c0-0.8,0.2-1.5,0.5-2.1c0.3-0.6,0.8-1.1,1.4-1.5c0.6-0.4,1.2-0.7,2-0.9c0.7-0.2,1.5-0.3,2.2-0.3c1.2,0,2.2,0.2,3.2,0.7
			c1,0.5,1.8,1.2,2.3,2.3l-2.3,1.5c-0.3-0.6-0.8-1.1-1.4-1.4c-0.6-0.4-1.3-0.5-2.1-0.5c-0.4,0-0.8,0-1.1,0.1c-0.4,0.1-0.7,0.2-1,0.4
			c-0.3,0.2-0.6,0.4-0.8,0.7c-0.2,0.3-0.3,0.6-0.3,1c0,0.4,0.1,0.6,0.3,0.9c0.2,0.2,0.5,0.5,0.9,0.6c0.4,0.2,0.8,0.3,1.3,0.5
			s1,0.3,1.6,0.4c0.7,0.1,1.4,0.3,2.1,0.5c0.7,0.2,1.2,0.5,1.7,0.9c0.5,0.4,0.9,0.8,1.2,1.4c0.3,0.6,0.4,1.2,0.4,2.1
			c0,0.9-0.2,1.7-0.6,2.4c-0.4,0.7-0.9,1.2-1.5,1.6c-0.6,0.4-1.3,0.7-2.1,0.9c-0.8,0.2-1.6,0.3-2.4,0.3c-1.4,0-2.6-0.2-3.6-0.6
			s-1.9-1.2-2.7-2.4L398.5,387.1z"/>
	</g>
	<g>
		<rect x="44.3" y="524.9" class="st7" width="267.4" height="149.6"/>
		<path class="st4" d="M154.6,567.1h2.9v24.8h-2.9V567.1z"/>
		<path class="st4" d="M162.9,567.1h9.2c0.8,0,1.6,0.1,2.5,0.3s1.8,0.5,2.6,0.9s1.7,0.9,2.5,1.6c0.8,0.7,1.5,1.4,2.1,2.4
			c0.6,0.9,1.1,2,1.5,3.2c0.4,1.2,0.5,2.6,0.5,4.1c0,1.5-0.2,2.9-0.5,4.1c-0.4,1.2-0.8,2.3-1.5,3.2c-0.6,0.9-1.3,1.7-2.1,2.4
			c-0.8,0.7-1.6,1.2-2.5,1.6s-1.7,0.7-2.6,0.9c-0.9,0.2-1.7,0.3-2.5,0.3h-9.2V567.1z M165.8,589.2h5.4c1.4,0,2.7-0.2,3.8-0.6
			s2.2-1,3.1-1.7s1.5-1.8,2-3c0.5-1.2,0.7-2.7,0.7-4.4c0-1.7-0.2-3.2-0.7-4.4c-0.5-1.2-1.2-2.2-2-3c-0.9-0.8-1.9-1.4-3.1-1.7
			s-2.5-0.6-3.8-0.6h-5.4V589.2z"/>
		<path class="st4" d="M200,571.5c-0.5-0.8-1.1-1.4-1.9-1.7c-0.8-0.4-1.6-0.5-2.5-0.5c-0.6,0-1.3,0.1-1.9,0.2
			c-0.6,0.2-1.2,0.4-1.6,0.7c-0.5,0.3-0.9,0.8-1.2,1.3c-0.3,0.5-0.4,1.2-0.4,1.9c0,0.6,0.1,1.1,0.3,1.5s0.4,0.8,0.8,1.2
			c0.4,0.4,0.9,0.7,1.6,1c0.7,0.3,1.5,0.6,2.4,0.9c0.9,0.3,1.8,0.6,2.7,1c0.9,0.4,1.6,0.8,2.3,1.3c0.7,0.5,1.2,1.2,1.6,2
			c0.4,0.8,0.6,1.8,0.6,3c0,1.2-0.2,2.3-0.7,3.2s-1.1,1.7-1.9,2.3c-0.8,0.6-1.7,1-2.7,1.3c-1,0.3-2.1,0.4-3.2,0.4
			c-0.7,0-1.4-0.1-2.1-0.2c-0.7-0.1-1.4-0.3-2-0.6c-0.6-0.3-1.3-0.6-1.8-1c-0.6-0.4-1.1-1-1.5-1.6l2.4-2.1c0.5,0.9,1.2,1.6,2.2,2.1
			c0.9,0.5,1.9,0.7,3,0.7c0.6,0,1.2-0.1,1.8-0.3s1.2-0.5,1.7-0.8c0.5-0.4,0.9-0.8,1.2-1.3c0.3-0.5,0.5-1.2,0.5-1.9
			c0-0.8-0.1-1.4-0.4-1.9s-0.6-0.9-1.2-1.2c-0.5-0.3-1.2-0.7-2-0.9c-0.8-0.3-1.7-0.6-2.8-1c-0.9-0.3-1.7-0.6-2.4-1
			c-0.7-0.4-1.4-0.8-1.9-1.3c-0.5-0.5-1-1.2-1.3-1.9c-0.3-0.7-0.5-1.6-0.5-2.6c0-1.2,0.2-2.2,0.7-3.1c0.5-0.9,1.1-1.6,1.8-2.2
			c0.8-0.6,1.6-1,2.6-1.3c1-0.3,2-0.5,3.1-0.5c1.4,0,2.6,0.2,3.7,0.6c1.1,0.4,2.1,1.2,3,2.3L200,571.5z"/>
		<path class="st4" d="M157.1,609.1h2.9v24.8h-2.9V609.1z"/>
		<path class="st4" d="M165.9,609.1h7.1c1.1,0,2.2,0.1,3.2,0.3s1.9,0.6,2.7,1.1c0.8,0.5,1.4,1.2,1.9,2.1s0.7,2,0.7,3.2
			c0,1.4-0.2,2.5-0.7,3.4c-0.5,0.9-1.1,1.6-1.9,2.1c-0.8,0.5-1.6,0.9-2.6,1.1c-0.9,0.2-1.8,0.3-2.6,0.3h-4.8v11.1h-2.9V609.1z
			 M168.8,620h4.8c1.4,0,2.6-0.3,3.5-1c0.9-0.7,1.3-1.7,1.3-3.1c0-1.4-0.4-2.4-1.3-3.1c-0.9-0.7-2.1-1-3.5-1h-4.8V620z"/>
		<path class="st4" d="M197.4,613.5c-0.5-0.8-1.1-1.4-1.9-1.7c-0.8-0.4-1.6-0.5-2.5-0.5c-0.6,0-1.3,0.1-1.9,0.2
			c-0.6,0.2-1.2,0.4-1.6,0.7c-0.5,0.3-0.9,0.8-1.2,1.3c-0.3,0.5-0.4,1.2-0.4,1.9c0,0.6,0.1,1.1,0.3,1.5s0.4,0.8,0.8,1.2
			c0.4,0.4,0.9,0.7,1.6,1c0.7,0.3,1.5,0.6,2.4,0.9c0.9,0.3,1.8,0.6,2.7,1c0.9,0.4,1.6,0.8,2.3,1.3c0.7,0.5,1.2,1.2,1.6,2
			c0.4,0.8,0.6,1.8,0.6,3c0,1.2-0.2,2.3-0.7,3.2s-1.1,1.7-1.9,2.3c-0.8,0.6-1.7,1-2.7,1.3c-1,0.3-2.1,0.4-3.2,0.4
			c-0.7,0-1.4-0.1-2.1-0.2c-0.7-0.1-1.4-0.3-2-0.6c-0.6-0.3-1.3-0.6-1.8-1c-0.6-0.4-1.1-1-1.5-1.6l2.4-2.1c0.5,0.9,1.2,1.6,2.2,2.1
			c0.9,0.5,1.9,0.7,3,0.7c0.6,0,1.2-0.1,1.8-0.3s1.2-0.5,1.7-0.8c0.5-0.4,0.9-0.8,1.2-1.3c0.3-0.5,0.5-1.2,0.5-1.9
			c0-0.8-0.1-1.4-0.4-1.9s-0.6-0.9-1.2-1.2c-0.5-0.3-1.2-0.7-2-0.9c-0.8-0.3-1.7-0.6-2.8-1c-0.9-0.3-1.7-0.6-2.4-1
			c-0.7-0.4-1.4-0.8-1.9-1.3c-0.5-0.5-1-1.2-1.3-1.9c-0.3-0.7-0.5-1.6-0.5-2.6c0-1.2,0.2-2.2,0.7-3.1c0.5-0.9,1.1-1.6,1.8-2.2
			c0.8-0.6,1.6-1,2.6-1.3c1-0.3,2-0.5,3.1-0.5c1.4,0,2.6,0.2,3.7,0.6c1.1,0.4,2.1,1.2,3,2.3L197.4,613.5z"/>
	</g>
	<g>
		<rect x="44.3" y="703.6" class="st7" width="267.4" height="149.6"/>
		<path class="st4" d="M119.6,748.9h2.7l10.2,24.8h-3.3l-2.4-6.1h-12l-2.5,6.1H109L119.6,748.9z M120.9,752.6L120.9,752.6l-5.1,12.2
			h9.8L120.9,752.6z"/>
		<path class="st4" d="M136.2,761.2c0-0.7,0-1.4-0.1-2.1c0-0.7-0.1-1.2-0.1-1.8h2.5c0,0.4,0,0.9,0,1.3s0,0.9,0,1.4h0.1
			c0.2-0.4,0.4-0.8,0.8-1.2s0.7-0.7,1.2-1c0.5-0.3,1-0.5,1.5-0.7c0.6-0.2,1.2-0.3,1.8-0.3c1,0,1.9,0.2,2.7,0.5
			c0.8,0.3,1.4,0.8,1.9,1.4c0.5,0.6,0.9,1.3,1.1,2.1c0.2,0.8,0.4,1.7,0.4,2.7v10.1h-2.6v-9.8c0-1.4-0.3-2.5-0.9-3.3
			s-1.5-1.2-2.8-1.2c-0.9,0-1.6,0.2-2.2,0.5c-0.6,0.3-1.1,0.7-1.5,1.3c-0.4,0.6-0.7,1.2-0.9,2c-0.2,0.8-0.3,1.6-0.3,2.6v8h-2.6
			V761.2z"/>
		<path class="st4" d="M163.8,759.6h-4.7v8.2c0,0.5,0,1,0,1.5c0,0.5,0.1,0.9,0.3,1.2c0.2,0.3,0.4,0.6,0.7,0.8
			c0.3,0.2,0.8,0.3,1.4,0.3c0.4,0,0.8,0,1.2-0.1c0.4-0.1,0.8-0.2,1.2-0.4l0.1,2.5c-0.5,0.2-1,0.4-1.5,0.5c-0.6,0.1-1.1,0.1-1.6,0.1
			c-1,0-1.7-0.1-2.3-0.4c-0.6-0.3-1-0.6-1.3-1.1c-0.3-0.5-0.5-1-0.6-1.7c-0.1-0.7-0.2-1.5-0.2-2.3v-9H153v-2.3h3.5v-4.7h2.6v4.7h4.7
			V759.6z"/>
		<path class="st4" d="M167.7,750.9c0-0.5,0.2-1,0.6-1.4c0.4-0.4,0.8-0.6,1.4-0.6s1,0.2,1.4,0.6c0.4,0.4,0.6,0.9,0.6,1.4
			c0,0.6-0.2,1.1-0.5,1.4c-0.4,0.4-0.8,0.6-1.4,0.6c-0.6,0-1-0.2-1.4-0.6C167.9,751.9,167.7,751.4,167.7,750.9z M168.3,757.3h2.6
			v16.4h-2.6V757.3z"/>
		<path class="st4" d="M184.5,773.6h-2.9l-6.5-16.4h3.1l5,12.8h0.1l4.7-12.8h2.9L184.5,773.6z"/>
		<path class="st4" d="M194.2,750.9c0-0.5,0.2-1,0.6-1.4c0.4-0.4,0.8-0.6,1.4-0.6s1,0.2,1.4,0.6c0.4,0.4,0.6,0.9,0.6,1.4
			c0,0.6-0.2,1.1-0.5,1.4c-0.4,0.4-0.8,0.6-1.4,0.6c-0.6,0-1-0.2-1.4-0.6C194.4,751.9,194.2,751.4,194.2,750.9z M194.8,757.3h2.6
			v16.4h-2.6V757.3z"/>
		<path class="st4" d="M203.4,761.2c0-0.7,0-1.4-0.1-2.1c0-0.7-0.1-1.2-0.1-1.8h2.5c0,0.4,0,0.9,0,1.3s0,0.9,0,1.4h0.1
			c0.2-0.4,0.4-0.8,0.8-1.2s0.7-0.7,1.2-1c0.5-0.3,1-0.5,1.5-0.7c0.6-0.2,1.2-0.3,1.8-0.3c0.2,0,0.4,0,0.5,0c0.2,0,0.4,0.1,0.5,0.1
			l-0.2,2.8c-0.5-0.1-0.9-0.2-1.4-0.2c-1.6,0-2.8,0.5-3.5,1.6s-1.1,2.6-1.1,4.5v8h-2.6V761.2z"/>
		<path class="st4" d="M230.2,769.8c0,0.7,0,1.4,0.1,2.1c0,0.7,0.1,1.2,0.1,1.8h-2.5c0-0.4,0-0.9,0-1.3s0-0.9,0-1.4h-0.1
			c-0.2,0.4-0.4,0.8-0.8,1.2s-0.7,0.7-1.2,1c-0.5,0.3-1,0.5-1.5,0.7c-0.6,0.2-1.2,0.3-1.8,0.3c-1,0-1.9-0.2-2.7-0.5
			c-0.8-0.3-1.4-0.8-1.9-1.4c-0.5-0.6-0.9-1.3-1.1-2.1c-0.2-0.8-0.4-1.7-0.4-2.7v-10.1h2.6v9.8c0,1.4,0.3,2.5,0.9,3.3
			s1.5,1.2,2.8,1.2c0.9,0,1.6-0.2,2.2-0.5c0.6-0.3,1.1-0.7,1.5-1.3c0.4-0.6,0.7-1.2,0.9-2c0.2-0.8,0.3-1.6,0.3-2.6v-8h2.6V769.8z"/>
		<path class="st4" d="M235.6,769.3c0.5,0.7,1.1,1.2,1.7,1.6c0.6,0.4,1.4,0.6,2.4,0.6c0.4,0,0.8,0,1.2-0.1c0.4-0.1,0.8-0.2,1.1-0.5
			c0.3-0.2,0.6-0.5,0.8-0.8c0.2-0.3,0.3-0.7,0.3-1.1s-0.1-0.8-0.3-1.1s-0.4-0.5-0.8-0.7c-0.3-0.2-0.7-0.4-1.1-0.5
			c-0.4-0.1-0.8-0.2-1.3-0.3c-0.7-0.2-1.5-0.4-2.1-0.6s-1.3-0.5-1.8-0.8c-0.5-0.3-0.9-0.8-1.2-1.3c-0.3-0.5-0.5-1.2-0.5-2.1
			c0-0.8,0.2-1.5,0.5-2.1c0.3-0.6,0.8-1.1,1.4-1.5c0.6-0.4,1.2-0.7,1.9-0.9c0.7-0.2,1.4-0.3,2.2-0.3c1.1,0,2.2,0.2,3.1,0.7
			c1,0.5,1.7,1.2,2.3,2.3l-2.2,1.5c-0.3-0.6-0.8-1.1-1.3-1.4c-0.6-0.4-1.2-0.5-2-0.5c-0.4,0-0.7,0-1.1,0.1c-0.4,0.1-0.7,0.2-1,0.4
			c-0.3,0.2-0.5,0.4-0.7,0.7c-0.2,0.3-0.3,0.6-0.3,1c0,0.3,0.1,0.6,0.3,0.9c0.2,0.2,0.5,0.5,0.9,0.6s0.8,0.3,1.3,0.5
			c0.5,0.1,1,0.3,1.5,0.4c0.7,0.1,1.4,0.3,2,0.5c0.6,0.2,1.2,0.5,1.7,0.9c0.5,0.4,0.8,0.8,1.1,1.4c0.3,0.6,0.4,1.2,0.4,2.1
			c0,0.9-0.2,1.7-0.5,2.4c-0.4,0.7-0.8,1.2-1.4,1.6c-0.6,0.4-1.3,0.7-2,0.9c-0.8,0.2-1.5,0.3-2.3,0.3c-1.4,0-2.5-0.2-3.5-0.6
			s-1.9-1.2-2.7-2.4L235.6,769.3z"/>
		<path class="st4" d="M133.1,808c-1.4,0.8-2.8,1.4-4.4,1.8c-1.5,0.4-3.1,0.6-4.6,0.6c-1.9,0-3.6-0.3-5.2-0.9s-2.9-1.5-4.1-2.7
			c-1.1-1.1-2-2.5-2.7-4.1c-0.6-1.6-1-3.4-1-5.3c0-2,0.3-3.7,1-5.3c0.7-1.6,1.6-3,2.8-4.1c1.2-1.1,2.5-2,4.1-2.6
			c1.6-0.6,3.2-0.9,5.1-0.9c1.6,0,3.1,0.2,4.6,0.7c1.5,0.5,2.8,1.3,3.9,2.5l-2.1,2.3c-0.8-0.9-1.8-1.6-3-2.1s-2.4-0.7-3.6-0.7
			c-1.4,0-2.7,0.3-3.8,0.8c-1.2,0.5-2.2,1.2-3.1,2.1s-1.6,2-2,3.3c-0.5,1.3-0.7,2.6-0.7,4.1c0,1.5,0.2,2.8,0.7,4.1
			c0.5,1.3,1.2,2.4,2,3.3s1.9,1.6,3.1,2.2c1.2,0.5,2.6,0.8,4,0.8c1,0,2-0.1,3.1-0.4c1.1-0.2,2-0.6,2.9-1.1v-7.6h-5.5v-2.7h8.4V808z"
			/>
		<path class="st4" d="M138.4,795.4c0.8-0.9,1.8-1.5,2.9-1.9c1.1-0.4,2.3-0.6,3.4-0.6c2.4,0,4.1,0.6,5.1,1.7s1.6,2.9,1.6,5.2v7
			c0,0.5,0,1,0.1,1.5c0,0.5,0.1,1,0.2,1.4H149c-0.1-0.4-0.1-0.8-0.2-1.2c0-0.5,0-0.9,0-1.2h-0.1c-0.5,0.8-1.2,1.5-2.1,2.1
			c-0.9,0.5-1.9,0.8-3.1,0.8c-0.8,0-1.6-0.1-2.3-0.3s-1.3-0.5-1.9-0.9c-0.5-0.4-1-0.9-1.3-1.5c-0.3-0.6-0.5-1.3-0.5-2.1
			c0-1.4,0.3-2.4,1-3.2c0.7-0.8,1.5-1.3,2.5-1.7c1-0.4,2.1-0.6,3.3-0.7c1.2-0.1,2.2-0.1,3.2-0.1h1V799c0-1.2-0.3-2.1-1-2.7
			s-1.7-0.9-2.9-0.9c-0.9,0-1.7,0.1-2.5,0.4c-0.8,0.3-1.6,0.7-2.2,1.3L138.4,795.4z M146,801.8c-1.7,0-3,0.2-4,0.7
			c-1,0.5-1.5,1.3-1.5,2.4c0,1,0.3,1.8,1,2.2c0.7,0.4,1.5,0.6,2.5,0.6c0.8,0,1.4-0.1,2-0.4c0.6-0.3,1.1-0.6,1.4-1.1
			c0.4-0.4,0.7-1,0.9-1.6c0.2-0.6,0.3-1.2,0.3-1.9v-1H146z"/>
		<path class="st4" d="M164.9,795.6h-4.7v8.2c0,0.5,0,1,0,1.5c0,0.5,0.1,0.9,0.3,1.2c0.2,0.3,0.4,0.6,0.7,0.8
			c0.3,0.2,0.8,0.3,1.4,0.3c0.4,0,0.8,0,1.2-0.1c0.4-0.1,0.8-0.2,1.2-0.4l0.1,2.5c-0.5,0.2-1,0.4-1.5,0.5c-0.6,0.1-1.1,0.1-1.6,0.1
			c-1,0-1.7-0.1-2.3-0.4c-0.6-0.3-1-0.6-1.3-1.1c-0.3-0.5-0.5-1-0.6-1.7c-0.1-0.7-0.2-1.5-0.2-2.3v-9h-3.5v-2.3h3.5v-4.7h2.6v4.7
			h4.7V795.6z"/>
		<path class="st4" d="M183,806.7c-1,1.3-2,2.1-3.1,2.6c-1.1,0.5-2.4,0.8-3.9,0.8c-1.2,0-2.4-0.2-3.4-0.7s-1.8-1.1-2.5-1.8
			c-0.7-0.8-1.2-1.7-1.6-2.7c-0.4-1-0.6-2.2-0.6-3.4c0-1.3,0.2-2.4,0.6-3.5c0.4-1.1,1-2,1.7-2.7c0.7-0.8,1.6-1.3,2.6-1.8
			s2.1-0.6,3.3-0.6c1.1,0,2.1,0.2,3.1,0.6s1.7,0.9,2.4,1.7c0.7,0.7,1.2,1.6,1.5,2.7s0.5,2.3,0.5,3.6v0.9h-12.8c0,0.7,0.2,1.4,0.5,2
			c0.3,0.6,0.7,1.2,1.1,1.7c0.5,0.5,1,0.9,1.6,1.1c0.6,0.3,1.3,0.4,2,0.4c1.2,0,2.1-0.2,2.9-0.6c0.8-0.4,1.5-1,2.1-1.9L183,806.7z
			 M180.7,800c0-1.4-0.5-2.5-1.3-3.4s-2-1.3-3.5-1.3c-1.5,0-2.7,0.4-3.6,1.3s-1.4,2-1.6,3.4H180.7z"/>
		<path class="st4" d="M205.8,809.6h-2.6l-4.5-12.6h-0.1l-4,12.6h-2.7l-5.2-16.4h2.9l3.6,12.6h0.1l4.1-12.6h2.8l4.2,12.6h0.1
			l3.6-12.6h2.9L205.8,809.6z"/>
		<path class="st4" d="M213.7,795.4c0.8-0.9,1.8-1.5,2.9-1.9c1.1-0.4,2.3-0.6,3.4-0.6c2.4,0,4.1,0.6,5.1,1.7s1.6,2.9,1.6,5.2v7
			c0,0.5,0,1,0.1,1.5c0,0.5,0.1,1,0.2,1.4h-2.5c-0.1-0.4-0.1-0.8-0.2-1.2c0-0.5,0-0.9,0-1.2h-0.1c-0.5,0.8-1.2,1.5-2.1,2.1
			c-0.9,0.5-1.9,0.8-3.1,0.8c-0.8,0-1.6-0.1-2.3-0.3s-1.3-0.5-1.9-0.9c-0.5-0.4-1-0.9-1.3-1.5c-0.3-0.6-0.5-1.3-0.5-2.1
			c0-1.4,0.3-2.4,1-3.2c0.7-0.8,1.5-1.3,2.5-1.7c1-0.4,2.1-0.6,3.3-0.7c1.2-0.1,2.2-0.1,3.2-0.1h1V799c0-1.2-0.3-2.1-1-2.7
			s-1.7-0.9-2.9-0.9c-0.9,0-1.7,0.1-2.5,0.4c-0.8,0.3-1.6,0.7-2.2,1.3L213.7,795.4z M221.3,801.8c-1.7,0-3,0.2-4,0.7
			c-1,0.5-1.5,1.3-1.5,2.4c0,1,0.3,1.8,1,2.2c0.7,0.4,1.5,0.6,2.5,0.6c0.8,0,1.4-0.1,2-0.4c0.6-0.3,1.1-0.6,1.4-1.1
			c0.4-0.4,0.7-1,0.9-1.6c0.2-0.6,0.3-1.2,0.3-1.9v-1H221.3z"/>
		<path class="st4" d="M238.3,813.4c-0.3,0.7-0.5,1.3-0.8,1.9c-0.3,0.6-0.6,1.1-1,1.5c-0.4,0.4-0.9,0.7-1.4,0.9s-1.2,0.3-2,0.3
			c-0.4,0-0.8,0-1.2-0.1c-0.4,0-0.8-0.2-1.2-0.4l0.3-2.4c0.3,0.1,0.6,0.2,0.8,0.2s0.6,0.1,1,0.1c0.9,0,1.5-0.2,1.9-0.7
			s0.8-1.1,1.1-2l1.1-3.1l-6.6-16.5h3.1l4.9,12.8h0.1l4.7-12.8h2.9L238.3,813.4z"/>
	</g>
	<g>
		<rect x="338.5" y="524.9" class="st7" width="267.4" height="149.6"/>
		<path class="st4" d="M437,570.1h3.2l5.5,20.6h0.1l5.9-20.6h3.2l5.9,20.6h0.1l5.6-20.6h3l-7.1,24.8h-3.1l-5.9-21h-0.1l-6,21H444
			L437,570.1z"/>
		<path class="st4" d="M484.6,591.9c-1,1.3-2,2.1-3.1,2.6s-2.4,0.8-3.9,0.8c-1.2,0-2.4-0.2-3.4-0.7c-1-0.5-1.8-1.1-2.5-1.8
			c-0.7-0.8-1.2-1.7-1.6-2.7c-0.4-1-0.6-2.2-0.6-3.4c0-1.3,0.2-2.4,0.6-3.5c0.4-1.1,1-2,1.7-2.7c0.7-0.8,1.6-1.3,2.6-1.8
			s2.1-0.6,3.3-0.6c1.1,0,2.1,0.2,3.1,0.6c0.9,0.4,1.7,0.9,2.4,1.7s1.2,1.6,1.5,2.7c0.4,1.1,0.5,2.3,0.5,3.6v0.9h-12.8
			c0,0.7,0.2,1.4,0.5,2c0.3,0.6,0.7,1.2,1.1,1.7c0.5,0.5,1,0.9,1.6,1.1s1.3,0.4,2,0.4c1.2,0,2.1-0.2,2.9-0.6c0.8-0.4,1.5-1,2.1-1.9
			L484.6,591.9z M482.3,585.2c0-1.4-0.5-2.5-1.3-3.4s-2-1.3-3.5-1.3c-1.5,0-2.7,0.4-3.6,1.3s-1.4,2-1.6,3.4H482.3z"/>
		<path class="st4" d="M489.2,568.4h2.6v12.5h0.1c0.7-0.9,1.6-1.6,2.5-2.1c1-0.5,2-0.7,3.2-0.7c1.2,0,2.4,0.2,3.4,0.6
			c1,0.4,1.9,1,2.6,1.8s1.3,1.7,1.7,2.7c0.4,1.1,0.6,2.2,0.6,3.4c0,1.2-0.2,2.4-0.6,3.4c-0.4,1-1,2-1.7,2.7s-1.6,1.4-2.5,1.8
			c-1,0.4-2,0.6-3.1,0.6c-1.4,0-2.7-0.3-3.8-1c-1.1-0.6-1.9-1.4-2.4-2.4h-0.1v2.9h-2.6V568.4z M491.8,586.7c0,0.9,0.1,1.7,0.4,2.4
			c0.3,0.7,0.6,1.4,1.1,1.9c0.5,0.5,1.1,1,1.8,1.3c0.7,0.3,1.5,0.5,2.3,0.5s1.6-0.2,2.3-0.5c0.7-0.3,1.3-0.7,1.8-1.3
			c0.5-0.5,0.9-1.2,1.1-1.9s0.4-1.5,0.4-2.4c0-0.9-0.1-1.7-0.4-2.4s-0.6-1.4-1.1-1.9c-0.5-0.5-1.1-1-1.8-1.3
			c-0.7-0.3-1.5-0.5-2.3-0.5s-1.6,0.2-2.3,0.5c-0.7,0.3-1.3,0.7-1.8,1.3c-0.5,0.5-0.9,1.2-1.1,1.9
			C491.9,585.1,491.8,585.9,491.8,586.7z"/>
		<path class="st4" d="M431.3,606.1h7.1c1.1,0,2.2,0.1,3.2,0.3s1.9,0.6,2.7,1.1c0.8,0.5,1.4,1.2,1.9,2.1s0.7,2,0.7,3.2
			c0,1.4-0.2,2.5-0.7,3.4c-0.5,0.9-1.1,1.6-1.9,2.1c-0.8,0.5-1.6,0.9-2.6,1.1c-0.9,0.2-1.8,0.3-2.6,0.3h-4.8v11.1h-2.9V606.1z
			 M434.2,617h4.8c1.4,0,2.6-0.3,3.5-1c0.9-0.7,1.3-1.7,1.3-3.1c0-1.4-0.4-2.4-1.3-3.1c-0.9-0.7-2.1-1-3.5-1h-4.8V617z"/>
		<path class="st4" d="M451,618.4c0-0.7,0-1.4-0.1-2.1c0-0.7-0.1-1.2-0.1-1.8h2.5c0,0.4,0,0.9,0,1.3s0,0.9,0,1.4h0.1
			c0.2-0.4,0.4-0.8,0.8-1.2s0.7-0.7,1.2-1c0.5-0.3,1-0.5,1.5-0.7c0.6-0.2,1.2-0.3,1.8-0.3c0.2,0,0.4,0,0.5,0c0.2,0,0.4,0.1,0.5,0.1
			l-0.2,2.8c-0.5-0.1-0.9-0.2-1.4-0.2c-1.6,0-2.8,0.5-3.5,1.6s-1.1,2.6-1.1,4.5v8H451V618.4z"/>
		<path class="st4" d="M462.7,622.7c0-1.3,0.2-2.5,0.6-3.5s1-2,1.8-2.7c0.7-0.8,1.6-1.3,2.7-1.8c1-0.4,2.2-0.6,3.4-0.6
			c1.2,0,2.4,0.2,3.4,0.6c1,0.4,1.9,1,2.7,1.8c0.7,0.8,1.3,1.7,1.8,2.7c0.4,1,0.6,2.2,0.6,3.5c0,1.3-0.2,2.5-0.6,3.5
			c-0.4,1-1,2-1.8,2.7c-0.7,0.8-1.6,1.3-2.7,1.8c-1,0.4-2.2,0.6-3.4,0.6c-1.2,0-2.4-0.2-3.4-0.6c-1-0.4-1.9-1-2.7-1.8
			c-0.7-0.8-1.3-1.7-1.8-2.7S462.7,624,462.7,622.7z M465.6,622.7c0,0.9,0.1,1.7,0.4,2.4c0.3,0.7,0.6,1.4,1.1,1.9
			c0.5,0.5,1.1,1,1.8,1.3c0.7,0.3,1.5,0.5,2.3,0.5s1.6-0.2,2.3-0.5c0.7-0.3,1.3-0.7,1.8-1.3c0.5-0.5,0.9-1.2,1.1-1.9
			c0.3-0.7,0.4-1.5,0.4-2.4c0-0.9-0.1-1.7-0.4-2.4c-0.3-0.7-0.6-1.4-1.1-1.9c-0.5-0.5-1.1-1-1.8-1.3c-0.7-0.3-1.5-0.5-2.3-0.5
			s-1.6,0.2-2.3,0.5c-0.7,0.3-1.3,0.7-1.8,1.3c-0.5,0.5-0.9,1.2-1.1,1.9C465.7,621.1,465.6,621.9,465.6,622.7z"/>
		<path class="st4" d="M487.9,622.1l-5.7-7.6h3.5l4.2,5.9l4-5.9h3.2l-5.5,7.6l6.6,8.8h-3.5l-5-7.1l-5,7.1h-3.3L487.9,622.1z"/>
		<path class="st4" d="M508,634.6c-0.3,0.7-0.5,1.3-0.8,1.9c-0.3,0.6-0.6,1.1-1,1.5c-0.4,0.4-0.9,0.7-1.4,0.9s-1.2,0.3-2,0.3
			c-0.4,0-0.8,0-1.2-0.1c-0.4,0-0.8-0.2-1.2-0.4l0.3-2.4c0.3,0.1,0.6,0.2,0.8,0.2s0.6,0.1,1,0.1c0.9,0,1.5-0.2,1.9-0.7
			s0.8-1.1,1.1-2l1.1-3.1l-6.6-16.5h3.1l4.9,12.8h0.1l4.7-12.8h2.9L508,634.6z"/>
	</g>
	<g>
		<rect x="338.5" y="703.6" class="st7" width="267.4" height="149.6"/>
		<path class="st4" d="M437.5,766.9h3.2l7.4,20.4h0.1l7.6-20.4h3l-9.4,24.8h-2.8L437.5,766.9z"/>
		<path class="st4" d="M462.9,766.9h7.1c1.1,0,2.2,0.1,3.2,0.3s1.9,0.6,2.7,1.1c0.8,0.5,1.4,1.2,1.9,2.1s0.7,2,0.7,3.2
			c0,1.4-0.2,2.5-0.7,3.4c-0.5,0.9-1.1,1.6-1.9,2.1c-0.8,0.5-1.6,0.9-2.6,1.1c-0.9,0.2-1.8,0.3-2.6,0.3h-4.8v11.1h-2.9V766.9z
			 M465.8,777.8h4.8c1.4,0,2.6-0.3,3.5-1c0.9-0.7,1.3-1.7,1.3-3.1c0-1.4-0.4-2.4-1.3-3.1c-0.9-0.7-2.1-1-3.5-1h-4.8V777.8z"/>
		<path class="st4" d="M483.1,766.9h3.6l13.9,20.6h0.1v-20.6h2.9v24.8h-3.6L486,771.1h-0.1v20.6h-2.9V766.9z"/>
	</g>
	<g>
		<rect x="826.3" y="10" class="st7" width="719.3" height="203.1"/>
		<path d="M876.4,93.4h5.8l22.5,32.3h0.1V93.4h4.6v38.9h-5.8L881.1,100H881v32.3h-4.6V93.4z"/>
		<path d="M941.4,127.7c-1.5,2-3.2,3.4-5.1,4.2c-1.8,0.8-4,1.2-6.4,1.2c-2,0-3.8-0.4-5.4-1.1c-1.6-0.7-3-1.7-4.1-2.9
			c-1.1-1.2-2-2.6-2.6-4.3c-0.6-1.7-0.9-3.4-0.9-5.3c0-2,0.3-3.8,1-5.5s1.6-3.1,2.8-4.3c1.2-1.2,2.6-2.1,4.2-2.8
			c1.6-0.7,3.4-1,5.3-1c1.8,0,3.4,0.3,5,0.9c1.5,0.6,2.8,1.5,3.9,2.6c1.1,1.2,1.9,2.6,2.5,4.2c0.6,1.7,0.9,3.6,0.9,5.7v1.4h-20.8
			c0.1,1.1,0.3,2.2,0.8,3.2c0.5,1,1.1,1.9,1.8,2.6c0.7,0.8,1.6,1.3,2.6,1.8c1,0.4,2.1,0.7,3.2,0.7c1.9,0,3.4-0.3,4.7-1
			c1.3-0.7,2.4-1.6,3.5-2.9L941.4,127.7z M937.7,117.1c-0.1-2.2-0.8-4-2.1-5.3c-1.4-1.3-3.2-2-5.6-2c-2.4,0-4.3,0.7-5.8,2
			s-2.3,3.1-2.6,5.3H937.7z"/>
		<path d="M955.6,118.5l-9.2-11.9h5.6l6.8,9.2l6.4-9.2h5.2l-8.9,11.9l10.6,13.9h-5.7l-8.1-11.1l-8,11.1h-5.3L955.6,118.5z"/>
		<path d="M990.6,110.2H983v12.9c0,0.8,0,1.6,0.1,2.3c0,0.7,0.2,1.3,0.4,1.9c0.3,0.5,0.6,1,1.2,1.3c0.5,0.3,1.2,0.5,2.2,0.5
			c0.6,0,1.3-0.1,1.9-0.2c0.7-0.1,1.3-0.4,1.9-0.7l0.2,3.9c-0.7,0.3-1.5,0.6-2.4,0.7c-0.9,0.1-1.8,0.2-2.6,0.2
			c-1.5,0-2.8-0.2-3.7-0.6c-0.9-0.4-1.6-1-2.1-1.7c-0.5-0.7-0.9-1.6-1-2.7c-0.2-1.1-0.2-2.3-0.2-3.6v-14.1h-5.6v-3.6h5.6v-7.3h4.3
			v7.3h7.6V110.2z"/>
		<path d="M994.2,117.1h13.5v4h-13.5V117.1z"/>
		<path d="M1048,129.7c-2.2,1.2-4.6,2.2-7.1,2.8c-2.5,0.6-5,0.9-7.5,0.9c-3,0-5.8-0.5-8.4-1.5c-2.5-1-4.7-2.4-6.6-4.2
			c-1.9-1.8-3.3-4-4.3-6.5c-1-2.5-1.5-5.3-1.5-8.3c0-3.1,0.5-5.9,1.6-8.4c1.1-2.5,2.6-4.7,4.5-6.4c1.9-1.8,4.1-3.2,6.7-4.2
			c2.5-1,5.3-1.5,8.2-1.5c2.6,0,5,0.4,7.4,1.2s4.5,2.1,6.4,4l-3.5,3.6c-1.3-1.4-2.9-2.5-4.8-3.3c-1.9-0.8-3.8-1.2-5.8-1.2
			c-2.2,0-4.3,0.4-6.2,1.2c-1.9,0.8-3.6,1.9-5,3.4c-1.4,1.4-2.5,3.1-3.3,5.1c-0.8,2-1.2,4.1-1.2,6.5c0,2.3,0.4,4.5,1.2,6.4
			c0.8,2,1.9,3.7,3.3,5.1c1.4,1.4,3.1,2.6,5.1,3.4c2,0.8,4.2,1.2,6.5,1.2c1.6,0,3.2-0.2,4.9-0.6c1.7-0.4,3.3-0.9,4.7-1.7v-11.9h-9
			v-4.3h13.6V129.7z"/>
		<path d="M1079.9,127.7c-1.5,2-3.2,3.4-5.1,4.2c-1.8,0.8-4,1.2-6.4,1.2c-2,0-3.8-0.4-5.4-1.1c-1.6-0.7-3-1.7-4.1-2.9
			c-1.1-1.2-2-2.6-2.6-4.3c-0.6-1.7-0.9-3.4-0.9-5.3c0-2,0.3-3.8,1-5.5s1.6-3.1,2.8-4.3c1.2-1.2,2.6-2.1,4.2-2.8
			c1.6-0.7,3.4-1,5.3-1c1.8,0,3.4,0.3,5,0.9c1.5,0.6,2.8,1.5,3.9,2.6c1.1,1.2,1.9,2.6,2.5,4.2c0.6,1.7,0.9,3.6,0.9,5.7v1.4h-20.8
			c0.1,1.1,0.3,2.2,0.8,3.2c0.5,1,1.1,1.9,1.8,2.6c0.7,0.8,1.6,1.3,2.6,1.8c1,0.4,2.1,0.7,3.2,0.7c1.9,0,3.4-0.3,4.7-1
			c1.3-0.7,2.4-1.6,3.5-2.9L1079.9,127.7z M1076.2,117.1c-0.1-2.2-0.8-4-2.1-5.3c-1.4-1.3-3.2-2-5.6-2c-2.4,0-4.3,0.7-5.8,2
			s-2.3,3.1-2.6,5.3H1076.2z"/>
		<path d="M1087.5,112.7c0-1.2,0-2.3-0.1-3.3c-0.1-1-0.1-2-0.1-2.8h4.1c0,0.7,0,1.4,0.1,2.1c0,0.7,0.1,1.4,0.1,2.1h0.1
			c0.3-0.6,0.7-1.2,1.2-1.8c0.5-0.6,1.2-1.1,1.9-1.6c0.7-0.5,1.6-0.8,2.5-1.1c0.9-0.3,1.9-0.4,3-0.4c1.7,0,3.1,0.3,4.4,0.8
			c1.2,0.5,2.2,1.2,3.1,2.1c0.8,0.9,1.4,2,1.8,3.3c0.4,1.3,0.6,2.7,0.6,4.3v15.9h-4.3v-15.5c0-2.2-0.5-3.9-1.4-5.1
			c-1-1.2-2.4-1.9-4.5-1.9c-1.4,0-2.6,0.2-3.6,0.7c-1,0.5-1.8,1.2-2.5,2c-0.6,0.9-1.1,1.9-1.4,3.1s-0.5,2.5-0.5,4v12.5h-4.3V112.7z"
			/>
		<path d="M1141.1,127.7c-1.5,2-3.2,3.4-5.1,4.2c-1.8,0.8-4,1.2-6.4,1.2c-2,0-3.8-0.4-5.4-1.1c-1.6-0.7-3-1.7-4.1-2.9
			c-1.1-1.2-2-2.6-2.6-4.3c-0.6-1.7-0.9-3.4-0.9-5.3c0-2,0.3-3.8,1-5.5s1.6-3.1,2.8-4.3c1.2-1.2,2.6-2.1,4.2-2.8
			c1.6-0.7,3.4-1,5.3-1c1.8,0,3.4,0.3,5,0.9c1.5,0.6,2.8,1.5,3.9,2.6c1.1,1.2,1.9,2.6,2.5,4.2c0.6,1.7,0.9,3.6,0.9,5.7v1.4h-20.8
			c0.1,1.1,0.3,2.2,0.8,3.2c0.5,1,1.1,1.9,1.8,2.6c0.7,0.8,1.6,1.3,2.6,1.8c1,0.4,2.1,0.7,3.2,0.7c1.9,0,3.4-0.3,4.7-1
			c1.3-0.7,2.4-1.6,3.5-2.9L1141.1,127.7z M1137.4,117.1c-0.1-2.2-0.8-4-2.1-5.3c-1.4-1.3-3.2-2-5.6-2c-2.4,0-4.3,0.7-5.8,2
			s-2.3,3.1-2.6,5.3H1137.4z"/>
		<path d="M1148.7,112.7c0-1.2,0-2.3-0.1-3.3c-0.1-1-0.1-2-0.1-2.8h4.1c0,0.7,0,1.4,0.1,2.1c0,0.7,0.1,1.4,0.1,2.1h0.1
			c0.3-0.6,0.7-1.2,1.2-1.8c0.5-0.6,1.2-1.1,1.9-1.6c0.7-0.5,1.6-0.8,2.5-1.1c0.9-0.3,1.9-0.4,3-0.4c0.3,0,0.6,0,0.9,0.1
			c0.3,0,0.6,0.1,0.9,0.2l-0.3,4.3c-0.7-0.2-1.5-0.3-2.3-0.3c-2.6,0-4.6,0.9-5.7,2.6c-1.2,1.7-1.8,4-1.8,7v12.5h-4.3V112.7z"/>
		<path d="M1167.7,109.9c1.3-1.4,2.9-2.4,4.7-3c1.8-0.6,3.7-1,5.5-1c3.8,0,6.6,0.9,8.2,2.7c1.7,1.8,2.5,4.5,2.5,8.2v11.1
			c0,0.7,0,1.5,0.1,2.3c0.1,0.8,0.2,1.5,0.3,2.2h-4.1c-0.1-0.6-0.2-1.2-0.2-2c0-0.7,0-1.3,0-1.9h-0.1c-0.8,1.3-2,2.4-3.4,3.2
			c-1.4,0.8-3.1,1.3-5.1,1.3c-1.3,0-2.6-0.2-3.7-0.5s-2.2-0.8-3-1.5c-0.9-0.6-1.5-1.4-2.1-2.4c-0.5-1-0.8-2.1-0.8-3.3
			c0-2.1,0.5-3.8,1.7-5c1.1-1.2,2.5-2.1,4.1-2.7c1.6-0.6,3.4-1,5.3-1.1c1.9-0.1,3.6-0.2,5.2-0.2h1.7v-0.8c0-1.9-0.6-3.3-1.7-4.2
			c-1.1-1-2.7-1.4-4.7-1.4c-1.4,0-2.8,0.2-4.1,0.7c-1.3,0.5-2.5,1.2-3.5,2.1L1167.7,109.9z M1180.1,120c-2.8,0-4.9,0.4-6.5,1.2
			c-1.6,0.8-2.4,2-2.4,3.8c0,1.6,0.5,2.8,1.6,3.4c1.1,0.7,2.4,1,4,1c1.2,0,2.3-0.2,3.3-0.6c0.9-0.4,1.7-1,2.3-1.7
			c0.6-0.7,1.1-1.5,1.4-2.4s0.5-1.9,0.5-3V120H1180.1z"/>
		<path d="M1210.7,110.2h-7.6v12.9c0,0.8,0,1.6,0.1,2.3c0,0.7,0.2,1.3,0.4,1.9c0.3,0.5,0.6,1,1.2,1.3c0.5,0.3,1.2,0.5,2.2,0.5
			c0.6,0,1.3-0.1,1.9-0.2c0.7-0.1,1.3-0.4,1.9-0.7l0.2,3.9c-0.7,0.3-1.5,0.6-2.4,0.7c-0.9,0.1-1.8,0.2-2.6,0.2
			c-1.5,0-2.8-0.2-3.7-0.6c-0.9-0.4-1.6-1-2.1-1.7c-0.5-0.7-0.9-1.6-1-2.7c-0.2-1.1-0.2-2.3-0.2-3.6v-14.1h-5.6v-3.6h5.6v-7.3h4.3
			v7.3h7.6V110.2z"/>
		<path d="M1215.4,96.5c0-0.8,0.3-1.6,0.9-2.2c0.6-0.6,1.3-0.9,2.2-0.9c0.9,0,1.6,0.3,2.2,0.9c0.6,0.6,0.9,1.4,0.9,2.2
			c0,0.9-0.3,1.7-0.9,2.3c-0.6,0.6-1.3,0.9-2.3,0.9c-0.9,0-1.7-0.3-2.3-0.9C1215.7,98.2,1215.4,97.4,1215.4,96.5z M1216.4,106.6h4.3
			v25.7h-4.3V106.6z"/>
		<path d="M1227.7,119.5c0-2,0.3-3.9,1-5.5c0.7-1.6,1.7-3.1,2.9-4.3c1.2-1.2,2.7-2.1,4.3-2.8c1.7-0.7,3.5-1,5.5-1c2,0,3.8,0.3,5.5,1
			c1.7,0.7,3.1,1.6,4.3,2.8c1.2,1.2,2.2,2.6,2.9,4.3c0.7,1.6,1,3.5,1,5.5c0,2-0.3,3.9-1,5.5c-0.7,1.6-1.7,3.1-2.9,4.3
			c-1.2,1.2-2.7,2.1-4.3,2.8s-3.5,1-5.5,1c-2,0-3.8-0.3-5.5-1s-3.1-1.6-4.3-2.8c-1.2-1.2-2.2-2.6-2.9-4.3
			C1228.1,123.3,1227.7,121.5,1227.7,119.5z M1232.3,119.5c0,1.4,0.2,2.6,0.6,3.8c0.4,1.2,1,2.2,1.8,3c0.8,0.9,1.8,1.5,2.9,2
			c1.1,0.5,2.4,0.7,3.8,0.7s2.6-0.2,3.8-0.7c1.1-0.5,2.1-1.2,2.9-2c0.8-0.9,1.4-1.9,1.8-3c0.4-1.2,0.6-2.4,0.6-3.8
			c0-1.4-0.2-2.6-0.6-3.8c-0.4-1.2-1-2.2-1.8-3c-0.8-0.9-1.8-1.5-2.9-2c-1.1-0.5-2.4-0.7-3.8-0.7s-2.6,0.2-3.8,0.7
			c-1.1,0.5-2.1,1.2-2.9,2c-0.8,0.9-1.4,1.9-1.8,3C1232.5,116.8,1232.3,118.1,1232.3,119.5z"/>
		<path d="M1261.9,112.7c0-1.2,0-2.3-0.1-3.3c-0.1-1-0.1-2-0.1-2.8h4.1c0,0.7,0,1.4,0.1,2.1c0,0.7,0.1,1.4,0.1,2.1h0.1
			c0.3-0.6,0.7-1.2,1.2-1.8c0.5-0.6,1.2-1.1,1.9-1.6c0.7-0.5,1.6-0.8,2.5-1.1c0.9-0.3,1.9-0.4,3-0.4c1.7,0,3.1,0.3,4.4,0.8
			c1.2,0.5,2.2,1.2,3.1,2.1c0.8,0.9,1.4,2,1.8,3.3c0.4,1.3,0.6,2.7,0.6,4.3v15.9h-4.3v-15.5c0-2.2-0.5-3.9-1.4-5.1
			c-1-1.2-2.4-1.9-4.5-1.9c-1.4,0-2.6,0.2-3.6,0.7c-1,0.5-1.8,1.2-2.5,2c-0.6,0.9-1.1,1.9-1.4,3.1s-0.5,2.5-0.5,4v12.5h-4.3V112.7z"
			/>
		<path d="M1308.5,93.4h24.1v4.3h-19.5v12.9h18.2v4.3h-18.2v17.5h-4.6V93.4z"/>
		<path d="M1337.7,96.5c0-0.8,0.3-1.6,0.9-2.2c0.6-0.6,1.3-0.9,2.2-0.9c0.9,0,1.6,0.3,2.2,0.9c0.6,0.6,0.9,1.4,0.9,2.2
			c0,0.9-0.3,1.7-0.9,2.3c-0.6,0.6-1.3,0.9-2.3,0.9c-0.9,0-1.7-0.3-2.3-0.9C1338,98.2,1337.7,97.4,1337.7,96.5z M1338.7,106.6h4.3
			v25.7h-4.3V106.6z"/>
		<path d="M1351.5,112.7c0-1.2,0-2.3-0.1-3.3c-0.1-1-0.1-2-0.1-2.8h4.1c0,0.7,0,1.4,0.1,2.1c0,0.7,0.1,1.4,0.1,2.1h0.1
			c0.3-0.6,0.7-1.2,1.2-1.8c0.5-0.6,1.2-1.1,1.9-1.6c0.7-0.5,1.6-0.8,2.5-1.1c0.9-0.3,1.9-0.4,3-0.4c0.3,0,0.6,0,0.9,0.1
			c0.3,0,0.6,0.1,0.9,0.2l-0.3,4.3c-0.7-0.2-1.5-0.3-2.3-0.3c-2.6,0-4.6,0.9-5.7,2.6c-1.2,1.7-1.8,4-1.8,7v12.5h-4.3V112.7z"/>
		<path d="M1392.9,127.7c-1.5,2-3.2,3.4-5.1,4.2c-1.8,0.8-4,1.2-6.4,1.2c-2,0-3.8-0.4-5.4-1.1c-1.6-0.7-3-1.7-4.1-2.9
			c-1.1-1.2-2-2.6-2.6-4.3c-0.6-1.7-0.9-3.4-0.9-5.3c0-2,0.3-3.8,1-5.5s1.6-3.1,2.8-4.3c1.2-1.2,2.6-2.1,4.2-2.8
			c1.6-0.7,3.4-1,5.3-1c1.8,0,3.4,0.3,5,0.9c1.5,0.6,2.8,1.5,3.9,2.6c1.1,1.2,1.9,2.6,2.5,4.2c0.6,1.7,0.9,3.6,0.9,5.7v1.4H1373
			c0.1,1.1,0.3,2.2,0.8,3.2c0.5,1,1.1,1.9,1.8,2.6c0.7,0.8,1.6,1.3,2.6,1.8c1,0.4,2.1,0.7,3.2,0.7c1.9,0,3.4-0.3,4.7-1
			c1.3-0.7,2.4-1.6,3.5-2.9L1392.9,127.7z M1389.2,117.1c-0.1-2.2-0.8-4-2.1-5.3c-1.4-1.3-3.2-2-5.6-2c-2.4,0-4.3,0.7-5.8,2
			s-2.3,3.1-2.6,5.3H1389.2z"/>
		<path d="M1428.1,132.3h-4.2l-7.3-19.8h-0.1l-6.5,19.8h-4.4l-8.4-25.7h4.7l5.9,19.8h0.1l6.7-19.8h4.5l6.8,19.8h0.1l5.8-19.8h4.6
			L1428.1,132.3z"/>
		<path d="M1440.9,109.9c1.3-1.4,2.9-2.4,4.7-3c1.8-0.6,3.7-1,5.5-1c3.8,0,6.6,0.9,8.2,2.7c1.7,1.8,2.5,4.5,2.5,8.2v11.1
			c0,0.7,0,1.5,0.1,2.3c0.1,0.8,0.2,1.5,0.3,2.2h-4.1c-0.1-0.6-0.2-1.2-0.2-2c0-0.7,0-1.3,0-1.9h-0.1c-0.8,1.3-2,2.4-3.4,3.2
			c-1.4,0.8-3.1,1.3-5.1,1.3c-1.3,0-2.6-0.2-3.7-0.5s-2.2-0.8-3-1.5c-0.9-0.6-1.5-1.4-2.1-2.4c-0.5-1-0.8-2.1-0.8-3.3
			c0-2.1,0.5-3.8,1.7-5c1.1-1.2,2.5-2.1,4.1-2.7c1.6-0.6,3.4-1,5.3-1.1c1.9-0.1,3.6-0.2,5.2-0.2h1.7v-0.8c0-1.9-0.6-3.3-1.7-4.2
			c-1.1-1-2.7-1.4-4.7-1.4c-1.4,0-2.8,0.2-4.1,0.7c-1.3,0.5-2.5,1.2-3.5,2.1L1440.9,109.9z M1453.3,120c-2.8,0-4.9,0.4-6.5,1.2
			c-1.6,0.8-2.4,2-2.4,3.8c0,1.6,0.5,2.8,1.6,3.4c1.1,0.7,2.4,1,4,1c1.2,0,2.3-0.2,3.3-0.6c0.9-0.4,1.7-1,2.3-1.7
			c0.6-0.7,1.1-1.5,1.4-2.4s0.5-1.9,0.5-3V120H1453.3z"/>
		<path d="M1470.2,90.7h4.3v41.6h-4.3V90.7z"/>
		<path d="M1483.4,90.7h4.3v41.6h-4.3V90.7z"/>
		<path d="M1496.8,125.6c0.8,1.1,1.8,1.9,2.8,2.5c1,0.6,2.3,0.9,3.8,0.9c0.7,0,1.3-0.1,2-0.2c0.7-0.1,1.3-0.4,1.8-0.7
			c0.5-0.3,1-0.7,1.3-1.2c0.3-0.5,0.5-1.1,0.5-1.8c0-0.7-0.2-1.3-0.5-1.7c-0.3-0.4-0.7-0.8-1.2-1.1s-1.1-0.6-1.8-0.7
			c-0.7-0.2-1.3-0.3-2-0.5c-1.2-0.3-2.4-0.5-3.5-0.9s-2.1-0.8-2.9-1.3c-0.8-0.5-1.5-1.2-2-2.1c-0.5-0.8-0.7-1.9-0.7-3.2
			c0-1.2,0.3-2.3,0.8-3.3c0.5-1,1.3-1.7,2.2-2.4c0.9-0.6,1.9-1.1,3.1-1.4c1.1-0.3,2.3-0.5,3.5-0.5c1.8,0,3.5,0.4,5.1,1.1
			c1.6,0.7,2.8,1.9,3.7,3.6l-3.6,2.4c-0.6-0.9-1.3-1.7-2.2-2.2c-0.9-0.6-2-0.9-3.3-0.9c-0.6,0-1.2,0.1-1.8,0.2
			c-0.6,0.1-1.1,0.4-1.6,0.7c-0.5,0.3-0.9,0.7-1.2,1.1c-0.3,0.5-0.5,1-0.5,1.6c0,0.6,0.2,1,0.5,1.4c0.3,0.4,0.8,0.7,1.4,1
			c0.6,0.3,1.3,0.5,2.1,0.8c0.8,0.2,1.6,0.4,2.4,0.5c1.1,0.2,2.2,0.5,3.2,0.9c1,0.3,1.9,0.8,2.7,1.4c0.8,0.6,1.4,1.3,1.8,2.2
			c0.4,0.9,0.7,2,0.7,3.2c0,1.5-0.3,2.7-0.9,3.7c-0.6,1-1.4,1.9-2.3,2.5c-1,0.6-2.1,1.1-3.3,1.4c-1.2,0.3-2.5,0.4-3.8,0.4
			c-2.2,0-4.1-0.3-5.7-1c-1.6-0.7-3-1.9-4.3-3.8L1496.8,125.6z"/>
	</g>
	<g>
		<g>
			<path class="st4" d="M836,282.6h15.4v2.7h-12.4v8.2h11.6v2.7h-11.6v11.1H836V282.6z"/>
			<path class="st4" d="M854.6,284.6c0-0.5,0.2-1,0.6-1.4c0.4-0.4,0.9-0.6,1.4-0.6c0.6,0,1,0.2,1.4,0.6c0.4,0.4,0.6,0.9,0.6,1.4
				c0,0.6-0.2,1.1-0.6,1.4c-0.4,0.4-0.9,0.6-1.4,0.6c-0.6,0-1.1-0.2-1.4-0.6C854.8,285.7,854.6,285.2,854.6,284.6z M855.2,291h2.7
				v16.4h-2.7V291z"/>
			<path class="st4" d="M863.4,294.9c0-0.7,0-1.4-0.1-2.1c0-0.7-0.1-1.2-0.1-1.8h2.6c0,0.4,0,0.9,0,1.3c0,0.4,0,0.9,0,1.4h0.1
				c0.2-0.4,0.4-0.8,0.8-1.2c0.3-0.4,0.7-0.7,1.2-1c0.5-0.3,1-0.5,1.6-0.7c0.6-0.2,1.2-0.3,1.9-0.3c0.2,0,0.4,0,0.6,0
				c0.2,0,0.4,0.1,0.6,0.1l-0.2,2.8c-0.5-0.1-1-0.2-1.5-0.2c-1.7,0-2.9,0.5-3.7,1.6c-0.8,1.1-1.1,2.6-1.1,4.5v8h-2.7V294.9z"/>
			<path class="st4" d="M890.5,304.4c-1,1.3-2.1,2.1-3.2,2.6c-1.2,0.5-2.5,0.8-4.1,0.8c-1.3,0-2.4-0.2-3.5-0.7
				c-1-0.5-1.9-1.1-2.6-1.8s-1.3-1.7-1.6-2.7c-0.4-1-0.6-2.2-0.6-3.4c0-1.3,0.2-2.4,0.6-3.5c0.4-1.1,1-2,1.8-2.7
				c0.7-0.8,1.6-1.3,2.7-1.8c1-0.4,2.1-0.6,3.4-0.6c1.1,0,2.2,0.2,3.2,0.6c1,0.4,1.8,0.9,2.5,1.7s1.2,1.6,1.6,2.7
				c0.4,1.1,0.6,2.3,0.6,3.6v0.9h-13.2c0,0.7,0.2,1.4,0.5,2c0.3,0.6,0.7,1.2,1.1,1.7c0.5,0.5,1,0.9,1.6,1.1s1.3,0.4,2.1,0.4
				c1.2,0,2.2-0.2,3-0.6c0.8-0.4,1.6-1,2.2-1.9L890.5,304.4z M888.1,297.7c0-1.4-0.5-2.5-1.4-3.4s-2.1-1.3-3.6-1.3
				c-1.5,0-2.7,0.4-3.7,1.3s-1.5,2-1.7,3.4H888.1z"/>
			<path class="st4" d="M913.2,307.4h-2.7l-4.7-12.6h-0.1l-4.1,12.6h-2.8l-5.3-16.4h3l3.7,12.6h0.1l4.2-12.6h2.9l4.3,12.6h0.1
				l3.7-12.6h2.9L913.2,307.4z"/>
			<path class="st4" d="M921.7,293.1c0.8-0.9,1.8-1.5,3-1.9c1.2-0.4,2.3-0.6,3.5-0.6c2.4,0,4.2,0.6,5.2,1.7c1.1,1.1,1.6,2.9,1.6,5.2
				v7c0,0.5,0,1,0.1,1.5c0,0.5,0.1,1,0.2,1.4h-2.6c-0.1-0.4-0.1-0.8-0.2-1.2c0-0.5,0-0.9,0-1.2h-0.1c-0.5,0.8-1.3,1.5-2.2,2.1
				c-0.9,0.5-2,0.8-3.2,0.8c-0.8,0-1.6-0.1-2.4-0.3c-0.7-0.2-1.4-0.5-1.9-0.9s-1-0.9-1.3-1.5c-0.3-0.6-0.5-1.3-0.5-2.1
				c0-1.4,0.4-2.4,1.1-3.2c0.7-0.8,1.6-1.3,2.6-1.7c1-0.4,2.2-0.6,3.4-0.7c1.2-0.1,2.3-0.1,3.3-0.1h1v-0.5c0-1.2-0.4-2.1-1.1-2.7
				c-0.7-0.6-1.7-0.9-3-0.9c-0.9,0-1.8,0.1-2.6,0.4c-0.9,0.3-1.6,0.7-2.3,1.3L921.7,293.1z M929.6,299.5c-1.8,0-3.1,0.2-4.2,0.7
				c-1,0.5-1.5,1.3-1.5,2.4c0,1,0.3,1.8,1,2.2c0.7,0.4,1.5,0.6,2.6,0.6c0.8,0,1.5-0.1,2.1-0.4c0.6-0.3,1.1-0.6,1.5-1.1
				c0.4-0.4,0.7-1,0.9-1.6s0.3-1.2,0.3-1.9v-1H929.6z"/>
			<path class="st4" d="M940.4,280.9h2.7v26.5h-2.7V280.9z"/>
			<path class="st4" d="M948.8,280.9h2.7v26.5h-2.7V280.9z"/>
			<path class="st4" d="M841.6,324.6h7.3c1.1,0,2.2,0.1,3.3,0.3s2,0.6,2.8,1.1c0.8,0.5,1.4,1.2,1.9,2.1c0.5,0.9,0.7,2,0.7,3.2
				c0,1.4-0.3,2.5-0.8,3.4c-0.5,0.9-1.2,1.6-2,2.1c-0.8,0.5-1.7,0.9-2.6,1.1s-1.9,0.3-2.7,0.3h-5v11.1h-2.9V324.6z M844.5,335.5h5
				c1.5,0,2.7-0.3,3.6-1s1.4-1.7,1.4-3.1s-0.5-2.4-1.4-3.1c-0.9-0.7-2.1-1-3.6-1h-5V335.5z"/>
			<path class="st4" d="M873.9,350c-1.9,0-3.6-0.3-5.2-1s-2.9-1.6-4.1-2.7c-1.2-1.2-2.1-2.5-2.7-4.1c-0.6-1.6-1-3.3-1-5.2
				c0-1.9,0.3-3.6,1-5.2c0.6-1.6,1.5-3,2.7-4.1c1.2-1.2,2.5-2.1,4.1-2.7c1.6-0.7,3.3-1,5.2-1c1.9,0,3.6,0.3,5.2,1
				c1.6,0.7,2.9,1.6,4.1,2.7c1.2,1.2,2.1,2.5,2.7,4.1c0.6,1.6,1,3.3,1,5.2c0,1.9-0.3,3.6-1,5.2c-0.6,1.6-1.5,3-2.7,4.1
				s-2.5,2.1-4.1,2.7C877.5,349.7,875.7,350,873.9,350z M873.9,347.3c1.4,0,2.8-0.3,4-0.8c1.2-0.5,2.2-1.3,3.1-2.2
				c0.9-0.9,1.5-2,2-3.3c0.5-1.2,0.7-2.6,0.7-4c0-1.4-0.2-2.8-0.7-4c-0.5-1.2-1.1-2.3-2-3.3c-0.9-0.9-1.9-1.7-3.1-2.2
				c-1.2-0.5-2.5-0.8-4-0.8s-2.8,0.3-4,0.8c-1.2,0.5-2.2,1.3-3.1,2.2c-0.9,0.9-1.5,2-2,3.3c-0.5,1.2-0.7,2.6-0.7,4
				c0,1.4,0.2,2.8,0.7,4c0.5,1.2,1.1,2.3,2,3.3c0.9,0.9,1.9,1.7,3.1,2.2C871.1,347,872.4,347.3,873.9,347.3z"/>
			<path class="st4" d="M891.5,324.6h6.3c1.2,0,2.4,0.1,3.6,0.2c1.2,0.1,2.2,0.4,3.2,0.9c0.9,0.5,1.7,1.1,2.3,2
				c0.6,0.9,0.9,2.1,0.9,3.7c0,1.8-0.5,3.3-1.6,4.4s-2.6,1.8-4.5,2.1l7,11.4H905l-6.7-11.1h-3.8v11.1h-2.9V324.6z M894.5,335.5h2.6
				c0.8,0,1.7,0,2.5-0.1c0.9,0,1.7-0.2,2.4-0.5c0.7-0.3,1.3-0.7,1.8-1.2c0.5-0.5,0.7-1.3,0.7-2.4c0-0.9-0.2-1.6-0.5-2.1
				c-0.4-0.5-0.8-1-1.4-1.2c-0.6-0.3-1.2-0.5-1.9-0.6c-0.7-0.1-1.4-0.1-2.2-0.1h-4.1V335.5z"/>
			<path class="st4" d="M928.9,327.3h-8.2v22h-2.9v-22h-8.2v-2.7h19.3V327.3z"/>
			<path class="st4" d="M944.1,329c-0.5-0.8-1.1-1.4-2-1.7c-0.8-0.4-1.7-0.5-2.6-0.5c-0.7,0-1.3,0.1-1.9,0.2
				c-0.6,0.2-1.2,0.4-1.7,0.7c-0.5,0.3-0.9,0.8-1.2,1.3c-0.3,0.5-0.5,1.2-0.5,1.9c0,0.6,0.1,1.1,0.3,1.5s0.5,0.8,0.9,1.2
				c0.4,0.4,0.9,0.7,1.6,1c0.7,0.3,1.5,0.6,2.5,0.9c1,0.3,1.9,0.6,2.8,1s1.7,0.8,2.4,1.3c0.7,0.5,1.2,1.2,1.6,2
				c0.4,0.8,0.6,1.8,0.6,3c0,1.2-0.2,2.3-0.7,3.2c-0.5,0.9-1.1,1.7-1.9,2.3c-0.8,0.6-1.7,1-2.8,1.3s-2.1,0.4-3.3,0.4
				c-0.7,0-1.4-0.1-2.2-0.2c-0.7-0.1-1.4-0.3-2.1-0.6c-0.7-0.3-1.3-0.6-1.9-1c-0.6-0.4-1.1-1-1.5-1.6l2.5-2.1
				c0.5,0.9,1.3,1.6,2.2,2.1s2,0.7,3,0.7c0.6,0,1.3-0.1,1.9-0.3c0.6-0.2,1.2-0.5,1.7-0.8c0.5-0.4,0.9-0.8,1.3-1.3
				c0.3-0.5,0.5-1.2,0.5-1.9c0-0.8-0.1-1.4-0.4-1.9c-0.3-0.5-0.7-0.9-1.2-1.2c-0.5-0.4-1.2-0.7-2-0.9c-0.8-0.3-1.8-0.6-2.9-1
				c-0.9-0.3-1.7-0.6-2.5-1c-0.7-0.4-1.4-0.8-1.9-1.3c-0.5-0.5-1-1.2-1.3-1.9c-0.3-0.7-0.5-1.6-0.5-2.6c0-1.2,0.2-2.2,0.7-3.1
				s1.1-1.6,1.9-2.2c0.8-0.6,1.7-1,2.7-1.3c1-0.3,2.1-0.5,3.2-0.5c1.4,0,2.7,0.2,3.8,0.6c1.2,0.4,2.2,1.2,3.1,2.3L944.1,329z"/>
			<path class="st4" d="M812.7,366.6h2.9v24.8h-2.9V366.6z"/>
			<path class="st4" d="M821.8,366.6h7.3c1.1,0,2.2,0.1,3.3,0.3s2,0.6,2.8,1.1c0.8,0.5,1.4,1.2,1.9,2.1c0.5,0.9,0.7,2,0.7,3.2
				c0,1.4-0.3,2.5-0.8,3.4c-0.5,0.9-1.2,1.6-2,2.1c-0.8,0.5-1.7,0.9-2.6,1.1s-1.9,0.3-2.7,0.3h-5v11.1h-2.9V366.6z M824.8,377.5h5
				c1.5,0,2.7-0.3,3.6-1s1.4-1.7,1.4-3.1s-0.5-2.4-1.4-3.1c-0.9-0.7-2.1-1-3.6-1h-5V377.5z"/>
			<path class="st4" d="M860.4,366.6h2.8l10.5,24.8h-3.4l-2.5-6.1h-12.4l-2.6,6.1h-3.3L860.4,366.6z M861.7,370.4L861.7,370.4
				l-5.2,12.2h10.1L861.7,370.4z"/>
			<path class="st4" d="M890.1,388.5L890.1,388.5c-0.6,0.9-1.4,1.7-2.5,2.4s-2.4,1-3.9,1c-1.1,0-2.2-0.2-3.2-0.6
				c-1-0.4-1.9-1-2.6-1.8c-0.7-0.8-1.3-1.7-1.7-2.7c-0.4-1.1-0.6-2.2-0.6-3.4c0-1.2,0.2-2.4,0.6-3.4c0.4-1,1-2,1.8-2.7
				c0.7-0.8,1.7-1.4,2.7-1.8s2.2-0.6,3.5-0.6c1.2,0,2.3,0.2,3.3,0.7c1,0.5,1.9,1.2,2.6,2.1h0.1v-12.5h2.7v26.5h-2.7V388.5z
				 M890.1,383.2c0-0.9-0.1-1.7-0.4-2.4c-0.3-0.7-0.7-1.4-1.2-1.9c-0.5-0.5-1.1-1-1.8-1.3c-0.7-0.3-1.5-0.5-2.4-0.5
				s-1.7,0.2-2.4,0.5s-1.3,0.7-1.8,1.3c-0.5,0.5-0.9,1.2-1.2,1.9s-0.4,1.5-0.4,2.4c0,0.9,0.1,1.7,0.4,2.4s0.7,1.4,1.2,1.9
				c0.5,0.5,1.1,1,1.8,1.3c0.7,0.3,1.5,0.5,2.4,0.5s1.7-0.2,2.4-0.5c0.7-0.3,1.3-0.7,1.8-1.3c0.5-0.5,0.9-1.2,1.2-1.9
				C889.9,384.9,890.1,384.1,890.1,383.2z"/>
			<path class="st4" d="M911.5,388.5L911.5,388.5c-0.6,0.9-1.4,1.7-2.5,2.4s-2.4,1-3.9,1c-1.1,0-2.2-0.2-3.2-0.6
				c-1-0.4-1.9-1-2.6-1.8c-0.7-0.8-1.3-1.7-1.7-2.7c-0.4-1.1-0.6-2.2-0.6-3.4c0-1.2,0.2-2.4,0.6-3.4c0.4-1,1-2,1.8-2.7
				c0.7-0.8,1.7-1.4,2.7-1.8s2.2-0.6,3.5-0.6c1.2,0,2.3,0.2,3.3,0.7c1,0.5,1.9,1.2,2.6,2.1h0.1v-12.5h2.7v26.5h-2.7V388.5z
				 M911.5,383.2c0-0.9-0.1-1.7-0.4-2.4c-0.3-0.7-0.7-1.4-1.2-1.9c-0.5-0.5-1.1-1-1.8-1.3c-0.7-0.3-1.5-0.5-2.4-0.5
				s-1.7,0.2-2.4,0.5s-1.3,0.7-1.8,1.3c-0.5,0.5-0.9,1.2-1.2,1.9s-0.4,1.5-0.4,2.4c0,0.9,0.1,1.7,0.4,2.4s0.7,1.4,1.2,1.9
				c0.5,0.5,1.1,1,1.8,1.3c0.7,0.3,1.5,0.5,2.4,0.5s1.7-0.2,2.4-0.5c0.7-0.3,1.3-0.7,1.8-1.3c0.5-0.5,0.9-1.2,1.2-1.9
				C911.3,384.9,911.5,384.1,911.5,383.2z"/>
			<path class="st4" d="M919.2,378.9c0-0.7,0-1.4-0.1-2.1c0-0.7-0.1-1.2-0.1-1.8h2.6c0,0.4,0,0.9,0,1.3c0,0.4,0,0.9,0,1.4h0.1
				c0.2-0.4,0.4-0.8,0.8-1.2c0.3-0.4,0.7-0.7,1.2-1c0.5-0.3,1-0.5,1.6-0.7c0.6-0.2,1.2-0.3,1.9-0.3c0.2,0,0.4,0,0.6,0
				c0.2,0,0.4,0.1,0.6,0.1l-0.2,2.8c-0.5-0.1-1-0.2-1.5-0.2c-1.7,0-2.9,0.5-3.7,1.6c-0.8,1.1-1.1,2.6-1.1,4.5v8h-2.7V378.9z"/>
			<path class="st4" d="M945.5,388.4c-1,1.3-2.1,2.1-3.2,2.6c-1.2,0.5-2.5,0.8-4.1,0.8c-1.3,0-2.4-0.2-3.5-0.7
				c-1-0.5-1.9-1.1-2.6-1.8s-1.3-1.7-1.6-2.7c-0.4-1-0.6-2.2-0.6-3.4c0-1.3,0.2-2.4,0.6-3.5c0.4-1.1,1-2,1.8-2.7
				c0.7-0.8,1.6-1.3,2.7-1.8c1-0.4,2.1-0.6,3.4-0.6c1.1,0,2.2,0.2,3.2,0.6c1,0.4,1.8,0.9,2.5,1.7s1.2,1.6,1.6,2.7
				c0.4,1.1,0.6,2.3,0.6,3.6v0.9h-13.2c0,0.7,0.2,1.4,0.5,2c0.3,0.6,0.7,1.2,1.1,1.7c0.5,0.5,1,0.9,1.6,1.1s1.3,0.4,2.1,0.4
				c1.2,0,2.2-0.2,3-0.6c0.8-0.4,1.6-1,2.2-1.9L945.5,388.4z M943.2,381.7c0-1.4-0.5-2.5-1.4-3.4s-2.1-1.3-3.6-1.3
				c-1.5,0-2.7,0.4-3.7,1.3s-1.5,2-1.7,3.4H943.2z"/>
			<path class="st4" d="M950.7,387.1c0.5,0.7,1.1,1.2,1.8,1.6c0.6,0.4,1.5,0.6,2.4,0.6c0.4,0,0.8,0,1.3-0.1c0.4-0.1,0.8-0.2,1.2-0.5
				c0.4-0.2,0.6-0.5,0.8-0.8s0.3-0.7,0.3-1.1c0-0.4-0.1-0.8-0.3-1.1c-0.2-0.3-0.5-0.5-0.8-0.7c-0.3-0.2-0.7-0.4-1.1-0.5
				c-0.4-0.1-0.9-0.2-1.3-0.3c-0.8-0.2-1.5-0.4-2.2-0.6s-1.3-0.5-1.8-0.8c-0.5-0.3-0.9-0.8-1.3-1.3c-0.3-0.5-0.5-1.2-0.5-2.1
				c0-0.8,0.2-1.5,0.5-2.1c0.3-0.6,0.8-1.1,1.4-1.5c0.6-0.4,1.2-0.7,2-0.9c0.7-0.2,1.5-0.3,2.2-0.3c1.2,0,2.2,0.2,3.2,0.7
				c1,0.5,1.8,1.2,2.3,2.3l-2.3,1.5c-0.3-0.6-0.8-1.1-1.4-1.4c-0.6-0.4-1.3-0.5-2.1-0.5c-0.4,0-0.8,0-1.1,0.1
				c-0.4,0.1-0.7,0.2-1,0.4c-0.3,0.2-0.6,0.4-0.8,0.7c-0.2,0.3-0.3,0.6-0.3,1c0,0.4,0.1,0.6,0.3,0.9c0.2,0.2,0.5,0.5,0.9,0.6
				c0.4,0.2,0.8,0.3,1.3,0.5s1,0.3,1.6,0.4c0.7,0.1,1.4,0.3,2.1,0.5c0.7,0.2,1.2,0.5,1.7,0.9c0.5,0.4,0.9,0.8,1.2,1.4
				c0.3,0.6,0.4,1.2,0.4,2.1c0,0.9-0.2,1.7-0.6,2.4c-0.4,0.7-0.9,1.2-1.5,1.6c-0.6,0.4-1.3,0.7-2.1,0.9c-0.8,0.2-1.6,0.3-2.4,0.3
				c-1.4,0-2.6-0.2-3.6-0.6s-1.9-1.2-2.7-2.4L950.7,387.1z"/>
			<path class="st4" d="M965.6,387.1c0.5,0.7,1.1,1.2,1.8,1.6c0.6,0.4,1.5,0.6,2.4,0.6c0.4,0,0.8,0,1.3-0.1c0.4-0.1,0.8-0.2,1.2-0.5
				c0.4-0.2,0.6-0.5,0.8-0.8s0.3-0.7,0.3-1.1c0-0.4-0.1-0.8-0.3-1.1c-0.2-0.3-0.5-0.5-0.8-0.7c-0.3-0.2-0.7-0.4-1.1-0.5
				c-0.4-0.1-0.9-0.2-1.3-0.3c-0.8-0.2-1.5-0.4-2.2-0.6s-1.3-0.5-1.8-0.8c-0.5-0.3-0.9-0.8-1.3-1.3c-0.3-0.5-0.5-1.2-0.5-2.1
				c0-0.8,0.2-1.5,0.5-2.1c0.3-0.6,0.8-1.1,1.4-1.5c0.6-0.4,1.2-0.7,2-0.9c0.7-0.2,1.5-0.3,2.2-0.3c1.2,0,2.2,0.2,3.2,0.7
				c1,0.5,1.8,1.2,2.3,2.3l-2.3,1.5c-0.3-0.6-0.8-1.1-1.4-1.4c-0.6-0.4-1.3-0.5-2.1-0.5c-0.4,0-0.8,0-1.1,0.1
				c-0.4,0.1-0.7,0.2-1,0.4c-0.3,0.2-0.6,0.4-0.8,0.7c-0.2,0.3-0.3,0.6-0.3,1c0,0.4,0.1,0.6,0.3,0.9c0.2,0.2,0.5,0.5,0.9,0.6
				c0.4,0.2,0.8,0.3,1.3,0.5s1,0.3,1.6,0.4c0.7,0.1,1.4,0.3,2.1,0.5c0.7,0.2,1.2,0.5,1.7,0.9c0.5,0.4,0.9,0.8,1.2,1.4
				c0.3,0.6,0.4,1.2,0.4,2.1c0,0.9-0.2,1.7-0.6,2.4c-0.4,0.7-0.9,1.2-1.5,1.6c-0.6,0.4-1.3,0.7-2.1,0.9c-0.8,0.2-1.6,0.3-2.4,0.3
				c-1.4,0-2.6-0.2-3.6-0.6s-1.9-1.2-2.7-2.4L965.6,387.1z"/>
		</g>
	</g>
	<g>
		<g>
			<path class="st4" d="M870.2,570.1h2.9v24.8h-2.9V570.1z"/>
			<path class="st4" d="M878.6,570.1h9.2c0.8,0,1.6,0.1,2.5,0.3c0.9,0.2,1.8,0.5,2.6,0.9s1.7,0.9,2.5,1.6c0.8,0.7,1.5,1.4,2.1,2.4
				c0.6,0.9,1.1,2,1.5,3.2c0.4,1.2,0.5,2.6,0.5,4.1c0,1.5-0.2,2.9-0.5,4.1c-0.4,1.2-0.8,2.3-1.5,3.2c-0.6,0.9-1.3,1.7-2.1,2.4
				c-0.8,0.7-1.6,1.2-2.5,1.6s-1.7,0.7-2.6,0.9c-0.9,0.2-1.7,0.3-2.5,0.3h-9.2V570.1z M881.4,592.2h5.4c1.4,0,2.7-0.2,3.8-0.6
				c1.2-0.4,2.2-1,3.1-1.7c0.9-0.8,1.5-1.8,2-3c0.5-1.2,0.7-2.7,0.7-4.4c0-1.7-0.2-3.2-0.7-4.4c-0.5-1.2-1.2-2.2-2-3
				s-1.9-1.4-3.1-1.7c-1.2-0.4-2.5-0.6-3.8-0.6h-5.4V592.2z"/>
			<path class="st4" d="M915.6,574.5c-0.5-0.8-1.1-1.4-1.9-1.7c-0.8-0.4-1.6-0.5-2.5-0.5c-0.6,0-1.3,0.1-1.9,0.2
				c-0.6,0.2-1.2,0.4-1.6,0.7c-0.5,0.3-0.9,0.8-1.2,1.3s-0.4,1.2-0.4,1.9c0,0.6,0.1,1.1,0.3,1.5s0.4,0.8,0.8,1.2
				c0.4,0.4,0.9,0.7,1.6,1c0.7,0.3,1.5,0.6,2.4,0.9c0.9,0.3,1.8,0.6,2.7,1c0.9,0.4,1.6,0.8,2.3,1.3c0.7,0.5,1.2,1.2,1.6,2
				c0.4,0.8,0.6,1.8,0.6,3c0,1.2-0.2,2.3-0.7,3.2s-1.1,1.7-1.9,2.3c-0.8,0.6-1.7,1-2.7,1.3c-1,0.3-2.1,0.4-3.2,0.4
				c-0.7,0-1.4-0.1-2.1-0.2s-1.4-0.3-2-0.6c-0.6-0.3-1.3-0.6-1.8-1c-0.6-0.4-1.1-1-1.5-1.6l2.4-2.1c0.5,0.9,1.2,1.6,2.2,2.1
				c0.9,0.5,1.9,0.7,3,0.7c0.6,0,1.2-0.1,1.8-0.3c0.6-0.2,1.2-0.5,1.7-0.8c0.5-0.4,0.9-0.8,1.2-1.3c0.3-0.5,0.5-1.2,0.5-1.9
				c0-0.8-0.1-1.4-0.4-1.9c-0.2-0.5-0.6-0.9-1.2-1.2s-1.2-0.7-2-0.9c-0.8-0.3-1.7-0.6-2.8-1c-0.9-0.3-1.7-0.6-2.4-1
				c-0.7-0.4-1.4-0.8-1.9-1.3c-0.5-0.5-1-1.2-1.3-1.9s-0.5-1.6-0.5-2.6c0-1.2,0.2-2.2,0.7-3.1c0.5-0.9,1.1-1.6,1.8-2.2
				c0.8-0.6,1.6-1,2.6-1.3c1-0.3,2-0.5,3.1-0.5c1.4,0,2.6,0.2,3.7,0.6c1.1,0.4,2.1,1.2,3,2.3L915.6,574.5z"/>
			<path class="st4" d="M872.7,606.1h2.9v24.8h-2.9V606.1z"/>
			<path class="st4" d="M881.5,606.1h7.1c1.1,0,2.2,0.1,3.2,0.3s1.9,0.6,2.7,1.1c0.8,0.5,1.4,1.2,1.9,2.1s0.7,2,0.7,3.2
				c0,1.4-0.2,2.5-0.7,3.4c-0.5,0.9-1.1,1.6-1.9,2.1c-0.8,0.5-1.6,0.9-2.6,1.1c-0.9,0.2-1.8,0.3-2.6,0.3h-4.8v11.1h-2.9V606.1z
				 M884.4,617h4.8c1.4,0,2.6-0.3,3.5-1c0.9-0.7,1.3-1.7,1.3-3.1c0-1.4-0.4-2.4-1.3-3.1c-0.9-0.7-2.1-1-3.5-1h-4.8V617z"/>
			<path class="st4" d="M913.1,610.5c-0.5-0.8-1.1-1.4-1.9-1.7c-0.8-0.4-1.6-0.5-2.5-0.5c-0.6,0-1.3,0.1-1.9,0.2
				c-0.6,0.2-1.2,0.4-1.6,0.7c-0.5,0.3-0.9,0.8-1.2,1.3c-0.3,0.5-0.4,1.2-0.4,1.9c0,0.6,0.1,1.1,0.3,1.5s0.4,0.8,0.8,1.2
				c0.4,0.3,0.9,0.7,1.6,1c0.7,0.3,1.5,0.6,2.4,0.9c0.9,0.3,1.8,0.6,2.7,1c0.9,0.3,1.6,0.8,2.3,1.3c0.7,0.5,1.2,1.2,1.6,2
				c0.4,0.8,0.6,1.8,0.6,3c0,1.2-0.2,2.3-0.7,3.2s-1.1,1.7-1.9,2.3c-0.8,0.6-1.7,1-2.7,1.3c-1,0.3-2.1,0.4-3.2,0.4
				c-0.7,0-1.4-0.1-2.1-0.2s-1.4-0.3-2-0.6c-0.6-0.3-1.3-0.6-1.8-1c-0.6-0.4-1.1-1-1.5-1.6l2.4-2.1c0.5,0.9,1.2,1.6,2.2,2.1
				c0.9,0.5,1.9,0.7,3,0.7c0.6,0,1.2-0.1,1.8-0.3c0.6-0.2,1.2-0.5,1.7-0.8c0.5-0.4,0.9-0.8,1.2-1.3c0.3-0.5,0.5-1.2,0.5-1.9
				c0-0.8-0.1-1.4-0.4-1.9c-0.2-0.5-0.6-0.9-1.2-1.2c-0.5-0.4-1.2-0.7-2-0.9c-0.8-0.3-1.7-0.6-2.8-1c-0.9-0.3-1.7-0.6-2.4-1
				c-0.7-0.4-1.4-0.8-1.9-1.3c-0.5-0.5-1-1.2-1.3-1.9c-0.3-0.7-0.5-1.6-0.5-2.6c0-1.2,0.2-2.2,0.7-3.1c0.5-0.9,1.1-1.6,1.8-2.2
				s1.6-1,2.6-1.3c1-0.3,2-0.5,3.1-0.5c1.4,0,2.6,0.2,3.7,0.6c1.1,0.4,2.1,1.2,3,2.3L913.1,610.5z"/>
		</g>
	</g>
	<g>
		<g>
			<path class="st4" d="M1150.8,570.1h3.2l5.5,20.6h0.1l5.9-20.6h3.2l5.9,20.6h0.1l5.6-20.6h3l-7.1,24.8h-3.1l-5.9-21h-0.1l-6,21
				h-3.1L1150.8,570.1z"/>
			<path class="st4" d="M1198.4,591.9c-1,1.3-2,2.1-3.1,2.6c-1.1,0.5-2.4,0.8-3.9,0.8c-1.2,0-2.4-0.2-3.4-0.7s-1.8-1.1-2.5-1.8
				c-0.7-0.8-1.2-1.7-1.6-2.7c-0.4-1-0.6-2.2-0.6-3.4c0-1.3,0.2-2.4,0.6-3.5c0.4-1.1,1-2,1.7-2.7c0.7-0.8,1.6-1.3,2.6-1.8
				s2.1-0.6,3.3-0.6c1.1,0,2.1,0.2,3.1,0.6c0.9,0.4,1.7,0.9,2.4,1.7s1.2,1.6,1.5,2.7c0.4,1.1,0.5,2.3,0.5,3.6v0.9h-12.8
				c0,0.7,0.2,1.4,0.5,2c0.3,0.6,0.7,1.2,1.1,1.7c0.5,0.5,1,0.9,1.6,1.1s1.3,0.4,2,0.4c1.2,0,2.1-0.2,2.9-0.6c0.8-0.4,1.5-1,2.1-1.9
				L1198.4,591.9z M1196.1,585.2c0-1.4-0.5-2.5-1.3-3.4s-2-1.3-3.5-1.3c-1.5,0-2.7,0.4-3.6,1.3s-1.4,2-1.6,3.4H1196.1z"/>
			<path class="st4" d="M1202.9,568.4h2.6v12.5h0.1c0.7-0.9,1.6-1.6,2.5-2.1c1-0.5,2-0.7,3.2-0.7c1.2,0,2.4,0.2,3.4,0.6
				c1,0.4,1.9,1,2.6,1.8s1.3,1.7,1.7,2.7c0.4,1.1,0.6,2.2,0.6,3.4c0,1.2-0.2,2.4-0.6,3.4c-0.4,1-1,2-1.7,2.7s-1.6,1.4-2.5,1.8
				c-1,0.4-2,0.6-3.1,0.6c-1.4,0-2.7-0.3-3.8-1c-1.1-0.6-1.9-1.4-2.4-2.4h-0.1v2.9h-2.6V568.4z M1205.6,586.7c0,0.9,0.1,1.7,0.4,2.4
				c0.3,0.7,0.6,1.4,1.1,1.9c0.5,0.5,1.1,1,1.8,1.3c0.7,0.3,1.5,0.5,2.3,0.5s1.6-0.2,2.3-0.5c0.7-0.3,1.3-0.7,1.8-1.3
				c0.5-0.5,0.9-1.2,1.1-1.9s0.4-1.5,0.4-2.4c0-0.9-0.1-1.7-0.4-2.4s-0.6-1.4-1.1-1.9c-0.5-0.5-1.1-1-1.8-1.3
				c-0.7-0.3-1.5-0.5-2.3-0.5s-1.6,0.2-2.3,0.5c-0.7,0.3-1.3,0.7-1.8,1.3c-0.5,0.5-0.9,1.2-1.1,1.9
				C1205.7,585.1,1205.6,585.9,1205.6,586.7z"/>
			<path class="st4" d="M1145.5,606.1h7.1c1.1,0,2.2,0.1,3.2,0.3s1.9,0.6,2.7,1.1c0.8,0.5,1.4,1.2,1.9,2.1s0.7,2,0.7,3.2
				c0,1.4-0.2,2.5-0.7,3.4c-0.5,0.9-1.1,1.6-1.9,2.1c-0.8,0.5-1.6,0.9-2.6,1.1c-0.9,0.2-1.8,0.3-2.6,0.3h-4.8v11.1h-2.9V606.1z
				 M1148.3,617h4.8c1.4,0,2.6-0.3,3.5-1c0.9-0.7,1.3-1.7,1.3-3.1c0-1.4-0.4-2.4-1.3-3.1c-0.9-0.7-2.1-1-3.5-1h-4.8V617z"/>
			<path class="st4" d="M1165.1,618.4c0-0.7,0-1.4-0.1-2.1c0-0.7-0.1-1.2-0.1-1.8h2.5c0,0.4,0,0.9,0,1.3s0,0.9,0,1.4h0.1
				c0.2-0.4,0.4-0.8,0.8-1.2c0.3-0.4,0.7-0.7,1.2-1c0.5-0.3,1-0.5,1.5-0.7s1.2-0.3,1.8-0.3c0.2,0,0.4,0,0.5,0c0.2,0,0.4,0.1,0.5,0.1
				l-0.2,2.8c-0.5-0.1-0.9-0.2-1.4-0.2c-1.6,0-2.8,0.5-3.5,1.6s-1.1,2.6-1.1,4.5v8h-2.6V618.4z"/>
			<path class="st4" d="M1176.5,622.7c0-1.3,0.2-2.5,0.6-3.5c0.4-1.1,1-2,1.8-2.7c0.7-0.8,1.6-1.3,2.7-1.8c1-0.4,2.2-0.6,3.4-0.6
				c1.2,0,2.4,0.2,3.4,0.6c1,0.4,1.9,1,2.7,1.8c0.7,0.8,1.3,1.7,1.8,2.7c0.4,1,0.6,2.2,0.6,3.5s-0.2,2.4-0.6,3.5c-0.4,1-1,2-1.8,2.7
				c-0.7,0.8-1.6,1.3-2.7,1.8c-1,0.4-2.2,0.6-3.4,0.6c-1.2,0-2.4-0.2-3.4-0.6c-1-0.4-1.9-1-2.7-1.8c-0.7-0.8-1.3-1.7-1.8-2.7
				C1176.7,625.2,1176.5,624,1176.5,622.7z M1179.4,622.7c0,0.9,0.1,1.7,0.4,2.4c0.3,0.7,0.6,1.4,1.1,1.9c0.5,0.5,1.1,1,1.8,1.3
				c0.7,0.3,1.5,0.5,2.3,0.5s1.6-0.2,2.3-0.5c0.7-0.3,1.3-0.7,1.8-1.3c0.5-0.5,0.9-1.2,1.1-1.9c0.3-0.7,0.4-1.5,0.4-2.4
				s-0.1-1.7-0.4-2.4c-0.3-0.7-0.6-1.4-1.1-1.9c-0.5-0.5-1.1-1-1.8-1.3c-0.7-0.3-1.5-0.5-2.3-0.5s-1.6,0.2-2.3,0.5
				c-0.7,0.3-1.3,0.7-1.8,1.3c-0.5,0.5-0.9,1.2-1.1,1.9C1179.5,621.1,1179.4,621.9,1179.4,622.7z"/>
			<path class="st4" d="M1201.7,622.1l-5.7-7.6h3.5l4.2,5.9l4-5.9h3.2l-5.5,7.6l6.6,8.8h-3.5l-5-7.1l-5,7.1h-3.3L1201.7,622.1z"/>
			<path class="st4" d="M1221.4,634.6c-0.3,0.7-0.5,1.3-0.8,1.9c-0.3,0.6-0.6,1.1-1,1.5c-0.4,0.4-0.9,0.7-1.4,0.9s-1.2,0.3-2,0.3
				c-0.4,0-0.8,0-1.2-0.1c-0.4,0-0.8-0.2-1.2-0.3l0.3-2.4c0.3,0.1,0.6,0.2,0.8,0.2c0.3,0,0.6,0.1,1,0.1c0.9,0,1.5-0.2,1.9-0.7
				c0.4-0.5,0.8-1.1,1.1-2l1.1-3.1l-6.6-16.5h3.1l4.9,12.8h0.1l4.7-12.8h2.9L1221.4,634.6z"/>
		</g>
	</g>
	<g>
		<g>
			<path class="st4" d="M836.2,748.9h2.7l10.2,24.8h-3.3l-2.4-6.1h-12l-2.5,6.1h-3.2L836.2,748.9z M837.5,752.6L837.5,752.6
				l-5.1,12.2h9.8L837.5,752.6z"/>
			<path class="st4" d="M851.8,761.2c0-0.7,0-1.4-0.1-2.1c0-0.7-0.1-1.2-0.1-1.8h2.5c0,0.4,0,0.9,0,1.3s0,0.9,0,1.4h0.1
				c0.2-0.4,0.4-0.8,0.8-1.2s0.7-0.7,1.2-1c0.5-0.3,1-0.5,1.5-0.7c0.6-0.2,1.2-0.3,1.8-0.3c1,0,1.9,0.2,2.7,0.5
				c0.8,0.3,1.4,0.8,1.9,1.4c0.5,0.6,0.9,1.3,1.1,2.1c0.2,0.8,0.4,1.7,0.4,2.7v10.1H863v-9.8c0-1.4-0.3-2.5-0.9-3.3
				s-1.5-1.2-2.8-1.2c-0.9,0-1.6,0.2-2.2,0.5c-0.6,0.3-1.1,0.7-1.5,1.3c-0.4,0.6-0.7,1.2-0.9,2c-0.2,0.8-0.3,1.6-0.3,2.6v8h-2.6
				V761.2z"/>
			<path class="st4" d="M879.4,759.6h-4.7v8.2c0,0.5,0,1,0,1.5c0,0.5,0.1,0.9,0.3,1.2c0.2,0.3,0.4,0.6,0.7,0.8
				c0.3,0.2,0.8,0.3,1.4,0.3c0.4,0,0.8,0,1.2-0.1c0.4-0.1,0.8-0.2,1.2-0.4l0.1,2.5c-0.5,0.2-1,0.4-1.5,0.5c-0.6,0.1-1.1,0.1-1.6,0.1
				c-1,0-1.7-0.1-2.3-0.4c-0.6-0.3-1-0.6-1.3-1.1c-0.3-0.5-0.5-1-0.6-1.7c-0.1-0.7-0.2-1.5-0.2-2.3v-9h-3.5v-2.3h3.5v-4.7h2.6v4.7
				h4.7V759.6z"/>
			<path class="st4" d="M883.3,750.9c0-0.5,0.2-1,0.6-1.4c0.4-0.4,0.8-0.6,1.4-0.6s1,0.2,1.4,0.6c0.4,0.4,0.6,0.9,0.6,1.4
				c0,0.6-0.2,1.1-0.5,1.4c-0.4,0.4-0.8,0.6-1.4,0.6c-0.6,0-1-0.2-1.4-0.6C883.5,751.9,883.3,751.4,883.3,750.9z M883.9,757.3h2.6
				v16.4h-2.6V757.3z"/>
			<path class="st4" d="M900.1,773.6h-2.9l-6.5-16.4h3.1l5,12.8h0.1l4.7-12.8h2.9L900.1,773.6z"/>
			<path class="st4" d="M909.9,750.9c0-0.5,0.2-1,0.6-1.4c0.4-0.4,0.8-0.6,1.4-0.6s1,0.2,1.4,0.6c0.4,0.4,0.6,0.9,0.6,1.4
				c0,0.6-0.2,1.1-0.5,1.4c-0.4,0.4-0.8,0.6-1.4,0.6c-0.6,0-1-0.2-1.4-0.6C910,751.9,909.9,751.4,909.9,750.9z M910.5,757.3h2.6
				v16.4h-2.6V757.3z"/>
			<path class="st4" d="M919.1,761.2c0-0.7,0-1.4-0.1-2.1c0-0.7-0.1-1.2-0.1-1.8h2.5c0,0.4,0,0.9,0,1.3s0,0.9,0,1.4h0.1
				c0.2-0.4,0.4-0.8,0.8-1.2s0.7-0.7,1.2-1c0.5-0.3,1-0.5,1.5-0.7c0.6-0.2,1.2-0.3,1.8-0.3c0.2,0,0.4,0,0.5,0c0.2,0,0.4,0.1,0.5,0.1
				l-0.2,2.8c-0.5-0.1-0.9-0.2-1.4-0.2c-1.6,0-2.8,0.5-3.5,1.6s-1.1,2.6-1.1,4.5v8h-2.6V761.2z"/>
			<path class="st4" d="M944.9,769.8c0,0.7,0,1.4,0.1,2.1c0,0.7,0.1,1.2,0.1,1.8h-2.5c0-0.4,0-0.9,0-1.3s0-0.9,0-1.4h-0.1
				c-0.2,0.4-0.4,0.8-0.8,1.2s-0.7,0.7-1.2,1c-0.5,0.3-1,0.5-1.5,0.7c-0.6,0.2-1.2,0.3-1.8,0.3c-1,0-1.9-0.2-2.7-0.5
				c-0.8-0.3-1.4-0.8-1.9-1.4c-0.5-0.6-0.9-1.3-1.1-2.1c-0.2-0.8-0.4-1.7-0.4-2.7v-10.1h2.6v9.8c0,1.4,0.3,2.5,0.9,3.3
				s1.5,1.2,2.8,1.2c0.9,0,1.6-0.2,2.2-0.5c0.6-0.3,1.1-0.7,1.5-1.3c0.4-0.6,0.7-1.2,0.9-2c0.2-0.8,0.3-1.6,0.3-2.6v-8h2.6V769.8z"
				/>
			<path class="st4" d="M950.2,769.3c0.5,0.7,1.1,1.2,1.7,1.6c0.6,0.4,1.4,0.6,2.4,0.6c0.4,0,0.8,0,1.2-0.1c0.4-0.1,0.8-0.2,1.1-0.5
				c0.3-0.2,0.6-0.5,0.8-0.8c0.2-0.3,0.3-0.7,0.3-1.1s-0.1-0.8-0.3-1.1s-0.4-0.5-0.8-0.7c-0.3-0.2-0.7-0.4-1.1-0.5
				c-0.4-0.1-0.8-0.2-1.3-0.3c-0.7-0.2-1.5-0.4-2.1-0.6s-1.3-0.5-1.8-0.8c-0.5-0.3-0.9-0.8-1.2-1.3c-0.3-0.5-0.5-1.2-0.5-2.1
				c0-0.8,0.2-1.5,0.5-2.1c0.3-0.6,0.8-1.1,1.4-1.5c0.6-0.4,1.2-0.7,1.9-0.9c0.7-0.2,1.4-0.3,2.2-0.3c1.1,0,2.2,0.2,3.1,0.7
				c1,0.5,1.7,1.2,2.3,2.3l-2.2,1.5c-0.3-0.6-0.8-1.1-1.3-1.4c-0.6-0.4-1.2-0.5-2-0.5c-0.4,0-0.7,0-1.1,0.1c-0.4,0.1-0.7,0.2-1,0.4
				c-0.3,0.2-0.5,0.4-0.7,0.7c-0.2,0.3-0.3,0.6-0.3,1c0,0.3,0.1,0.6,0.3,0.9c0.2,0.2,0.5,0.5,0.9,0.6s0.8,0.3,1.3,0.5
				c0.5,0.1,1,0.3,1.5,0.4c0.7,0.1,1.4,0.3,2,0.5c0.6,0.2,1.2,0.5,1.7,0.9c0.5,0.4,0.8,0.8,1.1,1.4c0.3,0.6,0.4,1.2,0.4,2.1
				c0,0.9-0.2,1.7-0.5,2.4c-0.4,0.7-0.8,1.2-1.4,1.6c-0.6,0.4-1.3,0.7-2,0.9c-0.8,0.2-1.5,0.3-2.3,0.3c-1.4,0-2.5-0.2-3.5-0.6
				s-1.9-1.2-2.7-2.4L950.2,769.3z"/>
			<path class="st4" d="M849,808c-1.4,0.8-2.8,1.4-4.4,1.8c-1.5,0.4-3.1,0.6-4.6,0.6c-1.9,0-3.6-0.3-5.2-0.9s-2.9-1.5-4.1-2.7
				c-1.1-1.1-2-2.5-2.7-4.1c-0.6-1.6-1-3.4-1-5.3c0-2,0.3-3.7,1-5.3c0.7-1.6,1.6-3,2.8-4.1c1.2-1.1,2.5-2,4.1-2.6
				c1.6-0.6,3.2-0.9,5.1-0.9c1.6,0,3.1,0.2,4.6,0.7c1.5,0.5,2.8,1.3,3.9,2.5l-2.1,2.3c-0.8-0.9-1.8-1.6-3-2.1s-2.4-0.7-3.6-0.7
				c-1.4,0-2.7,0.3-3.8,0.8c-1.2,0.5-2.2,1.2-3.1,2.1s-1.6,2-2,3.3c-0.5,1.3-0.7,2.6-0.7,4.1c0,1.5,0.2,2.8,0.7,4.1
				c0.5,1.3,1.2,2.4,2,3.3s1.9,1.6,3.1,2.2c1.2,0.5,2.6,0.8,4,0.8c1,0,2-0.1,3.1-0.4c1.1-0.2,2-0.6,2.9-1.1v-7.6h-5.5v-2.7h8.4V808z
				"/>
			<path class="st4" d="M854.3,795.4c0.8-0.9,1.8-1.5,2.9-1.9c1.1-0.4,2.3-0.6,3.4-0.6c2.4,0,4.1,0.6,5.1,1.7s1.6,2.9,1.6,5.2v7
				c0,0.5,0,1,0.1,1.5c0,0.5,0.1,1,0.2,1.4H865c-0.1-0.4-0.1-0.8-0.2-1.2c0-0.5,0-0.9,0-1.2h-0.1c-0.5,0.8-1.2,1.5-2.1,2.1
				c-0.9,0.5-1.9,0.8-3.1,0.8c-0.8,0-1.6-0.1-2.3-0.3s-1.3-0.5-1.9-0.9c-0.5-0.4-1-0.9-1.3-1.5c-0.3-0.6-0.5-1.3-0.5-2.1
				c0-1.4,0.3-2.4,1-3.2c0.7-0.8,1.5-1.3,2.5-1.7c1-0.4,2.1-0.6,3.3-0.7c1.2-0.1,2.2-0.1,3.2-0.1h1V799c0-1.2-0.3-2.1-1-2.7
				s-1.7-0.9-2.9-0.9c-0.9,0-1.7,0.1-2.5,0.4c-0.8,0.3-1.6,0.7-2.2,1.3L854.3,795.4z M862,801.8c-1.7,0-3,0.2-4,0.7
				c-1,0.5-1.5,1.3-1.5,2.4c0,1,0.3,1.8,1,2.2c0.7,0.4,1.5,0.6,2.5,0.6c0.8,0,1.4-0.1,2-0.4c0.6-0.3,1.1-0.6,1.4-1.1
				c0.4-0.4,0.7-1,0.9-1.6c0.2-0.6,0.3-1.2,0.3-1.9v-1H862z"/>
			<path class="st4" d="M880.8,795.6h-4.7v8.2c0,0.5,0,1,0,1.5c0,0.5,0.1,0.9,0.3,1.2c0.2,0.3,0.4,0.6,0.7,0.8
				c0.3,0.2,0.8,0.3,1.4,0.3c0.4,0,0.8,0,1.2-0.1c0.4-0.1,0.8-0.2,1.2-0.4l0.1,2.5c-0.5,0.2-1,0.4-1.5,0.5c-0.6,0.1-1.1,0.1-1.6,0.1
				c-1,0-1.7-0.1-2.3-0.4c-0.6-0.3-1-0.6-1.3-1.1c-0.3-0.5-0.5-1-0.6-1.7c-0.1-0.7-0.2-1.5-0.2-2.3v-9H870v-2.3h3.5v-4.7h2.6v4.7
				h4.7V795.6z"/>
			<path class="st4" d="M899,806.7c-1,1.3-2,2.1-3.1,2.6c-1.1,0.5-2.4,0.8-3.9,0.8c-1.2,0-2.4-0.2-3.4-0.7s-1.8-1.1-2.5-1.8
				c-0.7-0.8-1.2-1.7-1.6-2.7c-0.4-1-0.6-2.2-0.6-3.4c0-1.3,0.2-2.4,0.6-3.5c0.4-1.1,1-2,1.7-2.7c0.7-0.8,1.6-1.3,2.6-1.8
				s2.1-0.6,3.3-0.6c1.1,0,2.1,0.2,3.1,0.6s1.7,0.9,2.4,1.7c0.7,0.7,1.2,1.6,1.5,2.7s0.5,2.3,0.5,3.6v0.9h-12.8c0,0.7,0.2,1.4,0.5,2
				c0.3,0.6,0.7,1.2,1.1,1.7c0.5,0.5,1,0.9,1.6,1.1c0.6,0.3,1.3,0.4,2,0.4c1.2,0,2.1-0.2,2.9-0.6c0.8-0.4,1.5-1,2.1-1.9L899,806.7z
				 M896.7,800c0-1.4-0.5-2.5-1.3-3.4s-2-1.3-3.5-1.3c-1.5,0-2.7,0.4-3.6,1.3s-1.4,2-1.6,3.4H896.7z"/>
			<path class="st4" d="M921.7,809.6h-2.6l-4.5-12.6h-0.1l-4,12.6h-2.7l-5.2-16.4h2.9l3.6,12.6h0.1l4.1-12.6h2.8l4.2,12.6h0.1
				l3.6-12.6h2.9L921.7,809.6z"/>
			<path class="st4" d="M929.6,795.4c0.8-0.9,1.8-1.5,2.9-1.9c1.1-0.4,2.3-0.6,3.4-0.6c2.4,0,4.1,0.6,5.1,1.7s1.6,2.9,1.6,5.2v7
				c0,0.5,0,1,0.1,1.5c0,0.5,0.1,1,0.2,1.4h-2.5c-0.1-0.4-0.1-0.8-0.2-1.2c0-0.5,0-0.9,0-1.2h-0.1c-0.5,0.8-1.2,1.5-2.1,2.1
				c-0.9,0.5-1.9,0.8-3.1,0.8c-0.8,0-1.6-0.1-2.3-0.3s-1.3-0.5-1.9-0.9c-0.5-0.4-1-0.9-1.3-1.5c-0.3-0.6-0.5-1.3-0.5-2.1
				c0-1.4,0.3-2.4,1-3.2c0.7-0.8,1.5-1.3,2.5-1.7c1-0.4,2.1-0.6,3.3-0.7c1.2-0.1,2.2-0.1,3.2-0.1h1V799c0-1.2-0.3-2.1-1-2.7
				s-1.7-0.9-2.9-0.9c-0.9,0-1.7,0.1-2.5,0.4c-0.8,0.3-1.6,0.7-2.2,1.3L929.6,795.4z M937.3,801.8c-1.7,0-3,0.2-4,0.7
				c-1,0.5-1.5,1.3-1.5,2.4c0,1,0.3,1.8,1,2.2c0.7,0.4,1.5,0.6,2.5,0.6c0.8,0,1.4-0.1,2-0.4c0.6-0.3,1.1-0.6,1.4-1.1
				c0.4-0.4,0.7-1,0.9-1.6c0.2-0.6,0.3-1.2,0.3-1.9v-1H937.3z"/>
			<path class="st4" d="M953.6,813.4c-0.3,0.7-0.5,1.3-0.8,1.9c-0.3,0.6-0.6,1.1-1,1.5c-0.4,0.4-0.9,0.7-1.4,0.9s-1.2,0.3-2,0.3
				c-0.4,0-0.8,0-1.2-0.1c-0.4,0-0.8-0.2-1.2-0.4l0.3-2.4c0.3,0.1,0.6,0.2,0.8,0.2s0.6,0.1,1,0.1c0.9,0,1.5-0.2,1.9-0.7
				s0.8-1.1,1.1-2l1.1-3.1l-6.6-16.5h3.1l4.9,12.8h0.1l4.7-12.8h2.9L953.6,813.4z"/>
		</g>
	</g>
	<g>
		<g>
			<path class="st4" d="M1151.5,766.9h3.2l7.4,20.4h0.1l7.6-20.4h3l-9.4,24.8h-2.8L1151.5,766.9z"/>
			<path class="st4" d="M1176.5,766.9h7.1c1.1,0,2.2,0.1,3.2,0.3s1.9,0.6,2.7,1.1c0.8,0.5,1.4,1.2,1.9,2.1s0.7,2,0.7,3.2
				c0,1.4-0.2,2.5-0.7,3.4c-0.5,0.9-1.1,1.6-1.9,2.1c-0.8,0.5-1.6,0.9-2.6,1.1c-0.9,0.2-1.8,0.3-2.6,0.3h-4.8v11.1h-2.9V766.9z
				 M1179.4,777.8h4.8c1.4,0,2.6-0.3,3.5-1c0.9-0.7,1.3-1.7,1.3-3.1c0-1.4-0.4-2.4-1.3-3.1c-0.9-0.7-2.1-1-3.5-1h-4.8V777.8z"/>
			<path class="st4" d="M1196.6,766.9h3.6l13.9,20.6h0.1v-20.6h2.9v24.8h-3.6l-13.9-20.6h-0.1v20.6h-2.9V766.9z"/>
		</g>
	</g>
	<g>
		<g>
			<path class="st4" d="M1425.2,588.1h2.7l10.2,24.8h-3.3l-2.4-6.1h-12l-2.5,6.1h-3.2L1425.2,588.1z M1426.5,591.9L1426.5,591.9
				l-5.1,12.2h9.8L1426.5,591.9z"/>
			<path class="st4" d="M1440.8,600.4c0-0.7,0-1.4-0.1-2.1c0-0.7-0.1-1.2-0.1-1.8h2.5c0,0.4,0,0.9,0,1.3s0,0.9,0,1.4h0.1
				c0.2-0.4,0.4-0.8,0.8-1.2s0.7-0.7,1.2-1c0.5-0.3,1-0.5,1.5-0.7c0.6-0.2,1.2-0.3,1.8-0.3c1,0,1.9,0.2,2.7,0.5
				c0.8,0.3,1.4,0.8,1.9,1.4c0.5,0.6,0.9,1.3,1.1,2.1c0.2,0.8,0.4,1.7,0.4,2.7v10.1h-2.6v-9.8c0-1.4-0.3-2.5-0.9-3.3
				s-1.5-1.2-2.8-1.2c-0.9,0-1.6,0.2-2.2,0.5c-0.6,0.3-1.1,0.7-1.5,1.3c-0.4,0.6-0.7,1.2-0.9,2c-0.2,0.8-0.3,1.6-0.3,2.6v8h-2.6
				V600.4z"/>
			<path class="st4" d="M1468.4,598.8h-4.7v8.2c0,0.5,0,1,0,1.5c0,0.5,0.1,0.9,0.3,1.2c0.2,0.3,0.4,0.6,0.7,0.8
				c0.3,0.2,0.8,0.3,1.4,0.3c0.4,0,0.8,0,1.2-0.1c0.4-0.1,0.8-0.2,1.2-0.4l0.1,2.5c-0.5,0.2-1,0.4-1.5,0.5c-0.6,0.1-1.1,0.1-1.6,0.1
				c-1,0-1.7-0.1-2.3-0.4c-0.6-0.3-1-0.6-1.3-1.1c-0.3-0.5-0.5-1-0.6-1.7c-0.1-0.7-0.2-1.5-0.2-2.3v-9h-3.5v-2.3h3.5v-4.7h2.6v4.7
				h4.7V598.8z"/>
			<path class="st4" d="M1471.3,590.1c0-0.5,0.2-1,0.6-1.4c0.4-0.4,0.8-0.6,1.4-0.6s1,0.2,1.4,0.6c0.4,0.4,0.6,0.9,0.6,1.4
				c0,0.6-0.2,1.1-0.5,1.4c-0.4,0.4-0.8,0.6-1.4,0.6c-0.6,0-1-0.2-1.4-0.6C1471.5,591.2,1471.3,590.7,1471.3,590.1z M1471.9,596.5
				h2.6v16.4h-2.6V596.5z"/>
			<path class="st4" d="M1478.8,603.2h8.3v2.5h-8.3V603.2z"/>
			<path class="st4" d="M1491.6,588.1h7.3c1,0,2,0.1,2.9,0.3c1,0.2,1.8,0.6,2.5,1c0.7,0.5,1.4,1.1,1.8,1.9c0.5,0.8,0.7,1.7,0.7,2.9
				c0,1.4-0.4,2.6-1.1,3.6c-0.8,0.9-1.8,1.6-3.1,2v0.1c0.8,0.1,1.5,0.3,2.2,0.6c0.7,0.3,1.2,0.8,1.7,1.3c0.5,0.5,0.9,1.2,1.1,1.9
				c0.3,0.7,0.4,1.5,0.4,2.3c0,1.4-0.3,2.5-0.8,3.4s-1.3,1.6-2.2,2.1c-0.9,0.5-1.9,0.9-3,1.1s-2.2,0.3-3.3,0.3h-7.2V588.1z
				 M1494.5,598.6h3.9c0.7,0,1.3,0,2-0.1c0.6-0.1,1.2-0.3,1.7-0.6c0.5-0.3,0.9-0.7,1.3-1.2c0.3-0.5,0.5-1.2,0.5-2.1
				c0-0.8-0.1-1.4-0.4-1.9c-0.3-0.5-0.7-0.9-1.2-1.1c-0.5-0.3-1-0.5-1.7-0.6c-0.6-0.1-1.3-0.2-1.9-0.2h-4.2V598.6z M1494.5,610.2
				h4.8c0.7,0,1.4-0.1,2.1-0.2c0.7-0.2,1.3-0.4,1.9-0.7s1-0.8,1.3-1.3c0.3-0.5,0.5-1.2,0.5-2c0-0.9-0.2-1.6-0.5-2.2s-0.8-1-1.3-1.4
				c-0.5-0.3-1.1-0.6-1.8-0.7c-0.7-0.1-1.4-0.2-2.1-0.2h-4.9V610.2z"/>
			<path class="st4" d="M1511.6,604.7c0-1.3,0.2-2.5,0.6-3.5s1-2,1.8-2.7c0.7-0.8,1.6-1.3,2.7-1.8c1-0.4,2.2-0.6,3.4-0.6
				c1.2,0,2.4,0.2,3.4,0.6c1,0.4,1.9,1,2.7,1.8c0.7,0.8,1.3,1.7,1.8,2.7c0.4,1,0.6,2.2,0.6,3.5c0,1.3-0.2,2.5-0.6,3.5
				c-0.4,1-1,2-1.8,2.7c-0.7,0.8-1.6,1.3-2.7,1.8c-1,0.4-2.2,0.6-3.4,0.6c-1.2,0-2.4-0.2-3.4-0.6c-1-0.4-1.9-1-2.7-1.8
				c-0.7-0.8-1.3-1.7-1.8-2.7S1511.6,606,1511.6,604.7z M1514.5,604.7c0,0.9,0.1,1.7,0.4,2.4c0.3,0.7,0.6,1.4,1.1,1.9
				c0.5,0.5,1.1,1,1.8,1.3c0.7,0.3,1.5,0.5,2.3,0.5s1.6-0.2,2.3-0.5c0.7-0.3,1.3-0.7,1.8-1.3c0.5-0.5,0.9-1.2,1.1-1.9
				c0.3-0.7,0.4-1.5,0.4-2.4c0-0.9-0.1-1.7-0.4-2.4c-0.3-0.7-0.6-1.4-1.1-1.9c-0.5-0.5-1.1-1-1.8-1.3c-0.7-0.3-1.5-0.5-2.3-0.5
				s-1.6,0.2-2.3,0.5c-0.7,0.3-1.3,0.7-1.8,1.3c-0.5,0.5-0.9,1.2-1.1,1.9C1514.6,603.1,1514.5,603.9,1514.5,604.7z"/>
			<path class="st4" d="M1541.4,598.8h-4.7v8.2c0,0.5,0,1,0,1.5c0,0.5,0.1,0.9,0.3,1.2c0.2,0.3,0.4,0.6,0.7,0.8
				c0.3,0.2,0.8,0.3,1.4,0.3c0.4,0,0.8,0,1.2-0.1c0.4-0.1,0.8-0.2,1.2-0.4l0.1,2.5c-0.5,0.2-1,0.4-1.5,0.5c-0.6,0.1-1.1,0.1-1.6,0.1
				c-1,0-1.7-0.1-2.3-0.4c-0.6-0.3-1-0.6-1.3-1.1c-0.3-0.5-0.5-1-0.6-1.7c-0.1-0.7-0.2-1.5-0.2-2.3v-9h-3.5v-2.3h3.5v-4.7h2.6v4.7
				h4.7V598.8z"/>
		</g>
	</g>
	<g>
		<g>
			<path class="st4" d="M1444.8,766.9h14.9v2.7h-12.1v8.2h11.2v2.7h-11.2v11.1h-2.9V766.9z"/>
			<path class="st4" d="M1463,777.4c0.8-0.9,1.8-1.5,2.9-1.9c1.1-0.4,2.3-0.6,3.4-0.6c2.4,0,4.1,0.6,5.1,1.7s1.6,2.9,1.6,5.2v7
				c0,0.5,0,1,0.1,1.5c0,0.5,0.1,1,0.2,1.4h-2.5c-0.1-0.4-0.1-0.8-0.2-1.2c0-0.5,0-0.9,0-1.2h-0.1c-0.5,0.8-1.2,1.5-2.1,2.1
				c-0.9,0.5-1.9,0.8-3.1,0.8c-0.8,0-1.6-0.1-2.3-0.3s-1.3-0.5-1.9-0.9c-0.5-0.4-1-0.9-1.3-1.5c-0.3-0.6-0.5-1.3-0.5-2.1
				c0-1.4,0.3-2.4,1-3.2c0.7-0.8,1.5-1.3,2.5-1.7c1-0.4,2.1-0.6,3.3-0.7c1.2-0.1,2.2-0.1,3.2-0.1h1V781c0-1.2-0.3-2.1-1-2.7
				s-1.7-0.9-2.9-0.9c-0.9,0-1.7,0.1-2.5,0.4c-0.8,0.3-1.6,0.7-2.2,1.3L1463,777.4z M1470.6,783.8c-1.7,0-3,0.2-4,0.7
				c-1,0.5-1.5,1.3-1.5,2.4c0,1,0.3,1.8,1,2.2c0.7,0.4,1.5,0.6,2.5,0.6c0.8,0,1.4-0.1,2-0.4c0.6-0.3,1.1-0.6,1.4-1.1
				c0.4-0.4,0.7-1,0.9-1.6c0.2-0.6,0.3-1.2,0.3-1.9v-1H1470.6z"/>
			<path class="st4" d="M1480.6,777.4c0.8-0.9,1.8-1.5,2.9-1.9c1.1-0.4,2.3-0.6,3.4-0.6c2.4,0,4.1,0.6,5.1,1.7s1.6,2.9,1.6,5.2v7
				c0,0.5,0,1,0.1,1.5c0,0.5,0.1,1,0.2,1.4h-2.5c-0.1-0.4-0.1-0.8-0.2-1.2c0-0.5,0-0.9,0-1.2h-0.1c-0.5,0.8-1.2,1.5-2.1,2.1
				c-0.9,0.5-1.9,0.8-3.1,0.8c-0.8,0-1.6-0.1-2.3-0.3s-1.3-0.5-1.9-0.9c-0.5-0.4-1-0.9-1.3-1.5c-0.3-0.6-0.5-1.3-0.5-2.1
				c0-1.4,0.3-2.4,1-3.2c0.7-0.8,1.5-1.3,2.5-1.7c1-0.4,2.1-0.6,3.3-0.7c1.2-0.1,2.2-0.1,3.2-0.1h1V781c0-1.2-0.3-2.1-1-2.7
				s-1.7-0.9-2.9-0.9c-0.9,0-1.7,0.1-2.5,0.4c-0.8,0.3-1.6,0.7-2.2,1.3L1480.6,777.4z M1488.3,783.8c-1.7,0-3,0.2-4,0.7
				c-1,0.5-1.5,1.3-1.5,2.4c0,1,0.3,1.8,1,2.2c0.7,0.4,1.5,0.6,2.5,0.6c0.8,0,1.4-0.1,2-0.4c0.6-0.3,1.1-0.6,1.4-1.1
				c0.4-0.4,0.7-1,0.9-1.6c0.2-0.6,0.3-1.2,0.3-1.9v-1H1488.3z"/>
			<path class="st4" d="M1510.3,771.2c-0.5-0.8-1.1-1.4-1.9-1.7c-0.8-0.4-1.6-0.5-2.5-0.5c-0.6,0-1.3,0.1-1.9,0.2
				c-0.6,0.2-1.2,0.4-1.6,0.7c-0.5,0.3-0.9,0.8-1.2,1.3c-0.3,0.5-0.4,1.2-0.4,1.9c0,0.6,0.1,1.1,0.3,1.5s0.4,0.8,0.8,1.2
				c0.4,0.4,0.9,0.7,1.6,1c0.7,0.3,1.5,0.6,2.4,0.9c0.9,0.3,1.8,0.6,2.7,1c0.9,0.4,1.6,0.8,2.3,1.3c0.7,0.5,1.2,1.2,1.6,2
				c0.4,0.8,0.6,1.8,0.6,3c0,1.2-0.2,2.3-0.7,3.2s-1.1,1.7-1.9,2.3c-0.8,0.6-1.7,1-2.7,1.3c-1,0.3-2.1,0.4-3.2,0.4
				c-0.7,0-1.4-0.1-2.1-0.2c-0.7-0.1-1.4-0.3-2-0.6c-0.6-0.3-1.3-0.6-1.8-1c-0.6-0.4-1.1-1-1.5-1.6l2.4-2.1c0.5,0.9,1.2,1.6,2.2,2.1
				c0.9,0.5,1.9,0.7,3,0.7c0.6,0,1.2-0.1,1.8-0.3s1.2-0.5,1.7-0.8c0.5-0.4,0.9-0.8,1.2-1.3c0.3-0.5,0.5-1.2,0.5-1.9
				c0-0.8-0.1-1.4-0.4-1.9s-0.6-0.9-1.2-1.2c-0.5-0.3-1.2-0.7-2-0.9c-0.8-0.3-1.7-0.6-2.8-1c-0.9-0.3-1.7-0.6-2.4-1
				c-0.7-0.4-1.4-0.8-1.9-1.3c-0.5-0.5-1-1.2-1.3-1.9c-0.3-0.7-0.5-1.6-0.5-2.6c0-1.2,0.2-2.2,0.7-3.1c0.5-0.9,1.1-1.6,1.8-2.2
				c0.8-0.6,1.6-1,2.6-1.3c1-0.3,2-0.5,3.1-0.5c1.4,0,2.6,0.2,3.7,0.6c1.1,0.4,2.1,1.2,3,2.3L1510.3,771.2z"/>
		</g>
	</g>
	<g>
	</g>
	<g>
	</g>
	<g>
	</g>
	<g>
	</g>
	<g>
	</g>
	<g>
	</g>
	<g>
	</g>
	<g>
	</g>
	<g>
	</g>
	<g>
	</g>
	<g>
	</g>
	<g>
	</g>
	<g>
	</g>
	<g>
	</g>
	<g>
	</g>
	<g>
	</g>
</g>
</svg>
